<?xml version="1.0" encoding="UTF-8" standalone="no"?>
<svg width="50px" height="48px" viewBox="0 0 50 48" version="1.1" xmlns="http://www.w3.org/2000/svg" xmlns:xlink="http://www.w3.org/1999/xlink">
    <!-- Generator: Sketch 39.1 (31720) - http://www.bohemiancoding.com/sketch -->
    <title>Shape</title>
    <desc>Created with Sketch.</desc>
    <defs></defs>
    <g id="Display" stroke="none" stroke-width="1" fill="none" fill-rule="evenodd">
        <g id="Tag-page-|-no-img" transform="translate(-149.000000, -102.000000)" fill="#CCD6DD">
            <g id="position-or-team" transform="translate(100.000000, 50.000000)">
                <g id="avatar" transform="translate(24.000000, 25.000000)">
                    <path d="M69.5454545,37 L62.2727273,37 L62.2727273,32 C62.2727273,29.2727273 60,27 57.2727273,27 L42.2727273,27 C39.5454545,27 37.2727273,29.2727273 37.2727273,32 L37.2727273,37 L30,37 C27.2727273,37 25,39.2727273 25,42 L25,69.7272727 C25,72.4545455 27.2727273,74.7272727 30,74.7272727 L70,74.7272727 C72.7272727,74.7272727 75,72.4545455 75,69.7272727 L75,42 C74.5454545,39.2727273 72.2727273,37.2272727 69.5454545,37 L69.5454545,37 Z M42.2727273,32 L57.2727273,32 L57.2727273,37 L42.2727273,37 L42.2727273,32 L42.2727273,32 Z M69.5454545,69.7272727 L29.5454545,69.7272727 L29.5454545,64.7272727 L69.5454545,64.7272727 L69.5454545,69.7272727 L69.5454545,69.7272727 Z M69.5454545,57 L29.5454545,57 L29.5454545,42 L36.8181818,42 L36.8181818,47 L41.8181818,47 L41.8181818,42 L56.8181818,42 L56.8181818,47 L61.8181818,47 L61.8181818,42 L69.0909091,42 L69.5454545,57 L69.5454545,57 L69.5454545,57 L69.5454545,57 Z" id="Shape"></path>
                </g>
            </g>
        </g>
    </g>
</svg>