<?xml version="1.0" encoding="utf-8"?>
<!-- Generator: Adobe Illustrator 19.2.1, SVG Export Plug-In . SVG Version: 6.00 Build 0)  -->
<svg version="1.1" id="Layer_1" xmlns="http://www.w3.org/2000/svg" xmlns:xlink="http://www.w3.org/1999/xlink" x="0px" y="0px"
	 width="116px" height="116px" viewBox="0 0 116 116" style="enable-background:new 0 0 116 116;" xml:space="preserve">
<style type="text/css">
	.st0{fill:#EDF0F1;}
	.st1{fill:#0092FF;}
	.st2{fill:#3A8BC4;}
	.st3{fill:#F07F21;}
	.st4{fill:#B6B6B6;}
	.st5{fill:#A1A1A1;}
	.st6{fill:#4D4D4E;}
	.st7{fill:#6F6F6F;}
	.st8{fill:#EE8031;}
	.st9{fill:#FFFFFF;stroke:#D7DEE2;stroke-miterlimit:10;}
	.st10{fill:#CCCED0;}
	.st11{fill:none;stroke:#D7DEE2;stroke-miterlimit:10;}
</style>
<title>ds-img</title>
<g>
	<path class="st0" d="M3.4,0h109.3c1.9,0,3.4,1.5,3.4,3.4v109.3c0,1.9-1.5,3.4-3.4,3.4H3.4c-1.9,0-3.4-1.5-3.4-3.4V3.4
		C0,1.5,1.5,0,3.4,0z"/>
	<rect x="31" y="97" class="st1" width="23.5" height="5"/>
	<circle class="st2" cx="31" cy="99.5" r="2.5"/>
	<circle class="st2" cx="54.5" cy="99.5" r="2.5"/>
	<rect x="66.3" y="97" class="st1" width="23.5" height="5"/>
	<circle class="st2" cx="66.3" cy="99.5" r="2.5"/>
	<circle class="st2" cx="89.8" cy="99.5" r="2.5"/>
	<circle class="st2" cx="101.6" cy="99.5" r="2.5"/>
	<rect x="11.4" y="97" class="st1" width="8.4" height="5"/>
	<circle class="st2" cx="11.4" cy="99.5" r="2.5"/>
	<circle class="st2" cx="19.8" cy="99.5" r="2.5"/>
	<circle class="st3" cx="22.3" cy="86.1" r="1.7"/>
	<rect x="12.3" y="84.4" class="st4" width="50.4" height="3.4"/>
	<rect x="86.2" y="84.4" class="st4" width="10.1" height="3.4"/>
	<circle class="st5" cx="96.3" cy="86.1" r="1.7"/>
	<circle class="st5" cx="86.2" cy="86.1" r="1.7"/>
	<circle class="st5" cx="12.3" cy="86.1" r="1.7"/>
	<circle class="st5" cx="62.7" cy="86.1" r="1.7"/>
	<rect x="50.9" y="71.8" class="st6" width="20.2" height="3.4"/>
	<circle class="st7" cx="71.1" cy="73.5" r="1.7"/>
	<circle class="st7" cx="50.9" cy="73.5" r="1.7"/>
	<circle class="st8" cx="74.5" cy="86.9" r="1.7"/>
	<path class="st9" d="M47.5,18.1h27c3.6,0,6.6,2.9,6.6,6.6v27c0,3.6-2.9,6.6-6.6,6.6h-27c-3.6,0-6.6-2.9-6.6-6.6v-27
		C40.9,21.1,43.9,18.1,47.5,18.1z"/>
	<path class="st10" d="M61,40.9c2.4,0,4.8,0.5,7,1.5c2.4,1,3.7,2.3,3.7,3.9v2.7H50.3v-2.7c0-1.6,1.2-2.9,3.7-3.9
		C56.2,41.4,58.6,40.9,61,40.9L61,40.9L61,40.9z M61,38.2c-2.9,0-5.3-2.4-5.3-5.3c0-1.4,0.5-2.8,1.5-3.8c2-2.1,5.3-2.1,7.4-0.1
		c0,0,0.1,0.1,0.1,0.1c1,1,1.6,2.4,1.6,3.8C66.3,35.8,63.9,38.2,61,38.2L61,38.2z"/>
	<path class="st11" d="M61,73.9"/>
</g>
</svg>
