<?xml version="1.0" encoding="UTF-8" standalone="no"?>
<svg width="1050px" height="262px" viewBox="0 0 1050 262" version="1.1" xmlns="http://www.w3.org/2000/svg" xmlns:xlink="http://www.w3.org/1999/xlink">
    <!-- Generator: Sketch 3.8.3 (29802) - http://www.bohemiancoding.com/sketch -->
    <title>bg pattern</title>
    <desc>Created with Sketch.</desc>
    <defs></defs>
    <g id="Home-redesign" stroke="none" stroke-width="1" fill="none" fill-rule="evenodd" opacity="0.6">
        <g id="CV-to-DS" transform="translate(-48.000000, -132.000000)" fill="#BEDEF4">
            <g id="bg-pattern" transform="translate(48.000000, 132.000000)">
                <path d="M692.550108,156.11382 L713.751826,156.11382 C713.597444,150.486418 711.336539,145.218426 707.347233,141.225726 C703.380302,137.255418 698.144757,134.993709 692.550108,134.819042 L692.550108,156.11382 Z M714.8806,157.233478 L691.431402,157.233478 L691.431402,133.687068 L691.994111,133.690426 C698.095534,133.726256 703.828903,136.122324 708.138159,140.434127 C712.470907,144.768324 714.86382,150.536803 714.879482,156.672529 L714.8806,157.233478 Z" id="Fill-1"></path>
                <path d="M739.281146,177.9373 L759.479385,177.9373 C759.325003,172.578616 757.167019,167.563668 753.369012,163.762428 C749.59226,159.982462 744.609543,157.824881 739.281146,157.653574 L739.281146,177.9373 Z M760.60704,179.056958 L738.16244,179.056958 L738.16244,156.51936 L738.725149,156.522719 C744.56032,156.557428 750.040861,158.847129 754.159937,162.97083 C758.301387,167.114685 760.591379,172.629001 760.605922,178.496009 L760.60704,179.056958 Z" id="Fill-3"></path>
                <path d="M797.849437,133.859607 L818.047676,133.859607 C817.893294,128.502043 815.736429,123.485974 811.938422,119.684735 C808.160551,115.90365 803.175597,113.746068 797.849437,113.57588 L797.849437,133.859607 Z M819.175332,134.979265 L796.730731,134.979265 L796.730731,112.441667 L797.293441,112.445026 C803.127493,112.478615 808.608034,114.768316 812.729347,118.893137 C816.870797,123.038111 819.15967,128.551308 819.174213,134.418316 L819.175332,134.979265 Z" id="Fill-5"></path>
                <path d="M564.4134,22.9160427 L584.611639,22.9160427 C584.458376,17.5584786 582.301511,12.5435299 578.502385,8.74005128 C574.725633,4.96008547 569.740679,2.80362393 564.4134,2.63119658 L564.4134,22.9160427 Z M585.739295,24.0357009 L563.294694,24.0357009 L563.294694,1.49810256 L563.857404,1.50146154 C569.692574,1.53617094 575.173116,3.82587179 579.29331,7.94845299 C583.435879,12.0956667 585.724751,17.6088632 585.738176,23.4747521 L585.739295,24.0357009 Z" id="Fill-7"></path>
                <path d="M670.168267,178.474176 L691.443819,178.474176 L691.443819,157.254415 C685.821203,157.408928 680.558809,159.671757 676.568385,163.664458 C672.602572,167.634766 670.341667,172.874766 670.168267,178.474176 L670.168267,178.474176 Z M692.562526,179.593834 L669.036136,179.593834 L669.039493,179.030646 C669.075291,172.924031 671.468204,167.185783 675.777459,162.87286 C680.110208,158.536424 685.872663,156.141475 692.002054,156.1258 L692.562526,156.12468 L692.562526,179.593834 Z" id="Fill-9"></path>
                <path d="M670.204401,179.594954 C670.358783,185.222356 672.619688,190.489227 676.610112,194.481928 C680.575925,198.452236 685.810351,200.713945 691.406119,200.888612 L691.406119,179.593834 L670.204401,179.594954 Z M692.524825,202.020586 L691.962116,202.017227 C685.859574,201.981398 680.126206,199.58533 675.819187,195.273526 C671.486438,190.93933 669.092407,185.171971 669.076746,179.036244 L669.075627,178.475296 L692.524825,178.474176 L692.524825,202.020586 Z" id="Fill-11"></path>
                <path d="M337.618674,178.534302 L358.894226,178.534302 L358.894226,157.313421 C353.27161,157.469054 348.008098,159.731883 344.018792,163.723464 C340.052979,167.693772 337.792073,172.934891 337.618674,178.534302 L337.618674,178.534302 Z M360.012933,179.65396 L336.486543,179.65396 L336.4899,179.090772 C336.525698,172.984156 338.918611,167.245909 343.227866,162.931866 C347.559496,158.597669 353.320833,156.201601 359.452461,156.184806 L360.012933,156.183686 L360.012933,179.65396 Z" id="Fill-13"></path>
                <path d="M360.021211,179.65396 C360.175592,185.279122 362.436497,190.547114 366.426922,194.542054 C370.392735,198.511242 375.62828,200.772951 381.222929,200.947618 L381.222929,179.65396 L360.021211,179.65396 Z M382.341635,202.079592 L381.778926,202.076233 C375.677503,202.040404 369.944134,199.645456 365.635997,195.333652 C361.303248,190.997216 358.909217,185.228738 358.893555,179.09525 L358.892437,178.534302 L382.341635,178.534302 L382.341635,202.079592 Z" id="Fill-15"></path>
                <path d="M665.661783,100.729035 L686.937336,100.729035 L686.937336,79.5092744 C681.314719,79.6637872 676.051207,81.9266162 672.061901,85.9193171 C668.096088,89.8896248 665.835183,95.1296248 665.661783,100.729035 L665.661783,100.729035 Z M688.056042,101.848693 L664.529653,101.848693 L664.533009,101.285505 C664.568807,95.1788897 666.96172,89.4406419 671.270976,85.1277188 C675.602606,80.7912829 681.365061,78.3963342 687.49557,78.380659 L688.056042,78.3795393 L688.056042,101.848693 Z" id="Fill-17"></path>
                <path d="M688.06432,101.848693 C688.21982,107.474975 690.480725,112.742967 694.470031,116.736787 C698.435844,120.705975 703.671389,122.967685 709.267157,123.142351 L709.267157,101.848693 L688.06432,101.848693 Z M710.385863,124.274326 L709.823154,124.270967 C703.720612,124.235138 697.987243,121.840189 693.679106,117.528385 C689.347476,113.193069 686.953445,107.42571 686.936665,101.289984 L686.935546,100.729035 L710.385863,100.729035 L710.385863,124.274326 Z" id="Fill-19"></path>
                <path d="M658.792257,21.415365 L679.059855,21.415365 L679.058736,1.19993761 C673.706846,1.35445043 668.696162,3.51315128 664.895917,7.3143906 C661.119165,11.0954761 658.963419,16.083553 658.792257,21.415365 L658.792257,21.415365 Z M680.178561,22.5350231 L657.659007,22.5350231 L657.662364,21.971835 C657.697043,16.1328179 659.984797,10.6453735 664.104992,6.52279231 C668.247561,2.37781795 673.756069,0.0869974359 679.616971,0.0724418803 L680.177442,0.0702025641 L680.178561,22.5350231 Z" id="Fill-21"></path>
                <path d="M635.933064,44.2661316 L657.209735,44.2661316 L657.209735,23.0452513 C651.586,23.2008838 646.322487,25.4648325 642.3343,29.4564137 C638.367368,33.4267214 636.106463,38.667841 635.933064,44.2661316 L635.933064,44.2661316 Z M658.328441,45.3857897 L634.800933,45.3857897 L634.804289,44.8226017 C634.840088,38.7159863 637.234119,32.9777385 641.543375,28.6648154 C645.875005,24.3294991 651.636341,21.9334308 657.767969,21.9177556 L658.328441,21.9166359 L658.328441,45.3857897 Z" id="Fill-23"></path>
                <path d="M739.604564,66.6145077 L760.881235,66.6145077 L760.881235,45.3936274 C755.2575,45.5492598 749.993988,47.8132085 746.0058,51.8047897 C742.038869,55.7750974 739.777964,61.0162171 739.604564,66.6145077 L739.604564,66.6145077 Z M761.999941,67.7341658 L738.472434,67.7341658 L738.47579,67.1709778 C738.511588,61.0643624 740.905619,55.3261145 745.214875,51.0131915 C749.546505,46.6778752 755.307842,44.2818068 761.43947,44.2661316 L761.999941,44.265012 L761.999941,67.7341658 Z" id="Fill-25"></path>
                <path d="M337.872173,67.7718983 C338.026554,73.3981803 340.287459,78.6661718 344.277884,82.6599923 C348.243697,86.6291803 353.479242,88.8920094 359.073891,89.0655564 L359.075009,67.7718983 L337.872173,67.7718983 Z M360.192597,90.1986504 L359.629888,90.1952915 C353.528465,90.1594624 347.795096,87.7645137 343.486959,83.4515906 C339.15421,79.1151547 336.760179,73.3477957 336.744517,67.2131889 L336.743398,66.6522402 L360.193715,66.6522402 L360.192597,90.1986504 Z" id="Fill-27"></path>
                <path d="M283.986897,67.7718983 C284.141279,73.3993 286.403302,78.6672915 290.392608,82.6599923 C294.358421,86.6291803 299.595085,88.8920094 305.189734,89.0655564 L305.189734,67.7718983 L283.986897,67.7718983 Z M306.30844,90.1986504 L305.745731,90.1952915 C299.644308,90.1594624 293.90982,87.7645137 289.601683,83.4515906 C285.268934,79.1151547 282.874903,73.3489154 282.86036,67.2131889 L282.858123,66.6522402 L306.30844,66.6522402 L306.30844,90.1986504 Z" id="Fill-29"></path>
                <path d="M692.512967,157.233478 L692.512967,178.453238 C698.134465,178.298726 703.397977,176.035897 707.388402,172.043196 C711.354215,168.072888 713.614001,162.832888 713.788519,157.233478 L692.512967,157.233478 Z M691.394261,179.582974 L691.394261,156.11382 L714.919531,156.11382 L714.916175,156.677008 C714.880376,162.783623 712.487464,168.521871 708.179327,172.834794 C703.847697,177.17123 698.084123,179.566179 691.954733,179.581854 L691.394261,179.582974 Z" id="Fill-31"></path>
                <path d="M739.604564,100.729035 L760.881235,100.729035 L760.881235,79.5092744 C755.2575,79.6637872 749.993988,81.9266162 746.0058,85.9193171 C742.038869,89.8896248 739.777964,95.1296248 739.604564,100.729035 L739.604564,100.729035 Z M761.999941,101.848693 L738.472434,101.848693 L738.47579,101.285505 C738.511588,95.1788897 740.905619,89.4406419 745.214875,85.1277188 C749.545386,80.7912829 755.307842,78.3963342 761.43947,78.380659 L761.999941,78.3795393 L761.999941,101.848693 Z" id="Fill-33"></path>
                <path d="M739.640587,101.848693 C739.796087,107.474975 742.056992,112.742967 746.046298,116.736787 C750.012111,120.705975 755.247655,122.967685 760.843423,123.142351 L760.843423,101.848693 L739.640587,101.848693 Z M761.962129,124.274326 L761.39942,124.270967 C755.296878,124.235138 749.56351,121.840189 745.255372,117.528385 C740.923742,113.193069 738.529711,107.42571 738.512931,101.289984 L738.511812,100.729035 L761.962129,100.729035 L761.962129,124.274326 Z" id="Fill-35"></path>
                <path d="M761.949152,79.4872171 L761.949152,100.708097 C767.571769,100.552465 772.835281,98.2896359 776.824587,94.2980547 C780.791519,90.3266274 783.051305,85.0855077 783.225823,79.4872171 L761.949152,79.4872171 Z M760.830446,101.837832 L760.830446,78.367559 L784.356835,78.367559 L784.353479,78.930747 C784.31768,85.0362427 781.923649,90.7756103 777.615512,95.089653 C773.285001,99.4238496 767.522546,101.819918 761.390918,101.836713 L760.830446,101.837832 Z" id="Fill-37"></path>
                <path d="M413.943068,178.534302 L435.219739,178.534302 L435.219739,157.313421 C429.596004,157.469054 424.332492,159.731883 420.344305,163.723464 C416.377373,167.694891 414.116468,172.936011 413.943068,178.534302 L413.943068,178.534302 Z M436.338446,179.65396 L412.810938,179.65396 L412.814294,179.090772 C412.850092,172.985276 415.244123,167.245909 419.553379,162.931866 C423.883891,158.597669 429.645227,156.201601 435.777974,156.184806 L436.338446,156.183686 L436.338446,179.65396 Z" id="Fill-39"></path>
                <path d="M5.06908104,178.534302 L26.3446335,178.534302 L26.3446335,157.313421 C20.720898,157.469054 15.4573858,159.731883 11.4691986,163.723464 C7.50226679,167.694891 5.24248048,172.934891 5.06908104,178.534302 L5.06908104,178.534302 Z M27.4633396,179.65396 L3.93695047,179.65396 L3.94030659,179.090772 C3.97610519,172.984156 6.36901752,167.245909 10.6782734,162.931866 C15.0099034,158.597669 20.7712397,156.201601 26.9017491,156.184806 L27.4633396,156.183686 L27.4633396,179.65396 Z" id="Fill-41"></path>
                <path d="M477.585922,156.543544 L498.861475,156.543544 L498.861475,135.322664 C493.238858,135.478297 487.975346,137.741126 483.98604,141.732707 C480.020227,145.703015 477.759322,150.944134 477.585922,156.543544 L477.585922,156.543544 Z M499.980181,157.663203 L476.453792,157.663203 L476.457148,157.100015 C476.492946,150.993399 478.885859,145.255151 483.195115,140.941109 C487.526745,136.606912 493.288081,134.210844 499.419709,134.194049 L499.980181,134.192929 L499.980181,157.663203 Z" id="Fill-43"></path>
                <path d="M486.648113,66.6145077 L507.923665,66.6145077 L507.923665,45.3936274 C502.301048,45.5492598 497.037536,47.8132085 493.04823,51.8047897 C489.082417,55.7750974 486.821512,61.0150974 486.648113,66.6145077 L486.648113,66.6145077 Z M509.042371,67.7341658 L485.515982,67.7341658 L485.519338,67.1709778 C485.555137,61.0632427 487.948049,55.3249949 492.257305,51.0131915 C496.590054,46.6778752 502.35139,44.2818068 508.4819,44.2661316 L509.042371,44.265012 L509.042371,67.7341658 Z" id="Fill-45"></path>
                <path d="M508.992701,45.3857897 L508.992701,66.6066701 C514.614199,66.4510376 519.877711,64.1870889 523.868136,60.1955077 C527.833949,56.2252 530.093735,50.9852 530.268253,45.3857897 L508.992701,45.3857897 Z M507.873995,67.7364051 L507.873995,44.2661316 L531.399265,44.2661316 L531.395909,44.8293197 C531.36011,50.9370547 528.967198,56.6753026 524.659061,60.987106 C520.327431,65.3224222 514.563857,67.7184906 508.434466,67.7341658 L507.873995,67.7364051 Z" id="Fill-47"></path>
                <path d="M612.888166,238.406564 L634.164837,238.407684 L634.164837,217.186803 C628.54222,217.341316 623.278708,219.604145 619.289402,223.596846 C615.32247,227.567154 613.061565,232.807154 612.888166,238.406564 L612.888166,238.406564 Z M635.283543,239.527342 L611.756035,239.526222 L611.759391,238.963034 C611.79519,232.856419 614.189221,227.118171 618.498477,222.805248 C622.830107,218.468812 628.592562,216.073863 634.723071,216.058188 L635.283543,216.057068 L635.283543,239.527342 Z" id="Fill-49"></path>
                <path d="M337.836151,238.363905 L359.112822,238.363905 L359.112822,217.144144 C353.489086,217.298657 348.225574,219.561486 344.237387,223.554187 C340.270455,227.524495 338.00955,232.764495 337.836151,238.363905 L337.836151,238.363905 Z M360.231528,239.483563 L336.70402,239.483563 L336.707376,238.920375 C336.743175,232.81376 339.137206,227.075512 343.446462,222.762589 C347.776973,218.426153 353.539428,216.031204 359.671056,216.015529 L360.231528,216.014409 L360.231528,239.483563 Z" id="Fill-51"></path>
                <path d="M315.214012,260.793121 L336.490683,260.793121 L336.489564,239.57336 C330.866947,239.727873 325.603435,241.990702 321.615248,245.982283 C317.648316,249.952591 315.387411,255.19371 315.214012,260.793121 L315.214012,260.793121 Z M337.609389,261.912779 L314.081881,261.912779 L314.085237,261.349591 C314.121036,255.242975 316.515067,249.503608 320.824323,245.190685 C325.155953,240.855368 330.917289,238.46042 337.047798,238.444744 L337.60827,238.443625 L337.609389,261.912779 Z" id="Fill-53"></path>
                <path d="M635.232754,217.165866 L635.232754,238.385626 C640.855371,238.231114 646.118883,235.968285 650.108189,231.975584 C654.075121,228.005276 656.334907,222.765276 656.509425,217.165866 L635.232754,217.165866 Z M634.114048,239.515362 L634.114048,216.046208 L657.640437,216.046208 L657.637081,216.609396 C657.601282,222.716011 655.207251,228.454259 650.899114,232.767182 C646.568603,237.103618 640.805029,239.498567 634.67452,239.514242 L634.114048,239.515362 Z" id="Fill-55"></path>
                <path d="M550.061408,178.490635 L571.336961,178.490635 L571.336961,157.270874 C565.714344,157.425387 560.450832,159.688216 556.461526,163.680917 C552.495713,167.651225 550.234808,172.891225 550.061408,178.490635 L550.061408,178.490635 Z M572.455667,179.610293 L548.929278,179.610293 L548.932634,179.047105 C548.968432,172.94049 551.361345,167.202242 555.6706,162.889319 C560.00223,158.552883 565.764686,156.157934 571.895195,156.142259 L572.455667,156.141139 L572.455667,179.610293 Z" id="Fill-57"></path>
                <path d="M572.455219,200.931831 L593.999261,200.908318 C599.756123,200.840019 605.162829,198.563754 609.223732,194.500515 C613.190664,190.530207 615.451569,185.289087 615.624969,179.690797 L572.455219,179.703113 L572.455219,200.931831 Z M594.005973,202.051489 L571.336513,202.051489 L571.336513,178.583455 L616.757099,178.571138 L616.753743,179.134326 C616.716826,185.240942 614.323913,190.97919 610.014657,195.292113 C605.877682,199.432609 600.408328,201.808523 594.565326,202.01566 L594.565326,202.027976 L594.005973,202.051489 Z" id="Fill-59"></path>
                <path d="M360.193827,111.423785 L381.737869,111.400273 C387.494731,111.331974 392.901437,109.055709 396.96234,104.992469 C400.928154,101.023281 403.189059,95.7821615 403.362458,90.1827513 L360.193827,90.1950675 L360.193827,111.423785 Z M381.744581,112.543444 L359.075121,112.543444 L359.075121,89.0754094 L404.494589,89.0630932 L404.491232,89.6262812 C404.454315,95.7328966 402.062521,101.471144 397.753266,105.784068 C393.616291,109.924563 388.146936,112.300478 382.303935,112.507615 L382.303935,112.519931 L381.744581,112.543444 Z" id="Fill-61"></path>
                <path d="M692.730331,223.271474 L714.275492,223.247961 C720.032354,223.178542 725.43906,220.902277 729.499963,216.839038 C733.465776,212.86873 735.726681,207.62873 735.900081,202.02932 L692.730331,202.041636 L692.730331,223.271474 Z M714.282204,224.391132 L691.611625,224.391132 L691.611625,200.921978 L737.032211,200.909662 L737.028855,201.47285 C736.991938,207.579465 734.600144,213.317713 730.290888,217.630636 C726.152795,221.771132 720.684559,224.145926 714.841557,224.355303 L714.841557,224.367619 L714.282204,224.391132 Z" id="Fill-63"></path>
                <path d="M360.230968,260.798607 L381.77501,260.775094 C387.531872,260.706795 392.938578,258.43053 396.999481,254.367291 C400.965295,250.398103 403.2262,245.156983 403.399599,239.557573 L360.230968,239.569889 L360.230968,260.798607 Z M381.781723,261.918265 L359.112262,261.918265 L359.112262,238.450231 L404.53173,238.437915 L404.528373,239.001103 C404.491456,245.107718 402.099663,250.845966 397.790407,255.158889 C393.653432,259.299385 388.184077,261.675299 382.341076,261.882436 L382.341076,261.894752 L381.781723,261.918265 Z" id="Fill-65"></path>
                <path d="M755.123367,223.258374 L798.291998,223.271809 C798.118598,217.672399 795.857693,212.431279 791.89188,208.460972 C787.833214,204.398852 782.425389,202.122587 776.667409,202.053168 L776.114768,202.029656 L755.123367,202.029656 L755.123367,223.258374 Z M799.425247,224.391468 L754.004661,224.378032 L754.004661,200.909997 L777.233474,200.945826 C783.077595,201.155203 788.546949,203.529997 792.682805,207.669374 C796.990942,211.982297 799.383855,217.720544 799.421891,223.828279 L799.425247,224.391468 Z" id="Fill-67"></path>
                <path d="M800.21248,223.271474 L850.614665,223.271474 C856.205958,223.271474 860.753498,218.720063 860.753498,213.124012 C860.753498,207.526841 856.205958,202.975431 850.614665,202.975431 L820.490147,202.975431 L800.21248,223.271474 Z M850.614665,224.391132 L797.511924,224.391132 L820.027003,201.855773 L850.614665,201.855773 C856.822365,201.855773 861.872204,206.911029 861.872204,213.124012 C861.872204,219.335875 856.822365,224.391132 850.614665,224.391132 L850.614665,224.391132 Z" id="Fill-69"></path>
                <path d="M253.54366,238.394472 L303.945844,238.394472 C309.537138,238.394472 314.085796,233.843062 314.085796,228.24701 C314.085796,222.650959 309.537138,218.099549 303.945844,218.099549 L273.821327,218.099549 L253.54366,238.394472 Z M303.945844,239.51413 L250.843104,239.51413 L273.358183,216.979891 L303.945844,216.979891 C310.153545,216.979891 315.204503,222.035147 315.204503,228.24701 C315.204503,234.459993 310.153545,239.51413 303.945844,239.51413 L303.945844,239.51413 Z" id="Fill-71"></path>
                <path d="M479.847387,178.490635 L530.249571,178.490635 C535.840864,178.490635 540.388404,173.939225 540.388404,168.343174 C540.388404,162.747122 535.840864,158.195712 530.249571,158.195712 L500.125053,158.195712 L479.847387,178.490635 Z M530.249571,179.610293 L477.14683,179.610293 L499.661909,157.076054 L530.249571,157.076054 C536.457271,157.076054 541.50711,162.130191 541.50711,168.343174 C541.50711,174.555037 536.457271,179.610293 530.249571,179.610293 L530.249571,179.610293 Z" id="Fill-73"></path>
                <path d="M530.346451,238.394472 L580.748635,238.394472 C586.339928,238.394472 590.887468,233.843062 590.887468,228.24701 C590.887468,222.650959 586.339928,218.099549 580.748635,218.099549 L550.624117,218.099549 L530.346451,238.394472 Z M580.748635,239.51413 L527.645894,239.51413 L550.160973,216.979891 L580.748635,216.979891 C586.956335,216.979891 592.006174,222.035147 592.006174,228.24701 C592.006174,234.459993 586.956335,239.51413 580.748635,239.51413 L580.748635,239.51413 Z" id="Fill-75"></path>
                <path d="M360.803522,155.60975 L411.206825,155.60975 C416.798118,155.60975 421.345658,151.058339 421.345658,145.462288 C421.345658,139.865117 416.798118,135.313707 411.206825,135.313707 L381.082307,135.313707 L360.803522,155.60975 Z M411.206825,156.729408 L358.102966,156.729408 L380.619163,134.194049 L411.206825,134.194049 C417.414525,134.194049 422.464364,139.249305 422.464364,145.462288 C422.464364,151.674151 417.414525,156.729408 411.206825,156.729408 L411.206825,156.729408 Z" id="Fill-77"></path>
                <path d="M541.517067,66.6145077 L562.793738,66.6145077 L562.792619,45.3936274 C557.170002,45.5492598 551.90649,47.8132085 547.917184,51.8047897 C543.951371,55.7750974 541.690466,61.0150974 541.517067,66.6145077 L541.517067,66.6145077 Z M563.912444,67.7341658 L540.384936,67.7341658 L540.388292,67.1709778 C540.424091,61.0632427 542.817003,55.3249949 547.126259,51.0131915 C551.459008,46.6778752 557.220344,44.2818068 563.350853,44.2661316 L563.911325,44.265012 L563.912444,67.7341658 Z" id="Fill-79"></path>
                <path d="M563.920722,67.7346137 C564.075104,73.3620154 566.336009,78.6300068 570.325315,82.621588 C574.292246,86.5918957 579.52891,88.8547248 585.12244,89.0282718 L585.12244,67.7346137 L563.920722,67.7346137 Z M586.241146,90.1613658 L585.678437,90.1580068 C579.578133,90.1221778 573.843645,87.7261094 569.534389,83.4131863 C565.202759,79.0778701 562.808728,73.3116308 562.793067,67.1759043 L562.791948,66.6149556 L586.241146,66.6149556 L586.241146,90.1613658 Z" id="Fill-81"></path>
                <path d="M403.788461,89.0382368 L425.065132,89.0382368 L425.064014,67.8173564 C419.440278,67.9729889 414.177885,70.2369376 410.189698,74.2285188 C406.222766,78.1977068 403.961861,83.4377068 403.788461,89.0382368 L403.788461,89.0382368 Z M426.183838,90.1578949 L402.656331,90.1578949 L402.659687,89.5947068 C402.695485,83.4869718 405.089516,77.7487239 409.398772,73.4369205 C413.729284,69.1016043 419.49062,66.7055359 425.622248,66.6898607 L426.18272,66.6876214 L426.183838,90.1578949 Z" id="Fill-83"></path>
                <path d="M564.702922,44.2661316 L615.105106,44.2661316 C620.696399,44.2661316 625.243939,39.7147214 625.243939,34.1186701 C625.243939,28.5226188 620.696399,23.9712085 615.105106,23.9712085 L584.980588,23.9712085 L564.702922,44.2661316 Z M615.105106,45.3857897 L562.002365,45.3857897 L584.517444,22.8515504 L615.105106,22.8515504 C621.312806,22.8515504 626.362645,27.9056872 626.362645,34.1186701 C626.362645,40.331653 621.312806,45.3857897 615.105106,45.3857897 L615.105106,45.3857897 Z" id="Fill-85"></path>
                <path d="M800.779441,100.729035 L851.182743,100.729035 C856.774037,100.729035 861.321577,96.1776248 861.321577,90.5815735 C861.321577,84.9844026 856.774037,80.4329923 851.182743,80.4329923 L821.058226,80.4329923 L800.779441,100.729035 Z M851.182743,101.848693 L798.078884,101.848693 L820.595082,79.3133342 L851.182743,79.3133342 C857.390444,79.3133342 862.440283,84.3685906 862.440283,90.5815735 C862.440283,96.7934368 857.390444,101.848693 851.182743,101.848693 L851.182743,101.848693 Z" id="Fill-87"></path>
                <path d="M58.9112865,89.0754094 L109.314589,89.0754094 C114.904764,89.0754094 119.453423,84.5239991 119.453423,78.9279479 C119.453423,73.3318966 114.904764,68.7804863 109.314589,68.7804863 L79.1889531,68.7804863 L58.9112865,89.0754094 Z M109.314589,90.1950675 L56.21073,90.1950675 L78.7258088,67.6608282 L109.314589,67.6608282 C115.522289,67.6608282 120.572129,72.714965 120.572129,78.9279479 C120.572129,85.1398111 115.522289,90.1950675 109.314589,90.1950675 L109.314589,90.1950675 Z" id="Fill-89"></path>
                <path d="M191.177474,90.1578949 C185.586181,90.1578949 181.03864,94.7093051 181.03864,100.305356 C181.03864,105.901408 185.586181,110.452818 191.177474,110.452818 L191.346398,110.452818 L211.625184,90.1578949 L191.177474,90.1578949 Z M191.809543,111.572476 L191.177474,111.572476 C184.969774,111.572476 179.919934,106.518339 179.919934,100.305356 C179.919934,94.0934932 184.969774,89.0382368 191.177474,89.0382368 L214.32574,89.0382368 L191.809543,111.572476 Z" id="Fill-91"></path>
                <path d="M909.64129,100.729035 L960.044593,100.729035 C965.634767,100.729035 970.182307,96.1776248 970.182307,90.5815735 C970.182307,84.9844026 965.634767,80.4329923 960.044593,80.4329923 L929.920075,80.4329923 L909.64129,100.729035 Z M960.044593,101.848693 L906.940733,101.848693 L929.456931,79.3133342 L960.044593,79.3133342 C966.252293,79.3133342 971.301013,84.3685906 971.301013,90.5815735 C971.301013,96.7934368 966.252293,101.848693 960.044593,101.848693 L960.044593,101.848693 Z" id="Fill-93"></path>
                <path d="M419.206692,44.3311838 L469.609995,44.3311838 C475.201288,44.3311838 479.748829,39.7786538 479.748829,34.1837222 C479.748829,28.5876709 475.201288,24.0362607 469.609995,24.0362607 L439.485478,24.0362607 L419.206692,44.3311838 Z M469.609995,45.4508419 L416.506136,45.4508419 L439.022333,22.9166026 L469.609995,22.9166026 C475.817695,22.9166026 480.867535,27.9707393 480.867535,34.1837222 C480.867535,40.3955855 475.817695,45.4508419 469.609995,45.4508419 L469.609995,45.4508419 Z" id="Fill-95"></path>
                <path d="M875.118803,156.651815 L925.522106,156.651815 C931.11228,156.651815 935.65982,152.100405 935.65982,146.504354 C935.65982,140.908303 931.11228,136.356892 925.522106,136.356892 L895.396469,136.356892 L875.118803,156.651815 Z M925.522106,157.771474 L872.418246,157.771474 L894.933325,135.237234 L925.522106,135.237234 C931.729806,135.237234 936.778526,140.292491 936.778526,146.504354 C936.778526,152.717337 931.729806,157.771474 925.522106,157.771474 L925.522106,157.771474 Z" id="Fill-97"></path>
                <path d="M671.333959,66.6149556 L721.736143,66.6149556 C727.327436,66.6149556 731.874976,62.0624256 731.874976,56.467494 C731.874976,50.8714427 727.327436,46.3200325 721.736143,46.3200325 L691.611625,46.3200325 L671.333959,66.6149556 Z M721.736143,67.7346137 L668.633402,67.7346137 L691.148481,45.2003744 L721.736143,45.2003744 C727.943843,45.2003744 732.993682,50.2545111 732.993682,56.467494 C732.993682,62.6793573 727.943843,67.7346137 721.736143,67.7346137 L721.736143,67.7346137 Z" id="Fill-99"></path>
                <path d="M740.072183,156.651815 L790.474368,156.651815 C796.065661,156.651815 800.613201,152.100405 800.613201,146.504354 C800.613201,140.908303 796.065661,136.356892 790.474368,136.356892 L760.34985,136.356892 L740.072183,156.651815 Z M790.474368,157.771474 L737.371627,157.771474 L759.886706,135.237234 L790.474368,135.237234 C796.682068,135.237234 801.731907,140.292491 801.731907,146.504354 C801.731907,152.717337 796.682068,157.771474 790.474368,157.771474 L790.474368,157.771474 Z" id="Fill-101"></path>
                <path d="M213.277401,89.0754094 L263.679585,89.0754094 C269.270878,89.0754094 273.819537,84.5239991 273.819537,78.9279479 C273.819537,73.3318966 269.270878,68.7804863 263.679585,68.7804863 L233.555067,68.7804863 L213.277401,89.0754094 Z M263.679585,90.1950675 L210.576844,90.1950675 L233.091923,67.6608282 L263.679585,67.6608282 C269.887285,67.6608282 274.938243,72.714965 274.938243,78.9279479 C274.938243,85.1398111 269.887285,90.1950675 263.679585,90.1950675 L263.679585,90.1950675 Z" id="Fill-103"></path>
                <path d="M124.595891,155.60975 L174.999194,155.60975 C180.589368,155.60975 185.138027,151.058339 185.138027,145.462288 C185.138027,139.865117 180.589368,135.313707 174.999194,135.313707 L144.873557,135.313707 L124.595891,155.60975 Z M174.999194,156.729408 L121.895334,156.729408 L144.410413,134.194049 L174.999194,134.194049 C181.206894,134.194049 186.256733,139.249305 186.256733,145.462288 C186.256733,151.674151 181.206894,156.729408 174.999194,156.729408 L174.999194,156.729408 Z" id="Fill-105"></path>
                <path d="M141.508154,200.882678 L162.783706,200.882678 L162.783706,179.662917 C157.159971,179.81743 151.896459,182.080259 147.908271,186.07296 C143.94134,190.043268 141.681553,195.283268 141.508154,200.882678 L141.508154,200.882678 Z M163.902412,202.002336 L140.376023,202.002336 L140.379379,201.439148 C140.415178,195.332532 142.80809,189.594285 147.117346,185.281362 C151.448976,180.944926 157.210313,178.549977 163.340822,178.534302 L163.902412,178.533182 L163.902412,202.002336 Z" id="Fill-107"></path>
                <path d="M163.852183,179.65396 L163.852183,200.873721 C169.473681,200.719208 174.737193,198.456379 178.727617,194.463678 C182.694549,190.49337 184.954336,185.25337 185.127735,179.65396 L163.852183,179.65396 Z M162.733476,202.003456 L162.733476,178.534302 L186.259866,178.534302 L186.256509,179.09749 C186.220711,185.204105 183.82668,190.942353 179.518543,195.255276 C175.185794,199.591712 169.423339,201.986661 163.293948,202.002336 L162.733476,202.003456 Z" id="Fill-109"></path>
                <path d="M901.125363,200.882678 L922.402034,200.882678 L922.402034,179.662917 C916.778299,179.81743 911.514787,182.080259 907.526599,186.07296 C903.559668,190.043268 901.298763,195.283268 901.125363,200.882678 L901.125363,200.882678 Z M923.52074,202.002336 L899.993233,202.002336 L899.996589,201.439148 C900.032387,195.332532 902.426418,189.594285 906.735674,185.281362 C911.066186,180.944926 916.828641,178.549977 922.960269,178.534302 L923.52074,178.533182 L923.52074,202.002336 Z" id="Fill-115"></path>
                <path d="M923.470063,179.65396 L923.470063,200.873721 C929.091561,200.719208 934.355073,198.456379 938.345498,194.463678 C942.31243,190.49337 944.572216,185.25337 944.746734,179.65396 L923.470063,179.65396 Z M922.351357,202.003456 L922.351357,178.534302 L945.877746,178.534302 L945.87439,179.09749 C945.838591,185.204105 943.44456,190.942353 939.136423,195.255276 C934.804793,199.591712 929.041219,201.986661 922.911829,202.002336 L922.351357,202.003456 Z" id="Fill-117"></path>
                <path d="M876.290983,202.975431 C870.69969,202.975431 866.15215,207.526841 866.15215,213.122892 C866.15215,218.720063 870.69969,223.271474 876.290983,223.271474 L876.458789,223.271474 L896.737574,202.975431 L876.290983,202.975431 Z M876.921933,224.391132 L876.290983,224.391132 C870.083283,224.391132 865.033444,219.335875 865.033444,213.122892 C865.033444,206.911029 870.083283,201.855773 876.290983,201.855773 L899.438131,201.855773 L876.921933,224.391132 Z" id="Fill-119"></path>
                <path d="M606.488384,155.60975 L656.891687,155.60975 C662.481861,155.60975 667.029402,151.058339 667.029402,145.462288 C667.029402,139.865117 662.481861,135.313707 656.891687,135.313707 L626.767169,135.313707 L606.488384,155.60975 Z M656.891687,156.729408 L603.787828,156.729408 L626.304025,134.194049 L656.891687,134.194049 C663.099387,134.194049 668.148108,139.249305 668.148108,145.462288 C668.148108,151.674151 663.099387,156.729408 656.891687,156.729408 L656.891687,156.729408 Z" id="Fill-121"></path>
                <path d="M945.244335,155.60975 L1038.4415,155.60975 C1044.03168,155.60975 1048.57922,151.058339 1048.57922,145.462288 C1048.57922,139.865117 1044.03168,135.313707 1038.4415,135.313707 L965.52312,135.313707 L945.244335,155.60975 Z M1038.4415,156.729408 L942.543778,156.729408 L965.059976,134.194049 L1038.4415,134.194049 C1044.64808,134.194049 1049.69792,139.249305 1049.69792,145.462288 C1049.69792,151.674151 1044.64808,156.729408 1038.4415,156.729408 L1038.4415,156.729408 Z" id="Fill-126"></path>
                <path d="M681.43621,21.415365 L774.632259,21.415365 C780.223552,21.415365 784.771092,16.862835 784.771092,11.2679034 C784.771092,5.67185214 780.223552,1.12044188 774.632259,1.12044188 L701.713877,1.12044188 L681.43621,21.415365 Z M774.632259,22.5350231 L678.735654,22.5350231 L701.250733,0.000783760684 L774.632259,0.000783760684 C780.83884,0.000783760684 785.889798,5.05492051 785.889798,11.2679034 C785.889798,17.4797667 780.83884,22.5350231 774.632259,22.5350231 L774.632259,22.5350231 Z" id="Fill-128"></path>
                <path d="M406.368869,238.363905 L478.168544,238.363905 C483.759837,238.363905 488.307378,233.812495 488.307378,228.216444 C488.307378,222.620392 483.759837,218.068982 478.168544,218.068982 L426.646535,218.068982 L406.368869,238.363905 Z M478.168544,239.483563 L403.668312,239.483563 L426.183391,216.949324 L478.168544,216.949324 C484.375126,216.949324 489.426084,222.003461 489.426084,228.216444 C489.426084,234.428307 484.375126,239.483563 478.168544,239.483563 L478.168544,239.483563 Z" id="Fill-130"></path>
                <path d="M195.393877,200.882678 L288.589925,200.882678 C294.181218,200.882678 298.729877,196.331268 298.729877,190.735216 C298.729877,185.139165 294.181218,180.587755 288.589925,180.587755 L215.671544,180.587755 L195.393877,200.882678 Z M288.589925,202.002336 L192.693321,202.002336 L215.208399,179.468097 L288.589925,179.468097 C294.797625,179.468097 299.848583,184.522233 299.848583,190.735216 C299.848583,196.947079 294.797625,202.002336 288.589925,202.002336 L288.589925,202.002336 Z" id="Fill-132"></path>
                <path d="M307.602671,113.499072 C302.011378,113.499072 297.463838,118.050482 297.463838,123.646533 C297.463838,129.243704 302.011378,133.795115 307.602671,133.795115 L337.727189,133.795115 L358.004855,113.499072 L307.602671,113.499072 Z M338.190333,134.914773 L307.602671,134.914773 C301.394971,134.914773 296.345132,129.859516 296.345132,123.646533 C296.345132,117.43467 301.394971,112.379414 307.602671,112.379414 L360.705412,112.379414 L338.190333,134.914773 Z" id="Fill-134"></path>
                <path d="M239.489356,113.499072 C233.898063,113.499072 229.350522,118.050482 229.350522,123.646533 C229.350522,129.243704 233.898063,133.795115 239.489356,133.795115 L269.613873,133.795115 L289.892659,113.499072 L239.489356,113.499072 Z M270.077018,134.914773 L239.489356,134.914773 C233.281656,134.914773 228.231816,129.859516 228.231816,123.646533 C228.231816,117.43467 233.281656,112.379414 239.489356,112.379414 L292.593215,112.379414 L270.077018,134.914773 Z" id="Fill-136"></path>
                <path d="M11.2575394,113.499072 C5.66624635,113.499072 1.11870609,118.050482 1.11870609,123.646533 C1.11870609,129.243704 5.66624635,133.795115 11.2575394,133.795115 L84.1759211,133.795115 L104.453588,113.499072 L11.2575394,113.499072 Z M84.6390654,134.914773 L11.2575394,134.914773 C5.04983929,134.914773 0,129.859516 0,123.646533 C0,117.43467 5.04983929,112.379414 11.2575394,112.379414 L107.154144,112.379414 L84.6390654,134.914773 Z" id="Fill-138"></path>
                <path d="M247.914107,24.0357009 C242.322814,24.0357009 237.775274,28.5871111 237.775274,34.1831624 C237.775274,39.7792137 242.322814,44.3306239 247.914107,44.3306239 L320.832489,44.3306239 L341.110156,24.0357009 L247.914107,24.0357009 Z M321.295633,45.4502821 L247.914107,45.4502821 C241.706407,45.4502821 236.656568,40.3961453 236.656568,34.1831624 C236.656568,27.9701795 241.706407,22.9160427 247.914107,22.9160427 L343.810712,22.9160427 L321.295633,45.4502821 Z" id="Fill-140"></path>
                <path d="M447.331635,91.1288624 C441.740342,91.1288624 437.192801,95.6802726 437.192801,101.276324 C437.192801,106.872375 441.740342,111.423785 447.331635,111.423785 L520.250016,111.423785 L540.527683,91.1288624 L447.331635,91.1288624 Z M520.713161,112.543444 L447.331635,112.543444 C441.123935,112.543444 436.074095,107.489307 436.074095,101.276324 C436.074095,95.0644607 441.123935,90.0092043 447.331635,90.0092043 L543.228239,90.0092043 L520.713161,112.543444 Z" id="Fill-142"></path>
                <path d="M829.321772,156.651815 L848.07688,156.651815 C853.702853,156.651815 858.280598,152.070174 858.280598,146.439414 C858.280598,141.399832 854.554188,137.126097 849.568115,136.388243 L829.321772,156.651815 Z M848.07688,157.771474 L826.621216,157.771474 L849.164262,135.209243 L849.434989,135.241713 C855.115778,135.930303 859.399304,140.744832 859.399304,146.439414 C859.399304,152.688226 854.320378,157.771474 848.07688,157.771474 L848.07688,157.771474 Z" id="Fill-144"></path>
                <path d="M807.987711,157.771474 C802.397537,157.771474 797.848878,162.322884 797.848878,167.918935 C797.848878,172.927166 801.550677,177.172909 806.504307,177.905166 L826.62088,157.771474 L807.987711,157.771474 Z M806.907041,179.085285 L806.636314,179.052815 C800.989086,178.368704 796.730172,173.582166 796.730172,167.918935 C796.730172,161.707072 801.780011,156.651815 807.987711,156.651815 L829.321437,156.651815 L806.907041,179.085285 Z" id="Fill-146"></path>
                <path d="M605.613332,113.564684 C599.987359,113.564684 595.409614,118.146325 595.409614,123.777085 C595.409614,128.817786 599.136024,133.091521 604.122097,133.828256 L624.36844,113.564684 L605.613332,113.564684 Z M604.524831,135.007256 L604.255223,134.974786 C598.574433,134.287316 594.290908,129.472786 594.290908,123.777085 C594.290908,117.528274 599.369833,112.445026 605.613332,112.445026 L627.068996,112.445026 L604.524831,135.007256 Z" id="Fill-148"></path>
                <path d="M217.232139,159.30227 C211.640846,159.30227 207.093305,163.85368 207.093305,169.449732 C207.093305,174.456843 210.795104,178.703706 215.748734,179.435962 L235.865307,159.30227 L217.232139,159.30227 Z M216.151469,180.616082 L215.880742,180.583612 C210.233513,179.899501 205.974599,175.111843 205.974599,169.449732 C205.974599,163.236749 211.024439,158.182612 217.232139,158.182612 L238.565864,158.182612 L216.151469,180.616082 Z" id="Fill-150"></path>
                <path d="M554.440136,133.859607 L573.195243,133.859607 C578.821216,133.859607 583.398962,129.277966 583.398962,123.647205 C583.398962,118.606504 579.672552,114.332769 574.686478,113.596034 L554.440136,133.859607 Z M573.195243,134.979265 L551.739579,134.979265 L574.282626,112.417034 L574.553352,112.449504 C580.234142,113.136974 584.517668,117.951504 584.517668,123.647205 C584.517668,129.896017 579.438742,134.979265 573.195243,134.979265 L573.195243,134.979265 Z" id="Fill-152"></path>
                <path d="M882.286576,66.0831179 L900.919745,66.0831179 C906.509919,66.0831179 911.058578,61.5317077 911.058578,55.9356564 C911.058578,50.9274256 907.35678,46.6816821 902.403149,45.9494256 L882.286576,66.0831179 Z M900.919745,67.2027761 L879.58602,67.2027761 L902.000415,44.769306 L902.270023,44.8017761 C907.91837,45.4858872 912.177284,50.2724256 912.177284,55.9356564 C912.177284,62.1486393 907.127445,67.2027761 900.919745,67.2027761 L900.919745,67.2027761 Z" id="Fill-154"></path>
                <path d="M191.658741,133.795003 L210.29191,133.795003 C215.882084,133.795003 220.430743,129.243592 220.430743,123.647541 C220.430743,118.63931 216.728945,114.393567 211.775314,113.66131 L191.658741,133.795003 Z M210.29191,134.914661 L188.958185,134.914661 L211.37258,112.481191 L211.642188,112.513661 C217.290535,113.197772 221.549449,117.98431 221.549449,123.647541 C221.549449,129.859404 216.49961,134.914661 210.29191,134.914661 L210.29191,134.914661 Z" id="Fill-156"></path>
                <path d="M59.4553132,178.534302 L78.0884819,178.534302 C83.6786562,178.534302 88.2273152,173.982891 88.2273152,168.38684 C88.2273152,163.378609 84.5255167,159.132866 79.5718862,158.400609 L59.4553132,178.534302 Z M78.0884819,179.65396 L56.7547567,179.65396 L79.169152,157.22049 L79.4398788,157.25296 C85.0871072,157.937071 89.3460213,162.723609 89.3460213,168.38684 C89.3460213,174.598703 84.296182,179.65396 78.0884819,179.65396 L78.0884819,179.65396 Z" id="Fill-158"></path>
                <path d="M317.16414,159.236658 C311.572847,159.236658 307.025307,163.788068 307.025307,169.38412 C307.025307,174.981291 311.572847,179.532701 317.16414,179.532701 C322.754314,179.532701 327.302973,174.981291 327.302973,169.38412 C327.302973,163.788068 322.754314,159.236658 317.16414,159.236658 M317.16414,180.652359 C310.95644,180.652359 305.906601,175.597103 305.906601,169.38412 C305.906601,163.172256 310.95644,158.117 317.16414,158.117 C323.37184,158.117 328.421679,163.172256 328.421679,169.38412 C328.421679,175.597103 323.37184,180.652359 317.16414,180.652359" id="Fill-160"></path>
                <path d="M220.98976,218.099661 C215.398467,218.099661 210.850927,222.651071 210.850927,228.247122 C210.850927,233.843174 215.398467,238.394584 220.98976,238.394584 C226.581054,238.394584 231.128594,233.843174 231.128594,228.247122 C231.128594,222.651071 226.581054,218.099661 220.98976,218.099661 M220.98976,239.514242 C214.78206,239.514242 209.732221,234.460105 209.732221,228.247122 C209.732221,222.035259 214.78206,216.980003 220.98976,216.980003 C227.197461,216.980003 232.2473,222.035259 232.2473,228.247122 C232.2473,234.460105 227.197461,239.514242 220.98976,239.514242" id="Fill-162"></path>
            </g>
        </g>
    </g>
</svg>