<?xml version="1.0" encoding="UTF-8" standalone="no"?>
<svg width="1212px" height="140px" viewBox="0 0 1212 140" version="1.1" xmlns="http://www.w3.org/2000/svg" xmlns:xlink="http://www.w3.org/1999/xlink">
    <!-- Generator: Sketch 47 (45396) - http://www.bohemiancoding.com/sketch -->
    <title>Page 1</title>
    <desc>Created with Sketch.</desc>
    <defs></defs>
    <g id="press-kit" stroke="none" stroke-width="1" fill="none" fill-rule="evenodd" stroke-linecap="round">
        <g id="Artboard-Copy-33" transform="translate(-386.000000, -4775.000000)" stroke="#E5F0FA">
            <g id="Group-2" transform="translate(-458.000000, 4777.000000)">
                <g id="Page-1" transform="translate(846.000000, 0.000000)">
                    <path d="M45.8355751,27.0236139 C48.9175751,21.8806139 48.9995751,15.0776139 46.0415751,9.8616139 C39.7735751,-1.1933861 21.3375751,-2.0853861 11.0055751,2.9126139 C4.92657509,5.8526139 0.0625750879,11.9276139 0.000575087898,18.6806139 C-0.0524249121,24.5706139 3.56357509,30.1206139 8.50757509,33.3226139 C13.4505751,36.5236139 19.5405751,37.5936139 25.4245751,37.3336139 C27.5555751,37.2396139 29.7175751,36.9356139 31.8215751,36.4216139 C34.0715751,38.0246139 36.6415751,39.1976139 39.3225751,39.8446139 C39.7735751,39.9526139 40.3255751,40.0156139 40.6245751,39.6636139 C40.9695751,39.2566139 40.7085751,38.6416139 40.4385751,38.1816139 C39.6405751,36.8256139 38.8425751,35.4686139 38.0445751,34.1126139 C41.2315751,32.4496139 43.9805751,30.1196139 45.8355751,27.0236139 Z" id="Stroke-1" stroke-width="2.181" stroke-linejoin="round"></path>
                    <path d="M64.4921875,135.5953 L990.9286,135.5953 C1016.9156,135.5953 1037.9816,114.5293 1037.9816,88.5423 L1037.9816,85.5053 C1037.9816,59.5193 1059.0476,38.4533 1085.0336,38.4533 C1102.35827,38.4533 1144.40248,38.4533 1211.16624,38.4533" id="Stroke-3" stroke-width="2.908" stroke-dasharray="0,7.269" transform="translate(637.829216, 87.024300) scale(1, -1) translate(-637.829216, -87.024300) "></path>
                </g>
            </g>
        </g>
    </g>
</svg>