<?xml version="1.0" encoding="UTF-8"?>
<svg width="233px" height="181px" viewBox="0 0 233 181" version="1.1" xmlns="http://www.w3.org/2000/svg" xmlns:xlink="http://www.w3.org/1999/xlink">
    <!-- Generator: Sketch 48.1 (47250) - http://www.bohemiancoding.com/sketch -->
    <title>Group</title>
    <desc>Created with Sketch.</desc>
    <defs></defs>
    <g id="SMS-scalability-alt1-Copy-2" stroke="none" stroke-width="1" fill="none" fill-rule="evenodd" transform="translate(-1051.000000, -1420.000000)">
        <g id="Group" transform="translate(1051.000000, 1420.000000)">
            <path d="M75,107.333333 C77.0026042,138.666667 91.0026042,159.333333 117,169.333333 C155.996094,184.333333 190.007812,185.97619 211.003906,160.333333 C232,134.690476 250,62.3333333 200,52.3333333 C150,42.3333333 160.992187,68.3333333 135.996094,58.3333333 C119.332031,51.6666667 99,68 75,107.333333 Z" id="Path-8-Copy" fill="#E5F0FA"></path>
            <path d="M87.3758702,29.595099 C57.3797765,29.595099 -16.6163173,4.30926812 3.37977646,69.3092681 C23.3758702,134.309268 67.3836827,158.599005 144.379776,129.599005 C221.37587,100.599005 217.379776,15.5990052 180.379776,2.59900521 C143.379776,-10.4009948 117.371964,29.595099 87.3758702,29.595099 Z" id="Path-7-Copy-2" fill="#F6FAFD"></path>
        </g>
    </g>
</svg>