<?xml version="1.0" encoding="utf-8"?>
<!-- Generator: Adobe Illustrator 19.2.1, SVG Export Plug-In . SVG Version: 6.00 Build 0)  -->
<svg version="1.1" id="Layer_1" xmlns="http://www.w3.org/2000/svg" xmlns:xlink="http://www.w3.org/1999/xlink" x="0px" y="0px"
	 viewBox="0 0 48 46.5" style="enable-background:new 0 0 48 46.5;" xml:space="preserve">
<style type="text/css">
	.st0{fill:none;stroke:#2481D7;stroke-linecap:round;stroke-linejoin:round;stroke-miterlimit:10;stroke-dasharray:2,2;}
	.st1{fill:#FFFFFF;}
	.st2{fill:none;stroke:#C8DFF5;stroke-linecap:round;stroke-linejoin:round;stroke-miterlimit:10;}
	.st3{fill:none;stroke:#2481D7;stroke-linecap:round;stroke-linejoin:round;stroke-miterlimit:10;}
	.st4{fill:#FFFFFF;stroke:#2481D7;stroke-width:2;stroke-linecap:round;stroke-linejoin:round;stroke-miterlimit:10;}
	.st5{fill:none;stroke:#2481D7;stroke-linecap:round;stroke-linejoin:round;stroke-miterlimit:10;stroke-dasharray:13,4;}
	.st6{fill:none;stroke:#2481D7;stroke-width:2;stroke-linecap:round;stroke-linejoin:round;stroke-miterlimit:10;}
	.st7{fill:none;stroke:#2481D7;stroke-linecap:round;stroke-linejoin:round;stroke-miterlimit:10;stroke-dasharray:19,4;}
	.st8{fill:#C8DFF5;stroke:#2481D7;stroke-width:2;stroke-linecap:round;stroke-linejoin:round;stroke-miterlimit:10;}
	.st9{fill:none;stroke:#2481D7;stroke-linecap:round;stroke-linejoin:round;stroke-miterlimit:10;stroke-dasharray:15,4;}
	.st10{fill:none;stroke:#2481D7;stroke-linecap:round;stroke-linejoin:round;stroke-miterlimit:10;stroke-dasharray:12,4;}
	.st11{fill:#2481D7;}
	.st12{fill:#FFFFFF;stroke:#2481D7;stroke-linecap:round;stroke-linejoin:round;stroke-miterlimit:10;}
	.st13{fill:#C8DFF5;}
	.st14{clip-path:url(#SVGID_2_);fill:none;stroke:#2481D7;stroke-linecap:round;stroke-linejoin:round;stroke-miterlimit:10;}
	.st15{fill:#FFFFFF;stroke:#C8DFF5;stroke-linecap:round;stroke-linejoin:round;stroke-miterlimit:10;stroke-dasharray:12,4;}
	.st16{fill:#FFFFFF;stroke:#C8DFF5;stroke-linecap:round;stroke-linejoin:round;stroke-miterlimit:10;stroke-dasharray:9,3;}
	.st17{fill:#FFFFFF;stroke:#C8DFF5;stroke-linecap:round;stroke-linejoin:round;stroke-miterlimit:10;stroke-dasharray:5,2;}
	.st18{clip-path:url(#SVGID_4_);fill:none;stroke:#C8DFF5;stroke-linecap:round;stroke-linejoin:round;stroke-miterlimit:10;}
	
		.st19{fill:none;stroke:#2481D7;stroke-width:2;stroke-linecap:round;stroke-linejoin:round;stroke-miterlimit:10;stroke-dasharray:2,3;}
</style>
<path class="st1" d="M46.2,26.1H1.8c-0.4,0-0.8-0.4-0.8-0.8v-9c0-0.4,0.4-0.8,0.8-0.8h44.4c0.4,0,0.8,0.4,0.8,0.8v9
	C47,25.8,46.6,26.1,46.2,26.1z"/>
<path class="st1" d="M46.2,41.1H1.8c-0.4,0-0.8-0.4-0.8-0.8v-9c0-0.4,0.4-0.8,0.8-0.8h44.4c0.4,0,0.8,0.4,0.8,0.8v9
	C47,40.7,46.6,41.1,46.2,41.1z"/>
<path class="st1" d="M46.2,11.6H1.8c-0.4,0-0.8-0.4-0.8-0.8v-9C1,1.4,1.4,1,1.8,1h44.4C46.6,1,47,1.4,47,1.8v9
	C47,11.2,46.6,11.6,46.2,11.6z"/>
<path class="st6" d="M46.2,26.1H1.8c-0.4,0-0.8-0.4-0.8-0.8v-9c0-0.4,0.4-0.8,0.8-0.8h44.4c0.4,0,0.8,0.4,0.8,0.8v9
	C47,25.8,46.6,26.1,46.2,26.1z"/>
<path class="st6" d="M46.2,11.6H1.8c-0.4,0-0.8-0.4-0.8-0.8v-9C1,1.4,1.4,1,1.8,1h44.4C46.6,1,47,1.4,47,1.8v9
	C47,11.2,46.6,11.6,46.2,11.6z"/>
<path class="st6" d="M46.2,40.7H1.8c-0.4,0-0.8-0.4-0.8-0.8v-9c0-0.4,0.4-0.8,0.8-0.8h44.4c0.4,0,0.8,0.4,0.8,0.8v9
	C47,40.3,46.6,40.7,46.2,40.7z"/>
<circle class="st8" cx="38.1" cy="35.4" r="1.3"/>
<circle class="st8" cx="29.7" cy="35.4" r="1.3"/>
<circle class="st8" cx="38.1" cy="20.6" r="1.3"/>
<circle class="st8" cx="29.7" cy="20.6" r="1.3"/>
<circle class="st8" cx="38.1" cy="6.2" r="1.3"/>
<circle class="st8" cx="29.7" cy="6.2" r="1.3"/>
<line class="st3" x1="24" y1="11.8" x2="24" y2="15.5"/>
<line class="st3" x1="24" y1="26.1" x2="24" y2="30.1"/>
<line class="st3" x1="24" y1="40.7" x2="24" y2="45.4"/>
<line class="st3" x1="9.3" y1="44.3" x2="38.7" y2="44.3"/>
<circle class="st4" cx="24" cy="44.3" r="1.2"/>
<line class="st2" x1="8" y1="18.3" x2="8" y2="23.3"/>
<line class="st2" x1="11.7" y1="18.3" x2="11.7" y2="23.3"/>
<line class="st2" x1="15.4" y1="18.4" x2="15.4" y2="23.3"/>
<line class="st2" x1="8" y1="32.9" x2="8" y2="37.8"/>
<line class="st2" x1="11.7" y1="32.9" x2="11.7" y2="37.8"/>
<line class="st2" x1="15.4" y1="32.9" x2="15.4" y2="37.9"/>
<line class="st2" x1="8" y1="3.8" x2="8" y2="8.7"/>
<line class="st2" x1="11.7" y1="3.8" x2="11.7" y2="8.7"/>
<line class="st2" x1="15.4" y1="3.8" x2="15.4" y2="8.8"/>
</svg>
