<?xml version="1.0" encoding="utf-8"?>
<!-- Generator: Adobe Illustrator 19.2.1, SVG Export Plug-In . SVG Version: 6.00 Build 0)  -->
<svg version="1.1" id="Layer_1" xmlns="http://www.w3.org/2000/svg" xmlns:xlink="http://www.w3.org/1999/xlink" x="0px" y="0px"
	 viewBox="0 0 25 25" style="enable-background:new 0 0 25 25;" xml:space="preserve">
<style type="text/css">
	.st0{fill:none;stroke:#48578C;stroke-linecap:round;stroke-linejoin:round;stroke-miterlimit:10;}
	.st1{fill:#FFFFFF;stroke:#48578C;stroke-linecap:round;stroke-linejoin:round;stroke-miterlimit:10;}
	.st2{fill:none;stroke:#24374E;stroke-linecap:round;stroke-linejoin:round;stroke-miterlimit:10;}
	.st3{fill:none;stroke:#2481D7;stroke-linecap:round;stroke-linejoin:round;stroke-miterlimit:10;}
	.st4{fill:#FFFFFF;stroke:#2481D7;stroke-linecap:round;stroke-linejoin:round;stroke-miterlimit:10;}
	.st5{clip-path:url(#SVGID_2_);fill:none;stroke:#2481D7;stroke-linecap:round;stroke-linejoin:round;stroke-miterlimit:10;}
	.st6{clip-path:url(#SVGID_2_);}
	.st7{clip-path:url(#SVGID_2_);fill:none;stroke:#48578C;stroke-linecap:round;stroke-linejoin:round;stroke-miterlimit:10;}
	.st8{fill:#F70059;}
	.st9{fill:#48578C;}
	.st10{fill:#FF1A57;}
	.st11{fill:none;stroke:#4A5669;stroke-linecap:round;stroke-linejoin:round;stroke-miterlimit:10;}
	.st12{fill:#4A5669;}
	.st13{fill:none;stroke:#48578C;stroke-width:2;stroke-linecap:round;stroke-linejoin:round;stroke-miterlimit:10;}
	.st14{fill:none;stroke:#2481D7;stroke-width:2;stroke-linecap:round;stroke-linejoin:round;stroke-miterlimit:10;}
	.st15{fill:#48578C;stroke:#48578C;stroke-linecap:round;stroke-linejoin:round;stroke-miterlimit:10;}
	.st16{fill:#2481D7;stroke:#2481D7;stroke-linecap:round;stroke-linejoin:round;stroke-miterlimit:10;}
	.st17{fill:#48578C;stroke:#48578C;stroke-width:2;stroke-linecap:round;stroke-linejoin:round;stroke-miterlimit:10;}
</style>
<path class="st13" d="M6.6,11.7c2.1,2.4,4.3,4.6,6.7,6.7c0.2,0.2,0.6,0.2,0.8,0l0.9-0.9c0.6-0.6,1.5-0.6,2.1,0l1.9,1.9
	c0.6,0.6,0.6,1.5,0,2.1l-1,1c-1.9,1.9-4.8,2-6.9,0.3l0,0c-3.3-2.7-6.3-5.7-9-9l0,0c-1.7-2-1.6-5,0.3-6.9l1-1C4.1,5.4,5,5.4,5.6,6
	l1.9,1.9c0.6,0.6,0.6,1.5,0,2.1L6.6,11C6.4,11.2,6.4,11.5,6.6,11.7z"/>
<path class="st14" d="M16,12c0.7,0.3,1.5,0.5,2.3,0.5c3.2,0,5.7-2.6,5.7-5.7S21.4,1,18.3,1s-5.7,2.6-5.7,5.7c0,1.2,0.4,2.3,1,3.2"/>
<polyline class="st14" points="13.5,9.9 13.5,12.5 16,12 "/>
</svg>
