<?xml version="1.0" encoding="UTF-8" standalone="no"?>
<svg width="24px" height="24px" viewBox="0 0 24 24" version="1.1" xmlns="http://www.w3.org/2000/svg" xmlns:xlink="http://www.w3.org/1999/xlink">
    <g id="Symbols" stroke="none" stroke-width="1" fill="none" fill-rule="evenodd" stroke-linecap="round" stroke-linejoin="round">
        <g id="icon-products-numbers-alt" stroke-width="2">
            <g id="Page-1" transform="translate(4.000000, 1.000000)">
                <path d="M2.25216117,1.12546813 C2.25216117,1.74794432 1.74772161,2.25238388 1.12524542,2.25238388 C0.504996337,2.25238388 0.000556776557,1.74794432 0.000556776557,1.12546813 C0.000556776557,0.504105495 0.504996337,-0.000334065934 1.12524542,-0.000334065934 C1.74772161,-0.000334065934 2.25216117,0.504105495 2.25216117,1.12546813 Z" id="Stroke-1" stroke="#48578C"></path>
                <path d="M8.91165421,1.11566886 C8.91165421,1.73146374 8.41278242,2.23033553 7.79698755,2.23033553 C7.18007912,2.23033553 6.68120733,1.73146374 6.68120733,1.11566886 C6.68120733,0.49876044 7.18007912,-0.000111355311 7.79698755,-0.000111355311 C8.41278242,-0.000111355311 8.91165421,0.49876044 8.91165421,1.11566886 Z" id="Stroke-3" stroke="#48578C"></path>
                <path d="M15.5929729,1.11566886 C15.5929729,1.73146374 15.0941011,2.23033553 14.4783062,2.23033553 C13.8613978,2.23033553 13.362526,1.73146374 13.362526,1.11566886 C13.362526,0.49876044 13.8613978,-0.000111355311 14.4783062,-0.000111355311 C15.0941011,-0.000111355311 15.5929729,0.49876044 15.5929729,1.11566886 Z" id="Stroke-5" stroke="#2481D7"></path>
                <path d="M2.25216117,7.80678681 C2.25216117,8.429263 1.74772161,8.93370256 1.12524542,8.93370256 C0.504996337,8.93370256 0.000556776557,8.429263 0.000556776557,7.80678681 C0.000556776557,7.18542418 0.504996337,6.68098462 1.12524542,6.68098462 C1.74772161,6.68098462 2.25216117,7.18542418 2.25216117,7.80678681 Z" id="Stroke-7" stroke="#2481D7"></path>
                <path d="M8.91165421,7.79698755 C8.91165421,8.41278242 8.41278242,8.91165421 7.79698755,8.91165421 C7.18007912,8.91165421 6.68120733,8.41278242 6.68120733,7.79698755 C6.68120733,7.18007912 7.18007912,6.68120733 7.79698755,6.68120733 C8.41278242,6.68120733 8.91165421,7.18007912 8.91165421,7.79698755 Z" id="Stroke-9" stroke="#48578C"></path>
                <path d="M15.5929729,7.79698755 C15.5929729,8.41278242 15.0941011,8.91165421 14.4783062,8.91165421 C13.8613978,8.91165421 13.362526,8.41278242 13.362526,7.79698755 C13.362526,7.18007912 13.8613978,6.68120733 14.4783062,6.68120733 C15.0941011,6.68120733 15.5929729,7.18007912 15.5929729,7.79698755 Z" id="Stroke-11" stroke="#48578C"></path>
                <path d="M2.25216117,14.4881055 C2.25216117,15.1105817 1.74772161,15.6150212 1.12524542,15.6150212 C0.504996337,15.6150212 0.000556776557,15.1105817 0.000556776557,14.4881055 C0.000556776557,13.8667429 0.504996337,13.3623033 1.12524542,13.3623033 C1.74772161,13.3623033 2.25216117,13.8667429 2.25216117,14.4881055 Z" id="Stroke-13" stroke="#48578C"></path>
                <path d="M8.91165421,14.4783062 C8.91165421,15.0941011 8.41278242,15.5929729 7.79698755,15.5929729 C7.18007912,15.5929729 6.68120733,15.0941011 6.68120733,14.4783062 C6.68120733,13.8613978 7.18007912,13.362526 7.79698755,13.362526 C8.41278242,13.362526 8.91165421,13.8613978 8.91165421,14.4783062 Z" id="Stroke-15" stroke="#48578C"></path>
                <path d="M8.91165421,21.1596249 C8.91165421,21.7754198 8.41278242,22.2742916 7.79698755,22.2742916 C7.18007912,22.2742916 6.68120733,21.7754198 6.68120733,21.1596249 C6.68120733,20.5427165 7.18007912,20.0438447 7.79698755,20.0438447 C8.41278242,20.0438447 8.91165421,20.5427165 8.91165421,21.1596249 Z" id="Stroke-17" stroke="#48578C"></path>
                <path d="M15.5929729,14.4783062 C15.5929729,15.0941011 15.0941011,15.5929729 14.4783062,15.5929729 C13.8613978,15.5929729 13.362526,15.0941011 13.362526,14.4783062 C13.362526,13.8613978 13.8613978,13.362526 14.4783062,13.362526 C15.0941011,13.362526 15.5929729,13.8613978 15.5929729,14.4783062 Z" id="Stroke-19" stroke="#2481D7"></path>
            </g>
        </g>
    </g>
</svg>