<?xml version="1.0" encoding="utf-8"?>
<!-- Generator: Adobe Illustrator 19.2.1, SVG Export Plug-In . SVG Version: 6.00 Build 0)  -->
<svg version="1.1" id="Layer_1" xmlns="http://www.w3.org/2000/svg" xmlns:xlink="http://www.w3.org/1999/xlink" x="0px" y="0px"
	 viewBox="0 0 48 45.6" style="enable-background:new 0 0 48 45.6;" xml:space="preserve">
<style type="text/css">
	.st0{fill:#FFFFFF;stroke:#2481D7;stroke-width:2;stroke-linecap:round;stroke-linejoin:round;stroke-miterlimit:10;}
	.st1{fill:#C8DFF5;stroke:#2481D7;stroke-width:2;stroke-linecap:round;stroke-linejoin:round;stroke-miterlimit:10;}
	.st2{fill:#FFFFFF;stroke:#2481D7;stroke-linecap:round;stroke-linejoin:round;stroke-miterlimit:10;}
	.st3{fill:#C8DFF5;}
	.st4{fill:none;stroke:#C8DFF5;stroke-linecap:round;stroke-linejoin:round;stroke-miterlimit:10;stroke-dasharray:2,2;}
	.st5{fill:none;stroke:#2481D7;stroke-linecap:round;stroke-linejoin:round;stroke-miterlimit:10;stroke-dasharray:2,2;}
	.st6{fill:#FFFFFF;}
	.st7{fill:none;stroke:#C8DFF5;stroke-linecap:round;stroke-linejoin:round;stroke-miterlimit:10;}
	.st8{fill:none;stroke:#2481D7;stroke-linecap:round;stroke-linejoin:round;stroke-miterlimit:10;}
	.st9{fill:none;stroke:#2481D7;stroke-linecap:round;stroke-linejoin:round;stroke-miterlimit:10;stroke-dasharray:13,4;}
	.st10{fill:none;stroke:#2481D7;stroke-width:2;stroke-linecap:round;stroke-linejoin:round;stroke-miterlimit:10;}
	.st11{fill:none;stroke:#2481D7;stroke-linecap:round;stroke-linejoin:round;stroke-miterlimit:10;stroke-dasharray:19,4;}
	.st12{fill:none;stroke:#2481D7;stroke-linecap:round;stroke-linejoin:round;stroke-miterlimit:10;stroke-dasharray:15,4;}
	.st13{fill:none;stroke:#2481D7;stroke-linecap:round;stroke-linejoin:round;stroke-miterlimit:10;stroke-dasharray:12,4;}
	.st14{fill:#2481D7;}
	.st15{clip-path:url(#SVGID_2_);fill:none;stroke:#2481D7;stroke-linecap:round;stroke-linejoin:round;stroke-miterlimit:10;}
	.st16{fill:none;stroke:#FFFFFF;stroke-linecap:round;stroke-linejoin:round;stroke-miterlimit:10;}
	.st17{fill:#FFFFFF;stroke:#C8DFF5;stroke-linecap:round;stroke-linejoin:round;stroke-miterlimit:10;stroke-dasharray:12,4;}
	.st18{fill:#FFFFFF;stroke:#C8DFF5;stroke-linecap:round;stroke-linejoin:round;stroke-miterlimit:10;stroke-dasharray:9,3;}
	.st19{fill:#FFFFFF;stroke:#C8DFF5;stroke-linecap:round;stroke-linejoin:round;stroke-miterlimit:10;stroke-dasharray:5,2;}
	.st20{clip-path:url(#SVGID_4_);fill:none;stroke:#C8DFF5;stroke-linecap:round;stroke-linejoin:round;stroke-miterlimit:10;}
	.st21{fill:#FFFFFF;stroke:#C8DFF5;stroke-linecap:round;stroke-linejoin:round;stroke-miterlimit:10;stroke-dasharray:19,2;}
	.st22{fill:#FFFFFF;stroke:#C8DFF5;stroke-linecap:round;stroke-linejoin:round;stroke-miterlimit:10;stroke-dasharray:7,3;}
	.st23{fill:#FFFFFF;stroke:#C8DFF5;stroke-linecap:round;stroke-linejoin:round;stroke-miterlimit:10;stroke-dasharray:21,2;}
	.st24{fill:none;stroke:#C8DFF5;stroke-linecap:round;stroke-linejoin:round;stroke-miterlimit:10;stroke-dasharray:21,2;}
	
		.st25{clip-path:url(#SVGID_6_);fill:#FFFFFF;stroke:#2481D7;stroke-width:2;stroke-linecap:round;stroke-linejoin:round;stroke-miterlimit:10;stroke-dasharray:12,4;}
	
		.st26{clip-path:url(#SVGID_6_);fill:#FFFFFF;stroke:#2481D7;stroke-width:2;stroke-linecap:round;stroke-linejoin:round;stroke-miterlimit:10;stroke-dasharray:19,4;}
	
		.st27{clip-path:url(#SVGID_6_);fill:#FFFFFF;stroke:#2481D7;stroke-width:2;stroke-linecap:round;stroke-linejoin:round;stroke-miterlimit:10;stroke-dasharray:7,3;}
	
		.st28{clip-path:url(#SVGID_6_);fill:#FFFFFF;stroke:#2481D7;stroke-width:2;stroke-linecap:round;stroke-linejoin:round;stroke-miterlimit:10;stroke-dasharray:21,4;}
	
		.st29{clip-path:url(#SVGID_8_);fill:#FFFFFF;stroke:#2481D7;stroke-width:2;stroke-linecap:round;stroke-linejoin:round;stroke-miterlimit:10;stroke-dasharray:12,4;}
	
		.st30{clip-path:url(#SVGID_8_);fill:#FFFFFF;stroke:#2481D7;stroke-width:2;stroke-linecap:round;stroke-linejoin:round;stroke-miterlimit:10;stroke-dasharray:19,4;}
	
		.st31{clip-path:url(#SVGID_8_);fill:#FFFFFF;stroke:#2481D7;stroke-width:2;stroke-linecap:round;stroke-linejoin:round;stroke-miterlimit:10;stroke-dasharray:7,3;}
	
		.st32{clip-path:url(#SVGID_8_);fill:#FFFFFF;stroke:#2481D7;stroke-width:2;stroke-linecap:round;stroke-linejoin:round;stroke-miterlimit:10;stroke-dasharray:21,4;}
	.st33{fill:#FFFFFF;stroke:#C8DFF5;stroke-linecap:round;stroke-linejoin:round;stroke-miterlimit:10;stroke-dasharray:12,2;}
	.st34{fill:#FFFFFF;stroke:#C8DFF5;stroke-linecap:round;stroke-linejoin:round;stroke-miterlimit:10;}
	.st35{fill:#FFFFFF;stroke:#C8DFF5;stroke-width:2;stroke-linecap:round;stroke-linejoin:round;stroke-miterlimit:10;}
	.st36{fill:#C8DFF5;stroke:#2481D7;stroke-linecap:round;stroke-linejoin:round;stroke-miterlimit:10;}
</style>
<polygon class="st6" points="16.3,41 1,44.6 1,4.6 16.3,1 "/>
<line class="st6" x1="16.3" y1="41" x2="1" y2="44.6"/>
<polygon class="st6" points="31.7,44.6 16.3,41 16.3,1 31.7,4.6 "/>
<polygon class="st6" points="47,41 31.7,44.6 31.7,4.6 47,1 "/>
<line class="st7" x1="10.7" y1="3.2" x2="10.7" y2="12.6"/>
<line class="st7" x1="39.3" y1="23.1" x2="39.3" y2="42.8"/>
<line class="st7" x1="43.8" y1="6.1" x2="31.7" y2="9.9"/>
<line class="st7" x1="43.8" y1="1.6" x2="43.8" y2="22.8"/>
<line class="st7" x1="27.1" y1="23.7" x2="27.1" y2="3.5"/>
<line class="st7" x1="5" y1="43.9" x2="5" y2="14.1"/>
<line class="st7" x1="10.5" y1="42.4" x2="10.5" y2="24.2"/>
<line class="st7" x1="16.3" y1="11.2" x2="1" y2="14.8"/>
<line class="st7" x1="16.3" y1="21.9" x2="4.7" y2="25.6"/>
<line class="st7" x1="16.2" y1="34.2" x2="4.9" y2="37.8"/>
<line class="st8" x1="39.3" y1="34.8" x2="31.7" y2="37.5"/>
<line class="st7" x1="47" y1="29.2" x2="39.3" y2="31"/>
<line class="st7" x1="47" y1="22.2" x2="31.7" y2="25.8"/>
<line class="st7" x1="31.7" y1="25.5" x2="16.3" y2="21.9"/>
<line class="st7" x1="27.1" y1="13.4" x2="16.3" y2="11.2"/>
<line class="st7" x1="31.7" y1="9.9" x2="27.1" y2="8.4"/>
<g>
	<path class="st3" d="M8.7,22c-3,0-5.4,2.4-5.4,5.4c0,1.3,0.4,2.4,1.2,3.3l0.1,0.2L8.7,36l4.1-5.1l0.1-0.1c0.7-0.9,1.2-2.1,1.2-3.3
		C14,24.4,11.6,22,8.7,22z M8.7,29c-0.9,0-1.6-0.7-1.6-1.5c0-0.9,0.7-1.6,1.6-1.6c0.8,0,1.5,0.7,1.5,1.6C10.2,28.3,9.5,29,8.7,29z"
		/>
	<path class="st10" d="M4.5,30.7l0.1,0.2L8.7,36l4.1-5.1l0.1-0.1l-0.1,0.1l0.1-0.1c0.7-0.9,1.2-2.1,1.2-3.3c0-3-2.4-5.4-5.4-5.4
		c-3,0-5.4,2.4-5.4,5.4C3.3,28.7,3.7,29.8,4.5,30.7l0.1,0.2"/>
	<circle class="st8" cx="8.7" cy="27.4" r="1.5"/>
</g>
<g>
	<path class="st3" d="M39.3,8.2c-3,0-5.4,2.4-5.4,5.4c0,1.3,0.4,2.4,1.2,3.3l0.1,0.2l4.1,5.1l4.1-5.1l0.1-0.1
		c0.7-0.9,1.2-2.1,1.2-3.3C44.7,10.6,42.3,8.2,39.3,8.2z M39.3,15.2c-0.9,0-1.6-0.7-1.6-1.5c0-0.9,0.7-1.6,1.6-1.6
		c0.8,0,1.5,0.7,1.5,1.6C40.9,14.5,40.2,15.2,39.3,15.2z"/>
	<path class="st10" d="M35.1,16.9l0.1,0.2l4.1,5.1l4.1-5.1l0.1-0.1l-0.1,0.1l0.1-0.1c0.7-0.9,1.2-2.1,1.2-3.3c0-3-2.4-5.4-5.4-5.4
		c-3,0-5.4,2.4-5.4,5.4C33.9,14.9,34.4,16,35.1,16.9l0.1,0.2"/>
	<circle class="st8" cx="39.3" cy="13.6" r="1.5"/>
</g>
<polyline class="st10" points="16.3,41 1,44.6 1,4.6 16.3,1 "/>
<line class="st8" x1="16.3" y1="1" x2="16.3" y2="41"/>
<line class="st10" x1="31.7" y1="44.6" x2="16.3" y2="41"/>
<line class="st10" x1="16.3" y1="1" x2="31.7" y2="4.6"/>
<line class="st8" x1="31.7" y1="4.6" x2="31.7" y2="44.6"/>
<polyline class="st10" points="31.7,4.6 47,1 47,41 31.7,44.6 "/>
<line class="st7" x1="21.6" y1="23.5" x2="21.6" y2="35.2"/>
<line class="st8" x1="8.7" y1="36.7" x2="16.3" y2="34"/>
<line class="st8" x1="31.7" y1="37.5" x2="16.3" y2="33.9"/>
<line class="st8" x1="39.3" y1="22.8" x2="39.3" y2="34.6"/>
</svg>
