<svg width="18pt" height="18pt" viewBox="0 0 2160 2160" xmlns="http://www.w3.org/2000/svg"><g fill-rule="nonzero" fill="#2481D7"><path d="M1758.829 1589.123c46.86 46.86 46.854 122.84-.006 169.7-46.863 46.862-122.85 46.856-169.7.006L401.171 570.877c-46.86-46.86-46.854-122.84.006-169.7 46.863-46.862 122.85-46.856 169.7-.006l1187.952 1187.952z"/><path d="M1758.823 401.177c46.862 46.863 46.856 122.85.006 169.7L570.877 1758.829c-46.86 46.86-122.84 46.854-169.7-.006-46.862-46.863-46.856-122.85-.006-169.7L1589.123 401.171c46.86-46.86 122.84-46.854 169.7.006z"/></g></svg>