<svg id="Layer_1" xmlns="http://www.w3.org/2000/svg" viewBox="198 0 1008.6 651.2"><style>.st0{fill:#ffffff;stroke:#ffffff;stroke-width:4px;} .st0.active{fill:#63B5D3;stroke:#63B5D3;}</style><path id="AE" class="st0" d="M817.9 393.7l.5-.1.1.8 2.2-.5 2.3.1 1.7.1 1.9-2.1 2.1-2 1.8-1.9.5 1.1.4 2.4H830l-.2 2 .5.4-1.3.6v1.2l-.8 1.3-.1 1.2-.6.6-8.4-1.5-1.1-3.1-.1-.6z"/><path id="AF" class="st0" d="M844.9 356.9l2.9 1.3 2.1-.5.6-1.5 2.2-.5 1.6-1.1.6-2.8 2.4-.7.4-1.2 1.3.9.8.1h1.6l2.1.7.8.4 2-1.1 1 .7.9-1.6 1.7.1.4-.5.3-1.4 1.2-1.2 1.5.8-.3 1.1.8.2-.3 2.9 1.1 1.2 1-.7 1.2-.3 1.7-1.6 1.9.3h2.9l.5 1-1.6.4-1.4.6-3.2.4-3 .7-1.6 1.5.7 1.5.3 1.7-1.4 1.4.1 1.3-.8 1.2-2.7-.1 1.1 2.2-1.8.9-1.2 2 .1 2-1.1.9-1-.3-2.1.4-.3.9h-2.1l-1.6 1.8-.1 2.8-3.7 1.3-2-.3-.6.7-1.7-.4-2.8.5-4.7-1.6 2.5-2.9-.2-2.1-2.1-.6-.2-2.1-.9-2.6 1.2-1.8-1.2-.5.8-2.5 1.4-4.3z"/><path id="AL" class="st0" d="M731 334.7l-.3 1.3.4 1.6 1.2.9-.1 1-.9.5-.2 1.2-1.3 1.8-.5-.2-.1-.8-1.6-1.2-.2-1.8.2-2.5.4-1.2-.5-.6-.2-1.2 1.2-1.9.2.7.8-.3.6 1 .7.4.2 1.3z"/><path id="AM" class="st0" d="M795.5 337.5l3.9-.6.6 1 1.1.6-.6.9 1.5 1.3-.8 1.2 1.2 1 1.3.6.1 2.5-1 .1-1.1-2.1v-.6h-1.2l-.8-1-.6.1-1.1-1.1-2.1-.9.3-1.8-.7-1.2z"/><path id="AO" class="st0" d="M719 479.8l.7 2.1.8 1.7.6.9 1.1 1.5 1.8-.2.9-.4 1.5.4.4-.7.7-1.6 1.7-.1.2-.5h1.4l-.2 1h3.4v1.8l.6 1.1-.4 1.7.2 1.7.9 1-.2 3.4.7-.3 1.2.1 1.7-.4 1.3.2.3.9-.3 1.4.5 1.3-.4 1.1.2 1h-5.8l-.1 9.2 1.9 2.4 1.8 1.8-5.2 1.2-6.8-.4-1.9-1.4-11.4.1-.4.2-1.7-1.3-1.8-.1-1.7.5-1.4.6-.3-1.8.4-2.5 1-2.6.1-1.2.9-2.6.7-1.2 1.6-1.9.9-1.3.3-2.1-.2-1.6-.8-1-.8-1.7-.7-1.7.1-.6.9-1.1-.9-2.7-.6-1.9-1.4-1.8.3-.5 1.2-.4h.8l1-.3 8.7-.4zm-10.9-.6l-.7.3-.8-2.1 1.1-1.2.9-.5 1 1-1 .6-.5.7v1.2z"/><path id="AR" class="st0" d="M489.6 648.9l-2.7.2-1.4-1.7-1.7-.1h-3v-10.6l1.1 2.2 1.4 3.5 3.6 2.9 3.9 1.2-1.2 2.4zm1.5-122.4l1.6 2.2 1.1-2.4 3.2.1.5.6 5.1 4.9 2.3.5 3.4 2.3 2.9 1.2.4 1.4-2.8 4.7 2.8.8 3.1.5 2.2-.5 2.5-2.4.5-2.7 1.4-.6 1.4 1.8-.1 2.5-2.4 1.7-1.9 1.3-3.2 3.1-3.7 4.4-.7 2.6-.8 3.4v3.3l-.6.7-.2 2.2-.2 1.8 3.6 2.9-.4 2.4 1.8 1.5-.1 1.7-2.7 4.5-4.2 1.9-5.6.8-3.1-.4.6 2.2-.6 2.7.5 1.8-1.7 1.3-2.9.5-2.7-1.3-1.1 1 .4 3.7 1.9 1.1 1.5-1.2.8 2-2.6 1.2-2.2 2.4-.4 3.9-.7 2.1h-2.6l-2.2 2-.8 3 2.8 3 2.7.8-1 3.7-3.3 2.4-1.8 5-2.6 1.7-1.1 2.1.9 4.6 1.9 2.6-1.2-.2-2.6-.7-6.8-.6-1.2-2.6v-3.3l-1.9.3-1-1.6-.2-4.6 2.1-1.9.9-2.7-.3-2.1 1.5-3.5 1-5.3-.3-2.3 1.2-.8-.3-1.5-1.3-.8.9-1.6-1.3-1.5-.6-4.4 1.1-.8-.5-4.5.7-3.8.8-3.2 1.7-1.3-.9-3.5v-3.2l2.1-2.3-.1-2.9 1.6-3.3v-3.1l-.7-.6-1.3-5.7 1.7-3.3-.3-3.1 1-2.9 1.8-3 2-2-.2-1.3.6-1-.1-5.1 3-1.5 1-3.2-.3-.8 2.3-2.7 3.6.8z"/><path id="AT" class="st0" d="M720.9 309.9l-.2 1.7h-1.6l.5.9-.9 2.6-.5.7-2.5.1-1.4.9-2.3-.3-4-1.1-.6-1.4-2.8.7-.3.8-1.7-.6-1.4-.1-1.3-.7.4-1-.1-.7.9-.2 1.4 1.1.4-1.1 2.5.2 2-.7 1.3.1.9.8.3-.7-.4-2.7 1-.5 1-1.9 2.1 1.4 1.6-1.7 1-.3 2.2 1.3 1.3-.2 1.3.8-.2.5.1 1.3z"/><path id="AU" class="st0 active" d="M1080.9 588.2l2.7 1.3 1.5-.5 2.2-.7 1.7.2.2 4.4-1 1.3-.3 3.1-1-1-2 2.7-.6-.2-1.7-.1-1.7-3.3-.4-2.5-1.6-3.2.1-1.7 1.9.2zm-5.1-86.1l1 2.2 1.8-1.1.9 1.2 1.3 1.1-.3 1.3.6 2.5.4 1.5.7.4.8 2.5-.3 1.5.9 2 3 1.5 2 1.4 1.9 1.3-.4.7 1.6 1.9 1.1 3.2 1.1-.7 1.1 1.3.7-.5.5 3.2 2 1.9 1.3 1.2 2.2 2.5.8 2.5.1 1.8-.2 1.9 1.3 2.7-.2 2.8-.5 1.5-.8 2.9.1 1.9-.5 2.3-1.2 3-2.1 1.6-1 2.6-.9 1.7-.8 2.9-1.1 1.7-.7 2.6-.4 2.4.1 1.1-1.6 1.2-3.1.1-2.6 1.5-1.3 1.4-1.7 1.5-2.3-1.6-1.7-.6.4-1.8-1.5.7-2.5 2.6-2.4-1-1.6-.6-1.6-.2-2.7-1-1.8-2.2-.5-2.7-.7-1.8-1.4-1.4-2.7-.4.9-1.7-.7-2.5-1.4 2.3-2.5.6 1.5-1.9.4-2 1.1-1.7-.2-2.5-2.3 2.8-1.8 1.2-1.1 2.7-2.2-1.4.1-1.8-1.8-2.4-1.5-1.2.5-.8-3.6-2-2-.1-2.7-1.6-5 .3-3.6 1.2-3.2 1.1-2.7-.2-3 1.7-2.4.8-.5 1.8-1 1.4-2.4.1-1.8.3-2.5-.6-2 .4-1.9.2-1.7 1.8-.8-.2-1.4 1-1.3 1.1-2-.1h-1.9l-3-2.2-1.5-.6.1-1.9 1.4-.5.5-.8-.1-1.2.3-2.3-.3-2-1.5-3.3-.5-1.8.1-1.8-1.1-2.1-.1-.9-1.2-1.3-.3-2.5-1.6-2.5-.4-1.3 1.2 1.3-1-2.9 1.4.9.8 1.2v-1.6l-1.4-2.4-.3-1-.7-.9.3-1.8.6-.8.4-1.5-.3-1.8 1.2-2.2.2 2.3 1.2-2.1 2.3-1 1.4-1.3 2.1-1.1 1.3-.2.8.4 2.2-1.1 1.7-.3.4-.7.7-.3 1.5.1 3-.9 1.5-1.3.7-1.6 1.6-1.5.1-1.2.1-1.6 2-2.5 1.2 2.5 1.2-.6-1-1.4.9-1.4 1.2.6.3-2.2 1.5-1.4.7-1.1 1.4-.5v-.8l1.2.3v-.7l1.2-.4 1.4-.4 2.1 1.3 1.6 1.7h1.8l1.8.3-.6-1.6 1.3-2.3 1.3-.8-.4-.7 1.2-1.6 1.7-1 1.4.3 2.4-.5v-1.5l-2-.9 1.5-.4 1.9.7 1.5 1.2 2.4.7.8-.3 1.7.9 1.6-.8 1 .2.7-.5 1.3 1.4-.8 1.5-1.1 1.2-1 .1.3 1.1-.8 1.4-1 1.4.2.8 2.2 1.6 2.2.9 1.4 1 2 1.7h.8l1.5.8.4.9 2.7 1 1.8-1 .5-1.6.6-1.3.3-1.6.8-2.3-.4-1.4.2-.8-.3-1.6.4-2.2.5-.6-.4-1 .7-1.5.5-1.6.1-.8 1-1.1.8 1.4.2 1.8.7.3.1 1.2 1 1.5.2 1.6.5 1.6z"/><path id="AZ" class="st0" d="M799.4 342.5l.8 1h1.2v.6l1.1 2.1-1.9-.5-1.4-1.7-.4-1.4.6-.1zm6.7-5.5l1.2.2.5-1 1.7-1.5 1.5 2 1.4 2.6 1.3.2.9 1-2.3.3-.5 2.8-.5 1.3-1 .8.1 1.8-.7.2-1.8-1.9 1-1.8-.9-1-1 .3-3.3 2.7-.1-2.5-1.3-.6-1.2-1 .8-1.2-1.5-1.3.6-.9-1.1-.6-.6-1 .7-.6 2.1 1.1 1.5.2.4-.4-1.4-2 .7-.5.8.1 2 2.2z"/><path id="BA" class="st0" d="M726.5 323.1h1l-.7 1.7 1.4 1.5-.4 1.8-.7.2-.5.4-.9.9-.4 2.1-2.5-1.4-1.1-1.6-1.1-.8-1.3-1.5-.6-1.2-1.4-1.8.6-1.6 1 .9.6-.8 1.3-.1 2.4.7 1.9-.1 1.4.7z"/><path id="BD" class="st0" d="M933.1 400.4l-.1 2.1-1-.5.2 2.4-.8-1.6-.2-1.5-.5-1.4-1.2-1.8-2.6-.1.3 1.2-.9 1.7-1.2-.6-.4.5-.8-.3-1.1-.3-.4-2.5-1-2.3.5-1.8-1.7-.8.6-1.1 1.8-1.1-2-1.6 1-2.1 2.2 1.3 1.3.2.2 2.1 2.7.4h2.6l1.6.5-1.3 2.6-1.3.2-.9 1.7 1.5 1.6.5-1.9h.8l1.6 4.8z"/><path id="BE" class="st0 active" d="M682.5 295.9l2.1.4 2.6-.9 1.8 2 1.5 1-.3 3-.7.2-.3 2.4-2.5-2-1.4.3-2-2.1-1.3-1.8-1.3-.1-.4-1.6 2.2-.8z"/><path id="BF" class="st0" d="M665.3 436.4l-1.9-.7-1.3.1-1 .7-1.3-.6-.5-.9-1.3-.6-.2-1.6.8-1.2-.1-1 2.2-2.4.4-2 .8-.7 1.4.4 1.2-.6.4-.7 2.2-1.3.5-.9 2.6-1.2 1.5-.4.7.5h1.8l-.2 1.4.4 1.3 1.6 1.9.1 1.4 3.2.6-.1 2-.6.9-1.4.3-.6 1.2-1 .3-2.5-.1-1.3-.2-.9.5-1.2-.2-4.9.1-.1 1.6.6 2.1z"/><path id="BG" class="st0" d="M736.8 325.6l.8 1.6 1.1-.3 2.2.6 4.1.2 1.4-1 3.3-.9 2 1.4 1.7.4-1.5 1.6-1 2.7.9 2.2-2.4-.5-2.9 1.2v1.9l-2.5.4-2-1.3-2.2 1-2.1-.1-.2-2.5-1.4-1.2.5-.5-.3-.4.5-1.2 1.1-1.2-1.4-1.7-.2-1.4.5-1z"/><path id="BI" class="st0" d="M755.5 475.9l-.2-3.4-.7-1.3 1.7.2.9-1.6 1.5.2.2 1.1.6.6v.9l-.7.6-1.1 1.5-1 1-1.2.2z"/><path id="BJ" class="st0" d="M680.8 445.9l-2.3.3-.7-1.9.1-6.5-.6-.6-.1-1.4-1-1-.8-.8.4-1.5 1-.3.6-1.2 1.4-.3.6-.9.9-.8h1l2.1 1.6-.1 1 .6 1.7-.5 1.1.3.8-1.4 1.8-.9.9-.5 1.8.1 1.8-.2 4.4z"/><path id="BN" class="st0" d="M993.5 450.8l1.1-1 2.4-1.5-.1 1.4-.2 1.8-1.3-.1-.6.9-1.3-1.5z"/><path id="BO" class="st0" d="M497 526.3l-3.2-.1-1.1 2.4-1.6-2.2-3.7-.7-2.3 2.7-2 .4-1.1-4.2-1.5-3.3.9-2.9-1.5-1.2-.4-2.1-1.4-2 1.8-3.1-1.2-2.4.6-1-.5-1.1 1.1-1.4.1-2.4.1-2 .6-1-2.4-4.6 2.1.2 1.4-.1.6-.9 2.5-1.1 1.5-1.1 3.7-.5-.3 2.1.3 1.1-.2 1.9 3.1 2.5 3.1.5 1.1 1.1 1.9.6 1.2.8h1.8l1.6.9.1 1.7.5.8v1.2h-.8l1.1 3.4 5.4.1-.4 1.7.3 1.1 1.5.8.7 1.8-.5 2.3-.8 1.3.3 1.7-.9.6v-.9l-2.6-1.5H505l-4.9.9-1.3 2.6-.1 1.6-1.1 3.6-.6-.6z"/><path id="BR" class="st0" d="M511.7 551.8l3.7-4.4 3.2-3.1 1.9-1.3 2.4-1.7.1-2.5-1.4-1.8-1.4.6.6-1.8.4-1.8v-1.7l-1-.5-1.1.5-1-.1-.3-1.2-.3-2.8-.5-.9-1.9-.8-1.1.6-3-.6.2-4.1-.8-1.7.9-.6-.3-1.7.8-1.3.5-2.3-.7-1.8-1.5-.8-.3-1.1.4-1.7-5.4-.1-1.1-3.4h.8v-1.2l-.5-.8-.1-1.7-1.6-.9h-1.8l-1.2-.8-1.9-.6-1.1-1.1-3.1-.5-3.1-2.5.2-1.9-.3-1.1.3-2.1-3.7.5-1.5 1.1-2.5 1.1-.6.9-1.4.1-2.1-.2-1.6.5-1.3-.3.2-4.3-2.3 1.7-2.5-.1-1.1-1.5-1.9-.2.6-1.2-1.6-1.7-1.2-2.5.7-.5v-1.2l1.7-.8-.3-1.5.7-1 .2-1.3 3.2-1.9 2.3-.5.4-.4 2.5.1 1.3-7.6.1-1.2-.4-1.6-1.2-1v-2l1.6-.5.6.3.1-1.1-1.6-.3v-1.7l5.5.1.9-1 .8.9.5 1.6.5-.3 1.6 1.5 2.2-.2.5-.9 2.1-.6 1.2-.4.3-1.2 2-.8-.2-.6-2.4-.2-.4-1.8.1-1.9-1.2-.7.5-.3 2.1.4 2.2.7.8-.7 2-.4 3.1-1 1-1.1-.4-.8 1.5-.1.7.6-.4 1.2 1 .4.6 1.3-.8 1-.5 2.4.7 1.4.2 1.3 1.7 1.3 1.4.1.3-.5.9-.1 1.3-.5.9-.7 1.6.2.7-.1 1.5.2.2-.6-.5-.5.3-.8 1.1.2 1.3-.3 1.6.6 1.2.6.9-.8.6.1.4.8 1.3-.2 1.1-1.1.9-2.1 1.7-2.6 1-.1.7 1.5 1.6 4.9 1.5.5.1 1.9-2.1 2.3.9.8 5 .4.1 2.8 2.1-1.8 3.5 1 4.6 1.7 1.4 1.6-.5 1.5 3.3-.9 5.5 1.5 4.2-.1 4.1 2.3 3.6 3.1 2.2.8 2.4.1 1 .9 1 3.6.5 1.7-1.1 4.7-1.4 1.8-3.9 3.9-1.8 3.2-2.1 2.5-.7.1-.8 2.1.2 5.4-.8 4.5-.3 1.9-.9 1.2-.5 3.9-2.8 3.9-.5 3.1-2.3 1.3-.7 1.8h-3l-4.4 1.2-2 1.3-3.1.9-3.3 2.4-2.4 3.1-.4 2.3.5 1.7-.5 3.2-.6 1.5-2 1.8-3.1 5.7-2.5 2.6-1.9 1.5-1.3 3.2-1.9 1.9-.8-1.9 1.2-1.6-1.6-2.2-2.2-1.8-2.9-2.1-1 .1-2.8-2.5-2 .3z"/><path id="BS" class="st0 active" d="M455.9 395.2l-.7.1-.7-1.8-1.1-.9.6-2 .8.1 1 2.5.1 2zm-.8-8.7l-3.1.5-.2-1.1 1.3-.2 1.8.1.2.7zm2.3 0l-.5 2.2-.5-.4v-1.6l-1.3-1.2v-.4l2.3 1.4z"/><path id="BT" class="st0" d="M930.4 382.8l1.1 1-.2 1.9-2.3.1-2.4-.2-1.8.5-2.5-1.2v-.6l1.8-2.3 1.5-.8 2 .7 1.5.1 1.3.8z"/><path id="BW" class="st0" d="M745.2 516l.6.5.9 1.7 3.2 3.2 1.2.3v1l.8 1.9 2.2.5 1.8 1.4-4 2.2-2.5 2.3-.9 2-.8 1.1-1.5.2-.5 1.5-.3 1-1.8.7-2.3-.2-1.3-.9-1.2-.4-1.4.7-.7 1.5-1.3.9-1.4 1.4-2 .3-.6-1.1.3-1.9-1.7-2.9-.8-.5v-8.9l2.8-.1.1-10.6 2.1-.1 4.3-1 1.1 1.2 1.8-1.2h.9l1.6-.7.5.2.8 2.8z"/><path id="BY" class="st0" d="M739.1 284.1h2.7l3-1.8.7-2.7 2.3-1.6-.3-2.2 1.7-.8 3-1.9 3 1.3.4 1.2 1.5-.6 2.7 1.2.3 2.3-.6 1.3 1.8 3.1 1.1.9-.2.9 1.9.8.8 1.2-1.1 1-2.3-.2-.5.5.7 1.5.7 2.9-2.4.3-.9 1-.2 2.3-1.1-.4-2.5.2-.7-1-1 .8-1-.6-2.2-.1-3.1-1.1-2.8-.4-2.2.1-1.5 1.2-1.3.2v-2l-.9-2.1 1.7-.9V288l-.8-1.8-.4-2.1z"/><path id="BZ" class="st0 active" d="M423.3 413v-.4l.3-.1.5.3 1-1.8h.5v.4h.5v.8l-.5 1.3.2.5-.3 1 .2.3-.3 1.5-.6.8-.5.1-.6 1h-.8l.2-3.3.2-2.4z"/><path id="CA" class="st0 active" d="M396.9 96.2l-.2-5.9 3.6.6 1.6 1 3.4 4.9-.8 5-4.1 2.8-2.3-3.1-1.2-5.3zm13.2 12.7l.3-1.5-2-2.4-5.6-.2.8 3.7 5.2.8 1.3-.4zm36.4 46.9l3.1 5.1.8.6 3.1-1.3 3 .2 3 .3-.2-2.6-4.8-5.4-6.4-1.1-1.4.7-.2 3.5zm-65.4-62.7l-2.7 4.2 6.2.5 4.6 4.4 4.6 1.5-1.1-5.7-2.1-6.7L383 86l-5.5-2 .2 5.7 3.4 3.4zM407 82.9l5.1-.1-2.2 4v5.3l3 5.8 5.8 1.8 5-1 5.2-10.7 3.9-4.4-3.4-5-2.2-10.7-4.6-3.2-4.7-3.7-3.6-9.6-6.5.9 1.2 4.2-2.9 1.2L404 63l-1.9 7.5 1.8 7.3 3.1 5.1zm-63.8 53.4l3.9 1.9 12.7-1.3-5.8 4.8.4 3.4 4.3-.2 7.1-4.6 9.5-1.7 1.7-5.2-.5-5.6-2.9-.5-2.5 1.9-1.1-4.1-.9-5.7-3.1-1.4-2.6 4.4 4 11.1-4.9-.9-5-6.8-7.9-4-2.6 3.3-3.8 11.2zm22.6-42.1l-3.6-2.9-1.5-.7-2.9 4.3-.1 2h4.7l3.4-2.7zm-1.5 12.4l.9-4-3.9-2.1-4.1 1.4-2.3 4.3 4.2 4.2 5.2-3.8zm29.1 33.2l4.6-1.1 1.3-8.2-.1-5.9-2.1-5.6-.2 1.6-3.9-.7-4.2 4.1-3-.4.2 8.9 4.6-.9-.1 6.5 2.9 1.7zm-3.3 45.6l-5.1-3.9-4.7-4.2-.9-6.2-1.8-8.9-3.1-3.8-2.8-1.6-2.5 1.4 2 9.6-1.4 3.7-2.3-9-2.6-3.1-3.2 4.8-3.9-4.8-6.2 2.9 1.4-4.5-2.9-1.9-7.5 5.8-1.9 3.7-2.4 6.8 4.9 2.3 4.3-.1-6.5 3.5 1.5 3.1 4 .2 6-.7 5.4 2-3.7 1.4-3.9-.4-4.3 1.4-1.9.9 3.4 6.4 2.5-.9 3.8 2.1 1.5 3.6 5-.7 7.1-1.2 5.3-2.6 3.3-.5 4.8 2.1 5.1 1.2.9-2.9-1.8-3.1 4.6-.6.5-3.3zm7.8-1l-2 3.5-2.5 2.5 3.8 3.5 2.3-.9 3.8 2.4 1.7-2.7-1.7-3-.8-1.5-1.7-1.5-2.9-2.3zM380.2 155l-2.1-2.2-3.8.4-.9 1.4 4.4 6.8 2.4-6.4zm28.7 13.1l3-6.9 3.3-1.9 4.2-8.7-5.4-2.5-5.8-.4-2.8 2.8-1.5 4.2v4.8l1.8 8.2 3.2.4zm17.2-23l5.8-.2 8-1.6 3.6 1.3 4.2-2.3 1.8-2.8-.6-4.5-3-4.2-4.6-.8-5.7 1-4.5 2.4-4.1-.9-3.8-.5-1.8-2.7-3.2-2.6.6-4.4-2.4-4h-5.5l-3.1-4-5.8-.8-1.1 5.1 3.2 3.7 5.8 1.4 2.8 5.1.3 5.6 1 6 7.4 3.4 4.7 1.3zm-89-18.2l5.2-5.1 2.6-.6 2.2-4.2.4-9.8-3.9 1.9-4.3-.2-5.8 8.2-4.8 9 3.8 2.5 4.6-1.7zm72.1 16.2l1.5-4.1-1-3.5-2.4-3.9-4 3-1.5 4.9 3.4 2.8 4 .8zm-8.3 11.4l-.7-2.9-5 1.3-3.3-2.1-3.3 4.8 3.1 6.3-5.7-1.2-.1 3 7 7.1 1.9 3.4 2.7.7 4.6-3.4.5-8.2-4.2-4.1 2.5-4.7zm-74 153.7l-1.2-2.3-2.8-1.8-1.4-2-.9-1.5-2.6-.5-1.7-.7-2.9-1-.2 1 1.1 2.4 2.9.8.5 1.2 2.5 1.5.8 1.5 4.6 1.9 1.3-.5zm121.7-77.6l-2-2.1-2.1.5-.2-3.1-3.2-2-3.1-2.3-1.6-1.8-1.4 1-.5-3-2-.6-1 6.1-.4 5.1-2.4 3.1 3.8-.6 1 3.6 4-3.2 2.8-3.4 1.6 2.9 4.4 1.5 2.3-1.7zm-120.5-52.5l7.4-4.2V170l3.5-6.4 6.9-6.7 3.5-2.5-3-4.2-2.7-2.9-7.2-.6-4-2.2-9.5 1.6 2.7 6.2-2.4 6.4-1.9 6.9-1.2 3.9 6.5 4.7 1.4 3.9zm134.3 27.3l.3-1v-3.2l-2.2-2.1-2.6 1.1-1.2 4.2.7 3.6 3.1-.4 1.9-2.2zm23.8 7.5l4.4 6.6 3.5 2.9 4.9-7.9.9-4.9-4.4-.5-4-6.7-4.5-1.6-6.6-5 5.1-3.6-2.6-7.5-2.4-3.4-6.8-3.4-2.9-5.6-5.2 2-.4-3.9-3.9-4.3-6.2-4.7-2.6 3.7-5.6 2.7.4-6.1-4.8-10.1-7.1 4.1-2.6 7.7-2.2-5.9 2.1-6.4-7.2 2.6-2.9 4-2.1 8.4.9 9.1h4l-2.9 3.9 2.3 3 4.6 1.2 5.9 2.4 10.2 1.8 5.1-1 1.5-2.4 2.2 2.8 2.5.5 3 5-1.8 2 5.7 2.6 4.3 3.7 1.1 2.6.8 3.2-3.6 6.9-1 3.4.9 2.4-5.8.9-5.3.1-1.9 4.9 2.4 2.2 8.1-1v-1.9l4.1 3.1 4.2 3.3-1 1.8 3.4 3 6 3.5 7.6 2.4-.5-2.1-2.9-3.7-4-5.4 7 5 3.5 1.7 1-4.4-1.8-6.3-1.2-1.7-3.8-3-3-3.9.4-3.9 3.5-.9zM420.4 51.3l2.3 7.3 5 5.9 9.8-1.1 6.3 2-4.4 6.1-2.2-1.8-7.7-.7 1.2 8.3 4 6-.8 5.2-5 3.5-2.3 5.5 4.6 2.7 3.8 8.6-7.5-5.7-1.7.9 1.4 9.4-5.2 2.8.4 5.8 5.3.6 4.2 1.4 8.2-1.8 7.3 3.3 7.5-7.2-.1-3-4.8.5-.4-2.8 3.9-3.8 1.3-5.2 4.3-3.8 2.7-4.8-2.3-7.1 1.9-2.7-3.9-1.9 8.5-1.6 1.8-3.2 5.8-2.6 4.8-13.5 4.6-4.9 6.6-11.1-6.1.1 2.5-4.3 6.8-4 6.8-8.9.1-5.7-5.1-6-6-2.9-7.5-1.8-6.1-1.5-6.1-1.5-8.1 4-1.5-2.5-8.6 1-5 2.6L442 19l-2.1 11.7-3.1-6-3.5-1.1-4.1 8-5.5 3.4-3.3.7-4.2 3.8.6 6.7 3.6 5.1zm74.4 265l-1-2-1.1 1.3.7 1.4 3.6 1.7 1-.3 1.4-1.7-2.6.1-2-.5zm-57-77.8l.6 1.6 2 .1 3.3-3.3.1-1.2-3.9-.1-2.1 2.9zm62.1 66.4l-2.9-1.8-3.7-1.1-1 .4 2.6 2 3.6 1.3 1.4-.1v-.7zm24.9 4.8l-.4-2.2-2 .7.9-3.1-2.8-1.3-1.3 1-2.5-1.2 1-1.5-1.9-.9-1.8 1.5 1.9-3.8 1.5-2.8.5-1.2-1.3-.2-2.4 1.5-1.7 2.5-2.9 6.9-2.4 2.6 1.2 1.1-1.8 1.5.4 1.2 5.4.1 3-.2 2.7 1-2 1.9 1.7.1 3.2-3.6.8.5-.6 3.4 1.8.8 1.3-.1 1.2-3.6-.7-2.6zm-21.2 4.8l-2.8 4.6-4.6.6-3.6-2-.9-3.1-.9-4.5 2.6-2.8-2.5-2.1-4.2.4-5.9 3.5-4.5 5.5-2.4.7 3.2-3.8 4-5.6 3.6-1.9 2.4-3.1 2.9-.3h4.2l6 .9 4.7-.7 3.5-3.6 4.6-1.6 2-1.6 2-1.7-.2-5.2-1.1-1.8-2.2-.6-1.1-4-1.8-1.5-4.5-1.3-2.5-2.8-3.7-2.8 1.1-3.2-3.1-6.3-3.6-6.9-2.2-5-1.9 2.6-2.7 6.1-4.1 3-2-3.2-2.6-.9-.9-7 .1-4.8-5-.4-.9-2.3-3.5-3.4-2.6-2-2.3 1.6-2.9-.6-4.8-1.6-2 1.4.9 9.2 1.2 5.1-3.3 5.8 3.4 4 1.9 4.4.2 3.4-1.5 3.5-3.2 3.5-4.5 2.3 2 2.5 1.5 7.4-1.5 4.7-2.2 1.5-4.2-4.3-2-5.2-.9-4.8.5-4.2-3.1-.5-4.6-.3-3-2.1-3.5-1.4-2-2.4-2.8-1.9-5.2-2.2-3.9 1-1.3-4-1.3-5-4.1-.9.1-6.4 1.1-4.5 3-6.6 3.4-4.9 3.3-.8.2-4.1 2.2-2.7 4-.4 3.2-4.4.8-2.9 2.7-5.7.8-3.5 2.9 2.1 3.9-1.1 5.5-5 .4-3.5-2-4 2.1-4.1-.2-3.9-3.8-3.9-4.1-1.2-4-.6-.1 8.7-2 6.6-2.9 5.3-2.7-4.9.8-5.6-3.4-5-3.8 6.1v-8l-5.2-1.6 2.5-4-3.8-9.6-2.8-3.9-3.7-1.4-3.3 6.4-.2 9.3 3.3 3.3 3 4.9-1.3 7.7-2.3-.2-1.8 5.9v-7l-4.3-2.6-2.5 1.3.3 4.7-4.1-.2-4.4 1.2-4.9-3.4-3.1.6-2.3-4-2.3-1.8-2.2.8-3.4.4-1.8 2.6 2.9 3.2-3.1 3.7-3-4.4-2.4 1.3-7.6.9-5.1-1.6 3.9-3.7-3.8-3.9-2.8.5-3.9-1.3-6.6-2.9-4.3-3.4-3.4-.5-1.1 2.4-3.4 1.3-.4-6.1-3.7 5.5-4.7-7.3-1.9-.9-.6 3.9-2.1 1.9-1.9-3.4-4.6 2.1-4.2 3.6-4.2-1-3.4 2.5-2.5 3.3-2.9-.7-4.4-3.8-5.2-1.9v63l2.8.2 2.7 1.6 2 2.4 2.5 3.6 2.7-3.1 2.8-1.8 1.5 2.9 1.9 2.2 2.6 2.4 1.8 3.8 2.9 5.9 4.8 3.2.1 3.1-1.6 2.4.1 2.5 3.4 3.5.5 3.8 3.6 2-.4 2.8 1.6 4 5.1 1.8 2 1.9 5.4 4.2h78.1V305h.9l.5 2.4.9.7 2 .3 2.9.7 2.7 1.3 2.3-.5 3.4 1.1 1.1-1.7 1.6-.7.6-1 .6-.5 2.6.9 1.9.1.7.6.9 2.4 3.1.6-.5 1.2 1.1 1.2-.5 1.6 1.2.5-.6 1.4.8.1.5-.6.6.9 2.1.5h2.1l2.3.4 2.5.8.9 1.3 1.8 3-.9 1.3-2.3-.5-1.4-2.4.4 2.5-1.3 2.2.1 1.8-.2 1.1-1.8 1.3-1.3 2.1-.6 1.3 1.5.2 2.1-1.2 1.2-1.1.8-.2 1.5.4.8-.6 1.4-.5 2.4-.5-.2-1.1h-.1l-.9.2-1.1-.4.8-1.3.9-.5 2-.6 2.4-.5 1.2.7.8-.9.9-.5.6.3v.1l2.9-2.7 1.3-.7h9.5l.3-1 .9-.2 1.2-.6 1-1.8.9-3.1 2.1-3.1.9 1.1 1.9-.7 1.2 1.2v5.5l1.8 2.2 3.1-.5 4.5-.1-4.9 3.3.1 3.3 2.1.3 3.1-2.8 2.8-1.6 6.2-2.4 3.5-2.6-1.8-1.5-.5-3.7zm-53.7-71.1l1.1-3.1-.7-1.2-1.1-.1-1.1 1.8-.1.4.7 1.8 1.2.4zm-142.7 36.4l1.6-2.4-1.6 2.4zm-3.4 3.3l-2.7.4-1.3-.6-.2 1.5.5 2.1 1.4 1.5 1 2.1 1.7 2.1h1.1l-2.4-3.7.9-5.4z"/><path id="CD" class="st0" d="M759.7 453.6l-.2 3.3 1.1.4-.9 1-1.1.7-1.1 1.5-.6 1.3-.2 2.2-.6 1.1v2.1l-.8.8-.1 1.7-.4.2-.3 1.5.7 1.3.2 3.4.5 2.6-.3 1.5.6 1.6 1.6 1.6 1.5 3.6-1.1-.3-3.8.5-.8.3-.6 1.5.6 1.2-.5 3.4-.4 2.9.8.5 2 1.1.8-.5.2 3.1h-2.2l-1.2-1.6-1-1.2-2.2-.4-.6-1.5-1.7.9-2.2-.4-.9-1.3-1.8-.3-1.3.1-.2-.9-1-.1-1.3-.2-1.7.4-1.2-.1-.7.3.2-3.4-.9-1-.2-1.7.4-1.7-.6-1.1v-1.8h-3.4l.2-1h-1.4l-.2.5-1.7.1-.7 1.7-.4.7-1.5-.4-.9.4-1.9.2-1.1-1.5-.6-.9-.8-1.7-.7-2.1h-8.3l-1 .3h-.8l-1.2.4-.4-.9.7-.3.1-1.2.5-.7 1-.6.7.3 1-1.1h1.5l.2.8 1 .5 1.6-1.8 1.6-1.4.7-.9-.1-2.3 1.2-2.7 1.3-1.4 1.9-1.3.3-.9.1-1 .5-1-.1-1.6.3-2.5.5-1.7.8-1.5.2-1.7.2-1.9 1.1-1.4 1.5-.9 2.3.9 1.8 1 2 .3 2.1.5.8-1.7.4-.2 1.3.3 3.1-1.4 1.1.6.9-.1.4-.7 1-.2 2.1.3 1.8.1.9-.3 1.7 2.3 1.3.3.8-.5 1.3.2 1.6-.6.7 1.2 2.6 2z"/><path id="CF" class="st0" d="M716.1 442.7l2.3-.2.5-.7.5.1.7.6 3.5-1.1 1.2-1.1 1.5-1-.3-1 .8-.3 2.7.2 2.6-1.3 2-3.1 1.4-1.1 1.8-.5.3 1.2 1.6 1.8v1.1l-.5 1.2.2.9 1 .8 2.1 1.2 1.5 1.1v.9l1.9 1.5 1.2 1.2.7 1.7 2.1 1.1.5.9-.9.3-1.8-.1-2.1-.3-1 .2-.4.7-.9.1-1.1-.6-3.1 1.4-1.3-.3-.4.2-.8 1.7-2.1-.5-2-.3-1.8-1-2.3-.9-1.5.9-1.1 1.4-.2 1.9-1.8-.2-1.9-.5-1.7 1.5-1.5 2.6-.3-.8-.1-1.3-1.3-.9-1-1.4-.2-1-1.3-1.5.2-.8-.3-1.2.2-2.2.7-.5 1.3-2.7z"/><path id="CG" class="st0" d="M709.7 476.7l-1-1-.9.5-1.1 1.2-2.3-2.9 2.1-1.5-1-1.9 1-.7 1.9-.3.2-1.2 1.5 1.3 2.5.1.9-1.3.4-1.9-.3-2.2-1.3-1.6 1.2-3.2-.7-.5-2.1.2-.8-1.4.2-1.2 3.5.1 2.3.7 2.2.7.2-1.5 1.5-2.6 1.7-1.5 1.9.5 1.8.2-.2 1.7-.8 1.5-.5 1.7-.3 2.5.1 1.6-.5 1-.1 1-.3.9-1.9 1.3-1.3 1.4-1.2 2.7.1 2.3-.7.9-1.6 1.4-1.6 1.8-1-.5-.2-.8h-1.5l-1 1.1-1-.6z"/><path id="CH" class="st0" d="M700.1 312.3l.1.7-.4 1 1.3.7 1.4.1-.2 1.7-1.2.7-2.1-.5-.6 1.6-1.3.1-.5-.6-1.6 1.4-1.4.2-1.2-.9-1-1.8-1.3.6v-1.8l2.1-2.3-.1-1.1 1.3.4.8-.7h2.4l.6-.9 2.9 1.4z"/><path id="CI" class="st0" d="M665.2 449.5h-1.3l-2-.5h-1.8l-3.3.5-1.9.8-2.8 1-.5-.1.2-2.3.3-.4-.1-1.1-1.2-1.2-.9-.2-.8-.8.6-1.2-.3-1.4.1-.8h.5l.2-1.2-.2-.5.3-.4 1-.3-.7-2.3-.6-1.1.2-1 .6-.2.4-.3.8.4h2.2l.5-.8.5.1.8-.3.4 1.2.6-.4 1.2-.4 1.3.6.5.9 1.3.6 1-.7 1.3-.1 1.9.7.7 4-1.2 2.4-.7 3.2 1.2 2.4-.3 1.2z"/><path id="CL" class="st0" d="M480.8 636.7v10.6h3l1.7.1-.9 2-2.4 1.5-1.4-.2-1.7-.4-2-1.5-2.9-.7-3.5-2.7-2.9-2.6-3.9-5.2 2.3 1 3.9 3.1 3.7 1.7 1.5-2.2.9-3.2 2.6-1.9 2 .6zm1.2-112l1.1 4.2 2-.4.3.8-1 3.2-3 1.5.1 5.1-.6 1 .8 1.2-2 2-1.8 3-1 2.9.3 3.1-1.7 3.3 1.3 5.7.7.6v3.1l-1.6 3.3.1 2.9-2.1 2.3v3.2l.9 3.5-1.7 1.3-.8 3.2-.7 3.8.5 4.5-1.1.8.6 4.4 1.3 1.5-.9 1.6 1.3.8.3 1.5-1.2.8.3 2.3-1 5.3-1.5 3.5.3 2.1-.9 2.7-2.1 1.9.2 4.6 1 1.6 1.9-.3v3.3l1.2 2.6 6.8.6 2.6.7h-2.5l-1.4 1.1-2.5 1.7-.5 4.4-1.2.1-3.2-1.5-3.2-3.2-3.5-2.6-.9-2.9.8-2.6-1.4-2.9-.4-7.3 1.2-4 3-3.2-4.3-1.2 2.7-3.6 1-6.6 3.1 1.4 1.5-8-1.9-1-.9 4.8-1.8-.5.9-5.4 1-6.8 1.3-2.5-.8-3.5-.2-4 1.2-.1 1.7-5.6 1.9-5.4 1.2-5-.6-4.9.8-2.7-.3-4 1.6-3.9.5-6 .9-6.4.9-6.8-.2-4.9-.6-4.2 1.4-.8.8-1.5 1.4 2 .4 2.1 1.5 1.2-.9 2.9 1.3 3.2z"/><path id="CM" class="st0" d="M709.9 457.1l-.4-.1-1.7.4-1.7-.4-1.3.2-4.6-.1.4-2.2-1.1-1.8-1.3-.5-.6-1.2-.7-.4v-.8l.7-2 1.3-2.7h.8l1.7-1.6h1.1l1.6 1.1 1.9-.9.3-1.2.6-1.1.4-1.4 1.5-1.2.6-2 .6-.6.4-1.5.7-1.8 2.4-2.2.2-.9.3-.5-1.1-1.1.1-.9.8-.2 1.1 1.8.2 1.9-.1 1.9 1.5 2.6h-1.6l-.8.2-1.3-.3-.6 1.3 1.7 1.6 1.2.5.4 1.2.9 1.9-.4.8-1.4 2.8-.6.3-.2 2.2.3 1.2-.2.8 1.3 1.5.2 1 1 1.4 1.3.9.1 1.3.3.8-.2 1.5-2.2-.7-2.3-.7-3.5-.1z"/><path id="CN" class="st0" d="M982.6 410.4l-2.4 1.4-2.3-.9-.1-2.5 1.4-1.3 3.1-.8 1.6.1.6 1.1-1.2 1.3-.7 1.6zm48.6-107.5l4.9 1.4 3.3 3 1.1 4h4.3l2.4-1.6 4.6-1.2-1.5 3.8-1.1 1.5-1 4.5-1.9 3.9-3.4-.7-2.4 1.4.7 3.4-.4 4.5-1.4.1v1.9l-1.8-2.2-1.1 2.1-4.3 1.6.4 2-2.4-.1-1.3-1.2-1.9 2.6-3.1 2-2.3 2.4-3.9 1.1-2.1 1.7-3 1 1.5-1.7-.6-1.4 2.2-2.5-1.5-1.9-2.4 1.3-3.2 2.5-1.7 2.3-2.8.2-1.4 1.7 1.5 2.4 2.3.6.1 1.6 2.2 1 3.1-2.5 2.5 1.4 1.8.1.5 1.8-4 1-1.3 1.9-2.7 1.7-1.4 2.4 3 1.9 1.1 3.3 1.7 3 1.9 2.5v2.4l-1.8.9.7 1.7 1.7 1-.4 2.6-.7 2.5-1.6.3-2 3.4-2.3 4.1-2.6 3.7-3.9 2.8-3.9 2.5-3.2.4-1.7 1.3-1-1-1.6 1.5-3.9 1.5-3 .5-1 3.1-1.5.2-.7-2.2.7-1.2-3.8-1-1.3.5-2.8-.8-1.3-1.2.4-1.7-2.6-.5-1.3-1.1-2.4 1.6-2.7.4h-2.2l-1.5.7-1.5.4.4 3.4-1.5-.1-.2-.7-.1-1.2-2.1.9-1.2-.5-2.1-1.1.8-2.5-1.8-.6-.7-2.8-3 .5.3-3.6 2.7-2.6.1-2.6-.1-2.4-1.2-.8-.9-1.9-1.6.2-3-.5 1-1.3-1.3-2-2 1.4-2.4-.8-3.2 2-2.5 2.4-2.3.4-1.2-.9-1.5-.1-2-.7-1.5.8-1.8 2.3-.2-2.5-1.7.7-3.3-.3-3.2-.7-2.3-1.4-2.2-.6-.9-1.5-1.6-.5-2.8-2.1-2.2-1-1.2.8-3.9-2.3-2.8-2.1-.8-3.6 2 .4.1-1.7-1.1-1.7.3-2.7-3-4-4.6-1.4-.8-2.7-2.1-1.6-.5-1-.4-2 .1-1.4-1.7-.8-.9.4-.7-3.3.8-.8-.4-.9 2.7-1.7 1.9-.7 3 .5 1.1-2.4 3.6-.4 1-1.5 4.4-2 .4-.9-.2-2.2 1.9-1-2.5-6.8 5.5-1.6 1.4-.9 2-7.3 5.6 1.4 1.6-1.9.1-4.2 2.3-.4 2.1-2.8 1.1-.4.7 3 2.4 2.2 4 1.6 1.9 3.3-1.1 4.7 1 1.7 3.3.7 3.8.5 3.4 2.5 1.7.4 1.3 3.6 1.7 2.3 3.1-.1 5.8.9 3.7-.5 2.8.6 4.2 2.3h3.4l1.2 1.2 3.3-2 4.5-1.3 4.2-.1 3.3-1.3 2-2 2-1.3-.5-1.3-.9-1.5 1.5-2.5 1.6.4 2.9.8 2.8-2.1 4.3-1.5 2-2.7 2-1.2 4.1-.5 2.2.5.3-1.5-2.5-2.9-2.2-1.3-2.2 1.5-2.8-.6-1.6.5-.7-1.7 2-4.2 1.4-3.2 3.4 1.6 4-2.7v-1.9l2.5-4.7 1.6-1.5V291l-1.5-1.1 2.3-2.3 3.5-.8 3.7-.1 4.2 1.4 2.5 1.7 1.7 4.6 1 1.9 1 2.7.6 3.9z"/><path id="CO" class="st0" d="M461.9 463.8l-1.2-.7-1.4-.9-.8.4-2.4-.4-.7-1.2-.5.1-2.8-1.6-.4-.9 1.1-.2-.1-1.4.7-1 1.4-.2 1.2-1.8 1.1-1.5-1-.7.5-1.6-.6-2.6.6-.7-.4-2.4-1.1-1.5.4-1.4.9.2.5-.8-.6-1.6.3-.4 1.4.1 2.1-2 1.1-.3v-.9l.5-2.4 1.6-1.3 1.8-.1.2-.6 2.2.2 2.2-1.4 1.1-.6 1.4-1.4 1 .2.7.8-.5 1-1.8.5-.7 1.4-1.1.8-.8 1.1-.4 2-.8 1.7 1.4.2.4 1.3.6.6.2 1.1-.3 1 .1.6.7.2.7 1 3.6-.3 1.6.4 2 2.4 1.1-.3 2 .1 1.6-.3 1 .5-.5 1.5-.6.9-.2 2 .6 1.9.8.8.1.6-1.4 1.4 1 .6.8 1 .8 2.8-.5.3-.5-1.6-.8-.9-.9 1-5.5-.1v1.7l1.6.3-.1 1.1-.6-.3-1.6.5v2l1.2 1 .4 1.6-.1 1.2-1.3 7.6-1.4-1.5-.8-.1 1.8-2.8-2.1-1.3-1.7.2-1-.5-1.6.7-2.1-.4-1.6-2.9-1.3-.7-.9-1.3-1.9-1.3-.7.5z"/><path id="CR" class="st0" d="M440.6 440.4l-1.5-.6-.6-.6.3-.5-.1-.6-.8-.7-1.1-.6-1-.4-.2-.8-.7-.5.2.8-.6.7-.6-.8-.9-.3-.4-.6v-.9l.4-.9-.8-.4.6-.5.4-.4 1.8.8.6-.4.9.2.5.6.8.2.7-.6.7 1.5 1.1 1.1 1.3 1.2-1.1.2v1.1l.6.4-.4.3.1.5-.2.6v.9z"/><path id="CU" class="st0" d="M442.6 396.9l2.4.2h2.2l2.6 1 1.1 1.1 2.6-.3 1 .7 2.4 1.9 1.7 1.4h.9l1.7.6-.2.8 2.1.1 2.1 1.2-.3.7-1.9.4-1.9.1-1.9-.2-4 .3 1.9-1.7-1.1-.8-1.8-.2-1-.9-.7-1.7-1.6.1-2.6-.8-.8-.6-3.7-.5-1-.6 1.1-.8-2.8-.1-2 1.6h-1.2l-.4.7-1.4.3-1.2-.3 1.5-.9.6-1.1 1.3-.7 1.4-.6 2.1-.3.8-.1z"/><path id="CY" class="st0" d="M768.3 358.3l1.9-1.5-2.5 1-2-.1-.4.8h-.2l-1.3.1.6 1.4 1.4.4 2.9-1.4-.1-.3-.3-.4z"/><path id="CZ" class="st0" d="M720.8 307.9l-1.3-.8-1.3.2-2.2-1.3-1 .3-1.6 1.7-2.1-1.4-1.6-1.8-1.4-1-.3-1.8-.5-1.3 2-.9 1-1.1 2-.9.7-.8.7.5 1.2-.5 1.3 1.4 2.1.4-.2 1.2 1.5.9.4-1.1 1.9.5.3 1.4 2.1.3 1.3 2.1h-.8l-.4.8-.6.2-.2 1-.5.2-.1.4-1 .4-1.2-.1-.2.9z"/><path id="DE" class="st0 active" d="M701.1 278.9v1.9l2.8 1.1v1.7l2.9-.9 1.6-1.3 3.2 1.9 1.3 1.5.7 2.4-.8 1.2 1 1.6.7 2.4-.2 1.6 1.1 2.9-1.2.5-.7-.5-.7.8-2 .9-1 1.1-2 .9.5 1.3.3 1.8 1.4 1 1.6 1.8-1 1.9-1 .5.4 2.7-.3.7-.9-.8-1.3-.1-2 .7-2.5-.2-.4 1.1-1.4-1.1-.9.2-3-1.3-.6.9h-2.4l.4-3 1.4-2.9-4-.8-1.3-1.1.2-1.9-.6-1 .3-3-.5-4.7h1.7l.7-1.7.7-4.2-.5-1.6.6-1 2.3-.3.5 1 1.9-2.3-.6-1.8-.1-2.8 2.1.6 1.6-.3z"/><path id="DJ" class="st0" d="M794 427.7l.7.9-.1 1.2-1.6.7 1.2.8-1 1.5-.6-.5-.7.2h-1.6v-.9l-.2-.8.9-1.3 1-1.3 1.2.2.8-.7z"/><path id="DK" class="st0" d="M708.8 275.8l-1.7 4-2.9-2.8-.4-2 4.1-1.7.9 2.5zm-4.9-4.2l-.7 1.9-.8-.5-2 3.6.8 2.4-1.8.7-2.1-.6-1.1-2.7-.1-5.1.5-1.4.8-1.5 2.5-.3 1-1.4 2.3-1.5-.1 2.7-.8 1.7.3 1.4 1.3.6z"/><path id="DO" class="st0" d="M472.2 407.4l.4-.5h2.2l1.7.8.7-.1.5 1 1.5-.1-.1.9 1.2.1 1.4 1.1-1 1.2-1.3-.6-1.3.1-.9-.1-.5.5-1.1.2-.4-.7-.9.4-1.1 2-.7-.5-.1-.8.1-.8-.7-.9.7-.5.2-1.1-.5-1.6z"/><path id="DZ" class="st0" d="M706.9 396.1l-9.6 5.8-8.1 5.9-4 1.3-3.1.3v-1.9l-1.3-.5-1.8-.9-.7-1.4-9.5-6.5-9.5-6.7-10.6-7.5.1-.6v-4l4.5-2.4 2.8-.5 2.3-.9 1.1-1.6 3.3-1.3.1-2.4 1.6-.3 1.3-1.2 3.7-.6.5-1.3-.7-.7-1-3.5-.2-2-1.1-2.2 2.7-1.9 3-.6 1.8-1.4 2.7-1 4.8-.6 4.6-.3 1.4.5 2.6-1.4h3l1.1.8 1.9-.2-.6 1.8.4 3.3-.7 2.8-1.7 1.9.2 2.5 2.3 2v.8l1.7 1.3 1.2 5.9.9 2.8.1 1.5-.5 2.6.2 1.4-.4 1.7.2 2-1.1 1.3 1.7 2.3.1 1.3 1 1.7 1.3-.6 2.2 1.4 1.8 2z"/><path id="EC" class="st0" d="M448.1 472.9l1.5-2.1-.6-1.2-1.1 1.3-1.7-1.2.6-.8-.5-2.5 1-.4.5-1.7 1.1-1.8-.2-1.1 1.5-.6 1.9-1.1 2.8 1.6.5-.1.7 1.2 2.4.4.8-.4 1.4.9 1.2.7.4 2.1-.9 1.8-3.1 2.9-3.4 1.1-1.7 2.4-.5 1.9-1.6 1.1-1.2-1.4-1.1-.3-1.2.2-.1-1 .8-.7-.2-1.2z"/><path id="EE" class="st0" d="M741.4 264.7l.3-3.1-1 .7-1.8-1.9-.2-3.1 3.5-1.5 3.5-.8 3 .9 2.9-.2.4 1-2 3.1.8 5-1.2 1.7h-2.3l-2.4-1.9-1.2-.6-2.3.7z"/><path id="EG" class="st0" d="M771.2 377.3l-.8 1.3-.6 2.4-.8 1.6-.7.6-.9-1-1.3-1.4-2-4.6-.3.3 1.2 3.4 1.7 3.2 2.1 4.9 1 1.7.9 1.7 2.5 3.4-.6.5.1 2 3.3 2.7.5.6h-33.3v-22.4l-.8-2.6.7-2-.4-1.4 1-1.6h3.7l2.7.9 2.8 1 1.3.5 2.2-1 1.2-.9 2.5-.3 2 .4.8 1.6.7-1.1 2.2.8 2.2.2 1.4-.8 1.8 5.4z"/><path id="EH" class="st0" d="M636.6 383.1H649h-12.4l-.1.1-1.8 3.2-1.9 1.1-1 1.9-.1 1.6-.8 1.8-.9.5-1.6 1.9-1 2.1.2 1-.9 1.6-1.1.8-.1 1.4-.1 1.3.6-1h11l-.5-4.3.7-1.6 2.6-.3-.1-7.9 9.2.2V384l.1-.6v-.2l-12.4-.1z"/><path id="ER" class="st0" d="M792 428.2l-1-.9-1.1-1.7-1.2-.9-.7-1-2.4-1.1h-1.9l-.7-.6-1.6.7-1.7-1.3-.9 2.1-3.3-.6-.3-1.1 1.2-4.2.3-1.9.9-.9 2.1-.5 1.4-1.7 1.6 3.4.8 2.7 1.5 1.4 3.8 2.7 1.6 1.6 1.5 1.7.9 1 1.4.9-.8.7-1.4-.5z"/><path id="ES" class="st0 active" d="M647.9 334.6l.1-2.7-1.1-1.7 4-2.8 3.4.7h3.8l3 .7 2.3-.2 4.5.1 1.1 1.5 5.2 1.7 1-.8 3.2 1.7 3.2-.5.1 2.2-2.7 2.5-3.6.8-.2 1.2-1.7 2-1.1 3 1.1 2.1-1.6 1.6-.6 2.3-2.1.7-2 2.7-3.6.1-2.7-.1-1.8 1.2-1.1 1.3-1.4-.3-1-1.2-.8-2-2.6-.5-.2-1.2 1-1.3.4-1-1-1.1.8-2.4-1.1-2.2 1.2-.3.1-1.7.5-.5v-2.9l1.3-1-.8-1.9-1.6-.1-.5.5h-1.6l-.7-1.8-1.1.5-1 1.1z"/><path id="ET" class="st0" d="M779.5 421.2l1.7 1.3 1.6-.7.7.6h1.9l2.4 1.1.7 1 1.2.9 1.1 1.7 1 .9-1 1.3-.9 1.3.2.8v.9h1.6l.7-.2.6.5-.6 1 1 1.6 1 1.4 1.1 1 9.2 3.3h2.4l-7.9 8.4-3.7.1-2.5 2h-1.8l-.8.9h-1.9l-1.1-.9-2.6 1.2-.8 1.2-1.9-.2-.6-.3-.7.1h-.9l-3.5-2.4h-2l-1-.9v-1.6l-1.5-.5-1.6-3-1.3-.7-.5-1.1-1.4-1.4-1.7-.2 1-1.6 1.5-.1.4-.9v-2.5l.8-3 1.3-.8.3-1.2 1.2-2.2 1.7-1.4 1.1-2.8.5-2.5 3.3.6 1-2z"/><path id="FK" class="st0" d="M501.7 633.1l3.4-2.7 2.4 1.1 1.7-1.8 2.2 2-.8 1.6-3.8 1.4-1.3-1.6-2.4 2-1.4-2z"/><path id="FI" class="st0" d="M753.4 193.1l-.4 5.4 4.3 5-2.6 5.5 3.3 8-1.9 5.8 2.5 4.9-1.2 4.1 4.2 4.3-1.1 3.1-2.6 3.4-6 7.4-5.1.4-4.9 2.1-4.6 1.2-1.6-3.1-2.7-1.9.6-5.7-1.4-5.4 1.3-3.6 2.5-3.9 6.4-7 1.9-1.4-.3-2.8-3.9-3.2-.9-2.7-.1-11.1-4.4-5.1-3.7-3.8 1.7-2.1 3.1 4.1 3.7-.4 3 1.9 2.7-3.4 1.4-5.9 4.4-2.8 3.6 3.3-1.2 5.4z"/><path id="FJ" class="st0" d="M1178.5 508.6l-.3 1.4-.2.2-1.8.7-1.8.6-.4-1.1 1.4-.6.9-.2 1.6-.9.6-.1zm-5.8 4.3l-1.3-.4-1.1 1 .3 1.3 1.5.4 1.7-.4.5-1.5-1-.8-.6.4z"/><path id="FR" class="st0 active" d="M700.1 333.5l-.9 2.9-1.3-.8-.6-2.5.6-1.4 1.8-1.5.4 3.3zm-16.8-33.3l2 2.1 1.4-.3 2.5 2 .6.4.8-.1 1.3 1.1 4 .8-1.4 2.9-.4 3-.8.7-1.3-.4.1 1-2 2.3v1.8l1.3-.6 1 1.8-.1 1.1.8 1.5-1 1.2.7 3 1.5.5-.3 1.7-2.5 2.2-5.5-1-4.1 1.2-.3 2.3-3.2.5-3.1-1.7-1 .8-5.2-1.7-1.1-1.5 1.5-2.3.5-7.9-2.9-4.3-2.1-2.1-4.3-1.6-.3-3.1 3.6-.9 4.7 1.1-.9-4.8 2.6 1.9 6.5-3.4.8-3.6 2.5-.9.4 1.6 1.3.1 1.4 1.6z"/><path id="GA" class="st0" d="M704.4 474.5l-2.9-2.8-1.9-2.3-1.7-2.9.1-.9.6-.9.7-2 .6-2.1 1-.2h4.1V457l1.3-.2 1.7.4 1.7-.4.4.1-.2 1.2.8 1.4 2.1-.2.7.5-1.2 3.2 1.3 1.6.3 2.2-.4 1.9-.9 1.3-2.5-.1-1.5-1.3-.2 1.2-1.9.3-1 .7 1 1.9-2.1 1.8z"/><path id="GB" class="st0 active" d="M657.4 281l-1.5 3.3-2.1-1-1.7.1.6-2.6-.6-2.6 2.4-.2 2.9 3zm7.4-20.8l-3 5.7 2.9-.7h3.1l-.7 4.2-2.5 4.5 2.9.3.2.5 2.5 5.8 1.9.8 1.7 5.4.8 1.8 3.4.9-.3 2.9-1.4 1.3 1.1 2.3-2.5 2.3h-3.8l-4.8 1.2-1.3-.9-1.9 2.1-2.6-.5-2 1.7-1.5-.9 4.1-4.6 2.5-1-4.4-.8-.8-1.8 2.9-1.4-1.5-2.5.5-3.1 4.2.4.4-2.7-1.9-3v-.1l-3.4-.9-.7-1.3 1-2.2-.9-1.4-1.5 2.3-.2-4.8-1.4-2.6 1-5.4 2.2-4.3 2.2.4 3.5.1z"/><path id="GE" class="st0" d="M789.8 335.9l.4-1.6-.7-2.6-1.6-1.4-1.5-.4-1-1.2.3-.5 2.4.7 4.1.6 3.8 1.8.5.7 1.7-.6 2.6.8.8 1.5 1.8.9-.7.5 1.4 2-.4.4-1.5-.2-2.1-1.1-.7.6-3.9.6-2.7-1.8-3 .3z"/><path id="GF" class="st0" d="M525.9 456.4l-1.1 1.1-1.3.2-.4-.8-.6-.1-.9.8-1.2-.6.7-1.2.2-1.3.5-1.2-1.1-1.6-.2-1.9 1.5-2.4 1 .3 2.1.7 3 2.4.5 1.1-1.7 2.5-1 2z"/><path id="GH" class="st0 active" d="M676.2 446.8l-4.4 1.6-1.6 1-2.5.8-2.5-.8.1-1.1-1.2-2.4.7-3.2 1.2-2.4-.7-4-.4-2.1.1-1.6 4.9-.1 1.2.2.9-.5 1.3.2-.2.9 1.2 1.5v2l.3 2.2.7 1-.6 2.5.2 1.4.8 1.8.5 1.1z"/><path id="GL" class="st0" d="M542.1 23.9l9.4-13.6 9.8 1.1 3.6-8.9 9.9-2.4 22.4 3.2 17.5 18.6-5.2 8.3-10.6.8-15.1 2 1.4 3.6 9.9-2.2 8.4 6.9 5.5-6.1 2.3 7.2-3.1 11 7.1-6.9 13.6-7.5 8.4 3.8 1.6 8.1-11.4 12.7-1.6 3.9-9 2.9 6.5.8-3.3 11.5-2.3 9.6.1 15.3 3.4 8.3-4.4.5-4.6 3.9 5.2 6.3.7 9.6-3 1 3.6 9.1-6.2.8 3.2 4.1-.9 3.5-4 1.5H607l3.5 6.5v4.1l-5.6-3.8-1.4 2.5 3.8 2.3 3.7 5.5 1.1 6.9-5 1.6-2.2-3.3-3.5-5 1 5.9-3.2 4.4 7.4.3 3.9.4-7.5 7-7.6 6.1-8.2 2.6h-3.1l-2.9 2.9-3.9 7.6-6 4.9-1.9.3-3.7 1.7-4 1.6-2.4 4.1v4.6l-1.4 4.2-4.6 4.9 1.1 4.7-1.3 4.9-1.4 5.6-4 .3-4.1-4.6H538l-2.7-3.2-1.9-5.8-4.9-7.7-1.4-4.1-.4-5.9-3.9-6.3 1-5.2-1.9-2.5 2.8-8.7 4.2-2.8 1.1-3.3.6-6.3-3.2 2.9-1.5 1.2-2.5 1.1-3.4-2.6-.2-5.6 1.1-4.5 2.6-.1 5.7 2.2-4.8-5.4-2.5-3-2.8 1.2-2.3-2.2 3.1-8.5-1.7-3.5-2.2-6.7-3.4-10.9-3.6-4.2v-4.6l-7.5-6.7-5.9-.8-7.5.5-6.8.9-3.3-3.8-4.9-7.7 7.4-4 5.6-.7-12-3.4-6.3-5.4.4-5.3 10.6-6.9 10.3-7.2 1.1-5.6-7.6-5.8 2.4-6.6 9.7-12.3 4.1-2-1.2-8.6 6.6-5.2 8.6-3.2 8.6-.2 3.1 6.3L532 28l6.7 7.8 3.9 1.6 5.8 6.4-6.6-10.8.3-9.1z"/><path id="GM" class="st0" d="M626 426.4l.4-1.3 3-.1.6-.7h.9l1.1.7h.9l.9-.5.6.8-1.2.6H632l-1.2-.6-1 .7h-.5l-.7.4H626z"/><path id="GN" class="st0" d="M649.6 441.9l-.8-.1-.6 1.1h-.8l-.5-.6.2-1.1-1.2-1.7-.7.3-.6.1-.8.2v-1l-.4-.7.1-.8-.6-1.2-.8-1h-2.2l-.6.5-.8.1-.5.6-.3.8-1.5 1.2-1.2-1.7-1.1-1.1-.7-.4-.7-.6-.3-1.2-.4-.6-.8-.5 1.2-1.4h.9l.7-.5h.6l.4-.4-.2-.9.3-.3v-1h1.4l2 .7.6-.1.2-.3 1.5.2.4-.2.2 1h.4l.7-.4.5.1.8.7 1.2.2.8-.6.9-.4.7-.4.6.1.6.6.3.8 1.1 1.2-.6.7-.1.9.6-.3.4.3-.1.8.9.8-.6.2-.2 1 .6 1.2.7 2.3-1 .3-.3.4.2.5-.2 1.2h-.5v.4z"/><path id="GQ" class="st0" d="M699.9 460.6l-.5-.4 1-3.1 4.6.1v3.4h-5.1z"/><path id="GR" class="st0" d="M739.7 356.7l1.5 1.2 2.2-.2 2.1.2-.1.6 1.5-.4-.3 1-4 .3v-.6l-3.4-.7.5-1.4zm8.1-20.9l-.9 2.3-.7.4-1.7-.1-1.5-.4-3.4 1 1.9 2.1-1.4.6h-1.6l-1.5-1.9-.5.8.6 2.2 1.4 1.7-1.1.8 1.6 1.6 1.4 1v2l-1.4-1.1-1 .2.8 1.8-.8.2-1-.7 1.2 4h-.6l-.5-1.2h-.6l-.3 1.3-.5-.3.1-.7-.6-1h-.6l.1.8-.2.3-.6-.5-.4-1 .5-.6-.4-.7-.4-.4-.2-.3-.5-.9.6-.5.4-.5.6.1.2-.4.6-.2.7.5.5.2.4-.6-.9-.1-.6-.2-1.2.3h-1.2l-1.1-1.6-.2-.2.2-.6-1.4-1.1-.2-1 1.3-1.8.2-1.2.9-.5.1-1 1.8-.3 1.1-.8 1.5.1.5-.6.5-.1 2.1.1 2.2-1 2 1.3 2.5-.4v-1.9l1.2.7z"/><path id="GT" class="st0" d="M420.6 424.8l-1.4-.5h-1.8l-1.3-.6-1.5-1.2.1-.8.3-.7-.4-.5 1.3-2.4h3.6l.1-1-.5-.2-.3-.6-1-.7-1-1h1.3V413h5.2v2.3l-.2 3.3h.8l.9.5.2-.4.8.4-1.3 1.1-1.3.8-.2.6.2.6-.6.7-.7.2.2.3-.5.3-1 .7v.4z"/><path id="GW" class="st0" d="M630.8 432.4l-1.5-1.2-1.2-.2-.6-.8v-.4l-.8-.6-.2-.6 1.5-.5.9.1.8-.3 5.2.1v1l-.3.3.2.9-.4.4h-.6l-.7.5h-.9l-1.4 1.3z"/><path id="GY" class="st0" d="M505.7 440l1.8 1 1.7 1.8.1 1.5 1.1.1 1.5 1.4 1.1 1-.4 2.5-1.7.7.1.6-.5 1.5 1.2 2h.9l.4 1.6 1.7 2.4-.7.1-1.6-.2-.9.7-1.3.5-.9.1-.3.5-1.4-.1-1.7-1.3-.2-1.3-.7-1.4.5-2.4.8-1-.6-1.3-1-.4.4-1.2-.7-.6-1.5.1-1.9-2.1.8-.8-.1-1.3 1.7-.5.7-.5-1-1 .2-1 2.4-1.7z"/><path id="HN" class="st0" d="M428.4 426.9l-.5-.9-.9-.2.2-1.2-.4-.3-.6-.2-1.2.3v-.4l-.9-.5-.6-.6-.8-.2.6-.7-.2-.6.2-.6 1.3-.8 1.3-1.1.3.1.6-.5h.8l.3.2.4-.1 1.3.3 1.3-.1.9-.3.3-.3.9.1.7.2.7-.1.6-.2 1.3.4.4.1.9.5.8.7 1 .4.7.8-1-.1-.4.4-1 .4h-.7l-.6.4-.6-.1-.5-.4-.3.1-.4.7h-.3v.6l-1 .8-.5.3-.3.4-.8-.6-.6.8h-.6l-.7.1.1 1.4h-.4l-.3.7-.8-.1z"/><path id="HR" class="st0" d="M726 318.9l.7 1.6.9 1.1-1.1 1.5-1.3-.9-1.9.1-2.4-.7-1.3.1-.6.8-1-.9-.6 1.6 1.4 1.8.6 1.2 1.3 1.5 1.1.8 1.1 1.6 2.5 1.4-.3.6-2.6-1.4-1.6-1.4-2.6-1.1-2.4-2.9.6-.3-1.3-1.6-.1-1.3-1.8-.6-.9 1.7-.8-1.3.1-1.4.1-.1 1.9.1.5-.7 1 .6 1.1.1v-1.1l1-.4.3-1.6 2.2-1.1.9.5 2.1 1.7 2.3.8.9-.4z"/><path id="HT" class="st0" d="M468 406.8l1.7.1 2.4.5.2 1.6-.2 1.1-.7.5.7.9-.1.8-1.9-.5-1.1.2-1.7-.2-1.3.5-1.5-.9.2-1 2.6.4 2.1.2 1-.7-1.3-1.3v-1.1l-1.8-.5.7-.6z"/><path id="HU" class="st0" d="M718.7 315.1l.9-2.6-.5-.9h1.6l.2-1.7 1.4 1.1 1 .5 2.4-.5.2-.8 1.1-.1 1.4-.6.3.3 1.3-.5.7-1 .9-.2 3 1.3.6-.4 1.5 1.1.2 1.1-1.7.9-1.3 2.8-1.7 2.8-2.2.3-1.8-.2-2.2 1-1 .6-2.3-.8-2.1-1.7-.9-.5-.5-1.4-.5.1z"/><path id="ID" class="st0" d="M1011.7 492.1h-1.2l-3.7-2 2.6-.6 1.5.9 1 .9-.2.8zm10.5-.3l-2.4.6-.3-.3.2-1 1.2-1.7 2.8-1.1.3.6v.9l-1.8 2zm-18.4-5.8l1 .8 1.7-.2.7 1.2-3.2.6-1.9.4h-1.5l1-1.6h1.5l.7-1.2zm14.1 0l-.4 1.6-4.2.8-3.7-.4v-1l2.2-.6 1.8.8 1.9-.2 2.4-1zm-40.1-3.7l5.4.3.6-1.2 5.2 1.4 1 1.8 4.2.5 3.4 1.7-3.2 1.1-3.1-1.1-2.5.1-2.9-.2-2.6-.5-3.2-1.1-2.1-.3-1.2.4-5.1-1.2-.5-1.2-2.6-.2 1.9-2.7 3.4.2 2.3 1.1 1.2.2.4.9zm73.2-1.6l-1.4 1.9-.3-2.1.5-1 .6-1 .6.8v1.4zm-21-7.7l-1 .9-1.9-.5-.5-1.2 2.8-.1.6.9zm9.1-1l1 2.1-2.4-1.1-2.3-.2-1.6.2-1.9-.1.7-1.5 3.5-.1 3 .7zm10.3-5.4l.8 4.5 2.9 1.7 2.3-3 3.2-1.7h2.5l2.4 1 2.1 1 3 .5v18.3l-2.5-2.3-2.8-.6-.7.8-3.5.1 1.2-2.3 1.8-.8-.7-3-1.3-2.4-5.4-2.4-2.3-.2-4.2-2.6-.8 1.4-1.1.2-.6-1v-1.2l-2.1-1.4 3-1h2l-.2-.7h-4.1l-1.1-1.7-2.5-.5-1.2-1.4 3.8-.7 1.4-.9 4.5 1.1.2 1.2zm-25-7.2l-2.2 2.8-2.1.5-2.7-.5-4.7.1-2.5.4-.4 2.1 2.5 2.5 1.5-1.3 5.2-1-.2 1.3-1.2-.4-1.2 1.6-2.5 1.1 2.7 3.6-.5 1 2.5 3.2v1.8l-1.5.8-1.1-1 1.4-2.3-2.8 1.1-.7-.8.4-1.1-2-1.6.2-2.7-1.9.9.2 3.2.1 4-1.8.4-1.2-.8.8-2.6-.4-2.7h-1.2l-.9-1.9 1.2-1.8.4-2.2 1.4-4.2.6-1.1 2.4-2.1 2.2.8 3.5.4 3.2-.1 2.8-2 .5.6zm9.7.8l-.2 2.4-1.5-.3-.4 1.7 1.2 1.5-.8.3-1.1-1.8-.8-3.6.6-2.2.9-1 .2 1.5 1.7.2.2 1.3zm-30.3-1.9l3.1 2.6-3.3.3-.9 1.9.1 2.5-2.7 1.9-.1 2.8-1.1 4.3-.4-1-3.2 1.3-1.1-1.7-2-.2-1.4-.9-3.3 1-1-1.4-1.8.1-2.3-.3-.4-3.7-1.4-.8-1.3-2.4-.4-2.4.3-2.6 1.7-1.9.5 1.9 1.9 1.6 1.8-.6 1.8.2 1.6-1.4 1.3-.2 2.7.8 2.3-.6 1.4-3.9 1.1-1 1-3.2h3.2l2.4.5-1.6 2.5 2.1 2.6-.6 1.4zM970 479.7l-3.1.1-2.4-2.3-3.6-2.3-1.2-1.7-2.1-2.3-1.4-2.1-2.1-3.9-2.5-2.3-.8-2.4-1-2.2-2.5-1.8-1.5-2.4-2.1-1.6-2.9-3.1-.2-1.4 1.8.1 4.3.5 2.5 2.7 2.2 1.9 1.5 1.2 2.7 3h2.8l2.4 1.9 1.6 2.3 2.1 1.3-1.1 2.3 1.6 1 1 .1.5 1.9 1 1.6 2.1.2 1.4 1.8-.7 3.5-.3 4.4z"/><path id="IE" class="st0 active" d="M655.9 284.3l.5 3.4-2.1 4.1-5 2.7-4-.7 2.3-4.8-1.5-4.8 3.8-3.8 2.1-2.3.6 2.6-.6 2.6 1.7-.1 2.2 1.1z"/><path id="IL" class="st0" d="M773.4 366.8l-.5 1-1-.5-.6 2.2.7.4-.7.5-.1.9 1.3-.5.1 1.3-1.4 5.2-1.8-5.5.8-1.1-.2-.2.7-1.5.6-2.5.4-.8h1l.3-.6.8-.1v1.4l-.4.4z"/><path id="IN" class="st0" d="M891.5 357.4l3 4-.3 2.7 1.1 1.7-.1 1.7-2-.4.8 3.6 2.8 2.1 3.9 2.3-1.8 1.5-1.1 3 2.7 1.2 2.6 1.6 3.7 1.8 3.8.4 1.6 1.6 2.2.3 3.4.7h2.3l.3-1.2-.4-2 .2-1.3 1.7-.7.2 2.5v.6l2.5 1.2 1.8-.5 2.4.2 2.3-.1.2-1.9-1.1-1 2.3-.4 2.5-2.4 3.2-2 2.3.8 2-1.3 1.3 2-1 1.3 3 .5.2 1.2-1 .6.2 1.9-2-.6-3.6 2.2.1 1.8-1.5 2.6-.2 1.5-1.2 2.5-2.2-.7-.1 3.1-.6 1 .3 1.3-1.4.7-1.5-4.8h-.8l-.5 1.9-1.5-1.6.9-1.7 1.3-.2 1.3-2.6-1.6-.5h-2.6l-2.7-.4-.2-2.1-1.3-.2-2.2-1.3-1 2.1 2 1.6-1.8 1.1-.6 1.1 1.7.8-.5 1.8 1 2.3.4 2.5-.4 1.1h-1.9l-3.5.6.2 2.2-1.5 1.8-4 2-3.1 3.5-2.1 1.8-2.8 1.9v1.3l-1.4.7-2.5 1-1.3.2-.8 2.2.6 3.8.1 2.4-1.2 2.7v4.8l-1.4.1-1.3 2.2.8.9-2.6.8-.9 1.9-1.1.8-2.6-2.6-1.3-4-1.1-2.9-1-1.3-1.5-2.7-.7-3.6-.5-1.8-2.5-4-1.2-5.6-.8-3.8v-3.6l-.5-2.8-4.1 1.8-2-.4-3.7-3.6 1.4-1.1-.8-1.2-3.3-2.6 1.9-2h6.2l-.6-2.6-1.6-1.6-.3-2.4-1.8-1.4 3.1-3.3 3.3.2 2.9-3.3 1.8-3.3 2.7-3.2v-2.3l2.4-1.9-2.3-1.6-1-2.2-1-3 1.4-1.5 4.3.8 3.1-.5 2.7-2.8z"/><path id="IQ" class="st0" d="M800.6 355.8l1.8 1 .2 2-1.4 1.2-.6 2.6 1.9 3.2 3.4 1.8 1.5 2.5-.5 2.4h.9v1.7l1.5 1.7-1.7-.1-1.9-.3-2.1 3.1-5.2-.3-7.9-6.5-4.2-2.3-3.4-.9-1.1-4 6.2-3.5 1.1-4.1-.3-2.5 1.5-.9 1.4-2.2 1.2-.6 3.3.5 1 .9 1.3-.6 2.1 4.2z"/><path id="IR" class="st0" d="M824.4 351.5l2.5-.7 2-2 1.9.1 1.2-.7 2 .3 3.1 1.8 2.2.4 3.2 3.1 2.1.1.2 2.9-1.1 4.2-.8 2.5 1.2.5-1.2 1.8.9 2.6.2 2.1 2.1.6.2 2.1-2.5 2.9 1.4 1.7 1.1 1.9 2.7 1.4.1 2.8 1.3.5.2 1.4-4 1.6-1.1 3.6-5.3-.9-3.1-.7-3.2-.4-1.2-3.8-1.3-.6-2.2.6-2.8 1.5-3.4-1-2.8-2.4-2.7-.9-1.9-3-2.1-4.3-1.5.5-1.8-1.1-1 1.3-1.5-1.7v-1.7h-.7l.5-2.4-1.5-2.5-3.4-1.8-1.9-3.2.6-2.6 1.4-1.2-.2-2-1.8-1-1.8-4.1-1.5-2.8.5-1.1-.9-4.1 1.9-1 .4 1.4 1.4 1.7 1.9.5 1-.1 3.3-2.7 1-.3.8 1.1-1 1.8 1.8 1.9.7-.2.9 2.6 2.7.7 2 1.8 4 .6 4.4-.9.2-1z"/><path id="IS" class="st0" d="M632.6 212.4l-.6 4.5 3.2 4.6-3.6 5-8.1 4.4-2.4 1.2-3.7-.9-7.8-2 2.8-2.8-6.1-3.2 5-1.3-.1-2-5.9-1.6 1.9-4.5 4.2-1 4.4 4.7 4.3-3.8 3.5 2 4.6-3.7 4.4.4z"/><path id="IT" class="st0" d="M716.8 347.9l-1 2.8.4 1.1-.6 1.8-2.1-1.3-1.4-.4-3.9-1.8.4-1.8 3.3.3 2.9-.4 2-.3zm-17.7-10.8l1.7 2.6-.4 4.8-1.3-.2-1.1 1.2-1.1-1-.1-4.4-.6-2.1 1.5.2 1.4-1.1zm8.9-21.6l4 1-.3 2 .7 1.7-2.2-.6-2.3 1.4.2 2-.3 1.1.9 2 2.6 2 1.4 3.2 3.1 3h2.2l.7.8-.8.7 2.5 1.4 2.1 1.1 2.4 1.9.3.7-.5 1.3-1.6-1.7-2.4-.6-1.2 2.4 2 1.3-.3 1.9-1.2.2-1.5 3.1-1.2.3V348l.6-1.9.6-.8-1.1-2.1-.9-1.8-1.2-.5-.8-1.6-1.8-.7-1.2-1.5-2.1-.2-2.2-1.7-2.6-2.5-1.9-2.2-.9-3.8-1.4-.5-2.3-1.3-1.3.5-1.6 1.8-1.2.3.3-1.7-1.5-.5-.7-3 1-1.2-.8-1.5.1-1.1 1.2.9 1.4-.2 1.6-1.4.5.6 1.3-.1.6-1.6 2.1.5 1.2-.7.2-1.7 1.7.6.3-.8 2.8-.7.7 1.6z"/><path id="JM" class="st0" d="M455.8 411l1.9.3 1.5.7.5.8h-2l-.9.5-1.6-.5-1.6-1.1.3-.7 1.2-.2.7.2z"/><path id="JO" class="st0" d="M772.9 367.9l.5-1 3.1 1.3 5.5-3.5 1.1 4-.5.5-5.6 1.6 2.8 3.3-.9.5-.5 1.1-2.1.4-.7 1.2-1.2 1-3.1-.5-.1-.5 1.4-5.2-.1-1.3.4-1v-1.9z"/><path id="JP" class="st0" d="M1050.8 362l.4 1.1-1.6 2-1.2-1.1-1.4.8-.7 2-1.8-1v-1.6l1.5-2 1.6.4 1.2-1.4 2 .8zm17.7-10.3l-1.1 2.8.5 1.7-1.5 2.4-3.6 1.6-4.9.2-4 3.8-1.9-1.3-.1-2.5-4.9.8-3.3 1.6-3.3.1 2.8 2.5-1.9 5.6-1.8 1.4-1.4-1.3.7-3-1.8-1-1.1-2.3 2.7-1 1.5-2.1 2.8-1.8 2.1-2.3 5.6-1 3 .7 2.9-6.2 1.9 1.7 4.1-3.5 1.6-1.4 1.8-4.4-.5-4.1 1.2-2.3 3-.7 1.5 5.1-.1 2.9-2.6 3.6.1 3.7zm8.3-25.9l2 .8 2-1.6.6 4.4-4.2 1-2.5 3.8-4.4-2.6-1.5 4.1-3.1.1-.4-3.7 1.4-2.9 3-.2.8-5.4.8-3.1 3.3 4.1 2.2 1.2z"/><path id="KE" class="st0" d="M788.2 465.8l1.7 2.3-2 1.1-.7 1.2-1.1.2-.4 2-.9 1.1-.5 1.9-1.1.9-4-2.8-.2-1.7-10.2-5.7-.5-.3v-3l.8-1.1 1.4-1.8 1-2-1.2-3.2-.3-1.4-1.3-1.9 1.7-1.7 1.9-1.8 1.5.5v1.6l1 .9h2l3.5 2.4h.9l.7-.1.6.3 1.9.2.8-1.2 2.6-1.2 1.1.9h1.9l-2.5 3.2-.1 10.2z"/><path id="KG" class="st0" d="M872.2 333.1l.6-1.7 1.8-.5 4.6 1.3.4-2.2 1.6-.8 4 1.6 1-.4 4.7.1 4.2.4 1.4 1.4 1.7.6-.4.9-4.4 2-1 1.5-3.6.4-1.1 2.4-3-.5-1.9.7-2.7 1.7.4.9-.8.8-5.3.6-3.5-1.2-3 .3.3-2.1 3.1.6 1-1.1 2.1.4 3.6-2.6-3.3-2-2 .9-2.1-1.4 2.3-2.4-.7-.6z"/><path id="KH" class="st0" d="M963.4 433.6l-1.1-1.5-1.4-2.9-.7-3.4 1.8-2.4 3.6-.6 2.6.4 2.3 1.1 1.3-2 2.5 1.1.6 1.9-.3 3.4-4.7 2.2 1.2 1.7-2.9.2-2.4 1.1-2.4-.3z"/><path id="KP" class="st0" d="M1039.5 332.6l.4.7-1.1-.2-1.2 1.3-.8 1.3.1 2.7-1.5.8-.5.6-1.1 1.1-1.9.6-1.2 1-.1 1.6-.3.4 1.1.6 1.6 1.6-.4.9-1.2.2-2 .2-1.1 1.6-1.3-.1-.2.3-1.4-.7-.3.7-.8.3-.1-.7-.7-.3-.8-.6.8-1.6.7-.4-.2-.6.7-1.9-.2-.6-1.6-.4-1.3-1 2.3-2.4 3.1-2 1.9-2.7 1.3 1.2 2.4.1-.4-2 4.3-1.6 1.1-2.1 1.9 2.1z"/><path id="KR" class="st0" d="M1033.1 346.5l2.4 4.2.7 2.3v4l-1 1.9-2.5.7-2.2 1.4-2.5.3-.3-1.9.5-2.6-1.2-3.6 2.1-.6-1.9-3 .2-.3 1.3.1 1.1-1.6 2-.2 1.2-.2.1-.9z"/><path id="XK" class="st0" d="M731.5 333.9l-.1.8h-.4l-.2-1.4-.7-.4-.6-1 .5-.9.7-.3.4-1.3.5-.2.4.5.5.2.4.6.5.2.5.7h.4l-.3.9-.3.5.1.3-.6.1-1.7.7z"/><path id="KW" class="st0" d="M807.8 375.8l.6 1.4-.2.7.9 2.4-2 .1-.7-1.5-2.5-.3 2.1-3.1 1.8.3z"/><path id="KZ" class="st0" d="M872.2 333.1l-1.6.7-3.7 2.6-1.2 2.6h-1l-.8-1.8-3.6-.1-.6-3.1h-1.4l.2-3.8-3.4-2.8-4.8.3-3.3.6-2.7-3.5-2.3-1.5-4.3-2.8-.5-.4-7.2 2.4.1 14.1-1.4.2-2-2.9-1.9-1.1-3.2.8-1.2 1.2-.2-.9.7-1.6-.5-1.3-3.2-1.3-1.3-3.5-1.5-1-.1-1.3 2.7.4.1-2.9 2.4-.6 2.4.6.5-3.9-.5-2.5-2.8.2-2.4-1-3.2 1.8-2.6.9-1.4-.7.3-2.1-1.8-2.8-2.1.1-2.4-2.8 1.6-3.2-.8-.9 2.2-4.8 2.9 2.5.3-3.2 5.8-4.9 4.4-.1 6.2 3.1 3.3 1.8 3-1.9 4.4-.1 3.6 2.3.8-1.3 3.9.2.7-2.1-4.5-3.1 2.7-2.2-.5-1.2 2.7-1.2-2-3.2 1.3-1.6L856 282l1.4-1.2 7-1.8 2.5-2 5 1.1.9 5 2.9-1.2 3.6 1.6-.2 2.6 2.7-.3 7-4.5-1 1.5 3.6 3.7 6.3 11.6 1.5-2.3 3.9 2.6 4-1.1 1.5.8 1.3 2.5 2 .8 1.2 1.9 3.6-.6 1.5 2.6-2.1 2.8-2.3.4-.1 4.2-1.6 1.9-5.6-1.4-2 7.3-1.4.9-5.6 1.6 2.5 6.8-1.9 1 .2 2.2-1.7-.6-1.4-1.4-4.2-.4-4.7-.1-1 .4-4-1.6-1.6.8-.4 2.2-4.6-1.3-1.8.5-.7 1.6z"/><path id="LA" class="st0" d="M968.3 423.2l.9-1.3.1-2.4-2.3-2.5-.2-2.9-2.1-2.4-2.1-.2-.6 1-1.6.1-.8-.5-3 1.7-.1-2.6.7-3.1-1.9-.1-.2-1.8-1.2-.9.6-1.1 2.4-1.9.2.7 1.5.1-.4-3.4 1.4-.4 1.6 2.4 1.3 2.7h3.5l1.1 2.6-1.8.8-.8 1.1 3.4 1.8 2.3 3.5 1.8 2.6 2.1 2 .7 2-.5 2.9-2.5-1.1-1.3 2-2.2-1.4z"/><path id="LB" class="st0" d="M773.7 364.9l-.8.1-.3.6h-.9l1-2.7 1.4-2.4.1-.1 1.3.2.5 1.3-1.5 1.3-.8 1.7z"/><path id="LK" class="st0" d="M902.6 442.4l-.4 2.9-1.2.8-2.4.6-1.3-2.2-.5-4 1.3-4.6 1.9 1.6 1.3 2 1.3 2.9z"/><path id="LR" class="st0" d="M651.6 451.2h-.7l-2.9-1.3-2.5-2.1-2.4-1.5-1.9-1.8.7-.9.1-.8 1.3-1.5 1.3-1.3.6-.1.7-.3 1.2 1.7-.2 1.1.5.6h.8l.6-1.1.8.1-.1.8.3 1.4-.6 1.2.8.8.9.2 1.2 1.2.1 1.1-.3.4-.3 2.1z"/><path id="LS" class="st0" d="M754.5 547.8l1 1-.9 1.6-.5 1-1.6.5-.5 1-1 .3-2.1-2.5 1.5-2 1.5-1.2 1.3-.6 1.3.9z"/><path id="LT" class="st0" d="M737 282.1l-.2-1.2.3-1.3-1.2-.8-2.9-.9-.6-4.2 3.2-1.5 4.7.3 2.8-.5.4 1 1.5.3 2.7 2.4.3 2.2-2.3 1.6-.7 2.7-3 1.8h-2.7l-.7-1.5-1.6-.4z"/><path id="LU" class="st0" d="M690.2 301.3l.6 1-.2 1.9-.8.1-.6-.4.3-2.4.7-.2z"/><path id="LV" class="st0" d="M732.3 273.8l.1-3.8 1.4-3.2 2.6-1.8 2.2 3.9 2.2-.1.5-4 2.4-.9 1.2.6 2.4 1.9h2.3l1.3 1.2.2 2.5.9 3-3 1.9-1.7.8-2.7-2.4-1.5-.3-.4-1-2.8.5-4.7-.3-2.9 1.5z"/><path id="LY" class="st0" d="M714.9 397.9l-2 1.1-1.6-1.7-4.4-1.3-1.2-1.9-2.2-1.4-1.3.6-1-1.7-.1-1.3-1.7-2.3 1.1-1.3-.2-2 .4-1.7-.2-1.4.5-2.6-.1-1.5-.9-2.8 1.4-.8.2-1.4-.3-1.4 1.9-1.3.9-1.1 1.4-.9.2-2.6 3.3 1.1 1.2-.3 2.3.6 3.7 1.5 1.3 2.9 2.5.6 4 1.4 3 1.6 1.4-.8 1.3-1.5-.6-2.5.9-1.6 2-1.6 1.9-.4 3.8.7 1 1.5h1l.9.6 2.8.4.7 1.1-1 1.6.4 1.4-.7 2 .8 2.6v28.4h-3.2v1.2l-11.2-5.7-11.2-5.8-3.1 1.7z"/><path id="MA" class="st0" d="M649 383.1v-3.8l4.5-2.4 2.8-.5 2.3-.9 1.1-1.6 3.3-1.3.1-2.4 1.6-.3 1.3-1.2 3.7-.6.5-1.3-.7-.7-1-3.5-.2-2-1.1-2.2H666l-2.9-.8-2.7.2-1.7-1.5h-2.1l-.9 2.1-1.9 3.5-2.1 1.4-2.8 1.5-1.8 2.2-.4 1.7-1.1 2.8.7 4-2.3 2.7-1.4.9-2.2 2.2-2.6.4-1.3 1.1h3.6l8.9.3-8.8-.1h-3.6l12.4.1z"/><path id="MD" class="st0" d="M747.9 309.5l.7-.6 1.9-.4 2.1 1.3 1.2.2 1.3 1.1-.2 1.4 1 .7.4 1.7 1 1-.2.6.5.4-.7.3-1.9-.2-.3-.6-.6.3.2.7-.8 1.3-.5 1.4-.7.4-.5-1.8.3-1.7-.1-1.8-1.6-2.4-.9-1.8-.9-1.2-.7-.3z"/><path id="ME" class="st0" d="M728.8 332.2l-.2-.7-1.2 1.9.2 1.2-.6-.3-.8-1.2-1.2-.8.3-.6.4-2.1.9-.9.5-.4.7.7.4.5.9.4 1.1.8-.2.3-.5.9-.7.3z"/><path id="MG" class="st0" d="M812.2 498.4l.7 1.2.7 1.9.5 3.5.7 1.4-.3 1.4-.5.9-1-1.7-.5.9.5 2.1-.2 1.2-.8.7-.2 2.5-1.1 3.4-1.4 4.1-1.7 5.7-1.1 4.2-1.3 3.5-2.3.7-2.5 1.3-1.6-.8-2.2-1.1-.8-1.6-.2-2.7-1-2.4-.3-2.2.5-2.2 1.3-.5v-1l1.3-2.3.2-1.9-.6-1.4-.5-1.9-.2-2.7 1-1.6.4-1.8 1.4-.1 1.6-.6 1-.5h1.2l1.6-1.6 2.3-1.8.8-1.4-.4-1.2 1.2.4 1.6-2v-1.7l.9-1.3 1.3 1z"/><path id="MK" class="st0" d="M731 334.7h.4l.1-.8 1.7-.6.6-.1 1-.2 1.3-.1 1.4 1.2.2 2.5-.5.1-.5.6-1.5-.1-1.1.8-1.8.3-1.2-.9-.4-1.6.3-1.1z"/><path id="ML" class="st0" d="M639.1 422.2l.9-.5.5-1.7.9-.1 2 .8 1.6-.6 1.1.2.4-.6h11.2l.6-2-.5-.4-1.3-12.7-1.4-13.1 4.3-.1 9.5 6.7 9.5 6.5.7 1.4 1.8.9 1.3.5v1.9l3.1-.3v6.8l-1.5 1.9-.2 1.8-2.5.4-3.8.2-1 1-1.8.1h-1.8l-.7-.5-1.5.4-2.6 1.2-.5.9-2.2 1.3-.4.7-1.2.6-1.4-.4-.8.7-.4 2-2.2 2.4.1 1-.8 1.2.2 1.6-1.2.4-.6.4-.4-1.2-.8.3-.5-.1-.8.9h-2.2l-.8-.4-.4.3-.9-.8.1-.8-.4-.3-.6.3.1-.9.6-.7-1.1-1.2-.3-.8-.6-.6-.6-.1-.7.4-.9.4-.8.6-1.2-.2-.8-.7-.5-.1-.7.4h-.4l-.2-1 .1-.9-.2-1.1-1-.8-.5-1.6v-2.2z"/><path id="MM" class="st0" d="M952.4 406l-1.6 1.3-2 .1-1.3 3.2-1.2.5 1.4 2.6 1.8 2.1 1.1 1.9-1 2.5-1 .5.7 1.4 1.9 2.3.3 1.6v1.3l1.1 2.6-1.5 2.7-1.4 2.9-.3-2.1.9-2.2-.9-1.7.2-3.1-1.1-1.5-.9-3.4-.5-3.7-1.2-2.4-1.8 1.5-3.2 2.1-1.6-.3-1.7-.7 1-3.6-.6-2.7-2.2-3.4.3-1.1-1.6-.4-2-2.4-.2-2.4 1 .5.1-2.1 1.4-.7-.3-1.3.6-1 .1-3.1 2.2.7 1.2-2.5.2-1.5 1.5-2.6-.1-1.8 3.6-2.2 2 .6-.2-1.9 1-.6-.2-1.2 1.6-.2.9 1.9 1.2.8.1 2.4-.1 2.6-2.6 2.6-.3 3.6 3-.5.7 2.8 1.8.6-.8 2.5 2.1 1.1 1.2.6 2-.9.1 1.2-2.4 1.9-.6 1.1-1.9.6z"/><path id="MN" class="st0" d="M919.3 304.9l3-.7 5.3-3.7 4.3-2.1 2.4 1.4 2.9.1 1.9 2.1 2.8.1 4.1 1.1 2.7-3-1.1-2.6 2.9-4.7 3.1 1.9 2.5.5 3.3 1.1.5 3.3 4 1.8 2.6-.8 3.5-.6 2.8.6 2.8 2.1 1.7 2.2h2.6l3.5.7 2.6-1.1 3.7-.7 4.1-3.1 1.7.5 1.5 1.5 3.3-.4-1.4 3.2-2 4.2.7 1.7 1.6-.5 2.8.6 2.2-1.5 2.2 1.3 2.5 2.9-.3 1.5-2.2-.5-4.1.5-2 1.2-2 2.7-4.3 1.5-2.8 2.1-2.9-.8-1.6-.4-1.5 2.5.9 1.5.5 1.3-2 1.3-2 2.1-3.3 1.3-4.2.1-4.5 1.3-3.3 2-1.2-1.2h-3.4l-4.1-2.3-2.8-.6-3.7.5-5.8-.9-3.1.1-1.6-2.3-1.3-3.6-1.7-.4-3.4-2.5-3.8-.5-3.3-.7-1-1.7 1.1-4.7-1.9-3.3-4-1.6-2.4-2.2-.6-2.7z"/><path id="MR" class="st0" d="M639.1 422.2l-1.9-2-1.7-2.1-1.9-.8-1.3-.9h-1.6l-1.4.6-1.4-.2-1 .9-.2-1.6.8-1.4.4-2.8-.3-2.9-.3-1.5.3-1.5-.7-1.4-1.5-1.3.6-1h11l-.5-4.3.7-1.6 2.6-.3-.1-7.9 9.2.2V384l10.6 7.5-4.3.1 1.4 13.1 1.3 12.7.5.4-.6 2h-11.2l-.4.6-1.1-.2-1.6.6-2-.8-.9.1-.5 1.7-1 .4z"/><path id="MW" class="st0" d="M770.2 495.7l-.8 2.2.8 3.7h1l1 .9 1.2 2.1.2 3.7-1.2.6-.9 2-1.8-1.8-.2-2 .6-1.4-.2-1.1-1.1-.7-.8.3-1.6-1.4-1.5-.7.9-2.7.9-1-.5-2.4.6-2.3.5-.8-.7-2.4-1.3-1.3 2.7.5.6.8 1 1.3.6 3.9z"/><path id="MX" class="st0" d="M400.9 388.7l-1.1 2.7-.5 2.2-.2 4.1-.3 1.5.5 1.6.9 1.5.6 2.3 1.9 2.2.6 1.7 1.1 1.4 3 .8 1.2 1.2 2.5-.8 2.1-.3 2.1-.5 1.8-.5 1.8-1.2.7-1.7.2-2.5.5-.9 1.9-.8 3-.7 2.5.1 1.7-.2.7.6-.1 1.4-1.5 1.8-.7 1.8.5.5-.4 1.3-.7 2.3-.7-.8h-1.1l-1 1.8-.5-.3-.3.1v.4h-5.2v1.6h-1.3l1 1 1 .7.3.6.5.2-.1 1h-3.6l-1.3 2.4.4.5-.3.7-.1.8-3.2-3.1-1.5-.9-2.3-.8-1.6.2-2.3 1.1-1.4.3-2-.8-2.1-.6-2.6-1.3-2.1-.4-3.2-1.4-2.3-1.4-.7-.8-1.6-.2-2.9-.9-1.2-1.3-3-1.7-1.4-1.9-.7-1.5.9-.3-.3-.9.6-.8v-1l-.9-1.3-.3-1.2-.9-1.5-2.5-3-2.8-2.4-1.4-1.9-2.4-1.3-.5-.8.4-1.9-1.4-.7-1.7-1.5-.7-2.2-1.5-.3-1.6-1.7-1.3-1.5-.1-1-1.5-2.4-1-2.5v-1.2l-2-1.3-.9.1-1.6-.9-.4 1.3.5 1.6.3 2.4 1 1.3 2.1 2.2.5.8.4.2.4 1.1.5-.1.6 2 .9.8.6 1.1 1.8 1.6.9 2.9.8 1.4.8 1.4.2 1.6 1.3.1 1.1 1.4 1 1.4-.1.5-1.2 1.1h-.5l-.7-1.8-1.8-1.7-2-1.5-1.4-.8.1-2.2-.4-1.7-1.3-1-1.9-1.4-.4.4-.7-.8-1.7-.8-1.6-1.8.2-.2 1.1.2 1-1.2.1-1.4-2.5-1.9-1.6-.9-1-2-1-2.1-1.3-2.6-1.1-3 3.2-.2 3.6-.4-.3.6 4.2 1.6 6.4 2.3h7.8V370h4.9l1 1.2 1.4 1 1.7 1.4.9 1.7.7 1.8 1.5 1 2.3 1 1.8-2.5 2.3-.1 2 1.3 1.4 2.2 1 1.9 1.7 1.8.6 2.2.8 1.5 2.2 1 2 .7.8-.4z"/><path id="MY" class="st0" d="M956.7 446.1l.2 1.4 1.8-.3.9-1.1.6.3 1.7 1.7 1.2 1.9.2 1.9-.3 1.1.3 1 .2 1.6 1 .8 1.1 2.5v.9l-2 .2-2.7-2.1-3.3-2.2-.3-1.4-1.6-1.9-.4-2.3-1-1.5.3-2-.6-1.2.5-.5 2.2 1.2zm49.1 4.8l-2.1 1-2.4-.5h-3.2l-1 3.2-1.1 1-1.4 3.9-2.3.6-2.7-.8-1.3.2-1.6 1.4-1.8-.2-1.8.6-1.9-1.6-.5-1.9 2 1 2.2-.5.6-2.4 1.2-.5 3.4-.6 2-2.2 1.4-1.8 1.3 1.5.6-1 1.3.1.2-1.8.1-1.4 2.2-2 1.4-2.2h1.1l1.4 1.4.1 1.2 1.8.8 2.3.8-.2 1.1-1.9.1.6 1.5z"/><path id="MZ" class="st0" d="M770.2 495.7l2.1-.2 3.4.8.7-.4 2-.1 1-.8h1.7l3.1-1.1 2.2-1.6.5 1.3-.1 2.8.3 2.5.1 4.5.5 1.4-.8 2.1-1.1 2-1.8 1.8-2.6 1.1-3.2 1.4-3.2 3.2-1.1.5-2 2.1-1.2.7-.2 2.1 1.3 2.2.5 1.8v.9l.5-.1-.1 3-.5 1.4.7.5-.4 1.3-1.2 1.1-2.3 1-3.4 1.7-1.2 1.1.2 1.3.7.2-.2 1.6H763l-.2-1.4-.4-1.4-.2-1.1.5-3.4-.7-2.2-1.3-4.3 2.9-3.4.7-2.2.4-.3.3-1.7-.5-.9.1-2.2.5-2v-3.7l-1.4-.9-1.3-.2-.6-.7-1.3-.6-2.3.1-.2-1.1-.3-2 8.5-2.4 1.6 1.4.8-.3 1.1.7.2 1.1-.6 1.4.2 2 1.8 1.8.9-2 1.2-.6-.2-3.7-1.2-2.1-1-.9h-1l-.8-3.7 1-2.2z"/><path id="NA" class="st0" d="M719.1 546.5l-2.1-2.4-1.1-2.3-.6-3-.7-2.2-.9-4.7-.1-3.6-.4-1.6-1.1-1.2-1.5-2.5-1.5-3.6-.6-1.8-2.3-2.9-.2-2.2 1.4-.6 1.7-.5 1.8.1 1.7 1.3.4-.2 11.4-.1 1.9 1.4 6.8.4 5.2-1.2 2.3-.7 1.8.2 1.1.7v.2l-1.5.5h-.9l-1.8 1.2-1.1-1.2-4.3 1-2.1.1-.1 10.6-2.8.1v20.4l-2.5 1.6-1.4.2-1.8-.6-1.3-.2-.5-1.4-1.1-.9-1.2 1.6z"/><path id="NC" class="st0" d="M1138.1 523.5l2.3 1.9 1.5 1.4-1.1.7-1.6-.8-2-1.3-1.8-1.6-1.8-2.1-.4-1h1.2l1.6 1 1.2 1 .9.8z"/><path id="NE" class="st0" d="M679.3 429.9l.1-2-3.2-.6-.1-1.4-1.6-1.9-.4-1.3.2-1.4 1.8-.1 1-1 3.8-.2 2.5-.4.2-1.8 1.5-1.9v-6.8l4-1.3 8.1-5.9 9.6-5.8 4.4 1.3 1.6 1.7 2-1.1.7 4.7 1 .8v.9l1.2 1-.6 1.3-1.1 6-.1 3.8-3.6 2.7-1.2 3.8 1.2 1.1v1.9l1.8.1-.3 1.3-.8.2-.1.9-.5.1-1.9-3.1-.7-.1-2.2 1.6-2.2-.8-1.5-.2-.8.4-1.7-.1-1.6 1.2-1.4.1-3.4-1.5-1.3.7h-1.4l-1.1-1.1-2.8-1.1-3 .3-.7.6-.4 1.6-.8 1.2-.2 2.5-2.1-1.6h-1l-.9.7z"/><path id="NG" class="st0" d="M697.1 450.1l-2.9 1-1.1-.1-1.1.6-2.2-.1-1.5-1.8-.9-2-2-1.8h-4.6l.2-4.5-.1-1.8.5-1.8.9-.9 1.4-1.8-.3-.8.5-1.1-.6-1.7.1-1 .2-2.5.8-1.2.4-1.6.7-.6 3-.3 2.8 1.1 1.1 1.1h1.4l1.3-.7 3.4 1.5 1.4-.1 1.6-1.2 1.7.1.8-.4 1.5.2 2.2.8 2.2-1.6.7.1 1.9 3.1.5-.1 1.1 1.1-.3.5-.2.9-2.4 2.2-.7 1.8-.4 1.5-.6.6-.6 2-1.5 1.2-.4 1.4-.6 1.1-.3 1.2-1.9.9-1.6-1.1h-1.1l-1.7 1.6h-.8l-1.3 2.7-.6 2.3z"/><path id="NI" class="st0" d="M432.9 432.3l-1-.9-1.3-1.1-.6-1-1.2-.9-1.4-1.3.3-.4.5.4.2-.2.9-.1.3-.7h.4l-.1-1.4.7-.1h.6l.6-.8.8.6.3-.4.5-.3 1-.8v-.6h.3l.4-.7.3-.1.5.4.6.1.6-.4h.7l1-.4.4-.4 1 .1-.2.3-.1.6.3 1.1-.6 1-.3 1.2-.1 1.3.2.7.1 1.3-.4.3-.3 1.2.2.8-.6.7.1.8.4.5-.7.6-.8-.2-.5-.6-.9-.2-.6.4-1.8-.8-.7.4z"/><path id="NL" class="st0 active" d="M690.3 286l2.3.1.5 1.6-.7 4.2-.7 1.7H690l.5 4.7-1.5-1-1.8-2-2.6.9-2.1-.4 1.4-1.2 2.5-6.7 3.9-1.9z"/><path id="NO" class="st0" d="M752.2 175.6l8.8 6.2-3.6 2.2 3.1 5.1-4.8 3.2-2.3.7 1.2-5.6-3.6-3.2-4.3 2.8-1.4 5.9-2.7 3.4-3-1.9-3.7.4-3.1-4.1-1.7 2.1-1.7.3-.4 5.1-5.3-1.2-.7 4.2h-2.7l-1.8 5.2-2.8 7.9-4.3 9.5 1 2.2-1 2.6-2.8-.1-1.8 5.9.2 8 1.8 3-.9 6.7-2.3 3.8-1.2 3.1-1.9-3.4-5.5 6.3-3.7 1.2-3.9-2.7-1-5.9-.9-13.3 2.6-3.9 7.4-5.2 5.5-6.6 5.1-9.3 6.7-13.8 4.7-5.7 7.7-9.9 6.2-3.6 4.6.4 4.3-7 5.1.4 4.8-1.4z"/><path id="NP" class="st0" d="M920.3 382.5l-.2 1.3.4 2-.3 1.2h-2.3l-3.4-.7-2.2-.3-1.6-1.6-3.8-.4-3.7-1.8-2.6-1.6-2.7-1.2 1.1-3 1.8-1.5 1.2-.8 2.2 1 2.8 2.1 1.6.5.9 1.5 2.2.6 2.3 1.4 3.2.7 3.1.6z"/><path id="NZ" class="st0 active" d="M1158.4 588.6l.6 1.5 2-1.5.8 1.6v1.6l-1 1.7-1.8 2.8-1.4 1.5 1 1.9h-2.2l-2.4 1.5-.8 2.6-1.6 4-2.2 1.8-1.4 1.2-2.6-.1-1.8-1.3-3-.3-.5-1.5 1.5-3 3.5-3.9 1.8-.7 2-1.5 2.4-2 1.7-2 1.2-2.8 1.1-1 .4-2.1 2-1.7.7 1.7zm4.4-17l2 3.7.1-2.4 1.3 1 .4 2.7 2.3 1.2 1.9.3 1.6-1.3 1.4.4-.7 3.2-.8 2.1-2.1-.1-.8 1.1.3 1.6-.4.7-1.1 2-1.4 2.5-2.2 1.5-.5-1-1.1-.8 1.6-3-.9-2-3-1.5.1-1.3 2-1.2.5-2.7-.1-2.3-1.1-2.3.1-.6-1.3-1.4-2.2-3-1.2-2.4 1-.3 1.5 1.9 2.2.9.6 2.8z"/><path id="OM" class="st0" d="M838.3 403.2l-1 2-1.3-.2-.6.7-.5 1.5.3 2-.3.4h-1.3l-1.8 1.1-.3 1.4-.6.6h-1.7l-1.1.7v1.2l-1.4.8-1.5-.3-1.9 1-1.3.2-.9-2-2.2-4.8 8.4-3 1.9-6-1.3-2.1.1-1.2.8-1.3v-1.2l1.3-.6-.5-.4.2-2h1.4l1.3 2.1 1.6 1.1 2.1.4 1.7.5 1.3 1.7.8 1 1 .4v.7l-1 1.8-.5.8-1.2 1zm-6.9-14.6l-.4.6-.5-1.1.8-1.1.3.3-.2 1.3z"/><path id="PA" class="st0" d="M454.9 443.2l-.9-.8-.6-1.5.7-.8-.7-.2-.5-.9-1.4-.8-1.2.2-.6 1-1.1.7-.6.1-.3.6 1.3 1.5-.8.4-.4.4-1.3.1-.5-1.7-.4.5-.9-.2-.6-1.1-1.1-.2-.7-.3H441l-.1.6-.3-.4.1-.6.2-.6-.1-.5.4-.3-.6-.4v-1.1l1.1-.2 1 1-.1.6 1.1.1.3-.2.8.7 1.4-.2 1.2-.7 1.7-.6 1-.8 1.6.2-.1.3 1.6.1 1.2.5.9.8 1.1.8-.3.4.6 1.6-.5.8-.9-.2-.4 1.3z"/><path id="PE" class="st0" d="M478.1 513.1l-.8 1.5-1.4.7-2.8-1.7-.2-1.2-5.6-2.9-5-3.2-2.2-1.8-1.2-2.4.5-.8-2.4-3.8-2.8-5.2-2.6-5.6-1.1-1.3-.9-2.1-2.2-1.8-2-1.1.9-1.2-1.4-2.7.9-1.9 2.2-1.8.3 1.2-.8.7.1 1 1.2-.2 1.1.3 1.2 1.4 1.6-1.1.5-1.9 1.7-2.4 3.4-1.1 3.1-2.9.9-1.8-.4-2.1.8-.3 1.9 1.3.9 1.3 1.3.7 1.6 2.9 2.1.4 1.6-.7 1 .5 1.7-.2 2.1 1.3-1.8 2.8.8.1 1.4 1.5-2.5-.1-.4.4-2.3.5-3.2 1.9-.2 1.3-.7 1 .3 1.5-1.7.8v1.2l-.7.5 1.2 2.5 1.6 1.7-.6 1.2 1.9.2 1.1 1.5 2.5.1 2.3-1.7-.2 4.3 1.3.3 1.6-.5 2.4 4.6-.6 1-.1 2-.1 2.4-1.1 1.4.5 1.1-.6 1 1.2 2.4-2.1 3.1z"/><path id="PG" class="st0" d="M1110.3 482.4l-.8.3-1.2-1.1-1.2-1.8-.6-2.1.4-.3.3.8.8.6 1.4 1.8 1.3 1-.4.8zm-10.9-3.7l-1.5.2-.4.8-1.5.7-1.4.7h-1.6l-2.3-.8-1.6-.8.2-.9 2.5.4 1.5-.2.4-1.3.4-.1.3 1.5 1.6-.2.8-1 1.6-1-.3-1.6h1.7l.6.5-.1 1.5-.9 1.6zM1086 484l2.5 1.8 1.8 3 1.6-.1-.1 1.2 2.2.5-.8.5 3 1.2-.3.8-1.9.2-.7-.7-2.4-.3-2.8-.4-2.2-1.8-1.6-1.5-1.5-2.5-3.7-1.2-2.4.8-1.7.9.4 2.1-2.2 1-1.6-.5-2.9-.1v-18.3l4.9 1.9 5.2 1.6 1.9 1.4 1.6 1.4.4 1.6 4.7 1.7.7 1.5-2.6.3.5 2zm16.6-8.1l-.9.7-.5-1.6-.7-1.1-1.3-.9-1.6-1.2-2-.8.8-.7 1.5.8 1 .6 1.2.7 1.1 1.2 1.1.9.3 1.4z"/><path id="PH" class="st0" d="M1027.6 439.9l.3 1.9.2 1.6-1 2.6-1-2.9-1.3 1.4.9 2.1-.8 1.3-3.3-1.6-.8-2 .9-1.3-1.8-1.3-.9 1.2-1.3-.1-2.1 1.6-.5-.8 1.1-2.4 1.8-.8 1.5-1.1 1 1.3 2.1-.8.5-1.3 2-.1-.2-2.2 2.3 1.3.2 1.4.2 1zm-6.7-5.3l-1 .9-.9 1.8-.9.8-1.7-2 .6-.8.7-.8.3-1.8 1.5-.2-.5 1.9 2.1-2.7-.2 2.9zm-15.4 2.7l-3.7 2.7 1.4-2 2-1.7 1.7-2 1.5-2.8.5 2.3-1.8 1.6-1.6 1.9zm9.5-7.3l1.7.9h1.8v1.2l-1.3 1.2-1.8.9-.1-1.3.2-1.5-.5-1.4zm10.1-.8l.8 3.2-2.2-.8.1 1 .7 1.8-1.3.6-.1-2-.8-.1-.4-1.7 1.7.2v-1.1l-1.7-2.2 2.7.1.5 1zm-11.1-2.5l-.7 2.5-1.2-1.4-1.4-2.2 2.4.1.9 1zm-.6-15.8l1.7.8.9-.8.2.8-.5 1.2 1 2.1-.7 2.4-1.7 1-.4 2.3.6 2.3 1.5.3 1.2-.3 3.5 1.6-.3 1.6.9.7-.3 1.3-2.2-1.4-1-1.5-.7 1-1.8-1.7-2.5.4-1.4-.6.1-1.2.9-.7-.8-.7-.4 1-1.4-1.6-.4-1.3-.1-2.8 1.1 1 .3-4.5.9-2.7h1.8z"/><path id="PL" class="st0" d="M715.4 297l-1.1-2.9.2-1.6-.7-2.4-1-1.6.8-1.2-.7-2.4 1.9-1.4 4.4-2.2 3.5-1.6 2.8.8.2 1.2 2.7.1 3.5.6 5.2-.1 1.4.5.7 1.5.1 2.1.8 1.8v1.9l-1.7.9.9 2.1v2l1.4 3.9-.3 1.2-1.4.5-2.5 3.6.7 1.9-.6-.2-2.7-1.6-2 .6-1.3-.4-1.7.9-1.4-1.5-1.2.6-.2-.3-1.3-2.1-2.1-.3-.3-1.4-1.9-.5-.4 1.1-1.5-.9.2-1.2-2.1-.4-1.3-1.6z"/><path id="PK" class="st0" d="M884 351.8l2.1 1.6.8 2.7 4.6 1.4-2.7 2.9-3.1.5-4.3-.8-1.4 1.5 1 3 1 2.2 2.3 1.6-2.4 1.9v2.3l-2.7 3.2-1.8 3.3-2.9 3.3-3.3-.2-3.1 3.3 1.8 1.4.3 2.4 1.6 1.6.6 2.6h-6.2l-1.9 2-2-.8-.8-2.2-2.2-2.3-5.2.6-4.6.1-4 .4 1.1-3.6 4-1.6-.2-1.4-1.3-.5-.1-2.8-2.7-1.4-1.1-1.9-1.4-1.7 4.7 1.6 2.8-.5 1.7.4.6-.7 2 .3 3.7-1.3.1-2.8 1.6-1.8h2.1l.3-.9 2.1-.4 1 .3 1.1-.9-.1-2 1.2-2 1.8-.9-1.1-2.2 2.7.1.8-1.2-.1-1.3 1.4-1.4-.3-1.7-.7-1.5 1.6-1.5 3-.7 3.2-.4 1.4-.6 1.6-.6z"/><path id="PR" class="st0 active" d="M487.4 410.9l1.4.3.5.6-.7.7h-2.1l-1.6.1-.2-1.2.4-.4 2.3-.1z"/><path id="PS" class="st0" d="M772.9 367.9v2l-.4 1-1.3.5.1-.9.7-.5-.7-.4.6-2.2 1 .5z"/><path id="PT" class="st0" d="M647.9 334.6l1-1 1.1-.5.7 1.8h1.6l.5-.5 1.6.1.8 1.9-1.3 1v2.9l-.5.5-.1 1.7-1.2.3 1.1 2.2-.8 2.4 1 1.1-.4 1-1 1.3.2 1.2-1.1.9-1.5-.5-1.5.4.4-2.7-.3-2.2-1.3-.3-.7-1.4.2-2.4 1.1-1.3.2-1.5.6-2.2-.1-1.6-.6-1.3.3-1.3z"/><path id="PY" class="st0" d="M497.5 527l1.1-3.6.1-1.6 1.3-2.6 4.9-.9h2.6l2.6 1.5v.9l.8 1.7-.2 4.1 3 .6 1.1-.6 1.9.8.5.9.3 2.8.3 1.2 1 .1 1.1-.5 1 .5v1.7l-.4 1.8-.6 1.8-.5 2.8-2.5 2.4-2.2.5-3.1-.5-2.8-.8 2.8-4.7-.4-1.4-2.9-1.2-3.4-2.3-2.3-.5-5.1-4.9z"/><path id="QA" class="st0" d="M815.7 392.2l-.2-2.2.8-1.6.8-.3.9 1v1.8l-.6 1.8-.8.2-.9-.7z"/><path id="RO" class="st0" d="M736.9 310.9l1.2-.9 1.7.5h1.8l1.3 1 1-.6 2.1-.4.7-1h1.2l.8.4.9 1.2.9 1.8 1.6 2.4.1 1.8-.3 1.7.5 1.8 1.2.7 1.3-.6 1.3.7.1 1-1.4.8-.9-.4-.8 4.7-1.7-.4-2-1.4-3.3.9-1.4 1-4.1-.2-2.2-.6-1.1.3-.8-1.6-.5-.7.6-.7-.7-.5-.9.9-1.6-1.1-.2-1.6-1.7-.9-.3-1.3-1.3-1.6 2.2-.8 1.7-2.8 1.3-2.8 1.7-.7z"/><path id="RS" class="st0" d="M731.8 320.9l1.7.9.2 1.6 1.6 1.1.9-.9.7.5-.6.7.5.7-.7.9.2 1.4 1.4 1.7-1.1 1.2-.5 1.2.3.4-.5.5-1.3.1-1 .2-.1-.3.3-.5.3-.9h-.4l-.5-.7-.5-.2-.4-.6-.5-.2-.4-.5-.5.2-.4 1.3-.5.3.2-.3-1.1-.8-.9-.4-.4-.5-.7-.7.7-.2.4-1.8-1.4-1.5.7-1.7h-1l1.1-1.5-.9-1.1-.7-1.6 2.2-1 1.8.2 1.5 1.6.3 1.2z"/><path id="RU" class="st0" d="M1206.3 215.8l-2.8 3-4.6.7-.1 6.5-1.1 1.4-2.6-.2-2.1-2.3-3.7-1.9-.6-2.9-2.8-1.1-3.2.9-1.5-2.4.6-2.6-3.4 1.6 1.3 3.2-1.6 2.8-3.6 2.9-3.6-.5 2.5 3.4 1.7 5.2 1.3 1.7.3 2.5-.7 1.6-5.2-1.3-7.8 4.5-2.5.7-4.3 4.1-4.1 3.5-1 2.6-4-3.9-7.3 4.4-1.3-2.1-2.7 2.4-3.8-.8-.9 3.6-3.4 5.2.1 2.1 3.2 1.2-.4 7.5-2.6.2-1.2 4.1 1.2 2.1-4.9 2.5-1 5.4-4.2 1.1-.8 4.7-4 4.2-1-3.1-1.2-6.7-1.6-10.6 1.3-7 2.4-3.1.2-2.4 4.4-1.2 5-6.8 4.8-5.7 5-4.6 2.2-8.4-3.4.5-1.7 4.9-7.1 6.4-2.3-7.1-7.2 2-7 9.6 2.3 3.4-6.3 1.4-4.3.6.2-3.9-4.4-.8-3.5 2.7-8.6-.9-9.3 1.5-9.1 10.3-10.8 11.8 4.4.6 1.4 3 2.7 1 1.8-2.4 3.1.3 4 5.2.1 3.9-2.2 4.5-.2 5.3-1.3 6.9-4.2 6-.9 2.8-3.8 4.8-3.8 4.5-1.8 2.3-3.7 2.2h-1.8l-1.8-1.9-3.8 2.8-.4 1.3-.4-.7v-1.9l1.4-.1.4-4.5-.7-3.4 2.4-1.4 3.4.7 1.9-3.9 1-4.5 1.1-1.5 1.5-3.8-4.6 1.2-2.4 1.6h-4.3l-1.1-4-3.3-3-4.9-1.4-1-4.3-1-2.7-1-1.9-1.7-4.6-2.5-1.7-4.2-1.4-3.7.1-3.5.8-2.3 2.3 1.5 1.1v2.5l-1.6 1.5-2.5 4.7v1.9l-4 2.7-3.4-1.6-3.3.4-1.5-1.5-1.7-.5-4.1 3.1-3.7.7-2.6 1.1-3.5-.7h-2.6l-1.7-2.2-2.8-2.1-2.8-.6-3.5.6-2.7.8-4-1.8-.5-3.3-3.3-1.1-2.5-.5-3.1-1.9-2.9 4.7 1.1 2.6-2.7 3-4-1.1-2.8-.2-1.9-2-2.9-.1-2.4-1.4-4.3 2.1-5.3 3.7-3 .7-1.1.4-1.5-2.6-3.6.6-1.2-1.8-2-.9-1.3-2.5-1.5-.8-4 1.1-3.9-2.6-1.5 2.3-6.3-11.6-3.6-3.7 1-1.5-7 4.5-2.7.3.2-2.6-3.6-1.6-2.9 1.2-.9-5-5-1.1-2.5 2-7 1.8-1.4 1.2-10.5 1.7-1.3 1.6 2 3.2-2.7 1.2.5 1.2-2.7 2.2 4.5 3.1-.7 2.1-3.9-.2-.8 1.3-3.6-2.3-4.5.1-3 1.9-3.3-1.8-6.2-3.1-4.4.1-5.8 4.9-.3 3.2-2.9-2.5-2.2 4.8.8.9-1.6 3.2 2.4 2.8 2.1-.1 1.8 2.8-.3 2.1 1.4.7-1.3 2.4-2.7.7-2.8 4.1 2.5 3.7-.3 2.6 3.1 4.5-1.7 1.5-.5 1-1.2-.2-1.9-2.3-.8-.1-1.8-.9-.9-1.5-2.6-.8-1.7.6-.5-.7-3.8-1.8-4.1-.6-2.4-.7-.3.5-3.6-3.3-3.2-1.5-2.4-2.3 2-.6 2.3-3.4-1.6-1.6 4.1-1.7-.1-.9-2.5.7.1-1.8 1.5-1.2 2.7-.3.4-1.4-.6-2.3 1.1-2.2v-1.3l-4.1-1.4h-1.6l-1.7-2-2.2.7-3.6-1.5.1-.9-1-1.9-2.2-.2-.2-1.4.7-.9-1.8-2.6-2.9.4-.8-.2-.7 1-1-.2-.7-2.9-.7-1.6.5-.4 2.3.2 1.1-1-.8-1.2-1.9-.8.2-.9-1.1-.9-1.8-3.1.6-1.3-.3-2.3-2.7-1.2-1.5.6-.4-1.2-3-1.3-.9-3-.2-2.5-1.3-1.2 1.2-1.7-.8-5 2-3.1-.4-1 3.2-3.1-2.9-2.7 6-7.4 2.6-3.4 1-3.1-4.2-4.3 1.2-4.1-2.5-4.9 1.9-5.8-3.3-8 2.6-5.5-4.3-5 .4-5.4 2.3-.7 4.8-3.2 2.9-2.8 4.6 4.9 7.7 1.9 10.6 8.6 2.2 3.5.2 4.8-3.1 3.7-4.6 1.9-12.5-5.3-2.1.9 4.6 5.1.2 3.1.2 6.8 3.6 2 2.2 1.7.4-3.1-1.7-2.8 1.8-2.5 6.8 4.1 2.4-1.6-1.9-4.9 6.5-6.7 2.6.4 2.6 2.4 1.6-4.8-2.3-4.3 1.4-4.4-2.1-4.7 7.8 2.4 1.6 4.2-3.5.9v4l2.2 2.4 4.3-1.5.7-4.6 5.9-3.5 9.8-6.5 2.1.4-2.8 4.6 3.5.8 2-2.6 5.2-.2 4.2-3.2 3.2 4.6 3.2-5.1-2.9-4.6 1.5-2.7 8.3 2.4 3.9 2.5 10.2 8.8 1.9-4-2.8-4.1-.1-1.7-3.4-.8.9-3.8-1.5-6.5-.1-2.7 5.2-8 1.8-8.4 2.1-1.9 7.4 2.5.6 5.2-2.7 7.3 1.7 2.8.9 5.9-.6 11.1 3.1 4.7-1.2 5-5.5 10.2 3.2 1 1.1-2.5 3.1-1.8.7-3.6 2.4-3.5-1.6-4.3 1.3-5.1-3.1-.6-.7-4.4 2.2-8.3-3.6-7 5-6-.7-6.6 1.4-.2 1.5 5.2-1.1 8.7 3 1.6-1.3-6.4 4.7-3.6 5.8-.5 5.2 5.2-2.5-7.6-.3-10.3 4.9-2 6.7.4 6.1-1.3-2.3-5.4 3.2-7 3.2-.3 5.5-5.5 7.4-1.5.9-3.2 7.4-1.1 2.3 2.6 6.3-6.2 5.2.2.8-5.2 2.7-5.3 6.6-5.3 4.8 4.2-3.8 3.1 6.3 1.9.8 6 2.6-2.9 8.2.2 6.3 5.8 2.2 4.4-.7 5.9-3.1 3.2-7.4 5.9-2.1 3.1 3.5 1.4 4.2 2.6 2.5-1.9 1.4 6.4 1.2-2.6 4.5-1.6 9 1.6.7 4.6 11.7 1.4.2-7.5 6 1.7 4.5-.1 4.5 5.1 1.3 6-1.7 3.8 3.5 7 4.4 3.5 2.7-9.2 4.5 4 4.8-2.4 5.4 2.7 2.1-2.5 4.6 1.2-2-8.4 3.7-4.1 25.3 6.1 2.4 5.4 7.3 6.6 11.3-1.6 5.6 1.4 2.3 3.5-.3 6 3.5 2.3 3.8-1.6 5-.2 5.3 1.6 5.3-.9 4.9 7 3.5-2.5-2.3-5.1 1.2-3.6 9 2.3 5.8-.5 8.1 3.8 3.9 3.4 6.9 5.9 7.3 7.3-.2 4.4 1.9 1.7-.7-5.1 7.6 1.1 5.2 7zm-127.5 90.4l-2.8-7.7-1.2-4.5.1-4.5-1-4.5-.7-3.1-1.2.7 1.1 2.2-2.6 2.2-.2 6.3 1.6 4.4-.1 5.9-.7 3.2.3 4.5-.3 4 .5 3.4 1.8-3.1 2.1 2.4.1-2.8-2.6-4.2 1.7-6.1 4.1 1.3zm-343-27.4l-2.9-.9-3.9 1.6-.6 2.1 3.5.5 5.2-.1-.2-1.2.3-1.3-1.4-.7zM1178 178.6l3.7-.5 2.9-2.1.2-1.2-4.1-2.5h-2.4l-.4.4-3.6 3.6.5 2.7 3.2-.4zm-109.9-27l-2.7 3.9.5.5 5.8 1.1 4.2-.1-.3-2.6-4-3.8-3.5 1zm24.5-9.6l3.2-4.2-7-2.9-5.2-1.7-.7 3.6 5.2 4.3 4.5.9zm-25.1-1.7l10.3.3 2.2-8.1-10.1-6.1-7.4-.5-3.7 2.2-1.5 7.8 5.5 7 4.7-2.6zm-247.1 26l-2.9 2 .4 4.8 5.1 2.4.7 3.8 9.2 1.1 1.7-.7-5.4-7.1-.6-7.5 4.4-9.1 4.2-9.8 8.7-10.2 8.6-5.3 9.9-5.7 1.9-3.7-2-4.8-5.5 1.6-4.8 4.5-9.3 2.2-9.3 7.4-6.3 5.9.8 4.9-6.7 9 2.6 1.2-5.6 8.3.2 4.8zm147.5-68l.8-5.7-7.1-8.3-2.1-1-2.3 1.7-5.1 18.6 15.8-5.3zM803.6 69l3 3.9 3.3-2.7.4-2.7 2.5-1.3 3.8-2.2 1.1-2.6-4.2-3.8-2.6 2.9-1.6 4.1-.6-4.7-4.3.2-5.5 3.1 6.2.5-1.5 5.3zm131.3 13.1l4.7 5.7 7.8 4.2 6.1-1.8.7-13.6-6.5-16-5.5-9-6.1 4.1-7.3 11.8 3.8 3.3 2.3 11.3z"/><path id="RW" class="st0" d="M758.5 466.5l1.1 1.6-.2 1.6-.8.3-1.5-.2-.9 1.6-1.7-.2.3-1.5.4-.2.1-1.7.8-.8.7.3 1.7-.8z"/><path id="SA" class="st0" d="M793.2 417.2l-.4-1.2-.9-.9-.2-1.2-1.4-1-1.5-2.5-.8-2.4-1.9-2-1.2-.5-1.9-2.9-.3-2.1.1-1.8-1.6-3.4-1.3-1.2-1.5-.6-.9-1.8.2-.7-.8-1.6-.8-.7-1.1-2.3-1.7-2.5-1.4-2.2h-1.4l.4-1.7.1-1.1.3-1.3 3.1.5 1.2-1 .7-1.2 2.1-.4.5-1.1.9-.5-2.8-3.3 5.6-1.6.5-.5 3.4.9 4.2 2.3 7.9 6.5 5.2.3 2.5.3.7 1.5 2-.1 1.1 2.7 1.4.7.5 1.1 1.9 1.3.2 1.3-.3 1 .4 1 .8.9.4 1 .4.8.8.6.8-.2.5 1.2.1.7 1.1 3.1 8.4 1.5.6-.6 1.3 2.1-1.9 6-8.4 3-8.1 1.1-2.6 1.3-2 3.1-1.3.5-.7-1-1.1.2-2.7-.3-.6-.3-3.2.1-.8.3-1.1-.8-.8 1.4.3 1.2-1.2 1z"/><path id="SB" class="st0" d="M1127.8 492.8l.8 1h-2l-1.1-1.7 1.7.7h.6zm-3.5-1.8l-1.1.1-1.7-.3-.6-.4.2-1.1 1.8.4.9.6.5.7zm2.3-.8l-.4.5-2.1-2.5-.6-1.7h1l1 2.2 1.1 1.5zm-5.1-3.5l.1.6-2.2-1.2-1.5-1-1-.9.4-.3 1.3.7 2.3 1.3.6.8zm-6.5-2.8l-.6.2-1.2-.6-1.2-1.1.1-.5 1.7 1.2 1.2.8z"/><path id="SD" class="st0" d="M768.5 436.9h-.4v-1.4l-.3-1-1.4-1.1-.3-2.1.3-2.1-1.3-.2-.2.6-1.7.1.7.8.2 1.7-1.5 1.6-1.4 2-1.4.3-2.4-1.6-1.1.6-.3.9-1.4.5-.1.6h-2.8l-.4-.6-2-.1-1 .5-.8-.2-1.5-1.7-.5-.8-2 .4-.8 1.3-.7 2.5-1 .5-.9.3-.2-.1-1-.8-.2-.9.5-1.2v-1.1l-1.6-1.8-.3-1.2v-.7l-1-.8v-1.7l-.6-1.1-1 .2.3-1.1.7-1.2-.3-1.2.9-.9-.6-.7.7-1.8 1.3-2.1 2.4.2-.1-11.6v-1.2h3.2v-6h33.3l.9 2.9-.6.5.4 3.1 1 3.5 1.1.7 1.5 1.1-1.4 1.7-2.1.5-.9.9-.3 1.9-1.2 4.2.3 1.1-.5 2.5-1.1 2.8-1.7 1.4-1.2 2.2-.3 1.2-1.3.8-.8 3v.5h.2z"/><path id="SE" class="st0" d="M735.5 217.5l-2.7 4.7.4 4-4.5 5.1-5.4 5.3-2 8.4 2 4.1 2.7 3.1-2.6 6.2-2.9 1.3-1.1 8.8-1.6 4.8-3.4-.5-1.6 3.9-3.2.2-.9-4.7-2.4-5.8-2.1-7.5 1.2-3.1 2.3-3.8.9-6.7-1.8-3-.2-8 1.8-5.9 2.8.1 1-2.5-1-2.2 4.3-9.5 2.8-7.9 1.9-5.2h2.7l.8-4.2 5.3 1.2.4-5.1 1.7-.3 3.7 3.8 4.4 5.1.1 11.1.9 2.7-4.7 2z"/><path id="SI" class="st0" d="M712 316.5l2.3.3 1.4-.9 2.5-.1.5-.7.5.1.5 1.4-2.2 1.1-.3 1.6-1 .4v1.1l-1.1-.1-1-.6-.5.7-1.9-.1.6-.4-.7-1.7.4-2.1z"/><path id="SJ" class="st0" d="M742.6 104.5l-6.3 5.4-5-3 1.9-3.4-1.7-4.3 5.8-2.8 1.1 5.2 4.2 2.9zm-18.2-26.7l9.2 11.3-7.1 5.7-1.6 10.1-2.5 2.5-1.3 10.5-3.4.5-6-7.6 2.5-4.6-4.2-3.9-5.5-11.8-2.2-11.8 7.6-5.7 1.5 5.6 4-.2 1.1-5.4 4.1-.6 3.8 5.4zm20.2-11.5l5.5 5.8-4.2 8.5-8.1 1.8-8.3-2.6-.5-4.3-4-.3-3.1-7.5 8.7-4.7 4.1 4.1 2.8-5.1 7.1 4.3z"/><path id="SK" class="st0" d="M726.1 304l.2.3 1.2-.6 1.4 1.5 1.7-.9 1.3.4 2-.6 2.7 1.6-.8 1.1-.5 1.7-.6.4-3-1.3-.9.2-.7 1-1.3.5-.3-.3-1.4.6-1.1.1-.2.8-2.4.5-1-.5-1.4-1.1-.3-1.5.2-.5.4-.9 1.2.1 1-.4.1-.4.5-.2.2-1 .6-.2.4-.8.8.4z"/><path id="SL" class="st0" d="M641.2 444.4l-.8-.2-2-1.1-1.5-1.5-.5-1-.4-2.1 1.5-1.2.3-.8.5-.6.8-.1.6-.5h2.2l.8 1 .6 1.2-.1.8.4.7v1l.8-.2-1.3 1.3-1.3 1.5-.1.8-.5 1z"/><path id="SN" class="st0" d="M626.4 425.2l-1.2-2.2-1.4-1 1.2-.5 1.4-2 .7-1.5 1-.9 1.4.2 1.4-.6h1.6l1.3.9 1.9.8 1.7 2.1 1.9 2 .1 1.8.5 1.6 1 .8.2 1.1-.1.9-.4.2-1.5-.2-.2.3-.6.1-2-.7h-1.4l-5.2-.1-.8.3-.9-.1-1.5.5-.5-2.2 2.5.1.7-.4h.5l1-.7 1.2.6h1.2l1.2-.6-.6-.8-.9.5h-.9l-1.1-.7h-.9l-.6.7-2.9-.3z"/><path id="SO" class="st0" d="M816.6 430.4l-.1-.8h-1.1l-1.3 1-1.5.3-1.3.4-.9.1-1.6.1-1 .5-1.4.2-2.5.9-3 .3-2.6.7h-1.4l-1.3-1.2-.5-1.2-.9-.5-1 1.5-.6 1 1 1.6 1 1.4 1.1 1 9.2 3.3h2.4l-7.9 8.4-3.7.1-2.5 2h-1.8l-.8.9-2.5 3.2v10.1l1.7 2.3.6-.7.7-1.5 3.1-3.4 2.6-2.1 4.2-2.8 2.8-2.3 3.3-3.8 2.4-3.1 2.4-4.1 1.7-3.6 1.3-3.1.8-3 .6-1V432l.3-1.6z"/><path id="SR" class="st0" d="M513 446.7l3.4.6.3-.5 2.3-.2 3 .8-1.5 2.4.2 1.9 1.1 1.7-.5 1.2-.2 1.3-.7 1.2-1.6-.6-1.3.3-1.1-.2-.3.8.5.5-.2.6-1.5-.2-1.7-2.4-.4-1.6h-.9l-1.2-2 .5-1.5-.1-.6 1.7-.7.2-2.8z"/><path id="SS" class="st0" d="M768.5 436.9v2.2l-.4.9-1.5.1-1 1.6 1.7.2 1.4 1.4.5 1.1 1.3.7 1.6 3-1.9 1.8-1.7 1.7-1.7 1.3h-2l-2.3.6-1.8-.6-1.1.8-2.5-1.9-.7-1.2-1.6.6-1.3-.2-.8.5-1.3-.3-1.7-2.3-.5-.9-2.1-1.1-.7-1.7-1.2-1.2-1.9-1.5v-.9l-1.5-1.1-1.9-1.1.9-.3 1-.5.7-2.5.8-1.3 2-.4.5.8 1.4 1.6.8.2 1-.5 2 .1.4.6h2.8l.1-.6 1.4-.5.3-.8 1.1-.6 2.4 1.6 1.4-.3 1.4-2 1.5-1.6-.2-1.7-.7-.8 1.7-.1.2-.6 1.3.2-.3 2.1.3 2.1 1.4 1.1.3 1v1.4l.7-.2z"/><path id="SV" class="st0" d="M427.1 425.8l-.3.7h-1.6l-1-.3-1.2-.6-1.6-.2-.8-.6.1-.4 1-.7.5-.3-.2-.3.7-.2.8.2.6.6.9.5.1.4 1.2-.3.6.2.4.3-.2 1z"/><path id="SY" class="st0" d="M782 364.6l-5.5 3.5-3.1-1.3h-.1l.4-.5v-1.4l.7-1.8 1.5-1.3-.5-1.3-1.3-.2-.3-2.6.7-1.4.8-.8.8-.8.2-1.9.9.7 3.1-1 1.5.6h2.3l3.2-1.3 1.5.1 3.2-.5-1.4 2.2-1.5.9.3 2.5-1.1 4.1-6.3 3.5z"/><path id="SZ" class="st0" d="M763.2 540.7l-.6 1.4-1.6.3-1.7-1.7v-1.1l.8-1.2.3-.9.8-.2 1.4.6.4 1.4.2 1.4z"/><path id="TD" class="st0" d="M713.9 427.3l.3-1.3-1.8-.1V424l-1.2-1.1 1.2-3.8 3.6-2.7.1-3.8 1.1-6 .6-1.3-1.2-1v-.9l-1-.8-.7-4.7 2.8-1.7 11.2 5.8 11.2 5.7.1 11.6-2.4-.2-1.3 2.1-.7 1.8.6.7-.9.9.3 1.2-.8 1.2-.3 1.1 1-.2.6 1.1v1.7l1 .8v.7l-1.8.5-1.4 1.1-2 3.1-2.6 1.3-2.7-.2-.8.3.3 1-1.5 1-1.2 1.1-3.5 1.1-.7-.6-.5-.1-.5.7-2.3.2.4-.8-.9-1.9-.4-1.2-1.2-.5-1.7-1.6.6-1.3 1.3.3.8-.2h1.6l-1.5-2.6.1-1.9-.2-1.9-1.1-1.8z"/><path id="TF" class="st0" d="M866.5 619l1.8 1.3 2.6.5.1.8-.8 2-4.2.4-.1-2.3.4-1.8.2-.9z"/><path id="TG" class="st0" d="M678.5 446.2l-2.2.6-.6-1-.8-1.8-.2-1.4.6-2.5-.7-1-.3-2.2v-2l-1.2-1.5.2-.9 2.5.1-.4 1.5.8.8 1 1 .1 1.4.6.6-.1 6.5.7 1.8z"/><path id="TH" class="st0" d="M960.9 429.2l-2.5-1.3-2.4.1.4-2.2h-2.5l-.2 3.1-1.5 4.1-.9 2.5.2 2.1 1.8.1 1.1 2.6.5 2.4 1.6 1.6 1.7.3 1.5 1.4-.9 1.2-1.9.3-.2-1.4-2.3-1.2-.5.5-1.1-1.1-.5-1.4-1.5-1.6-1.4-1.3-.5 1.6-.5-1.6.3-1.8.8-2.7 1.4-2.9 1.5-2.7-1.1-2.6V426l-.3-1.6-1.9-2.3-.7-1.4 1-.5 1-2.5-1.1-1.9-1.8-2.1-1.4-2.6 1.2-.5 1.3-3.2 2-.1 1.6-1.3 1.6-.7 1.2.9.2 1.8 1.9.1-.7 3.1.1 2.6 3-1.7.8.5 1.6-.1.6-1 2.1.2 2.1 2.4.2 2.9 2.3 2.5-.1 2.4-.9 1.3-2.6-.4-3.6.6-1.8 2.4.7 3.4z"/><path id="TJ" class="st0" d="M872.4 340.6l-1 1.1-3.1-.6-.3 2.1 3-.3 3.5 1.2 5.3-.6.7 3.3.9-.4 1.7.8-.1 1.4.4 2h-2.9l-1.9-.3-1.7 1.6-1.2.3-1 .7-1.1-1.2.3-2.9-.8-.2.3-1.1-1.5-.8-1.2 1.2-.3 1.4-.4.5-1.7-.1-.9 1.6-1-.7-2 1.1-.8-.4 1.6-3.6-.6-2.7-2.1-.9.7-1.6 2.3.2 1.3-2 .9-2.4 3.8-.9-.6 1.7.4 1 1.1.5z"/><path id="TL" class="st0" d="M1023.7 488.2l.3-.7 2.4-.6 2-.1.9-.3 1.1.3-1 .8-2.9 1.2-2.4.8v-.9l-.4-.5z"/><path id="TM" class="st0" d="M844.9 356.9l-.2-2.9-2.1-.1-3.2-3.1-2.2-.4-3.1-1.8-2-.3-1.2.7-1.9-.1-2 2-2.5.7-.5-2.5.4-3.7-2.2-1.2.7-2.5-1.9-.2.6-3.1 2.6.9 2.5-1.2-2-2.2-.8-2.1-2.3 1-.3 2.7-.9-2.4 1.2-1.2 3.2-.8 1.9 1.1 2 2.9 1.4-.2 3.2-.1-.5-1.9 2.4-1.3 2.4-2.2 3.8 2 .3 3 1.1.8 3-.2.9.7 1.4 3.8 3.2 2.5 1.8 1.7 2.9 1.8 3.7 1.5-.1 2.2-.8-.1-1.3-.9-.4 1.2-2.4.7-.6 2.8-1.6 1.1-2.2.5-.6 1.5-2.1.5-2.7-1.6z"/><path id="TN" class="st0" d="M699.8 374.7l-1.2-5.9-1.7-1.3v-.8l-2.3-2-.2-2.5 1.7-1.9.7-2.8-.4-3.3.6-1.8 3.1-1.4 2 .4-.1 1.8 2.4-1.3.2.7-1.4 1.7v1.6l1 .9-.4 3-1.9 1.7.5 1.8 1.5.1.7 1.6 1.1.5-.2 2.6-1.4.9-.9 1.1-1.9 1.3.3 1.4-.2 1.4-1.6.5z"/><path id="TR" class="st0" d="M776.8 336.6l4 1.4 3.3-.6 2.4.3 3.3-1.9 3-.2 2.7 1.8.5 1.3-.3 1.8 2.1.9 1.1 1.1-1.9 1 .9 4.1-.5 1.1 1.5 2.8-1.3.6-1-.9-3.3-.5-1.2.5-3.2.5-1.5-.1-3.2 1.3h-2.3l-1.5-.7-3.1 1-.9-.7-.2 1.9-.8.8-.8.8-1-1.6 1.1-1.3-1.7.3-2.3-.8-1.9 2-4.3.4-2.3-1.9-3-.1-.7 1.4-1.9.4-2.7-1.9-3.1.1-1.7-3.5-2-2 1.4-2.8-1.8-1.7 3.1-3.5 4.3-.1 1.2-2.8 5.3.5 3.4-2.4 3.3-1.1 4.6-.1 4.9 3.1zm-27.3 2.4l-2.3 2-.9-1.7v-.8l.7-.4.9-2.3-1.4-1 2.9-1.2 2.4.5.3 1.4 2.5 1.2-.5.9-3.3.2-1.3 1.2z"/><path id="TT" class="st0 active" d="M500.3 433.2l1.6-.4.6.1-.1 2.1-2.3.3-.5-.2.8-.8-.1-1.1z"/><path id="TW" class="st0" d="M1014.7 393.3l-1.7 4.9-1.2 2.5-1.5-2.5-.3-2.2 1.6-3 2.2-2.3 1.3.9-.4 1.7z"/><path id="TZ" class="st0" d="M768.3 466l.5.3L779 472l.2 1.6 4 2.8-1.3 3.4.2 1.6 1.8 1 .1.7-.8 1.7.2.9-.2 1.3 1 1.8 1.2 2.8 1 .6-2.2 1.6-3.2 1.2h-1.7l-1 .8-2 .1-.7.4-3.4-.8-2.1.2-.8-3.9-1-1.3-.6-.8-2.7-.5-1.6-.9-1.8-.5-1.1-.5-1.2-.7-1.5-3.6-1.6-1.6-.6-1.6.3-1.5-.5-2.6 1.2-.1 1-1 1.1-1.5.7-.6v-.9l-.6-.6-.2-1.1.8-.3.2-1.6-1.1-1.6 1-.3h3.1l5.7-.1z"/><path id="UA" class="st0" d="M762.4 292.5l1 .2.7-1 .8.2 2.9-.4 1.8 2.6-.7.9.2 1.4 2.2.2 1 1.9-.1.9 3.6 1.5 2.1-.7 1.7 2h1.6l4.1 1.4v1.3l-1.1 2.2.6 2.3-.4 1.4-2.7.3-1.4 1.2-.1 1.8-2.2.3-1.9 1.3-2.6.2-2.4 1.5-1.3 1 1.5 1.5 1.4 1 2.9-.2-.5 1.4-3.1.7-3.8 2.3-1.5-.8.6-1.8-3.1-1.2.5-.8 3.2-1.6-.4-.8-.5.4-.4-.2-4.4-1-.2-1.5-2.6.5-1 2.2-2.2 3-1.3-.7-1.3.6-1.2-.7.7-.4.5-1.4.8-1.3-.2-.7.6-.3.3.6 1.7.1.7-.3-.5-.4.2-.6-1-1-.4-1.7-1-.7.2-1.4-1.3-1.1-1.2-.2-2.1-1.3-1.9.4-.7.6h-1.2l-.7 1-2.1.4-1 .6-1.3-1h-1.8l-1.7-.5-1.2.9-.2-1.1-1.5-1.1.5-1.7.8-1.1.6.2-.7-1.9 2.5-3.6 1.4-.5.3-1.2-1.4-3.9 1.3-.2 1.5-1.2 2.2-.1 2.8.4 3.1 1.1 2.2.1 1 .6 1-.8.7 1 2.5-.2 1.1.4.2-2.3.9-1 2.8-.4z"/><path id="UG" class="st0" d="M762.6 466.2h-3.1l-1 .3-1.7.9-.7-.3V465l.6-1.1.2-2.2.6-1.3 1.1-1.5 1.1-.7.9-1-1.1-.4.2-3.3 1.1-.8 1.8.6 2.3-.6h2l1.7-1.3 1.3 1.9.3 1.4 1.2 3.2-1 2-1.4 1.8-.8 1.1v3l-5.6.4z"/><path id="US" class="st0 active" d="M307.2 279.8l-1.5-1.8-2.5-1.6-.8-4.4-3.6-4.1-1.5-4.9-2.7-.3-4.5-.1-3.3-1.5-5.8-5.6-2.7-1.1-4.9-2-3.9.5-5.5-2.6-3.3-2.4-3.1 1.2.6 3.9-1.5.4-3.2 1.2-2.5 1.9-3.1 1.2-.4-3.2 1.3-5.5 3-1.8-.8-1.5-3.6 3.2-1.9 3.8-4 4 2 2.6-2.7 3.9-3 2.2-2.8 1.6-.7 2.3-4.4 2.6-.9 2.4-3.3 2.1-1.9-.4-2.6 1.4-2.9 1.7-2.3 1.6-4.8 1.4-.4-.8 3.1-2.3 2.7-1.5 3-2.7 3.5-.6 1.4-2.1 3.9-3 .6-1 2.1-1.8.5-4 1.4-3.2-3.2 1.6-.9-.9-1.5 2-1.8-2.7-.8 1.9-1-2.7-2.8 2.2h-1.7l-.2-3.2.5-2-1.8-2-3.6 1.1-2.4-2.6-1.9-1.4v-3.2l-2.2-2.5 1.1-3.4 2.3-3.4 1-3.1 2.3-.4 1.9 1 2.3-3 2 .5 2.1-2-.5-2.9-1.6-1.2 2.1-2.5-1.7.1-3 1.4-.9 1.4-2.2-1.4-4 .7-4.1-1.6-1.2-2.6-3.5-3.9 3.9-2.9 6.2-3.4h2.3l-.4 3.5 5.9-.3-2.3-4.3-3.5-2.7-2-3.6-2.7-3.2-3.8-2.4 1.6-4 5-.2 3.5-3.6.7-3.9 2.9-3.9 2.7-.9 5.3-3.8 2.6.6 4.3-4.6 4.2 1.8 2 3.9 1.2-1.6 4.7.5-.2 1.9 4.3 1.4 2.9-.8 5.9 2.6 5.4.8 2.2 1.1 3.7-1.3 4.2 2.5 3.2.4v63l2.8.2 2.7 1.6 2 2.4 2.5 3.6 2.7-3.1 2.8-1.8 1.5 2.9 1.9 2.2 2.6 2.4 1.8 3.8 2.9 5.9 4.8 3.2.1 3.1-1.9 2.4zm176 34.4L482 313l-1.9.7-.9-1.1-2.1 3.1-.9 3.1-1 1.8-1.2.6-.9.2-.3 1h-9.5l-1.3.7-2.9 2.7.3.5.2 1.5-2.1 1.3-2.3-.3-2.2-.1-1.3.4.2 1.1.1.4-2.4 2.3-2.1 1.1-1.4.5-1.7 1-2 .5-1.4-.2-1.7-.8 1-1.5.6-1.3 1.3-2.1-.1-1.6-.5-2.2-1-.4-1.7 1.7h-.6l-.1-1 1.5-1.6.3-1.8-.2-1.8-2.1-1.5-2.4-.8-.4 1.5-.6.4-.5 2-.3-1.3-1.1 1-.7 1.3-.7 1.9-.1 1.6.9 2.4-.1 2.5-1.1 1.8-.6.5-.8.4h-.9l-.3-.2-.8-2v-1l.1-.9-.4-1.9.5-2.2.6-2.7 1.5-3h-.4l-2.1 2.5-.4-.5 1.1-1.4 1.7-2.6 1.9-.4 2.2-.8 2.2.4h.1l2.5-.4-1.4-1.6-.8-.1-.9-.2-.6-1.1-2.8.4-2.5.9-2-1.5-1.6-.5.9-2.2-2.5 1.4-2.2 1.3-2.2 1-1.7-1.4-2.8.9v-.6l1.9-1.7 2-1.6 2.9-1.4-3.4-1.1-2.3.5-2.7-1.3-2.9-.7-2-.3-.9-.7-.5-2.4h-.9v1.6h-77.7l.9 3.5.4 3.4-.7 1.1-1.5-3.9-4.1-1.4-.3.8.8 1.9.9 3.5.5 5.4-.3 3.6-.3 3.5-1.1 3.6.9 2.9.1 3.2-.6 3 1.5 2 .4 3 2.2 3 1.2 1.2-.1.8 2.3 4.9 2.7 3.5.3 1.9.7.5 2.6.3 1 .9 1.6.2.3 1 1.3.4 1.8 1.9.5 1.7 3.2-.2 3.6-.4-.3.6 4.2 1.6 6.4 2.3h7.8v-1.4h4.9l1 1.2 1.4 1 1.7 1.4.9 1.7.7 1.8 1.4 1 2.3 1 1.8-2.5 2.3-.1 2 1.3 1.4 2.2 1 1.9 1.6 1.8.6 2.2.8 1.5 2.2 1 2 .7 1.1-.1-.5-1.1-.1-1.5v-2.2l.6-1.4 1.5-1.5 2.8-1.4 2.6-2.4 2.4-.8 1.7-.2 2 .7 2.4-.4 2.1 1.7 2 .1 1.1-.6 1 .5.5-.4-.6-.6.1-1.3-.5-.9 1.2-.5 2.1-.2 2.5.4 3.2-.4 1.8.8 1.4 1.5.5.2 2.8-1.5 1.1.5 2.2 2.7.8 1.8-.6 2.1.4 1.2 1.3 2.4 1.5 2.7 1.1.7.4 1.4 1.4.4.8-.4.7-1.9.1-1.2.1-2.1-1.3-3.6v-1.4l-1.2-2.2-.9-2.8-.5-2.2.4-2.3 1.3-1.9 1.6-1.6 3.1-2.2.4-1.1 1.4-1.2 1.4-.2 1.8-2 2.9-1 1.8-2.5-.4-3.5-.3-1.2-.8-.2-.1-3.4-1.9-1.1 1.9.6-.6-2.3.5-1.5.3 3 1.4 1.4-.9 2.4.3.1 1.6-2.8.9-1.4v-1.4l-.7-.6-.6-1.9.9.9.6.2.2.9 2-2.8.6-2.6-.8-.2.9-1-.1.5h1.8l3.9-1.1-.8-.7-4.1.7 2.3-1.1 1.6-.2 1.2-.2 2.1-.6 1.4.1 1.9-.6.2-1.1-.8-.8.3 1.4-1.2-.1-.9-2v-2l.5-.9 1.5-2.3 3-1.1 2.9-1.3 3-1.9-.4-1.4-1.8-2.2v-5.6zm-239.6-50.4l-1.5.8-2.5 1.9.4 2.4 1.4 1.3 2.8-2 2.4-2.5-1.2-1.6-1.8-.3zM198 235.2l2-1.3.2-.7-2.2-.6v2.6zm8.5 15.4l-2.8 1 1.7 1.5 1.8 1 1.7-.9-.3-2.1-2.1-.5zm97.3 32.5l-2.7.4-1.3-.6-.2 1.5.5 2.1 1.4 1.5 1 2.1 1.7 2.1h1.1l-2.4-3.7.9-5.4zm-68.7 120.7l-1-.3-.3.3v.2l.3.2.5.6.9-.2.2-.4-.6-.4zm-3-.6l1.5.1.1-.3-1.4-.1-.2.3zm5.9 3.3l-.5-.3-1.1-.5-.2-.1-.2.3.2.6-.5.5-.1.3.5 1.1-.1.8.7.4.4-.5.9-.5 1.1-.6.1-.2-.7-1-.5-.3zm-7.8-5.1l-.8.4.1.1.4.7 1 .1h.2l.2-.2-.8-1-.3-.1zm-4.4-1.6l-.4.3-.1.2.9.5.3-.3-.1-.7h-.6z"/><path id="UY" class="st0" d="M511.7 551.8l1.8-.3 2.8 2.5 1-.1 2.9 2.1 2.2 1.8 1.6 2.2-1.2 1.6.8 1.9-1.2 2.1-3.2 1.9-2.1-.7-1.5.4-2.6-1.5-1.9.1-1.7-1.9.2-2.2.6-.7v-3.3l.8-3.4.7-2.5z"/><path id="UZ" class="st0" d="M859.8 351l.1-2.2-3.7-1.5-2.9-1.8-1.8-1.7-3.2-2.5-1.4-3.8-.9-.7-3 .2-1.1-.8-.3-3-3.8-2-2.4 2.2-2.4 1.3.5 1.9-3.2.1-.1-14.1 7.2-2.4.5.4 4.3 2.8 2.3 1.5 2.7 3.5 3.3-.6 4.8-.3 3.4 2.8-.2 3.8h1.4l.6 3.1 3.6.1.8 1.8h1l1.2-2.6 3.7-2.6 1.6-.7.8.4-2.3 2.4 2.1 1.4 2-.9 3.3 2-3.6 2.6-2.1-.4-1.2.1-.4-1 .6-1.7-3.8.9-.9 2.4-1.3 2-2.3-.2-.7 1.6 2.1.9.6 2.7-1.6 3.6-2.1-.7-1.8-.3z"/><path id="VE" class="st0" d="M473.2 430.4l-.1.7-1.7.3.9 1.3v1.5l-1.2 1.6 1.1 2.2 1.2-.2.6-2-.9-1-.1-2.1 3.5-1.2-.4-1.3 1-.9 1 2h2l1.8 1.6.1.9h2.5l3-.3 1.6 1.3 2.1.4 1.6-.9v-.7l3.5-.2h3.4l-2.4.8 1 1.3 2.2.2 2.1 1.4.5 2.3 1.5-.1 1.1.7-2.2 1.6-.2 1 1 1-.7.5-1.7.5.1 1.3-.8.8 1.9 2.1.4.8-1 1.1-3.1 1-2 .4-.8.7-2.2-.7-2.1-.4-.5.3 1.2.7-.1 1.9.4 1.8 2.4.2.2.6-2 .8-.3 1.2-1.2.4-2.1.6-.5.9-2.2.2-1.6-1.5-.8-2.8-.8-1-1-.6 1.4-1.4-.1-.6-.8-.8-.6-1.9.2-2 .6-.9.5-1.5-1-.5-1.6.3-2-.1-1.1.3-2-2.4-1.6-.4-3.6.3-.7-1-.7-.2-.1-.6.3-1-.2-1.1-.6-.6-.4-1.3-1.4-.2.8-1.7.4-2 .8-1.1 1.1-.8.7-1.4 1.5-.4z"/><path id="VN" class="st0" d="M976.2 401.9l-3.7 2.6-2.3 2.8-.6 2.1 2.1 3.1 2.6 3.8 2.5 1.8 1.7 2.3 1.3 5.3-.4 5-2.3 1.9-3.2 1.8-2.3 2.4-3.5 2.6-1-1.8.8-1.9-2.1-1.6 2.4-1.1 2.9-.2-1.2-1.7 4.7-2.2.3-3.4-.6-1.9.5-2.9-.7-2-2.1-2-1.8-2.6-2.3-3.5-3.4-1.8.8-1.1 1.8-.8-1.1-2.6h-3.5l-1.3-2.7-1.6-2.4 1.5-.7h2.2l2.7-.4 2.4-1.6 1.3 1.1 2.6.6-.5 1.7 1.3 1.2 3.1.8z"/><path id="VU" class="st0" d="M1143.9 509.9l-.9.4-1-1.3.1-.8 1.8 1.7zm-2.1-4.4l.5 2.3-.8-.4-.6.2-.4-.8-.1-2.2 1.4.9z"/><path id="YE" class="st0" d="M822.2 416.3l-2 .8-.5 1.3-.1 1-2.8 1.2-4.5 1.4-2.5 2-1.2.2-.8-.2-1.6 1.2-1.8.5-2.3.1-.7.2-.6.8-.7.2-.4.7-1.4-.1-.9.4-1.9-.1-.7-1.7.1-1.6-.5-.9-.5-2.1-.8-1.2.6-.1-.7-1.3.3-.6-.1-1.3 1.2-.9-.3-1.2.8-1.4 1.1.8.8-.3 3.2-.1.5.3 2.7.3 1.1-.2.7 1 1.3-.5 2-3.1 2.6-1.3 8.1-1.1 2.2 4.8 1 2.1z"/><path id="ZA" class="st0" d="M761.6 548.7l-.5.5-1.2 1.6-.8 1.7-1.6 2.3-3.2 3.4-2 2-2.1 1.5-2.9 1.3-1.4.2-.4.9-1.7-.5-1.4.6-3-.7-1.7.4-1.2-.2-2.9 1.3-2.4.5-1.7 1.3-1.3.1-1.2-1.2-1-.1-1.2-1.5-.1.5-.4-.9v-2l-.9-2.2.9-.6-.1-2.5-1.8-3-1.4-2.7-2-4.2 1.3-1.6 1.1.9.5 1.4 1.3.2 1.8.6 1.5-.2 2.5-1.6v-11.5l.8.5 1.7 2.9-.3 1.9.6 1.1 2-.3 1.4-1.4 1.3-.9.7-1.5 1.4-.7 1.2.4 1.3.9 2.3.2 1.8-.7.3-1 .5-1.5 1.5-.2.8-1.2.9-2 2.5-2.3 4-2.2h1.1l1.4.5.9-.4 1.5.3 1.3 4.3.7 2.2-.5 3.4.2 1.1-1.4-.6-.8.2-.3.9-.8 1.2v1.1l1.7 1.7 1.6-.3.6-1.4h2.1l-.7 2.3-.3 2.6-.7 1.4-1.7 1.5zm-7.1-.9l-1.2-1-1.3.7-1.5 1.2-1.5 2 2.1 2.5 1-.3.5-1 1.6-.5.5-1 .9-1.6-1.1-1z"/><path id="ZM" class="st0" d="M765.1 489.2l1.3 1.3.7 2.4-.5.8-.6 2.3.5 2.4-.9 1-.9 2.7 1.5.7-8.5 2.4.3 2-2.1.4-1.6 1.2-.3 1-1 .2-2.4 2.4-1.5 1.9-1 .1-.9-.3-3.1-.3-.5-.2v-.2l-1.1-.7-1.8-.2-2.3.7-1.8-1.8-1.9-2.4.1-9.2h5.8l-.2-1 .4-1.1-.5-1.3.3-1.4-.3-.9 1 .1.2.9 1.3-.1 1.8.3.9 1.3 2.2.4 1.7-.9.6 1.5 2.2.4 1 1.2 1.2 1.6h2.2l-.2-3.1-.8.5-2-1.1-.8-.5.4-2.9.5-3.4-.7-1.3.8-1.8.8-.3 3.8-.5 1.1.3 1.2.7 1.1.5 1.8.5 1.5.8z"/><path id="ZW" class="st0 active" d="M760.7 527l-1.5-.3-.9.4-1.4-.5h-1.1l-1.8-1.4-2.2-.5-.8-1.9v-1l-1.2-.3-3.2-3.2-.9-1.7-.6-.5-1.1-2.4 3.1.3.9.3 1-.1 1.5-1.9 2.4-2.4 1-.2.3-1 1.6-1.2 2.1-.4.2 1.1 2.3-.1 1.3.6.6.7 1.3.2 1.4.9v3.7l-.5 2-.1 2.2.5.9-.3 1.7-.4.3-.7 2.2-2.8 3.5z"/></svg>