<?xml version="1.0" encoding="utf-8"?>
<!-- Generator: Adobe Illustrator 19.2.1, SVG Export Plug-In . SVG Version: 6.00 Build 0)  -->
<svg version="1.1" id="Layer_1" xmlns="http://www.w3.org/2000/svg" xmlns:xlink="http://www.w3.org/1999/xlink" x="0px" y="0px"
	 width="167px" height="140px" viewBox="0 0 167 140" style="enable-background:new 0 0 167 140;" xml:space="preserve">
<style type="text/css">
	.st0{fill:#F4F8FB;}
	.st1{fill:#FFFFFF;}
	.st2{fill:#51AAF1;}
	.st3{fill:#D2EBFD;}
	.st4{fill:#FFC522;}
	.st5{fill:#F38021;}
	.st6{fill:#FFCC01;}
	.st7{fill:#F48024;}
	.st8{fill:#7BC8EF;}
</style>
<g>
	<g>
		<g>
			<circle class="st0" cx="83.2" cy="-288.4" r="65.7"/>
		</g>
		<g>
			<path class="st1" d="M137.7-322H42.2c-3.4,0-6.1,2.7-6.1,6.1v61.4H51v19.2l19.2-19.2h71.5V-318C141.7-320.2,139.9-322,137.7-322z
				"/>
			<path class="st2" d="M50.5-234.1V-254H35.6v-61.9c0-3.6,3-6.6,6.6-6.6h95.6c2.5,0,4.5,2,4.5,4.5v64H70.4L50.5-234.1z M36.6-255
				h14.9v18.5L70-255h71.2v-63c0-1.9-1.6-3.5-3.5-3.5H42.2c-3.1,0-5.6,2.5-5.6,5.6V-255z"/>
		</g>
		<g>
			<rect x="71.7" y="-306.8" class="st3" width="33" height="5.7"/>
		</g>
		<g>
			<rect x="71.7" y="-297.5" class="st3" width="51.1" height="4.7"/>
		</g>
		<g>
			<rect x="71.7" y="-288.4" class="st3" width="51.1" height="4.7"/>
		</g>
		<g>
			<rect x="71.7" y="-279.2" class="st3" width="17" height="4.7"/>
		</g>
		<g>
			<g id="XMLID_5_">
				<path class="st4" d="M107.9-267.8l52.1-52.1c1.1-1.1,1.1-2.9,0-4l-4-4c-1.1-1.1-2.9-1.1-4,0l-52.1,52.1l-4,12L107.9-267.8z"/>
			</g>
			<g id="XMLID_4_">
				<path class="st5" d="M99.1-259l4.4-13.1l52.2-52.2c1.3-1.3,3.4-1.3,4.7,0l4,4c0.6,0.6,1,1.5,1,2.4s-0.3,1.7-1,2.4l-52.2,52.2
					L99.1-259z M104.4-271.6l-3.7,11l11-3.7l52-52c0.4-0.4,0.7-1,0.7-1.7s-0.2-1.2-0.7-1.7l-4-4c-0.9-0.9-2.4-0.9-3.3,0L104.4-271.6
					z"/>
			</g>
			<g id="XMLID_3_">
				
					<rect x="155.2" y="-321.8" transform="matrix(0.7071 -0.7071 0.7071 0.7071 269.1393 17.4801)" class="st5" width="1" height="11.3"/>
			</g>
			<g id="XMLID_2_">
				
					<rect x="107.4" y="-273.5" transform="matrix(0.7071 -0.7071 0.7071 0.7071 220.9873 -2.109)" class="st5" width="1" height="11.3"/>
			</g>
			<g id="XMLID_1_">
				
					<rect x="109" y="-295.2" transform="matrix(0.7071 -0.7071 0.7071 0.7071 247.8529 9.0125)" class="st5" width="51.6" height="1"/>
			</g>
		</g>
		<g>
			<g>
				<g>
					<path class="st6" d="M36-341c0,0,0.1,0.1,0.1,0.2v0.7c0,0.1,0,0.1-0.1,0.2c0,0-0.1,0.1-0.2,0.1h-3.3v3.4c0,0.1,0,0.1-0.1,0.2
						s-0.1,0.1-0.2,0.1h-0.7c-0.1,0-0.1,0-0.2-0.1c0,0-0.1-0.1-0.1-0.2v-3.4h-3.4c-0.1,0-0.1,0-0.2-0.1c0,0-0.1-0.1-0.1-0.2v-0.7
						c0-0.1,0-0.1,0.1-0.2c0,0,0.1-0.1,0.2-0.1h3.4v-3.3c0-0.1,0-0.1,0.1-0.2c0,0,0.1-0.1,0.2-0.1h0.7c0.1,0,0.1,0,0.2,0.1
						c0,0,0.1,0.1,0.1,0.2v3.3h3.3C35.9-341.1,35.9-341.1,36-341z"/>
				</g>
			</g>
			<g>
				<g>
					<path class="st7" d="M12.4-325.6c-0.1,0-0.1-0.1-0.1-0.2c0-0.1,0-0.1,0-0.1l0.2-0.5c0.1-0.1,0.1-0.1,0.2-0.1c0,0,0.1,0,0.1,0
						l1.7,0.6l-0.1-1.5v0c0-0.1,0-0.1,0.1-0.2c0,0,0.1-0.1,0.2-0.1h0.6c0.1,0,0.1,0,0.2,0.1c0,0,0.1,0.1,0,0.2l-0.1,1.5l1.6-0.6
						c0.1,0,0.1,0,0.2,0c0.1,0,0.2,0,0.2,0.1l0.2,0.5c0,0.1,0,0.1,0,0.1c0,0.1-0.1,0.2-0.2,0.2l-2.5,0.7L12.4-325.6z M14.4-321.9
						c0,0-0.1-0.1-0.1-0.2l0.1-1.5l-1.7,0.6c-0.1,0-0.1,0-0.1,0c-0.1,0-0.2,0-0.2-0.1l-0.2-0.5c0,0,0-0.1,0-0.1c0-0.1,0-0.2,0.1-0.2
						l2.5-0.7l2.5,0.7c0.1,0,0.2,0.1,0.2,0.2c0,0,0,0.1,0,0.1l-0.2,0.5c0,0.1-0.1,0.1-0.2,0.1c0,0-0.1,0-0.2,0l-1.6-0.6l0.1,1.5v0
						c0,0.1,0,0.1-0.1,0.2c0,0-0.1,0.1-0.2,0.1h-0.6C14.5-321.8,14.5-321.8,14.4-321.9z"/>
				</g>
			</g>
			<g>
				<circle class="st7" cx="56.3" cy="-339" r="1.5"/>
			</g>
		</g>
		<g>
			<g>
				<g>
					<path class="st7" d="M93-339.2c-0.2-0.1-0.3-0.2-0.3-0.5c0-0.1,0-0.2,0-0.3l0.4-1c0.1-0.2,0.3-0.3,0.5-0.3c0.1,0,0.2,0,0.3,0.1
						l3.3,1.3l-0.3-3v-0.1c0-0.1,0-0.2,0.1-0.3c0.1-0.1,0.2-0.1,0.3-0.1h1.2c0.2,0,0.3,0,0.4,0.1c0.1,0.1,0.1,0.2,0.1,0.4l-0.2,3
						l3.2-1.3c0.1,0,0.2-0.1,0.3-0.1c0.2,0,0.3,0.1,0.4,0.3l0.4,1c0,0.1,0.1,0.2,0.1,0.3c0,0.2-0.1,0.3-0.3,0.4l-5,1.5L93-339.2z
						 M97.1-331.8c-0.1-0.1-0.1-0.2-0.1-0.4l0.3-3l-3.3,1.3c-0.1,0-0.2,0.1-0.3,0.1c-0.2,0-0.3-0.1-0.4-0.3l-0.4-1
						c0-0.1,0-0.2,0-0.3c0-0.2,0.1-0.4,0.3-0.5l5-1.4l5,1.5c0.2,0.1,0.3,0.2,0.3,0.4c0,0,0,0.1-0.1,0.3l-0.4,1
						c-0.1,0.2-0.2,0.3-0.4,0.3c-0.1,0-0.2,0-0.3-0.1l-3.2-1.3l0.2,3v0.1c0,0.2,0,0.3-0.1,0.3c-0.1,0.1-0.2,0.1-0.3,0.1h-1.2
						C97.3-331.6,97.2-331.7,97.1-331.8z"/>
				</g>
			</g>
			<g>
				<path class="st7" d="M130.9-346.7c-2.2,0-3.9-1.8-3.9-3.9c0-2.2,1.8-3.9,3.9-3.9c2.2,0,3.9,1.8,3.9,3.9
					C134.8-348.5,133.1-346.7,130.9-346.7z M130.9-353.5c-1.6,0-2.9,1.3-2.9,2.9c0,1.6,1.3,2.9,2.9,2.9c1.6,0,2.9-1.3,2.9-2.9
					C133.8-352.2,132.5-353.5,130.9-353.5z"/>
			</g>
		</g>
	</g>
	<g>
		<g>
			<path class="st8" d="M66.1-286.4c0.1,0.1,0.2,0.2,0.2,0.4v1.8c0,0.2-0.1,0.3-0.2,0.4c-0.1,0.1-0.2,0.2-0.4,0.2h-1.3
				c-0.7,0-1.3-0.1-1.8-0.3c-0.6-0.2-1.1-0.5-1.5-0.7c-0.4-0.3-1-0.7-1.7-1.3l-1.9-1.5c-0.4-0.3-0.7-0.5-1-0.6
				c-0.3-0.1-0.7-0.2-1.3-0.2c-1.2,0-2.4-0.3-3.4-0.9c-1-0.6-1.9-1.4-2.5-2.5c-0.6-1-0.9-2.2-0.9-3.4v-5.5c0-1.2,0.3-2.4,0.9-3.4
				c0.6-1,1.4-1.9,2.5-2.5c1-0.6,2.2-0.9,3.4-0.9c1.2,0,2.4,0.3,3.4,0.9c1,0.6,1.9,1.4,2.5,2.5c0.6,1,0.9,2.2,0.9,3.4v5.5
				c0,1.1-0.2,2.1-0.7,3c-0.5,0.9-1.1,1.7-1.9,2.3l1.3,1.1c0,0,0.1,0.1,0.5,0.4c0.7,0.6,1.3,1,1.8,1.3c0.4,0.3,0.9,0.4,1.4,0.4h1.3
				C65.8-286.6,66-286.5,66.1-286.4z M52-293.2c0.3,0.6,0.8,1,1.4,1.4c0.6,0.3,1.2,0.5,1.8,0.5c0.7,0,1.3-0.2,1.8-0.5
				c0.6-0.3,1-0.8,1.4-1.4c0.3-0.6,0.5-1.2,0.5-1.9v-5.5c0-0.7-0.2-1.3-0.5-1.9c-0.3-0.6-0.8-1-1.4-1.4c-0.6-0.3-1.2-0.5-1.8-0.5
				c-0.7,0-1.3,0.2-1.8,0.5c-0.6,0.3-1,0.8-1.4,1.4c-0.3,0.6-0.5,1.2-0.5,1.9v5.5C51.5-294.4,51.6-293.8,52-293.2z"/>
		</g>
	</g>
</g>
<g>
	<g>
		<circle class="st0" cx="106" cy="-117.2" r="65.8"/>
	</g>
	<g>
		<g id="XMLID_42_">
			<path class="st1" d="M140.8-158.9H162c2.1,0,3.9,1.7,3.9,3.9v81.1c0,2.1-1.7,3.9-3.9,3.9H50c-2.1,0-3.9-1.7-3.9-3.9V-155
				c0-2.1,1.7-3.9,3.9-3.9h21.3"/>
			<path class="st2" d="M162-69.5H50c-2.4,0-4.4-2-4.4-4.4V-155c0-2.4,2-4.4,4.4-4.4h21.3v1H50c-1.9,0-3.4,1.5-3.4,3.4v81.1
				c0,1.9,1.5,3.4,3.4,3.4H162c1.9,0,3.4-1.5,3.4-3.4V-155c0-1.9-1.5-3.4-3.4-3.4h-21.3v-1H162c2.4,0,4.4,2,4.4,4.4v81.1
				C166.4-71.4,164.4-69.5,162-69.5z"/>
		</g>
		<g id="XMLID_36_">
			<polyline class="st3" points="140.8,-151.1 158.2,-151.1 158.2,-89.3 53.8,-89.3 53.8,-151.1 71.2,-151.1 			"/>
			<polygon class="st2" points="158.7,-88.8 53.3,-88.8 53.3,-151.6 71.2,-151.6 71.2,-150.6 54.3,-150.6 54.3,-89.8 157.7,-89.8 
				157.7,-150.6 140.8,-150.6 140.8,-151.6 158.7,-151.6 			"/>
		</g>
		<g id="XMLID_35_">
			<polygon class="st1" points="119.5,-50.7 92.5,-50.7 96.3,-70 115.6,-70 			"/>
			<path class="st2" d="M120.1-50.2H91.8l4.1-20.3h20.1L120.1-50.2z M93.1-51.2h25.8l-3.7-18.3H96.7L93.1-51.2z"/>
		</g>
		<g id="XMLID_34_">
			<line class="st1" x1="46.1" y1="-81.6" x2="165.9" y2="-81.6"/>
			<rect x="46.1" y="-82.1" class="st2" width="119.8" height="1"/>
		</g>
		<g id="XMLID_33_">
			<line class="st1" x1="84.7" y1="-50.7" x2="127.2" y2="-50.7"/>
			<rect x="84.7" y="-51.2" class="st2" width="42.5" height="1"/>
		</g>
		<g>
			<circle class="st1" cx="105.6" cy="-75.6" r="1.5"/>
			<path class="st2" d="M105.6-73.6c-1.1,0-2-0.9-2-2s0.9-2,2-2s2,0.9,2,2S106.7-73.6,105.6-73.6z M105.6-76.6c-0.5,0-1,0.4-1,1
				s0.4,1,1,1s1-0.4,1-1S106.2-76.6,105.6-76.6z"/>
		</g>
	</g>
	<g>
		<g>
			<g>
				<path class="st6" d="M16.6-152.3c0,0-0.1,0.1-0.2,0.1h-0.8c-0.1,0-0.1,0-0.2-0.1c0,0-0.1-0.1-0.1-0.2v-3.6h-3.6
					c-0.1,0-0.1,0-0.2-0.1c0,0-0.1-0.1-0.1-0.2v-0.8c0-0.1,0-0.1,0.1-0.2c0,0,0.1-0.1,0.2-0.1h3.6v-3.6c0-0.1,0-0.1,0.1-0.2
					c0,0,0.1-0.1,0.2-0.1h0.8c0.1,0,0.1,0,0.2,0.1c0,0,0.1,0.1,0.1,0.2v3.6h3.6c0.1,0,0.1,0,0.2,0.1c0,0,0.1,0.1,0.1,0.2v0.8
					c0,0.1,0,0.1-0.1,0.2c0,0-0.1,0.1-0.2,0.1h-3.6v3.6C16.7-152.5,16.6-152.4,16.6-152.3z"/>
			</g>
		</g>
		<g>
			<g>
				<path class="st7" d="M40.7-182.4c-0.2-0.1-0.2-0.2-0.2-0.4c0-0.1,0-0.2,0-0.2l0.3-0.8c0.1-0.2,0.2-0.2,0.4-0.2
					c0.1,0,0.1,0,0.2,0.1l2.7,1l-0.2-2.4v-0.1c0-0.1,0-0.2,0.1-0.3c0.1-0.1,0.2-0.1,0.3-0.1h1c0.1,0,0.2,0,0.3,0.1
					c0.1,0.1,0.1,0.2,0.1,0.3l-0.2,2.4l2.6-1c0.1,0,0.2-0.1,0.3-0.1c0.2,0,0.3,0.1,0.3,0.2l0.3,0.8c0,0.1,0.1,0.2,0.1,0.2
					c0,0.2-0.1,0.3-0.3,0.3l-4,1.2L40.7-182.4z M43.9-176.4c-0.1-0.1-0.1-0.2-0.1-0.3l0.2-2.4l-2.7,1c-0.1,0-0.2,0.1-0.2,0.1
					c-0.1,0-0.3-0.1-0.3-0.2l-0.3-0.8c0-0.1,0-0.1,0-0.2c0-0.2,0.1-0.3,0.2-0.4l4-1.1l4,1.2c0.2,0.1,0.3,0.2,0.3,0.3
					c0,0,0,0.1-0.1,0.2l-0.3,0.8c-0.1,0.1-0.2,0.2-0.3,0.2c-0.1,0-0.2,0-0.3-0.1l-2.6-1l0.2,2.4v0.1c0,0.1,0,0.2-0.1,0.3
					c-0.1,0.1-0.2,0.1-0.3,0.1h-1C44.1-176.3,44-176.3,43.9-176.4z"/>
			</g>
		</g>
		<g>
			<circle class="st7" cx="27.8" cy="-138.5" r="1.6"/>
		</g>
	</g>
	<g>
		<g>
			<polyline class="st1" points="71.3,-90.3 71.3,-183.9 140.7,-183.9 140.7,-90.3 			"/>
			<polygon class="st5" points="141.2,-90.3 140.2,-90.3 140.2,-183.4 71.8,-183.4 71.8,-90.3 70.8,-90.3 70.8,-184.4 141.2,-184.4 
							"/>
		</g>
		<g>
			<line class="st1" x1="87.3" y1="-148.9" x2="87.3" y2="-138.6"/>
			<rect x="86.8" y="-148.9" class="st5" width="1" height="10.3"/>
		</g>
		<g>
			<line class="st1" x1="97.9" y1="-112.5" x2="129.4" y2="-112.5"/>
			<rect x="97.9" y="-113" class="st5" width="31.5" height="1"/>
		</g>
		<g>
			<g>
				<path class="st4" d="M78.9-161.4L78.9-161.4c-8,0-14.6-6.5-14.6-14.6v0c0-8,6.5-14.6,14.6-14.6h0c8,0,14.6,6.5,14.6,14.6v0
					C93.5-167.9,86.9-161.4,78.9-161.4z"/>
			</g>
			<g>
				<path class="st1" d="M88.7-164.6h-1c0-4.8-3.9-8.7-8.7-8.7s-8.7,3.9-8.7,8.7h-1c0-5.4,4.4-9.7,9.7-9.7S88.7-170,88.7-164.6z"/>
			</g>
			<g>
				<path class="st1" d="M78.9-175.4c-2.9,0-5.2-2.3-5.2-5.2s2.3-5.2,5.2-5.2s5.2,2.3,5.2,5.2S81.8-175.4,78.9-175.4z M78.9-184.8
					c-2.3,0-4.2,1.9-4.2,4.2s1.9,4.2,4.2,4.2s4.2-1.9,4.2-4.2S81.2-184.8,78.9-184.8z"/>
			</g>
		</g>
		<g>
			<line class="st1" x1="97.9" y1="-157.2" x2="129.4" y2="-157.2"/>
			<rect x="97.9" y="-157.7" class="st5" width="31.5" height="1"/>
		</g>
		<g>
			<line class="st1" x1="97.9" y1="-152.5" x2="129.4" y2="-152.5"/>
			<rect x="97.9" y="-153" class="st5" width="31.5" height="1"/>
		</g>
		<g>
			<line class="st1" x1="97.9" y1="-147.8" x2="112.4" y2="-147.8"/>
			<rect x="97.9" y="-148.3" class="st5" width="14.5" height="1"/>
		</g>
		<g>
			<line class="st1" x1="97.9" y1="-136.9" x2="129.4" y2="-136.9"/>
			<rect x="97.9" y="-137.4" class="st5" width="31.5" height="1"/>
		</g>
		<g>
			<line class="st1" x1="97.9" y1="-132.2" x2="129.4" y2="-132.2"/>
			<rect x="97.9" y="-132.7" class="st5" width="31.5" height="1"/>
		</g>
		<g>
			<line class="st1" x1="97.9" y1="-127.5" x2="112.4" y2="-127.5"/>
			<rect x="97.9" y="-128" class="st5" width="14.5" height="1"/>
		</g>
		<g>
			<line class="st1" x1="97.9" y1="-116.9" x2="129.4" y2="-116.9"/>
			<rect x="97.9" y="-117.4" class="st5" width="31.5" height="1"/>
		</g>
		<g>
			<line class="st1" x1="97.9" y1="-107.5" x2="112.4" y2="-107.5"/>
			<rect x="97.9" y="-108" class="st5" width="14.5" height="1"/>
		</g>
		<g>
			<line class="st1" x1="98.5" y1="-170" x2="121" y2="-170"/>
			<rect x="98.5" y="-170.5" class="st5" width="22.5" height="1"/>
		</g>
		<g>
			<circle class="st6" cx="88.2" cy="-152.7" r="2.3"/>
		</g>
		<g>
			<circle class="st6" cx="88.2" cy="-132.7" r="2.3"/>
		</g>
		<g>
			<circle class="st6" cx="88.2" cy="-112.2" r="2.3"/>
		</g>
		<g>
			<path class="st5" d="M87.3-151.7c-1.5,0-2.8-1.3-2.8-2.8s1.3-2.8,2.8-2.8c1.5,0,2.8,1.3,2.8,2.8S88.8-151.7,87.3-151.7z
				 M87.3-156.3c-1,0-1.8,0.8-1.8,1.8s0.8,1.8,1.8,1.8s1.8-0.8,1.8-1.8S88.3-156.3,87.3-156.3z"/>
		</g>
		<g>
			<path class="st5" d="M87.3-131.7c-1.5,0-2.8-1.3-2.8-2.8c0-1.5,1.3-2.8,2.8-2.8c1.5,0,2.8,1.3,2.8,2.8
				C90.1-133,88.8-131.7,87.3-131.7z M87.3-136.3c-1,0-1.8,0.8-1.8,1.8s0.8,1.8,1.8,1.8s1.8-0.8,1.8-1.8S88.3-136.3,87.3-136.3z"/>
		</g>
		<g>
			<path class="st5" d="M87.3-111.1c-1.5,0-2.8-1.3-2.8-2.8c0-1.5,1.3-2.8,2.8-2.8c1.5,0,2.8,1.3,2.8,2.8
				C90.1-112.4,88.8-111.1,87.3-111.1z M87.3-115.7c-1,0-1.8,0.8-1.8,1.8s0.8,1.8,1.8,1.8s1.8-0.8,1.8-1.8S88.3-115.7,87.3-115.7z"
				/>
		</g>
		<g>
			<line class="st1" x1="87.3" y1="-128.8" x2="87.3" y2="-118.5"/>
			<rect x="86.8" y="-128.8" class="st5" width="1" height="10.3"/>
		</g>
		<g>
			<line class="st1" x1="87.3" y1="-108.2" x2="87.3" y2="-90.3"/>
			<rect x="86.8" y="-108.2" class="st5" width="1" height="17.9"/>
		</g>
	</g>
	<g>
		<g>
			<g>
				<path class="st6" d="M157.6-172.2c0,0-0.1,0.1-0.1,0.1h-0.6c-0.1,0-0.1,0-0.1-0.1c0,0,0-0.1,0-0.1v-2.7H154c-0.1,0-0.1,0-0.1,0
					c0,0-0.1-0.1-0.1-0.1v-0.6c0-0.1,0-0.1,0.1-0.1c0,0,0.1,0,0.1,0h2.8v-2.8c0-0.1,0-0.1,0-0.1c0,0,0.1-0.1,0.1-0.1h0.6
					c0.1,0,0.1,0,0.1,0.1c0,0,0,0.1,0,0.1v2.8h2.7c0.1,0,0.1,0,0.1,0c0,0,0.1,0.1,0.1,0.1v0.6c0,0.1,0,0.1-0.1,0.1c0,0-0.1,0-0.1,0
					h-2.7v2.7C157.7-172.3,157.7-172.2,157.6-172.2z"/>
			</g>
		</g>
		<g>
			<circle class="st1" cx="181.9" cy="-173.8" r="2.7"/>
			<path class="st5" d="M181.9-170.6c-1.7,0-3.2-1.4-3.2-3.2s1.4-3.2,3.2-3.2s3.2,1.4,3.2,3.2S183.6-170.6,181.9-170.6z
				 M181.9-175.9c-1.2,0-2.2,1-2.2,2.2s1,2.2,2.2,2.2s2.2-1,2.2-2.2S183.1-175.9,181.9-175.9z"/>
		</g>
		<g>
			<circle class="st7" cx="180" cy="-147.2" r="1.9"/>
		</g>
	</g>
</g>
<g>
	<g>
		<circle class="st0" cx="89.6" cy="74.1" r="65.8"/>
	</g>
	<g id="XMLID_6_">
		<g id="XMLID_32_">
			<path class="st1" d="M56.8,33.5h88.1v81.1H46.2c-5.8,0-10.6-4.7-10.6-10.6V33.5c0-5.8,4.7-10.6,10.6-10.6S56.8,27.7,56.8,33.5
				V104c0-5.8-4.7-10.6-10.6-10.6S35.6,98.2,35.6,104"/>
			<path class="st2" d="M145.4,115.1H46.2c-6.1,0-11.1-5-11.1-11.1V33.5c0-6.1,5-11.1,11.1-11.1c5.9,0,10.8,4.7,11.1,10.6h88.1
				V115.1z M36.1,104c0,5.6,4.5,10.1,10.1,10.1h98.2V34H57.3v70h-1c0-5.6-4.5-10.1-10.1-10.1S36.1,98.4,36.1,104z M46.2,23.4
				c-5.6,0-10.1,4.5-10.1,10.1v65.9c1.7-3.8,5.6-6.5,10.1-6.5s8.3,2.7,10.1,6.5V33.5C56.3,28,51.8,23.4,46.2,23.4z"/>
		</g>
		<g id="XMLID_31_">
			<polygon class="st4" points="76.2,93.4 83.2,102.2 69.1,102.2 			"/>
		</g>
		<g id="XMLID_30_">
			<polygon class="st4" points="114.9,68.8 122,77.6 107.9,77.6 			"/>
		</g>
		<g id="XMLID_29_">
			<path class="st4" d="M97.3,58.2c0,0-10.6-17.1-10.6-22.9s4.7-10.6,10.6-10.6c5.8,0,10.6,4.7,10.6,10.6S97.3,58.2,97.3,58.2z"/>
		</g>
		<g id="XMLID_28_">
			<line class="st1" x1="80.2" y1="33.5" x2="56.8" y2="33.5"/>
			<rect x="56.8" y="33" class="st2" width="23.4" height="1"/>
		</g>
		<g id="XMLID_27_">
			<path class="st5" d="M144.9,83.9h-1.8c-0.6,0-1-0.4-1-1s0.4-1,1-1h1.8c0.6,0,1,0.4,1,1S145.4,83.9,144.9,83.9z"/>
		</g>
		<g id="XMLID_26_">
			<path class="st5" d="M136,83.9h-2c-0.6,0-1-0.4-1-1s0.4-1,1-1h2c0.6,0,1,0.4,1,1S136.6,83.9,136,83.9z M130,83.9h-2
				c-0.6,0-1-0.4-1-1s0.4-1,1-1h2c0.6,0,1,0.4,1,1S130.6,83.9,130,83.9z M124,83.9h-2c-0.6,0-1-0.4-1-1s0.4-1,1-1h2c0.6,0,1,0.4,1,1
				S124.5,83.9,124,83.9z M118,83.9h-2c-0.6,0-1-0.4-1-1s0.4-1,1-1h2c0.6,0,1,0.4,1,1S118.5,83.9,118,83.9z M111.9,83.9h-2
				c-0.6,0-1-0.4-1-1s0.4-1,1-1h2c0.6,0,1,0.4,1,1S112.5,83.9,111.9,83.9z M105.9,83.9h-2c-0.6,0-1-0.4-1-1s0.4-1,1-1h2
				c0.6,0,1,0.4,1,1S106.5,83.9,105.9,83.9z M99.9,83.9h-2c-0.6,0-1-0.4-1-1s0.4-1,1-1h2c0.6,0,1,0.4,1,1S100.4,83.9,99.9,83.9z
				 M93.9,83.5c-0.1,0-0.1,0-0.2,0c-0.7-0.2-1.4-0.4-2.1-0.6c-0.5-0.2-0.8-0.8-0.6-1.3c0.2-0.5,0.8-0.8,1.3-0.6
				c0.6,0.2,1.2,0.4,1.8,0.5c0.5,0.1,0.9,0.7,0.8,1.2C94.7,83.2,94.3,83.5,93.9,83.5z M88.4,81.1c-0.2,0-0.4-0.1-0.6-0.2
				c-0.6-0.4-1.2-0.8-1.7-1.3c-0.4-0.4-0.5-1-0.1-1.4c0.4-0.4,1-0.5,1.4-0.1c0.5,0.4,1,0.8,1.5,1.2c0.5,0.3,0.6,0.9,0.3,1.4
				C89,80.9,88.7,81.1,88.4,81.1z M84.2,76.9c-0.3,0-0.6-0.2-0.8-0.4c-0.4-0.6-0.8-1.2-1.1-1.8c-0.2-0.5,0-1.1,0.4-1.3
				c0.5-0.2,1.1,0,1.3,0.4c0.3,0.6,0.6,1.1,1,1.6c0.3,0.5,0.2,1.1-0.3,1.4C84.5,76.8,84.3,76.9,84.2,76.9z M81.8,71.3
				c-0.5,0-0.9-0.3-1-0.8c-0.1-0.7-0.3-1.4-0.3-2.1c0-0.6,0.4-1,0.9-1.1c0.6-0.1,1,0.4,1.1,0.9c0.1,0.6,0.1,1.3,0.3,1.9
				c0.1,0.5-0.2,1.1-0.8,1.2C81.9,71.3,81.9,71.3,81.8,71.3z M81.2,65.4c-0.5,0-0.9-0.3-1-0.8c-0.1-0.6-0.2-1.2-0.4-1.8
				c-0.2-0.5,0.1-1.1,0.7-1.2c0.5-0.2,1.1,0.1,1.2,0.7c0.2,0.7,0.4,1.4,0.5,2.1c0.1,0.5-0.3,1.1-0.8,1.2
				C81.3,65.4,81.3,65.4,81.2,65.4z M79.1,59.7c-0.3,0-0.7-0.2-0.9-0.5c-0.3-0.5-0.7-1-1.1-1.5c-0.3-0.4-0.3-1.1,0.2-1.4
				c0.4-0.3,1.1-0.3,1.4,0.2c0.4,0.6,0.9,1.1,1.2,1.7c0.3,0.5,0.1,1.1-0.3,1.4C79.5,59.7,79.3,59.7,79.1,59.7z M75.1,55.3
				c-0.2,0-0.4-0.1-0.6-0.2c-0.5-0.4-1-0.7-1.6-1c-0.5-0.3-0.6-0.9-0.4-1.4c0.3-0.5,0.9-0.6,1.4-0.4c0.6,0.4,1.2,0.7,1.8,1.2
				c0.4,0.3,0.5,1,0.2,1.4C75.7,55.2,75.4,55.3,75.1,55.3z M69.7,52.7c-0.1,0-0.2,0-0.3,0c-0.6-0.2-1.2-0.3-1.8-0.4
				c-0.5-0.1-0.9-0.6-0.9-1.1c0.1-0.5,0.6-0.9,1.1-0.9c0.7,0.1,1.4,0.2,2.1,0.4c0.5,0.1,0.8,0.7,0.7,1.2
				C70.6,52.4,70.2,52.7,69.7,52.7z M63.7,52.1h-1.7c-0.6,0-1-0.4-1-1s0.4-1,1-1h1.7c0.6,0,1,0.4,1,1S64.3,52.1,63.7,52.1z"/>
		</g>
		<g id="XMLID_25_">
			<path class="st5" d="M58.5,52.1h-1.8c-0.6,0-1-0.4-1-1s0.4-1,1-1h1.8c0.6,0,1,0.4,1,1S59.1,52.1,58.5,52.1z"/>
		</g>
		<g id="XMLID_24_">
			<path class="st5" d="M84.2,97.4H68.1l8.1-10.1L84.2,97.4z M70.2,96.4h12l-6-7.5L70.2,96.4z"/>
		</g>
		<g id="XMLID_23_">
			<path class="st5" d="M123,72.8h-16.2l8.1-10.1L123,72.8z M108.9,71.8h12l-6-7.5L108.9,71.8z"/>
		</g>
		<g id="XMLID_22_">
			<path class="st5" d="M97.3,53.8l-0.4-0.7C96.4,52.5,86.2,35.9,86.2,30c0-6.1,5-11.1,11.1-11.1s11.1,5,11.1,11.1
				c0,5.9-10.2,22.5-10.6,23.2L97.3,53.8z M97.3,19.9c-5.6,0-10.1,4.5-10.1,10.1c0,5,8.1,18.7,10.1,21.9c2-3.3,10.1-17,10.1-21.9
				C107.4,24.4,102.9,19.9,97.3,19.9z"/>
		</g>
		<g id="XMLID_21_">
			<path class="st2" d="M137.8,108.5c-0.3,0-0.5-0.1-0.7-0.3c-0.1-0.1-0.2-0.2-0.2-0.3c0-0.1-0.1-0.2-0.1-0.4s0-0.3,0.1-0.4
				c0.1-0.1,0.1-0.2,0.2-0.3c0.2-0.2,0.6-0.3,0.9-0.3c0.1,0,0.1,0,0.2,0.1c0.1,0,0.1,0,0.2,0.1c0.1,0,0.1,0.1,0.2,0.1
				c0.2,0.2,0.3,0.5,0.3,0.7s-0.1,0.5-0.3,0.7c-0.1,0.1-0.2,0.2-0.3,0.2C138.1,108.5,138,108.5,137.8,108.5z"/>
		</g>
		<g id="XMLID_20_">
			<path class="st2" d="M137.8,101.5c-0.1,0-0.3,0-0.4-0.1c-0.1,0-0.2-0.1-0.3-0.2c-0.1-0.1-0.2-0.2-0.2-0.3c0-0.1-0.1-0.2-0.1-0.4
				c0-0.3,0.1-0.5,0.3-0.7c0.2-0.2,0.6-0.3,0.9-0.3c0.1,0,0.1,0,0.2,0.1c0.1,0,0.1,0,0.2,0.1c0.1,0,0.1,0.1,0.2,0.1
				c0.1,0.1,0.2,0.2,0.2,0.3c0.1,0.1,0.1,0.2,0.1,0.4c0,0.1,0,0.3-0.1,0.4c0,0.1-0.1,0.2-0.2,0.3c-0.1,0.1-0.2,0.2-0.3,0.2
				C138.1,101.5,138,101.5,137.8,101.5z"/>
		</g>
		<g id="XMLID_19_">
			<path class="st2" d="M137.8,94.4c-0.3,0-0.5-0.1-0.7-0.3c-0.1-0.1-0.2-0.2-0.2-0.3c0-0.1-0.1-0.2-0.1-0.4c0-0.3,0.1-0.5,0.3-0.7
				c0.1-0.1,0.2-0.2,0.3-0.2c0.2-0.1,0.5-0.1,0.8,0c0.1,0,0.2,0.1,0.3,0.2c0.2,0.2,0.3,0.4,0.3,0.7c0,0.3-0.1,0.5-0.3,0.7
				C138.3,94.3,138.1,94.4,137.8,94.4z"/>
		</g>
		<g id="XMLID_18_">
			<path class="st2" d="M130.8,108.5c-0.3,0-0.5-0.1-0.7-0.3c-0.1-0.1-0.2-0.2-0.2-0.3s-0.1-0.2-0.1-0.4c0-0.3,0.1-0.5,0.3-0.7
				c0,0,0.1-0.1,0.1-0.1c0.1,0,0.1-0.1,0.2-0.1c0.1,0,0.1,0,0.2-0.1c0.3-0.1,0.7,0,0.9,0.3c0.1,0.1,0.2,0.2,0.2,0.3
				c0,0.1,0.1,0.2,0.1,0.4c0,0.3-0.1,0.5-0.3,0.7c-0.1,0.1-0.2,0.2-0.3,0.2C131,108.5,130.9,108.5,130.8,108.5z"/>
		</g>
		<g id="XMLID_17_">
			<path class="st2" d="M130.8,101.5c-0.3,0-0.5-0.1-0.7-0.3c-0.1-0.1-0.2-0.2-0.2-0.3c0-0.1-0.1-0.2-0.1-0.4c0-0.1,0-0.3,0.1-0.4
				c0.1-0.1,0.1-0.2,0.2-0.3c0,0,0.1-0.1,0.1-0.1c0.1,0,0.1-0.1,0.2-0.1c0.1,0,0.1,0,0.2-0.1c0.2,0,0.4,0,0.6,0.1
				c0.1,0,0.2,0.1,0.3,0.2c0.2,0.2,0.3,0.4,0.3,0.7c0,0.1,0,0.3-0.1,0.4c-0.1,0.1-0.1,0.2-0.2,0.3
				C131.3,101.4,131.1,101.5,130.8,101.5z"/>
		</g>
		<g id="XMLID_16_">
			<path class="st2" d="M123.7,108.5c-0.3,0-0.5-0.1-0.7-0.3c-0.2-0.2-0.3-0.5-0.3-0.7s0.1-0.5,0.3-0.7c0.4-0.4,1-0.4,1.4,0
				c0.2,0.2,0.3,0.5,0.3,0.7s-0.1,0.5-0.3,0.7c-0.1,0.1-0.2,0.2-0.3,0.2C124,108.5,123.9,108.5,123.7,108.5z"/>
		</g>
		<g id="XMLID_15_">
			<path class="st2" d="M137.8,41.6c-0.3,0-0.5-0.1-0.7-0.3c-0.2-0.2-0.3-0.4-0.3-0.7c0-0.1,0-0.2,0.1-0.4c0.1-0.1,0.1-0.2,0.2-0.3
				c0.4-0.4,1-0.4,1.4,0c0.2,0.2,0.3,0.4,0.3,0.7c0,0.3-0.1,0.5-0.3,0.7c-0.1,0.1-0.2,0.2-0.3,0.2C138.1,41.5,138,41.6,137.8,41.6z"
				/>
		</g>
		<g id="XMLID_14_">
			<path class="st2" d="M130.8,41.6c-0.1,0-0.3,0-0.4-0.1c-0.1-0.1-0.2-0.1-0.3-0.2c-0.2-0.2-0.3-0.4-0.3-0.7c0-0.3,0.1-0.5,0.3-0.7
				c0.1-0.1,0.2-0.2,0.3-0.2c0.4-0.1,0.8-0.1,1.1,0.2c0.2,0.2,0.3,0.4,0.3,0.7c0,0.3-0.1,0.5-0.3,0.7
				C131.3,41.5,131.1,41.6,130.8,41.6z"/>
		</g>
		<g id="XMLID_13_">
			<path class="st2" d="M123.7,41.6c-0.3,0-0.5-0.1-0.7-0.3c-0.2-0.2-0.3-0.4-0.3-0.7c0-0.3,0.1-0.5,0.3-0.7c0.4-0.4,1.1-0.4,1.4,0
				c0.2,0.2,0.3,0.4,0.3,0.7c0,0.3-0.1,0.5-0.3,0.7c-0.1,0.1-0.2,0.2-0.3,0.2C124,41.5,123.9,41.6,123.7,41.6z"/>
		</g>
		<g id="XMLID_12_">
			<path class="st2" d="M137.8,48.6c-0.3,0-0.5-0.1-0.7-0.3c-0.1-0.1-0.2-0.2-0.2-0.3c0-0.1-0.1-0.2-0.1-0.4c0-0.1,0-0.3,0.1-0.4
				c0.1-0.1,0.1-0.2,0.2-0.3c0.4-0.4,1-0.4,1.4,0c0.1,0.1,0.2,0.2,0.2,0.3c0.1,0.1,0.1,0.2,0.1,0.4c0,0.1,0,0.3-0.1,0.4
				c0,0.1-0.1,0.2-0.2,0.3C138.3,48.5,138.1,48.6,137.8,48.6z"/>
		</g>
		<g id="XMLID_11_">
			<path class="st2" d="M130.8,48.6c-0.3,0-0.5-0.1-0.7-0.3c-0.2-0.2-0.3-0.4-0.3-0.7c0-0.1,0-0.3,0.1-0.4c0.1-0.1,0.1-0.2,0.2-0.3
				c0.4-0.4,1-0.4,1.4,0c0.1,0.1,0.2,0.2,0.2,0.3c0,0.1,0.1,0.2,0.1,0.4c0,0.1,0,0.3-0.1,0.4c-0.1,0.1-0.1,0.2-0.2,0.3
				C131.3,48.5,131,48.6,130.8,48.6z"/>
		</g>
		<g id="XMLID_10_">
			<path class="st2" d="M137.8,55.7c-0.3,0-0.5-0.1-0.7-0.3c-0.2-0.2-0.3-0.4-0.3-0.7c0-0.3,0.1-0.5,0.3-0.7c0.4-0.4,1-0.4,1.4,0
				c0.1,0.1,0.2,0.2,0.2,0.3c0.1,0.1,0.1,0.2,0.1,0.4c0,0.3-0.1,0.5-0.3,0.7C138.3,55.6,138.1,55.7,137.8,55.7z"/>
		</g>
		<g id="XMLID_9_">
			<circle class="st1" cx="46.2" cy="104" r="3.5"/>
			<path class="st2" d="M46.2,108c-2.2,0-4-1.8-4-4s1.8-4,4-4s4,1.8,4,4S48.4,108,46.2,108z M46.2,101c-1.7,0-3,1.4-3,3
				c0,1.7,1.4,3,3,3s3-1.4,3-3C49.2,102.3,47.9,101,46.2,101z"/>
		</g>
		<g>
			<path class="st3" d="M46.2,22.9c-5.8,0-10.6,4.7-10.6,10.6V104l0,0c0-8.2,7.3-10.6,10.6-10.6c5.8,0,10.6,4.7,10.6,10.6V33.5
				C56.8,27.7,52,22.9,46.2,22.9z"/>
			<path class="st2" d="M57.3,104h-1c0-5.6-4.5-10.1-10.1-10.1c-3.3,0-10.1,2.5-10.1,10.1h-1V33.5c0-6.1,5-11.1,11.1-11.1
				c6.1,0,11.1,5,11.1,11.1V104z M46.2,92.9c4.5,0,8.3,2.7,10.1,6.5V33.5c0-5.6-4.5-10.1-10.1-10.1S36.1,28,36.1,33.5v65.7
				C38.3,94.6,43.4,92.9,46.2,92.9z"/>
		</g>
		<g id="XMLID_8_">
			<line class="st1" x1="42.7" y1="63.5" x2="42.7" y2="45.9"/>
			<rect x="42.2" y="45.9" class="st2" width="1" height="17.6"/>
		</g>
		<g id="XMLID_7_">
			<path class="st2" d="M42.7,41.6c-0.1,0-0.3,0-0.4-0.1c-0.1-0.1-0.2-0.1-0.3-0.2c-0.2-0.2-0.3-0.4-0.3-0.7c0-0.3,0.1-0.5,0.3-0.7
				c0.1-0.1,0.2-0.2,0.3-0.2c0.4-0.1,0.8-0.1,1.1,0.2c0.2,0.2,0.3,0.4,0.3,0.7c0,0.3-0.1,0.5-0.3,0.7c-0.1,0.1-0.2,0.2-0.3,0.2
				C42.9,41.5,42.8,41.6,42.7,41.6z"/>
		</g>
		<g>
			<g>
				<path class="st5" d="M97.3,36.5l-4.2-4.2c-1-1-1-2.7,0-3.7c1-1,2.7-1,3.7,0l0.5,0.5l0.5-0.5c1-1,2.7-1,3.7,0
					c0.5,0.5,0.8,1.2,0.8,1.9c0,0.7-0.3,1.4-0.8,1.9L97.3,36.5z M95,28.9c-0.4,0-0.8,0.2-1.1,0.5c-0.6,0.6-0.6,1.7,0,2.3l3.5,3.5
					l3.5-3.5c0.3-0.3,0.5-0.7,0.5-1.1c0-0.4-0.2-0.8-0.5-1.1c-0.6-0.6-1.7-0.6-2.3,0l-1.2,1.2l-1.2-1.2C95.8,29.1,95.4,28.9,95,28.9
					z"/>
			</g>
		</g>
	</g>
	<g>
		<g>
			<g>
				<path class="st6" d="M162.8,32.2c0,0-0.1,0.1-0.2,0.1h-0.7c-0.1,0-0.1,0-0.2-0.1c0,0-0.1-0.1-0.1-0.2v-3.3h-3.4
					c-0.1,0-0.1,0-0.2-0.1c0,0-0.1-0.1-0.1-0.2v-0.7c0-0.1,0-0.1,0.1-0.2c0,0,0.1-0.1,0.2-0.1h3.4v-3.4c0-0.1,0-0.1,0.1-0.2
					c0,0,0.1-0.1,0.2-0.1h0.7c0.1,0,0.1,0,0.2,0.1c0,0,0.1,0.1,0.1,0.2v3.4h3.3c0.1,0,0.1,0,0.2,0.1c0,0,0.1,0.1,0.1,0.2v0.7
					c0,0.1,0,0.1-0.1,0.2c0,0-0.1,0.1-0.2,0.1h-3.3V32C162.9,32,162.8,32.1,162.8,32.2z"/>
			</g>
		</g>
		<g>
			<g>
				<path class="st7" d="M139.3,3.7c-0.2-0.1-0.3-0.2-0.3-0.4c0-0.1,0-0.2,0-0.2l0.3-0.8c0.1-0.2,0.2-0.3,0.4-0.3
					c0.1,0,0.2,0,0.2,0.1l2.9,1.1l-0.2-2.6V0.4c0-0.1,0-0.2,0.1-0.3C142.9,0,143,0,143.1,0h1c0.1,0,0.2,0,0.3,0.1
					c0.1,0.1,0.1,0.2,0.1,0.3l-0.2,2.6l2.8-1.1c0.1,0,0.2-0.1,0.3-0.1c0.2,0,0.3,0.1,0.3,0.2l0.4,0.8c0,0.1,0.1,0.2,0.1,0.3
					c0,0.2-0.1,0.3-0.3,0.3l-4.3,1.3L139.3,3.7z M142.8,10.1c-0.1-0.1-0.1-0.2-0.1-0.3l0.2-2.6L140,8.3c-0.1,0-0.2,0.1-0.3,0.1
					c-0.2,0-0.3-0.1-0.4-0.3L139,7.2c0-0.1,0-0.1,0-0.2c0-0.2,0.1-0.3,0.3-0.4l4.3-1.2l4.3,1.3c0.2,0.1,0.3,0.2,0.3,0.4
					c0,0,0,0.1-0.1,0.2l-0.4,0.8c-0.1,0.2-0.2,0.2-0.3,0.2c-0.1,0-0.2,0-0.3-0.1l-2.8-1.1l0.2,2.6v0.1c0,0.1,0,0.2-0.1,0.3
					c-0.1,0.1-0.2,0.1-0.3,0.1h-1C143,10.3,142.9,10.2,142.8,10.1z"/>
			</g>
		</g>
	</g>
	<g>
		<g>
			<g>
				<path class="st6" d="M2.9,34.7c0,0-0.1,0-0.1,0H2.4c0,0-0.1,0-0.1,0c0,0,0-0.1,0-0.1v-2.1H0.1c0,0-0.1,0-0.1,0c0,0,0-0.1,0-0.1
					v-0.4c0,0,0-0.1,0-0.1c0,0,0.1,0,0.1,0h2.1v-2.1c0,0,0-0.1,0-0.1c0,0,0.1,0,0.1,0h0.4c0,0,0.1,0,0.1,0c0,0,0,0.1,0,0.1v2.1H5
					c0,0,0.1,0,0.1,0c0,0,0,0.1,0,0.1v0.4c0,0,0,0.1,0,0.1c0,0-0.1,0-0.1,0H3v2.1C3,34.6,2.9,34.6,2.9,34.7z"/>
			</g>
		</g>
		<g>
			<g>
				<path class="st7" d="M20.9,11.1c-0.2-0.1-0.2-0.2-0.2-0.4c0-0.1,0-0.2,0-0.2l0.3-0.8c0.1-0.2,0.2-0.2,0.4-0.2
					c0.1,0,0.1,0,0.2,0.1l2.7,1l-0.2-2.4V8.1c0-0.1,0-0.2,0.1-0.3c0.1-0.1,0.2-0.1,0.3-0.1h1c0.1,0,0.2,0,0.3,0.1
					c0.1,0.1,0.1,0.2,0.1,0.3l-0.2,2.4l2.6-1c0.1,0,0.2-0.1,0.3-0.1c0.2,0,0.3,0.1,0.3,0.2l0.3,0.8c0,0.1,0.1,0.2,0.1,0.2
					c0,0.2-0.1,0.3-0.3,0.3l-4,1.2L20.9,11.1z M24.2,17.1c-0.1-0.1-0.1-0.2-0.1-0.3l0.2-2.4l-2.7,1c-0.1,0-0.2,0.1-0.2,0.1
					c-0.1,0-0.3-0.1-0.3-0.2l-0.3-0.8c0-0.1,0-0.1,0-0.2c0-0.2,0.1-0.3,0.2-0.4l4-1.1l4,1.2c0.2,0.1,0.3,0.2,0.3,0.3
					c0,0,0,0.1-0.1,0.2l-0.3,0.8c-0.1,0.1-0.2,0.2-0.3,0.2c-0.1,0-0.2,0-0.3-0.1l-2.6-1l0.2,2.4v0.1c0,0.1,0,0.2-0.1,0.3
					c-0.1,0.1-0.2,0.1-0.3,0.1h-1C24.4,17.2,24.2,17.1,24.2,17.1z"/>
			</g>
		</g>
		<g>
			<circle class="st7" cx="8.1" cy="55" r="1.6"/>
		</g>
	</g>
</g>
</svg>
