<?xml version="1.0" encoding="utf-8"?>
<!-- Generator: Adobe Illustrator 19.2.1, SVG Export Plug-In . SVG Version: 6.00 Build 0)  -->
<svg version="1.1" id="Layer_1" xmlns="http://www.w3.org/2000/svg" xmlns:xlink="http://www.w3.org/1999/xlink" x="0px" y="0px"
	 width="154px" height="132px" viewBox="0 0 154 132" style="enable-background:new 0 0 154 132;" xml:space="preserve">
<style type="text/css">
	.st0{fill:#F4F8FB;}
	.st1{fill:#FFFFFF;}
	.st2{fill:#51AAF1;}
	.st3{fill:#D2EBFD;}
	.st4{fill:#FFC522;}
	.st5{fill:#F38021;}
	.st6{fill:#FFCC01;}
	.st7{fill:#F48024;}
	.st8{fill:#7BC8EF;}
</style>
<g>
	<g>
		<g>
			<circle class="st0" cx="70.9" cy="66.8" r="65.7"/>
		</g>
		<g>
			<path class="st1" d="M125.4,33.1H29.8c-3.4,0-6.1,2.7-6.1,6.1v61.4h14.9v19.2l19.2-19.2h71.5V37.1
				C129.4,34.9,127.6,33.1,125.4,33.1z"/>
			<path class="st2" d="M38.2,121v-19.9H23.3V39.2c0-3.6,3-6.6,6.6-6.6h95.6c2.5,0,4.5,2,4.5,4.5v64H58.1L38.2,121z M24.3,100.1
				h14.9v18.5l18.5-18.5h71.2v-63c0-1.9-1.6-3.5-3.5-3.5H29.8c-3.1,0-5.6,2.5-5.6,5.6V100.1z"/>
		</g>
		<g>
			<rect x="59.4" y="48.3" class="st3" width="33" height="5.7"/>
		</g>
		<g>
			<rect x="59.4" y="57.6" class="st3" width="51.1" height="4.7"/>
		</g>
		<g>
			<rect x="59.4" y="66.8" class="st3" width="51.1" height="4.7"/>
		</g>
		<g>
			<rect x="59.4" y="75.9" class="st3" width="17" height="4.7"/>
		</g>
		<g>
			<g id="XMLID_5_">
				<path class="st4" d="M95.6,87.3l52.1-52.1c1.1-1.1,1.1-2.9,0-4l-4-4c-1.1-1.1-2.9-1.1-4,0L87.6,79.3l-4,12L95.6,87.3z"/>
			</g>
			<g id="XMLID_4_">
				<path class="st5" d="M86.8,96.1l4.4-13.1l52.2-52.2c1.3-1.3,3.4-1.3,4.7,0l4,4c0.6,0.6,1,1.5,1,2.4s-0.3,1.7-1,2.4L99.9,91.8
					L86.8,96.1z M92.1,83.6l-3.7,11l11-3.7l52-52c0.4-0.4,0.7-1,0.7-1.7s-0.2-1.2-0.7-1.7l-4-4c-0.9-0.9-2.4-0.9-3.3,0L92.1,83.6z"
					/>
			</g>
			<g id="XMLID_3_">
				
					<rect x="142.8" y="33.3" transform="matrix(0.7071 -0.7071 0.7071 0.7071 14.4017 112.7811)" class="st5" width="1" height="11.3"/>
			</g>
			<g id="XMLID_2_">
				
					<rect x="95.1" y="81.7" transform="matrix(0.7071 -0.7071 0.7071 0.7071 -33.7502 93.192)" class="st5" width="1" height="11.3"/>
			</g>
			<g id="XMLID_1_">
				
					<rect x="96.7" y="60" transform="matrix(0.7071 -0.7071 0.7071 0.7071 -6.8926 104.3208)" class="st5" width="51.6" height="1"/>
			</g>
		</g>
		<g>
			<g>
				<g>
					<path class="st6" d="M23.6,14.1c0,0,0.1,0.1,0.1,0.2V15c0,0.1,0,0.1-0.1,0.2c0,0-0.1,0.1-0.2,0.1h-3.3v3.4c0,0.1,0,0.1-0.1,0.2
						s-0.1,0.1-0.2,0.1h-0.7c-0.1,0-0.1,0-0.2-0.1S19,18.7,19,18.6v-3.4h-3.4c-0.1,0-0.1,0-0.2-0.1c0,0-0.1-0.1-0.1-0.2v-0.7
						c0-0.1,0-0.1,0.1-0.2c0,0,0.1-0.1,0.2-0.1H19v-3.3c0-0.1,0-0.1,0.1-0.2c0,0,0.1-0.1,0.2-0.1h0.7c0.1,0,0.1,0,0.2,0.1
						c0,0,0.1,0.1,0.1,0.2v3.3h3.3C23.5,14.1,23.6,14.1,23.6,14.1z"/>
				</g>
			</g>
			<g>
				<g>
					<path class="st7" d="M0.1,29.5c-0.1,0-0.1-0.1-0.1-0.2c0-0.1,0-0.1,0-0.1l0.2-0.5c0.1-0.1,0.1-0.1,0.2-0.1c0,0,0.1,0,0.1,0
						l1.7,0.6L2,27.7v0c0-0.1,0-0.1,0.1-0.2c0,0,0.1-0.1,0.2-0.1h0.6c0.1,0,0.1,0,0.2,0.1c0,0,0.1,0.1,0,0.2L3,29.2l1.6-0.6
						c0.1,0,0.1,0,0.2,0c0.1,0,0.2,0,0.2,0.1l0.2,0.5c0,0.1,0,0.1,0,0.1c0,0.1-0.1,0.2-0.2,0.2l-2.5,0.7L0.1,29.5z M2.1,33.3
						c0,0-0.1-0.1-0.1-0.2l0.1-1.5l-1.7,0.6c-0.1,0-0.1,0-0.1,0c-0.1,0-0.2,0-0.2-0.1L0,31.6c0,0,0-0.1,0-0.1c0-0.1,0-0.2,0.1-0.2
						l2.5-0.7l2.5,0.7c0.1,0,0.2,0.1,0.2,0.2c0,0,0,0.1,0,0.1L5,32.1c0,0.1-0.1,0.1-0.2,0.1c0,0-0.1,0-0.2,0L3,31.6l0.1,1.5v0
						c0,0.1,0,0.1-0.1,0.2c0,0-0.1,0.1-0.2,0.1H2.3C2.2,33.3,2.1,33.3,2.1,33.3z"/>
				</g>
			</g>
			<g>
				<circle class="st7" cx="44" cy="16.2" r="1.5"/>
			</g>
		</g>
		<g>
			<g>
				<g>
					<path class="st7" d="M80.7,16c-0.2-0.1-0.3-0.2-0.3-0.5c0-0.1,0-0.2,0-0.3l0.4-1c0.1-0.2,0.3-0.3,0.5-0.3c0.1,0,0.2,0,0.3,0.1
						l3.3,1.3l-0.3-3v-0.1c0-0.1,0-0.2,0.1-0.3c0.1-0.1,0.2-0.1,0.3-0.1h1.2c0.2,0,0.3,0,0.4,0.1c0.1,0.1,0.1,0.2,0.1,0.4l-0.2,3
						l3.2-1.3c0.1,0,0.2-0.1,0.3-0.1c0.2,0,0.3,0.1,0.4,0.3l0.4,1c0,0.1,0.1,0.2,0.1,0.3c0,0.2-0.1,0.3-0.3,0.4l-5,1.5L80.7,16z
						 M84.7,23.4c-0.1-0.1-0.1-0.2-0.1-0.4l0.3-3l-3.3,1.3c-0.1,0-0.2,0.1-0.3,0.1c-0.2,0-0.3-0.1-0.4-0.3l-0.4-1c0-0.1,0-0.2,0-0.3
						c0-0.2,0.1-0.4,0.3-0.5l5-1.4l5,1.5c0.2,0.1,0.3,0.2,0.3,0.4c0,0,0,0.1-0.1,0.3l-0.4,1c-0.1,0.2-0.2,0.3-0.4,0.3
						c-0.1,0-0.2,0-0.3-0.1L86.5,20l0.2,3v0.1c0,0.2,0,0.3-0.1,0.3c-0.1,0.1-0.2,0.1-0.3,0.1h-1.2C85,23.5,84.8,23.5,84.7,23.4z"/>
				</g>
			</g>
			<g>
				<path class="st7" d="M118.6,8.4c-2.2,0-3.9-1.8-3.9-3.9c0-2.2,1.8-3.9,3.9-3.9c2.2,0,3.9,1.8,3.9,3.9
					C122.5,6.7,120.7,8.4,118.6,8.4z M118.6,1.6c-1.6,0-2.9,1.3-2.9,2.9c0,1.6,1.3,2.9,2.9,2.9c1.6,0,2.9-1.3,2.9-2.9
					C121.5,2.9,120.2,1.6,118.6,1.6z"/>
			</g>
		</g>
	</g>
	<g>
		<g>
			<path class="st8" d="M53.8,68.7c0.1,0.1,0.2,0.2,0.2,0.4v1.8c0,0.2-0.1,0.3-0.2,0.4c-0.1,0.1-0.2,0.2-0.4,0.2H52
				c-0.7,0-1.3-0.1-1.8-0.3c-0.6-0.2-1.1-0.5-1.5-0.7c-0.4-0.3-1-0.7-1.7-1.3l-1.9-1.5c-0.4-0.3-0.7-0.5-1-0.6
				c-0.3-0.1-0.7-0.2-1.3-0.2c-1.2,0-2.4-0.3-3.4-0.9c-1-0.6-1.9-1.4-2.5-2.5c-0.6-1-0.9-2.2-0.9-3.4v-5.5c0-1.2,0.3-2.4,0.9-3.4
				c0.6-1,1.4-1.9,2.5-2.5c1-0.6,2.2-0.9,3.4-0.9c1.2,0,2.4,0.3,3.4,0.9c1,0.6,1.9,1.4,2.5,2.5c0.6,1,0.9,2.2,0.9,3.4v5.5
				c0,1.1-0.2,2.1-0.7,3c-0.5,0.9-1.1,1.7-1.9,2.3l1.3,1.1c0,0,0.1,0.1,0.5,0.4c0.7,0.6,1.3,1,1.8,1.3c0.4,0.3,0.9,0.4,1.4,0.4h1.3
				C53.5,68.6,53.6,68.6,53.8,68.7z M39.6,61.9c0.3,0.6,0.8,1,1.4,1.4c0.6,0.3,1.2,0.5,1.8,0.5c0.7,0,1.3-0.2,1.8-0.5
				c0.6-0.3,1-0.8,1.4-1.4c0.3-0.6,0.5-1.2,0.5-1.9v-5.5c0-0.7-0.2-1.3-0.5-1.9c-0.3-0.6-0.8-1-1.4-1.4c-0.6-0.3-1.2-0.5-1.8-0.5
				c-0.7,0-1.3,0.2-1.8,0.5c-0.6,0.3-1,0.8-1.4,1.4c-0.3,0.6-0.5,1.2-0.5,1.9v5.5C39.1,60.7,39.3,61.4,39.6,61.9z"/>
		</g>
	</g>
</g>
<g>
	<g>
		<circle class="st0" cx="93.7" cy="238" r="65.8"/>
	</g>
	<g>
		<g id="XMLID_42_">
			<path class="st1" d="M128.4,196.3h21.3c2.1,0,3.9,1.7,3.9,3.9v81.1c0,2.1-1.7,3.9-3.9,3.9H37.6c-2.1,0-3.9-1.7-3.9-3.9v-81.1
				c0-2.1,1.7-3.9,3.9-3.9h21.3"/>
			<path class="st2" d="M149.7,285.7H37.6c-2.4,0-4.4-2-4.4-4.4v-81.1c0-2.4,2-4.4,4.4-4.4h21.3v1H37.6c-1.9,0-3.4,1.5-3.4,3.4v81.1
				c0,1.9,1.5,3.4,3.4,3.4h112.1c1.9,0,3.4-1.5,3.4-3.4v-81.1c0-1.9-1.5-3.4-3.4-3.4h-21.3v-1h21.3c2.4,0,4.4,2,4.4,4.4v81.1
				C154.1,283.7,152.1,285.7,149.7,285.7z"/>
		</g>
		<g id="XMLID_36_">
			<polyline class="st3" points="128.4,204 145.8,204 145.8,265.9 41.5,265.9 41.5,204 58.9,204 			"/>
			<polygon class="st2" points="146.3,266.4 41,266.4 41,203.5 58.9,203.5 58.9,204.5 42,204.5 42,265.4 145.3,265.4 145.3,204.5 
				128.4,204.5 128.4,203.5 146.3,203.5 			"/>
		</g>
		<g id="XMLID_35_">
			<polygon class="st1" points="107.2,304.5 80.1,304.5 84,285.2 103.3,285.2 			"/>
			<path class="st2" d="M107.8,305H79.5l4.1-20.3h20.1L107.8,305z M80.7,304h25.8l-3.7-18.3H84.4L80.7,304z"/>
		</g>
		<g id="XMLID_34_">
			<line class="st1" x1="33.8" y1="273.6" x2="153.6" y2="273.6"/>
			<rect x="33.8" y="273.1" class="st2" width="119.8" height="1"/>
		</g>
		<g id="XMLID_33_">
			<line class="st1" x1="72.4" y1="304.5" x2="114.9" y2="304.5"/>
			<rect x="72.4" y="304" class="st2" width="42.5" height="1"/>
		</g>
		<g>
			<circle class="st1" cx="93.3" cy="279.6" r="1.5"/>
			<path class="st2" d="M93.3,281.5c-1.1,0-2-0.9-2-2s0.9-2,2-2s2,0.9,2,2S94.4,281.5,93.3,281.5z M93.3,278.6c-0.5,0-1,0.4-1,1
				s0.4,1,1,1s1-0.4,1-1S93.8,278.6,93.3,278.6z"/>
		</g>
	</g>
	<g>
		<g>
			<g>
				<path class="st6" d="M4.3,202.8c0,0-0.1,0.1-0.2,0.1H3.3c-0.1,0-0.1,0-0.2-0.1c0,0-0.1-0.1-0.1-0.2V199h-3.6
					c-0.1,0-0.1,0-0.2-0.1c0,0-0.1-0.1-0.1-0.2V198c0-0.1,0-0.1,0.1-0.2c0,0,0.1-0.1,0.2-0.1h3.6v-3.6c0-0.1,0-0.1,0.1-0.2
					c0,0,0.1-0.1,0.2-0.1h0.8c0.1,0,0.1,0,0.2,0.1c0,0,0.1,0.1,0.1,0.2v3.6h3.6c0.1,0,0.1,0,0.2,0.1c0,0,0.1,0.1,0.1,0.2v0.8
					c0,0.1,0,0.1-0.1,0.2c0,0-0.1,0.1-0.2,0.1H4.3v3.6C4.3,202.7,4.3,202.8,4.3,202.8z"/>
			</g>
		</g>
		<g>
			<g>
				<path class="st7" d="M28.4,172.8c-0.2-0.1-0.2-0.2-0.2-0.4c0-0.1,0-0.2,0-0.2l0.3-0.8c0.1-0.2,0.2-0.2,0.4-0.2
					c0.1,0,0.1,0,0.2,0.1l2.7,1l-0.2-2.4v-0.1c0-0.1,0-0.2,0.1-0.3c0.1-0.1,0.2-0.1,0.3-0.1h1c0.1,0,0.2,0,0.3,0.1
					c0.1,0.1,0.1,0.2,0.1,0.3l-0.2,2.4l2.6-1c0.1,0,0.2-0.1,0.3-0.1c0.2,0,0.3,0.1,0.3,0.2l0.3,0.8c0,0.1,0.1,0.2,0.1,0.2
					c0,0.2-0.1,0.3-0.3,0.3l-4,1.2L28.4,172.8z M31.6,178.8c-0.1-0.1-0.1-0.2-0.1-0.3l0.2-2.4l-2.7,1c-0.1,0-0.2,0.1-0.2,0.1
					c-0.1,0-0.3-0.1-0.3-0.2l-0.3-0.8c0-0.1,0-0.1,0-0.2c0-0.2,0.1-0.3,0.2-0.4l4-1.1l4,1.2c0.2,0.1,0.3,0.2,0.3,0.3
					c0,0,0,0.1-0.1,0.2l-0.3,0.8c-0.1,0.1-0.2,0.2-0.3,0.2c-0.1,0-0.2,0-0.3-0.1l-2.6-1l0.2,2.4v0.1c0,0.1,0,0.2-0.1,0.3
					c-0.1,0.1-0.2,0.1-0.3,0.1h-1C31.8,178.9,31.7,178.8,31.6,178.8z"/>
			</g>
		</g>
		<g>
			<circle class="st7" cx="15.5" cy="216.6" r="1.6"/>
		</g>
	</g>
	<g>
		<g>
			<polyline class="st1" points="59,264.9 59,171.3 128.3,171.3 128.3,264.9 			"/>
			<polygon class="st5" points="128.8,264.9 127.8,264.9 127.8,171.8 59.5,171.8 59.5,264.9 58.5,264.9 58.5,170.8 128.8,170.8 			
				"/>
		</g>
		<g>
			<line class="st1" x1="74.9" y1="206.2" x2="74.9" y2="216.5"/>
			<rect x="74.4" y="206.2" class="st5" width="1" height="10.3"/>
		</g>
		<g>
			<line class="st1" x1="85.6" y1="242.7" x2="117" y2="242.7"/>
			<rect x="85.6" y="242.2" class="st5" width="31.5" height="1"/>
		</g>
		<g>
			<g>
				<path class="st4" d="M66.6,193.8L66.6,193.8c-8,0-14.6-6.5-14.6-14.6v0c0-8,6.5-14.6,14.6-14.6h0c8,0,14.6,6.5,14.6,14.6v0
					C81.1,187.2,74.6,193.8,66.6,193.8z"/>
			</g>
			<g>
				<path class="st1" d="M76.3,190.5h-1c0-4.8-3.9-8.7-8.7-8.7s-8.7,3.9-8.7,8.7h-1c0-5.4,4.4-9.7,9.7-9.7S76.3,185.2,76.3,190.5z"
					/>
			</g>
			<g>
				<path class="st1" d="M66.6,179.7c-2.9,0-5.2-2.3-5.2-5.2s2.3-5.2,5.2-5.2c2.9,0,5.2,2.3,5.2,5.2S69.5,179.7,66.6,179.7z
					 M66.6,170.4c-2.3,0-4.2,1.9-4.2,4.2s1.9,4.2,4.2,4.2s4.2-1.9,4.2-4.2S68.9,170.4,66.6,170.4z"/>
			</g>
		</g>
		<g>
			<line class="st1" x1="85.6" y1="198" x2="117" y2="198"/>
			<rect x="85.6" y="197.5" class="st5" width="31.5" height="1"/>
		</g>
		<g>
			<line class="st1" x1="85.6" y1="202.7" x2="117" y2="202.7"/>
			<rect x="85.6" y="202.2" class="st5" width="31.5" height="1"/>
		</g>
		<g>
			<line class="st1" x1="85.6" y1="207.4" x2="100.1" y2="207.4"/>
			<rect x="85.6" y="206.9" class="st5" width="14.5" height="1"/>
		</g>
		<g>
			<line class="st1" x1="85.6" y1="218.2" x2="117" y2="218.2"/>
			<rect x="85.6" y="217.7" class="st5" width="31.5" height="1"/>
		</g>
		<g>
			<line class="st1" x1="85.6" y1="222.9" x2="117" y2="222.9"/>
			<rect x="85.6" y="222.4" class="st5" width="31.5" height="1"/>
		</g>
		<g>
			<line class="st1" x1="85.6" y1="227.6" x2="100.1" y2="227.6"/>
			<rect x="85.6" y="227.1" class="st5" width="14.5" height="1"/>
		</g>
		<g>
			<line class="st1" x1="85.6" y1="238.3" x2="117" y2="238.3"/>
			<rect x="85.6" y="237.8" class="st5" width="31.5" height="1"/>
		</g>
		<g>
			<line class="st1" x1="85.6" y1="247.7" x2="100.1" y2="247.7"/>
			<rect x="85.6" y="247.2" class="st5" width="14.5" height="1"/>
		</g>
		<g>
			<line class="st1" x1="86.2" y1="185.2" x2="108.6" y2="185.2"/>
			<rect x="86.2" y="184.7" class="st5" width="22.5" height="1"/>
		</g>
		<g>
			<circle class="st6" cx="75.8" cy="202.5" r="2.3"/>
		</g>
		<g>
			<circle class="st6" cx="75.8" cy="222.4" r="2.3"/>
		</g>
		<g>
			<circle class="st6" cx="75.8" cy="243" r="2.3"/>
		</g>
		<g>
			<path class="st5" d="M74.9,203.5c-1.5,0-2.8-1.3-2.8-2.8s1.3-2.8,2.8-2.8c1.5,0,2.8,1.3,2.8,2.8S76.5,203.5,74.9,203.5z
				 M74.9,198.9c-1,0-1.8,0.8-1.8,1.8s0.8,1.8,1.8,1.8s1.8-0.8,1.8-1.8S75.9,198.9,74.9,198.9z"/>
		</g>
		<g>
			<path class="st5" d="M74.9,223.5c-1.5,0-2.8-1.3-2.8-2.8c0-1.5,1.3-2.8,2.8-2.8c1.5,0,2.8,1.3,2.8,2.8
				C77.8,222.2,76.5,223.5,74.9,223.5z M74.9,218.8c-1,0-1.8,0.8-1.8,1.8s0.8,1.8,1.8,1.8s1.8-0.8,1.8-1.8S75.9,218.8,74.9,218.8z"
				/>
		</g>
		<g>
			<path class="st5" d="M74.9,244c-1.5,0-2.8-1.3-2.8-2.8c0-1.5,1.3-2.8,2.8-2.8c1.5,0,2.8,1.3,2.8,2.8
				C77.8,242.8,76.5,244,74.9,244z M74.9,239.4c-1,0-1.8,0.8-1.8,1.8s0.8,1.8,1.8,1.8s1.8-0.8,1.8-1.8S75.9,239.4,74.9,239.4z"/>
		</g>
		<g>
			<line class="st1" x1="74.9" y1="226.4" x2="74.9" y2="236.7"/>
			<rect x="74.4" y="226.4" class="st5" width="1" height="10.3"/>
		</g>
		<g>
			<line class="st1" x1="74.9" y1="247" x2="74.9" y2="264.9"/>
			<rect x="74.4" y="247" class="st5" width="1" height="17.9"/>
		</g>
	</g>
	<g>
		<g>
			<g>
				<path class="st6" d="M145.3,183c0,0-0.1,0.1-0.1,0.1h-0.6c-0.1,0-0.1,0-0.1-0.1c0,0,0-0.1,0-0.1v-2.7h-2.8c-0.1,0-0.1,0-0.1,0
					c0,0-0.1-0.1-0.1-0.1v-0.6c0-0.1,0-0.1,0.1-0.1s0.1,0,0.1,0h2.8v-2.8c0-0.1,0-0.1,0-0.1c0,0,0.1-0.1,0.1-0.1h0.6
					c0.1,0,0.1,0,0.1,0.1c0,0,0,0.1,0,0.1v2.8h2.7c0.1,0,0.1,0,0.1,0c0,0,0.1,0.1,0.1,0.1v0.6c0,0.1,0,0.1-0.1,0.1c0,0-0.1,0-0.1,0
					h-2.7v2.7C145.4,182.9,145.4,182.9,145.3,183z"/>
			</g>
		</g>
		<g>
			<circle class="st1" cx="169.6" cy="181.4" r="2.7"/>
			<path class="st5" d="M169.6,184.6c-1.7,0-3.2-1.4-3.2-3.2s1.4-3.2,3.2-3.2s3.2,1.4,3.2,3.2S171.3,184.6,169.6,184.6z
				 M169.6,179.2c-1.2,0-2.2,1-2.2,2.2s1,2.2,2.2,2.2s2.2-1,2.2-2.2S170.7,179.2,169.6,179.2z"/>
		</g>
		<g>
			<circle class="st7" cx="167.7" cy="208" r="1.9"/>
		</g>
	</g>
</g>
<g>
	<g>
		<circle class="st0" cx="77.3" cy="429.2" r="65.8"/>
	</g>
	<g id="XMLID_6_">
		<g id="XMLID_32_">
			<path class="st1" d="M44.5,388.7h88.1v81.1H33.9c-5.8,0-10.6-4.7-10.6-10.6v-70.5c0-5.8,4.7-10.6,10.6-10.6
				S44.5,382.8,44.5,388.7v70.5c0-5.8-4.7-10.6-10.6-10.6s-10.6,4.7-10.6,10.6"/>
			<path class="st2" d="M133.1,470.2H33.9c-6.1,0-11.1-5-11.1-11.1v-70.5c0-6.1,5-11.1,11.1-11.1c5.9,0,10.8,4.7,11.1,10.6h88.1
				V470.2z M23.8,459.2c0,5.6,4.5,10.1,10.1,10.1h98.2v-80H45v70h-1c0-5.6-4.5-10.1-10.1-10.1S23.8,453.6,23.8,459.2z M33.9,378.6
				c-5.6,0-10.1,4.5-10.1,10.1v65.9c1.7-3.8,5.6-6.5,10.1-6.5s8.3,2.7,10.1,6.5v-65.9C44,383.1,39.4,378.6,33.9,378.6z"/>
		</g>
		<g id="XMLID_31_">
			<polygon class="st4" points="63.8,448.6 70.9,457.4 56.8,457.4 			"/>
		</g>
		<g id="XMLID_30_">
			<polygon class="st4" points="102.6,423.9 109.6,432.7 95.6,432.7 			"/>
		</g>
		<g id="XMLID_29_">
			<path class="st4" d="M85,413.3c0,0-10.6-17.1-10.6-22.9c0-5.8,4.7-10.6,10.6-10.6c5.8,0,10.6,4.7,10.6,10.6
				C95.6,396.3,85,413.3,85,413.3z"/>
		</g>
		<g id="XMLID_28_">
			<line class="st1" x1="67.8" y1="388.7" x2="44.5" y2="388.7"/>
			<rect x="44.5" y="388.2" class="st2" width="23.4" height="1"/>
		</g>
		<g id="XMLID_27_">
			<path class="st5" d="M132.6,439h-1.8c-0.6,0-1-0.4-1-1s0.4-1,1-1h1.8c0.6,0,1,0.4,1,1S133.1,439,132.6,439z"/>
		</g>
		<g id="XMLID_26_">
			<path class="st5" d="M123.7,439h-2c-0.6,0-1-0.4-1-1s0.4-1,1-1h2c0.6,0,1,0.4,1,1S124.3,439,123.7,439z M117.7,439h-2
				c-0.6,0-1-0.4-1-1s0.4-1,1-1h2c0.6,0,1,0.4,1,1S118.2,439,117.7,439z M111.7,439h-2c-0.6,0-1-0.4-1-1s0.4-1,1-1h2
				c0.6,0,1,0.4,1,1S112.2,439,111.7,439z M105.6,439h-2c-0.6,0-1-0.4-1-1s0.4-1,1-1h2c0.6,0,1,0.4,1,1S106.2,439,105.6,439z
				 M99.6,439h-2c-0.6,0-1-0.4-1-1s0.4-1,1-1h2c0.6,0,1,0.4,1,1S100.2,439,99.6,439z M93.6,439h-2c-0.6,0-1-0.4-1-1s0.4-1,1-1h2
				c0.6,0,1,0.4,1,1S94.1,439,93.6,439z M87.5,439h-2c-0.6,0-1-0.4-1-1s0.4-1,1-1h2c0.6,0,1,0.4,1,1S88.1,439,87.5,439z M81.5,438.6
				c-0.1,0-0.1,0-0.2,0c-0.7-0.2-1.4-0.4-2.1-0.6c-0.5-0.2-0.8-0.8-0.6-1.3c0.2-0.5,0.8-0.8,1.3-0.6c0.6,0.2,1.2,0.4,1.8,0.5
				c0.5,0.1,0.9,0.7,0.8,1.2C82.4,438.3,82,438.6,81.5,438.6z M76,436.3c-0.2,0-0.4-0.1-0.6-0.2c-0.6-0.4-1.2-0.8-1.7-1.3
				c-0.4-0.4-0.5-1-0.1-1.4c0.4-0.4,1-0.5,1.4-0.1c0.5,0.4,1,0.8,1.5,1.2c0.5,0.3,0.6,0.9,0.3,1.4C76.7,436.1,76.4,436.3,76,436.3z
				 M71.8,432c-0.3,0-0.6-0.2-0.8-0.4c-0.4-0.6-0.8-1.2-1.1-1.8c-0.2-0.5,0-1.1,0.4-1.3c0.5-0.2,1.1,0,1.3,0.4
				c0.3,0.6,0.6,1.1,1,1.6c0.3,0.5,0.2,1.1-0.3,1.4C72.2,432,72,432,71.8,432z M69.5,426.5c-0.5,0-0.9-0.3-1-0.8
				c-0.1-0.7-0.3-1.4-0.3-2.1c0-0.6,0.4-1,0.9-1.1c0.6-0.1,1,0.4,1.1,0.9c0.1,0.6,0.1,1.3,0.3,1.9c0.1,0.5-0.2,1.1-0.8,1.2
				C69.6,426.5,69.5,426.5,69.5,426.5z M68.9,420.5c-0.5,0-0.9-0.3-1-0.8c-0.1-0.6-0.2-1.2-0.4-1.8c-0.2-0.5,0.1-1.1,0.7-1.2
				c0.5-0.2,1.1,0.1,1.2,0.7c0.2,0.7,0.4,1.4,0.5,2.1c0.1,0.5-0.3,1.1-0.8,1.2C69,420.5,69,420.5,68.9,420.5z M66.8,414.9
				c-0.3,0-0.7-0.2-0.9-0.5c-0.3-0.5-0.7-1-1.1-1.5c-0.3-0.4-0.3-1.1,0.2-1.4c0.4-0.3,1.1-0.3,1.4,0.2c0.4,0.6,0.9,1.1,1.2,1.7
				c0.3,0.5,0.1,1.1-0.3,1.4C67.2,414.9,67,414.9,66.8,414.9z M62.8,410.5c-0.2,0-0.4-0.1-0.6-0.2c-0.5-0.4-1-0.7-1.6-1
				c-0.5-0.3-0.6-0.9-0.4-1.4c0.3-0.5,0.9-0.6,1.4-0.4c0.6,0.4,1.2,0.7,1.8,1.2c0.4,0.3,0.5,1,0.2,1.4
				C63.4,410.3,63.1,410.5,62.8,410.5z M57.4,407.8c-0.1,0-0.2,0-0.3,0c-0.6-0.2-1.2-0.3-1.8-0.4c-0.5-0.1-0.9-0.6-0.9-1.1
				c0.1-0.5,0.6-0.9,1.1-0.9c0.7,0.1,1.4,0.2,2.1,0.4c0.5,0.1,0.8,0.7,0.7,1.2C58.2,407.5,57.8,407.8,57.4,407.8z M51.4,407.3h-1.7
				c-0.6,0-1-0.4-1-1s0.4-1,1-1h1.7c0.6,0,1,0.4,1,1S52,407.3,51.4,407.3z"/>
		</g>
		<g id="XMLID_25_">
			<path class="st5" d="M46.2,407.3h-1.8c-0.6,0-1-0.4-1-1s0.4-1,1-1h1.8c0.6,0,1,0.4,1,1S46.8,407.3,46.2,407.3z"/>
		</g>
		<g id="XMLID_24_">
			<path class="st5" d="M71.9,452.6H55.7l8.1-10.1L71.9,452.6z M57.8,451.6h12l-6-7.5L57.8,451.6z"/>
		</g>
		<g id="XMLID_23_">
			<path class="st5" d="M110.7,427.9H94.5l8.1-10.1L110.7,427.9z M96.6,426.9h12l-6-7.5L96.6,426.9z"/>
		</g>
		<g id="XMLID_22_">
			<path class="st5" d="M85,409l-0.4-0.7c-0.4-0.7-10.6-17.3-10.6-23.2c0-6.1,5-11.1,11.1-11.1s11.1,5,11.1,11.1
				c0,5.9-10.2,22.5-10.6,23.2L85,409z M85,375.1c-5.6,0-10.1,4.5-10.1,10.1c0,5,8.1,18.7,10.1,21.9c2-3.3,10.1-17,10.1-21.9
				C95.1,379.6,90.5,375.1,85,375.1z"/>
		</g>
		<g id="XMLID_21_">
			<path class="st2" d="M125.5,463.7c-0.3,0-0.5-0.1-0.7-0.3c-0.1-0.1-0.2-0.2-0.2-0.3c0-0.1-0.1-0.2-0.1-0.4s0-0.3,0.1-0.4
				c0.1-0.1,0.1-0.2,0.2-0.3c0.2-0.2,0.6-0.3,0.9-0.3c0.1,0,0.1,0,0.2,0.1c0.1,0,0.1,0,0.2,0.1c0.1,0,0.1,0.1,0.2,0.1
				c0.2,0.2,0.3,0.5,0.3,0.7s-0.1,0.5-0.3,0.7c-0.1,0.1-0.2,0.2-0.3,0.2C125.8,463.7,125.6,463.7,125.5,463.7z"/>
		</g>
		<g id="XMLID_20_">
			<path class="st2" d="M125.5,456.6c-0.1,0-0.3,0-0.4-0.1c-0.1,0-0.2-0.1-0.3-0.2c-0.1-0.1-0.2-0.2-0.2-0.3c0-0.1-0.1-0.2-0.1-0.4
				c0-0.3,0.1-0.5,0.3-0.7c0.2-0.2,0.6-0.3,0.9-0.3c0.1,0,0.1,0,0.2,0.1c0.1,0,0.1,0,0.2,0.1c0.1,0,0.1,0.1,0.2,0.1
				c0.1,0.1,0.2,0.2,0.2,0.3c0.1,0.1,0.1,0.2,0.1,0.4c0,0.1,0,0.3-0.1,0.4c0,0.1-0.1,0.2-0.2,0.3c-0.1,0.1-0.2,0.2-0.3,0.2
				C125.8,456.6,125.6,456.6,125.5,456.6z"/>
		</g>
		<g id="XMLID_19_">
			<path class="st2" d="M125.5,449.6c-0.3,0-0.5-0.1-0.7-0.3c-0.1-0.1-0.2-0.2-0.2-0.3c0-0.1-0.1-0.2-0.1-0.4c0-0.3,0.1-0.5,0.3-0.7
				c0.1-0.1,0.2-0.2,0.3-0.2c0.2-0.1,0.5-0.1,0.8,0c0.1,0,0.2,0.1,0.3,0.2c0.2,0.2,0.3,0.4,0.3,0.7c0,0.3-0.1,0.5-0.3,0.7
				C126,449.5,125.8,449.6,125.5,449.6z"/>
		</g>
		<g id="XMLID_18_">
			<path class="st2" d="M118.5,463.7c-0.3,0-0.5-0.1-0.7-0.3c-0.1-0.1-0.2-0.2-0.2-0.3s-0.1-0.2-0.1-0.4c0-0.3,0.1-0.5,0.3-0.7
				c0,0,0.1-0.1,0.1-0.1c0.1,0,0.1-0.1,0.2-0.1c0.1,0,0.1,0,0.2-0.1c0.3-0.1,0.7,0,0.9,0.3c0.1,0.1,0.2,0.2,0.2,0.3
				c0,0.1,0.1,0.2,0.1,0.4c0,0.3-0.1,0.5-0.3,0.7c-0.1,0.1-0.2,0.2-0.3,0.2C118.7,463.7,118.6,463.7,118.5,463.7z"/>
		</g>
		<g id="XMLID_17_">
			<path class="st2" d="M118.5,456.6c-0.3,0-0.5-0.1-0.7-0.3c-0.1-0.1-0.2-0.2-0.2-0.3c0-0.1-0.1-0.2-0.1-0.4c0-0.1,0-0.3,0.1-0.4
				c0.1-0.1,0.1-0.2,0.2-0.3c0,0,0.1-0.1,0.1-0.1c0.1,0,0.1-0.1,0.2-0.1c0.1,0,0.1,0,0.2-0.1c0.2,0,0.4,0,0.6,0.1
				c0.1,0,0.2,0.1,0.3,0.2c0.2,0.2,0.3,0.4,0.3,0.7c0,0.1,0,0.3-0.1,0.4c-0.1,0.1-0.1,0.2-0.2,0.3
				C119,456.5,118.7,456.6,118.5,456.6z"/>
		</g>
		<g id="XMLID_16_">
			<path class="st2" d="M111.4,463.7c-0.3,0-0.5-0.1-0.7-0.3c-0.2-0.2-0.3-0.5-0.3-0.7s0.1-0.5,0.3-0.7c0.4-0.4,1-0.4,1.4,0
				c0.2,0.2,0.3,0.5,0.3,0.7s-0.1,0.5-0.3,0.7c-0.1,0.1-0.2,0.2-0.3,0.2C111.7,463.7,111.5,463.7,111.4,463.7z"/>
		</g>
		<g id="XMLID_15_">
			<path class="st2" d="M125.5,396.7c-0.3,0-0.5-0.1-0.7-0.3c-0.2-0.2-0.3-0.4-0.3-0.7c0-0.1,0-0.2,0.1-0.4c0.1-0.1,0.1-0.2,0.2-0.3
				c0.4-0.4,1-0.4,1.4,0c0.2,0.2,0.3,0.4,0.3,0.7c0,0.3-0.1,0.5-0.3,0.7c-0.1,0.1-0.2,0.2-0.3,0.2
				C125.8,396.7,125.6,396.7,125.5,396.7z"/>
		</g>
		<g id="XMLID_14_">
			<path class="st2" d="M118.5,396.7c-0.1,0-0.3,0-0.4-0.1c-0.1-0.1-0.2-0.1-0.3-0.2c-0.2-0.2-0.3-0.4-0.3-0.7
				c0-0.3,0.1-0.5,0.3-0.7c0.1-0.1,0.2-0.2,0.3-0.2c0.4-0.1,0.8-0.1,1.1,0.2c0.2,0.2,0.3,0.4,0.3,0.7c0,0.3-0.1,0.5-0.3,0.7
				C119,396.6,118.7,396.7,118.5,396.7z"/>
		</g>
		<g id="XMLID_13_">
			<path class="st2" d="M111.4,396.7c-0.3,0-0.5-0.1-0.7-0.3c-0.2-0.2-0.3-0.4-0.3-0.7c0-0.3,0.1-0.5,0.3-0.7c0.4-0.4,1.1-0.4,1.4,0
				c0.2,0.2,0.3,0.4,0.3,0.7c0,0.3-0.1,0.5-0.3,0.7c-0.1,0.1-0.2,0.2-0.3,0.2C111.7,396.7,111.5,396.7,111.4,396.7z"/>
		</g>
		<g id="XMLID_12_">
			<path class="st2" d="M125.5,403.8c-0.3,0-0.5-0.1-0.7-0.3c-0.1-0.1-0.2-0.2-0.2-0.3c0-0.1-0.1-0.2-0.1-0.4c0-0.1,0-0.3,0.1-0.4
				c0.1-0.1,0.1-0.2,0.2-0.3c0.4-0.4,1-0.4,1.4,0c0.1,0.1,0.2,0.2,0.2,0.3c0.1,0.1,0.1,0.2,0.1,0.4c0,0.1,0,0.3-0.1,0.4
				c0,0.1-0.1,0.2-0.2,0.3C126,403.7,125.8,403.8,125.5,403.8z"/>
		</g>
		<g id="XMLID_11_">
			<path class="st2" d="M118.5,403.8c-0.3,0-0.5-0.1-0.7-0.3c-0.2-0.2-0.3-0.4-0.3-0.7c0-0.1,0-0.3,0.1-0.4c0.1-0.1,0.1-0.2,0.2-0.3
				c0.4-0.4,1-0.4,1.4,0c0.1,0.1,0.2,0.2,0.2,0.3c0,0.1,0.1,0.2,0.1,0.4c0,0.1,0,0.3-0.1,0.4c-0.1,0.1-0.1,0.2-0.2,0.3
				C119,403.7,118.7,403.8,118.5,403.8z"/>
		</g>
		<g id="XMLID_10_">
			<path class="st2" d="M125.5,410.8c-0.3,0-0.5-0.1-0.7-0.3c-0.2-0.2-0.3-0.4-0.3-0.7c0-0.3,0.1-0.5,0.3-0.7c0.4-0.4,1-0.4,1.4,0
				c0.1,0.1,0.2,0.2,0.2,0.3c0.1,0.1,0.1,0.2,0.1,0.4c0,0.3-0.1,0.5-0.3,0.7C126,410.7,125.8,410.8,125.5,410.8z"/>
		</g>
		<g id="XMLID_9_">
			<circle class="st1" cx="33.9" cy="459.2" r="3.5"/>
			<path class="st2" d="M33.9,463.2c-2.2,0-4-1.8-4-4s1.8-4,4-4s4,1.8,4,4S36.1,463.2,33.9,463.2z M33.9,456.1c-1.7,0-3,1.4-3,3
				c0,1.7,1.4,3,3,3s3-1.4,3-3C36.9,457.5,35.6,456.1,33.9,456.1z"/>
		</g>
		<g>
			<path class="st3" d="M33.9,378.1c-5.8,0-10.6,4.7-10.6,10.6v70.5l0,0c0-8.2,7.3-10.6,10.6-10.6c5.8,0,10.6,4.7,10.6,10.6v-70.5
				C44.5,382.8,39.7,378.1,33.9,378.1z"/>
			<path class="st2" d="M45,459.2h-1c0-5.6-4.5-10.1-10.1-10.1c-3.3,0-10.1,2.5-10.1,10.1h-1v-70.5c0-6.1,5-11.1,11.1-11.1
				c6.1,0,11.1,5,11.1,11.1V459.2z M33.9,448.1c4.5,0,8.3,2.7,10.1,6.5v-65.9c0-5.6-4.5-10.1-10.1-10.1s-10.1,4.5-10.1,10.1v65.7
				C26,449.7,31.1,448.1,33.9,448.1z"/>
		</g>
		<g id="XMLID_8_">
			<line class="st1" x1="30.4" y1="418.6" x2="30.4" y2="401"/>
			<rect x="29.9" y="401" class="st2" width="1" height="17.6"/>
		</g>
		<g id="XMLID_7_">
			<path class="st2" d="M30.4,396.7c-0.1,0-0.3,0-0.4-0.1c-0.1-0.1-0.2-0.1-0.3-0.2c-0.2-0.2-0.3-0.4-0.3-0.7c0-0.3,0.1-0.5,0.3-0.7
				c0.1-0.1,0.2-0.2,0.3-0.2c0.4-0.1,0.8-0.1,1.1,0.2c0.2,0.2,0.3,0.4,0.3,0.7c0,0.3-0.1,0.5-0.3,0.7c-0.1,0.1-0.2,0.2-0.3,0.2
				C30.6,396.7,30.5,396.7,30.4,396.7z"/>
		</g>
		<g>
			<g>
				<path class="st5" d="M85,391.7l-4.2-4.2c-1-1-1-2.7,0-3.7c1-1,2.7-1,3.7,0l0.5,0.5l0.5-0.5c1-1,2.7-1,3.7,0
					c0.5,0.5,0.8,1.2,0.8,1.9c0,0.7-0.3,1.4-0.8,1.9L85,391.7z M82.7,384.1c-0.4,0-0.8,0.2-1.1,0.5c-0.6,0.6-0.6,1.7,0,2.3l3.5,3.5
					l3.5-3.5c0.3-0.3,0.5-0.7,0.5-1.1c0-0.4-0.2-0.8-0.5-1.1c-0.6-0.6-1.7-0.6-2.3,0l-1.2,1.2l-1.2-1.2
					C83.5,384.2,83.1,384.1,82.7,384.1z"/>
			</g>
		</g>
	</g>
	<g>
		<g>
			<g>
				<path class="st6" d="M150.5,387.3c0,0-0.1,0.1-0.2,0.1h-0.7c-0.1,0-0.1,0-0.2-0.1c0,0-0.1-0.1-0.1-0.2v-3.3H146
					c-0.1,0-0.1,0-0.2-0.1c0,0-0.1-0.1-0.1-0.2v-0.7c0-0.1,0-0.1,0.1-0.2c0,0,0.1-0.1,0.2-0.1h3.4v-3.4c0-0.1,0-0.1,0.1-0.2
					c0,0,0.1-0.1,0.2-0.1h0.7c0.1,0,0.1,0,0.2,0.1c0,0,0.1,0.1,0.1,0.2v3.4h3.3c0.1,0,0.1,0,0.2,0.1c0,0,0.1,0.1,0.1,0.2v0.7
					c0,0.1,0,0.1-0.1,0.2s-0.1,0.1-0.2,0.1h-3.3v3.3C150.5,387.2,150.5,387.3,150.5,387.3z"/>
			</g>
		</g>
		<g>
			<g>
				<path class="st7" d="M126.9,358.8c-0.2-0.1-0.3-0.2-0.3-0.4c0-0.1,0-0.2,0-0.2l0.3-0.8c0.1-0.2,0.2-0.3,0.4-0.3
					c0.1,0,0.2,0,0.2,0.1l2.9,1.1l-0.2-2.6v-0.1c0-0.1,0-0.2,0.1-0.3c0.1-0.1,0.2-0.1,0.3-0.1h1c0.1,0,0.2,0,0.3,0.1
					c0.1,0.1,0.1,0.2,0.1,0.3l-0.2,2.6l2.8-1.1c0.1,0,0.2-0.1,0.3-0.1c0.2,0,0.3,0.1,0.3,0.2l0.4,0.8c0,0.1,0.1,0.2,0.1,0.3
					c0,0.2-0.1,0.3-0.3,0.3l-4.3,1.3L126.9,358.8z M130.4,365.3c-0.1-0.1-0.1-0.2-0.1-0.3l0.2-2.6l-2.9,1.1c-0.1,0-0.2,0.1-0.3,0.1
					c-0.2,0-0.3-0.1-0.4-0.3l-0.3-0.8c0-0.1,0-0.1,0-0.2c0-0.2,0.1-0.3,0.3-0.4l4.3-1.2l4.3,1.3c0.2,0.1,0.3,0.2,0.3,0.4
					c0,0,0,0.1-0.1,0.2l-0.4,0.8c-0.1,0.2-0.2,0.2-0.3,0.2c-0.1,0-0.2,0-0.3-0.1l-2.8-1.1l0.2,2.6v0.1c0,0.1,0,0.2-0.1,0.3
					c-0.1,0.1-0.2,0.1-0.3,0.1h-1C130.6,365.4,130.5,365.4,130.4,365.3z"/>
			</g>
		</g>
	</g>
	<g>
		<g>
			<g>
				<path class="st6" d="M-9.4,389.8c0,0-0.1,0-0.1,0H-10c0,0-0.1,0-0.1,0c0,0,0-0.1,0-0.1v-2.1h-2.1c0,0-0.1,0-0.1,0s0-0.1,0-0.1
					v-0.4c0,0,0-0.1,0-0.1s0.1,0,0.1,0h2.1v-2.1c0,0,0-0.1,0-0.1c0,0,0.1,0,0.1,0h0.4c0,0,0.1,0,0.1,0c0,0,0,0.1,0,0.1v2.1h2.1
					c0,0,0.1,0,0.1,0s0,0.1,0,0.1v0.4c0,0,0,0.1,0,0.1s-0.1,0-0.1,0h-2.1v2.1C-9.4,389.8-9.4,389.8-9.4,389.8z"/>
			</g>
		</g>
		<g>
			<g>
				<path class="st7" d="M8.6,366.3c-0.2-0.1-0.2-0.2-0.2-0.4c0-0.1,0-0.2,0-0.2l0.3-0.8c0.1-0.2,0.2-0.2,0.4-0.2
					c0.1,0,0.1,0,0.2,0.1l2.7,1l-0.2-2.4v-0.1c0-0.1,0-0.2,0.1-0.3c0.1-0.1,0.2-0.1,0.3-0.1h1c0.1,0,0.2,0,0.3,0.1
					c0.1,0.1,0.1,0.2,0.1,0.3l-0.2,2.4l2.6-1c0.1,0,0.2-0.1,0.3-0.1c0.2,0,0.3,0.1,0.3,0.2l0.3,0.8c0,0.1,0.1,0.2,0.1,0.2
					c0,0.2-0.1,0.3-0.3,0.3l-4,1.2L8.6,366.3z M11.8,372.2c-0.1-0.1-0.1-0.2-0.1-0.3l0.2-2.4l-2.7,1c-0.1,0-0.2,0.1-0.2,0.1
					c-0.1,0-0.3-0.1-0.3-0.2l-0.3-0.8c0-0.1,0-0.1,0-0.2c0-0.2,0.1-0.3,0.2-0.4l4-1.1l4,1.2c0.2,0.1,0.3,0.2,0.3,0.3
					c0,0,0,0.1-0.1,0.2l-0.3,0.8c-0.1,0.1-0.2,0.2-0.3,0.2c-0.1,0-0.2,0-0.3-0.1l-2.6-1l0.2,2.4v0.1c0,0.1,0,0.2-0.1,0.3
					c-0.1,0.1-0.2,0.1-0.3,0.1h-1C12,372.3,11.9,372.3,11.8,372.2z"/>
			</g>
		</g>
		<g>
			<circle class="st7" cx="-4.3" cy="410.1" r="1.6"/>
		</g>
	</g>
</g>
</svg>
