<svg width="640" height="64" viewBox="0 0 640 64" xmlns="http://www.w3.org/2000/svg"><title>scene-icons-horizontal</title><g id="Branding" fill="none" fill-rule="evenodd"><g id="scene-icons-horizontal" fill-rule="nonzero" fill="#0072BB"><path d="M51.708 20.294l-12-12A1.004 1.004 0 0 0 39 8H13a1 1 0 0 0-1 1v46a1 1 0 0 0 1 1h38a1 1 0 0 0 1-1V21a.999.999 0 0 0-.292-.706zM25.564 35.998h-1.48v9.376a1 1 0 0 1-1 1c-.552 0-1-.448-1.084-1v-9.376h-1.396a1 1 0 0 1 0-2h4.96a1 1 0 0 1 0 2zm10.004 8.944a1 1 0 0 1-1.804.864l-1.58-3.3-1.58 3.3a.999.999 0 0 1-1.334.47 1 1 0 0 1-.47-1.334l2.276-4.756L28.8 35.43a.998.998 0 0 1 .47-1.332.995.995 0 0 1 1.334.468l1.58 3.3 1.58-3.3a.996.996 0 0 1 1.334-.468.998.998 0 0 1 .47 1.332l-2.276 4.756 2.276 4.756zm7.912-8.944H42v9.376a1 1 0 0 1-2 0v-9.376h-1.48a1 1 0 0 1 0-2h4.96a1 1 0 0 1 0 2zM38 22V10l12 12H38z" id="Shape"/><path d="M113.708 20.294l-12-12A1.004 1.004 0 0 0 101 8H79a1 1 0 0 0-1 1v46a1 1 0 0 0 1 1h34a1 1 0 0 0 1-1V21a.999.999 0 0 0-.292-.706zM108 50H84V24h24v26zm-8-28V10l12 12h-12zM86 44h6v4h-6v-4zm8 0h12v4H94v-4zm0-12h12v4H94v-4zm0 6h12v4H94v-4zm-8-6h6v4h-6v-4zm0 6h6v4h-6v-4zm8-12h12v4H94v-4zm-8 0h6v4h-6v-4z" id="Combined-Shape"/><path d="M177.708 20.294l-12-12A1.004 1.004 0 0 0 165 8h-22a1 1 0 0 0-1 1v46a1 1 0 0 0 1 1h34a1 1 0 0 0 1-1V21a.999.999 0 0 0-.292-.706zM151 22h9a1 1 0 0 1 0 2h-9a1 1 0 0 1 0-2zm18 26h-18a1 1 0 0 1 0-2h18a1 1 0 0 1 0 2zm0-6h-18a1 1 0 0 1 0-2h18a1 1 0 0 1 0 2zm0-6h-18a1 1 0 0 1 0-2h18a1 1 0 0 1 0 2zm0-6h-18a1 1 0 0 1 0-2h18a1 1 0 0 1 0 2zm-5-8V10l12 12h-12z" id="Shape"/><path d="M243.708 20.294l-12-12A1 1 0 0 0 231 8h-26c-.55 0-1 .448-1 1v46c0 .552.45 1 1 1h38c.55 0 1-.448 1-1V21a.999.999 0 0 0-.292-.706zM213 22h10a1 1 0 0 1 0 2h-10a1 1 0 0 1 0-2zm0 6h18a1 1 0 0 1 0 2h-18a1 1 0 0 1 0-2zm4 20h-4a1 1 0 0 1 0-2h4a1 1 0 0 1 0 2zm0-6h-4a1 1 0 0 1 0-2h4a1 1 0 0 1 0 2zm0-6h-4a1 1 0 0 1 0-2h4a1 1 0 0 1 0 2zm19 13a1 1 0 0 1-1 1h-12a1 1 0 0 1-1-1V35a1 1 0 0 1 1-1h12a1 1 0 0 1 1 1v14zm-6-27V10l12 12h-12zm.122 18.004c.318.026.604.2.77.47L234 45.488V48h-10v-1.576l5.288-6.08a.983.983 0 0 1 .834-.34zM227 40a1 1 0 1 1 0-2 1 1 0 0 1 0 2z" id="Combined-Shape"/><path d="M307.708 20.294l-12-12A1 1 0 0 0 295 8h-26c-.55 0-1 .448-1 1v46c0 .552.45 1 1 1h38c.55 0 1-.448 1-1V21a.999.999 0 0 0-.292-.706zm-25.78 24.28a1 1 0 0 1-1.804.864l-1.58-3.3-1.578 3.3a.998.998 0 0 1-1.334.47 1 1 0 0 1-.47-1.334l2.276-4.756-2.278-4.756a1 1 0 0 1 1.804-.864l1.578 3.3 1.58-3.3a.999.999 0 1 1 1.804.864l-2.276 4.756 2.278 4.756zm10.44.432a1 1 0 0 1-2 0v-6.944l-1.462 2.292c-.368.576-1.32.576-1.688 0l-1.462-2.292v6.944a1 1 0 0 1-2 0V34.632a1 1 0 0 1 1.844-.536l2.46 3.864 2.46-3.864a1 1 0 0 1 1.844.536v10.374h.004zm7.726 1h-4.962a1 1 0 0 1-1-1V34.632a1 1 0 0 1 2 0v9.374h3.962a1 1 0 0 1 0 2zM294 22V10l12 12h-12z" id="Shape"/><path d="M369.708 20.294l-12-12A1.004 1.004 0 0 0 357 8h-22a1 1 0 0 0-1 1v46a1 1 0 0 0 1 1h34a1 1 0 0 0 1-1V21a.999.999 0 0 0-.292-.706zM342 22h10a1 1 0 0 1 0 2h-10a1 1 0 0 1 0-2zm0 6h18a1 1 0 0 1 0 2h-18a1 1 0 0 1 0-2zm4 20h-4a1 1 0 0 1 0-2h4a1 1 0 0 1 0 2zm0-6h-4a1 1 0 0 1 0-2h4a1 1 0 0 1 0 2zm0-6h-4a1 1 0 0 1 0-2h4a1 1 0 0 1 0 2zm11 12c-3.86 0-7-3.14-7-7s3.14-7 7-7 7 3.14 7 7-3.14 7-7 7zm-1-26V10l12 12h-12zm0 14c3.756 0 6 2.242 6 5s-2.244 5-5 5c-1.474 0-2.788-.652-3.704-1.672L356 42v-6z" id="Combined-Shape"/><path d="M435.708 20.294l-12-12A1 1 0 0 0 423 8h-26c-.55 0-1 .448-1 1v46c0 .552.45 1 1 1h38c.55 0 1-.448 1-1V21a.999.999 0 0 0-.292-.706zm-30.746 25.054c0 .55-.448 1-1 1s-1-.45-1-1V41.16H400v4.188c0 .55-.448 1-1 1s-1-.45-1-1V34.972a1 1 0 1 1 2-.002v4.19h2.96v-4.19c0-.55.448-1 1-1s1 .45 1 1v10.378h.002zm8-9.378h-1.48v9.376c0 .55-.448 1-1 1s-1-.45-1-1V35.97H408a1 1 0 1 1 0-2h4.962c.552 0 1 .45 1 1 0 .556-.448 1-1 1zm11.646 9.378c0 .55-.448 1-1 1s-1-.45-1-1v-6.946l-1.462 2.294a.998.998 0 0 1-1.688 0L418 38.404v6.944c0 .55-.448 1-1 1s-1-.45-1-1V34.972c0-.444.292-.834.72-.958.416-.124.882.046 1.122.422L420.3 38.3l2.46-3.864a1 1 0 0 1 1.844.536v10.376h.004zm8.392 1h-4.96c-.552 0-1-.45-1-1V34.972c0-.55.448-1 1-1s1 .45 1 1v9.376H433a1 1 0 1 1 0 2zM422 22V10l12 12h-12zm77.708-1.706l-12-12A1.004 1.004 0 0 0 487 8h-26a1 1 0 0 0-1 1v46a1 1 0 0 0 1 1h38a1 1 0 0 0 1-1V21a.999.999 0 0 0-.292-.706zm-25.33 24.648a1 1 0 0 1-1.804.864l-1.58-3.3-1.58 3.3a.999.999 0 0 1-1.334.47.999.999 0 0 1-.47-1.334l2.276-4.756-2.276-4.756a.998.998 0 0 1 .47-1.332.995.995 0 0 1 1.334.468l1.58 3.3 1.58-3.3a.995.995 0 0 1 1.334-.468.998.998 0 0 1 .47 1.332l-2.276 4.756 2.276 4.756zm9.616 1.432h-4.962c-.552 0-1-.448-1.034-1V34.998c.034-.552.48-1 1.034-1a1 1 0 0 1 1 1V44h3.962c.552.374 1 .82 1 1.374a1 1 0 0 1-1 1zm6.348.228c-1.838 0-3.366-1.504-3.478-3.426a.998.998 0 0 1 .938-1.056c.578-.014 1.024.388 1.058.94.052.866.702 1.542 1.482 1.542.816 0 1.48-.742 1.48-1.654 0-1.024-.644-1.4-1.612-1.646a5.436 5.436 0 0 0-.242-.066c-2.568-.676-3.108-2.324-3.108-3.586 0-2.012 1.564-3.65 3.484-3.65 1.834 0 3.362 1.502 3.474 3.42a.996.996 0 0 1-.938 1.058.982.982 0 0 1-1.058-.938c-.052-.864-.702-1.542-1.478-1.542-.818 0-1.484.74-1.484 1.65 0 1.018.646 1.396 1.616 1.652l-.018 1.028.25-.966c2.574.66 3.114 2.314 3.114 3.584 0 2.014-1.562 3.656-3.48 3.656zM486 22V10l12 12h-12zm77.708-1.706l-12-12A1.004 1.004 0 0 0 551 8h-26a1 1 0 0 0-1 1v46a1 1 0 0 0 1 1h38a1 1 0 0 0 1-1V21a.999.999 0 0 0-.292-.706zM535 22h9a1 1 0 0 1 0 2h-9a1 1 0 0 1 0-2zm6 26h-6a1 1 0 0 1 0-2h6a1 1 0 0 1 0 2zm0-6h-6a1 1 0 0 1 0-2h6a1 1 0 0 1 0 2zm0-6h-6a1 1 0 0 1 0-2h6a1 1 0 0 1 0 2zm13 1a1 1 0 0 1-2 0v-1h-2v10h2a1 1 0 0 1 0 2h-6a1 1 0 0 1 0-2h2V36h-2v1a1 1 0 0 1-2 0v-2a1 1 0 0 1 1-1h8a1 1 0 0 1 1 1v2zm-1-7h-18a1 1 0 0 1 0-2h18a1 1 0 0 1 0 2zm-3-8V10l12 12h-12zm77.708-1.706l-12-12A1.004 1.004 0 0 0 615 8h-26a1 1 0 0 0-1 1v46a1 1 0 0 0 1 1h38a1 1 0 0 0 1-1V21a.999.999 0 0 0-.292-.706zM608 25c2.16 0 4.184.582 5.936 1.586L607.474 36H596.05c.512-6.15 5.67-11 11.95-11zm-11.95 13h11.478l7.31 8.848A11.922 11.922 0 0 1 608 49c-6.28 0-11.438-4.85-11.95-11zm20.33 7.574l-7.13-8.628 6.336-9.232a11.968 11.968 0 0 1 .794 17.86zM614 22V10l12 12h-12z" id="Shape"/></g></g></svg>