<?xml version="1.0" encoding="UTF-8"?>
<svg width="233px" height="155px" viewBox="0 0 233 155" version="1.1" xmlns="http://www.w3.org/2000/svg" xmlns:xlink="http://www.w3.org/1999/xlink">
    <!-- Generator: Sketch 48.2 (47327) - http://www.bohemiancoding.com/sketch -->
    <title>coverage-paperplane</title>
    <desc>Created with Sketch.</desc>
    <defs></defs>
    <g id="Voice-Features-Copy-3" stroke="none" stroke-width="1" fill="none" fill-rule="evenodd" transform="translate(-397.000000, -115.000000)" stroke-linecap="round">
        <g id="coverage-paperplane" transform="translate(399.000000, 117.000000)">
            <path d="M0,0 L-7.10542736e-15,47.2528705 C9.55694076e-15,76.6629026 23.8415417,100.504444 53.2515739,100.504444 L89.2535809,100.504444 C98.7802536,100.504444 106.503148,108.227338 106.503148,117.754011 L106.503148,117.754011 C106.503148,127.280684 114.226042,135.003578 123.752715,135.003578 L187.5,135.003578" id="Path-14" stroke="#CEE7F9" stroke-width="3" stroke-dasharray="1,8"></path>
            <g id="Page-1" transform="translate(205.586424, 129.606848) scale(-1, 1) rotate(21.000000) translate(-205.586424, -129.606848) translate(185.586424, 114.135149)" stroke="#2CE9D3" stroke-linejoin="round" stroke-width="2">
                <g id="Group-7" transform="translate(0.000000, 0.680000)">
                    <polyline id="Stroke-1" points="-0.000150943396 28.1506415 39.6979623 30.1883774 29.9621132 16.6034717"></polyline>
                    <polyline id="Stroke-3" points="-0.000150943396 28.1506415 28.0753208 -0.000301886792 29.9621132 16.6034717"></polyline>
                    <path d="M-0.000150943396,28.1506415 L29.9621132,16.6034717" id="Stroke-5"></path>
                </g>
                <polyline id="Stroke-8" points="33.2829434 21.7367547 36.4527547 14.7933585 29.3584151 11.5480755"></polyline>
            </g>
        </g>
    </g>
</svg>