<?xml version="1.0" encoding="UTF-8"?>
<svg width="133px" height="133px" viewBox="0 0 133 133" version="1.1" xmlns="http://www.w3.org/2000/svg" xmlns:xlink="http://www.w3.org/1999/xlink">
    <!-- Generator: Sketch 48.2 (47327) - http://www.bohemiancoding.com/sketch -->
    <title>dots-left-coverage</title>
    <desc>Created with Sketch.</desc>
    <defs></defs>
    <g id="Voice-Features-Copy-3" stroke="none" stroke-width="1" fill="none" fill-rule="evenodd" transform="translate(-342.000000, -1479.000000)">
        <g id="dots-left-coverage" transform="translate(342.000000, 1479.000000)" fill="#EFF7FF">
            <path d="M93.1838052,75.3190498 C92.1451219,75.4938949 91.4526663,76.1846193 91.4526663,77.3964165 C91.4526663,78.9561727 92.1451219,80.1662388 93.7031469,80.1662388 C95.088058,80.1662388 95.9536275,78.9561727 96.1267414,77.3964165 C95.6073997,76.0115054 94.5687164,75.1459359 93.1838052,75.3190498" id="Fill-1"></path>
            <path d="M101.666213,22.8658873 C100.108188,22.3465456 99.2426183,23.5583429 99.2426183,25.1163679 C99.2426183,26.1550512 99.9350738,26.8475068 101.146871,27.0206207 C102.358668,26.8475068 103.224238,26.3281651 103.051124,25.1163679 C102.87801,24.2507984 102.358668,23.0390012 101.666213,22.8658873" id="Fill-3"></path>
            <path d="M101.147217,38.4461374 C100.108534,38.0999096 99.2429645,38.6192513 98.7236228,39.4848208 C98.2042812,40.5235041 98.3773951,41.3890736 99.4160784,41.7353013 C100.80099,42.254643 101.839673,41.7353013 102.359015,40.696618 C102.878356,39.3117069 102.185901,38.7923652 101.147217,38.4461374" id="Fill-5"></path>
            <path d="M93.3570922,121.368383 C92.3184089,121.541497 91.4528394,122.233953 91.4528394,123.272636 C91.4528394,124.655816 92.3184089,125.869344 93.8764339,125.869344 C95.261345,125.869344 96.1269145,124.655816 96.1269145,123.272636 C95.9538006,121.71288 94.9151172,121.193538 93.3570922,121.368383" id="Fill-7"></path>
            <path d="M100.454935,57.6610868 C101.839846,57.8359318 102.878529,56.9703624 103.051643,55.5854512 C102.878529,54.198809 102.532302,52.9887429 100.974277,52.9887429 C99.5893654,52.9887429 98.3775682,53.6794673 98.3775682,55.0643784 C98.2044543,56.4510207 99.0700237,57.4879729 100.454935,57.6610868" id="Fill-9"></path>
            <path d="M95.7805136,46.7552579 C95.6073997,45.7165746 94.7418302,45.1989641 93.7031469,45.1989641 C92.3182358,45.5434607 91.2795524,46.2359163 91.2795524,47.7956724 C91.1064385,49.0057385 91.972008,49.6981941 93.0106913,49.6981941 C94.9149441,49.6981941 96.1267414,48.8326246 95.7805136,46.7552579" id="Fill-11"></path>
            <path d="M93.5303792,110.460823 C94.9152904,110.460823 95.7808598,109.250757 95.9539737,107.691001 C95.6077459,106.307821 94.5690626,105.442252 93.0110376,105.788479 C91.9723542,105.959862 91.2798987,106.825432 91.2798987,107.864115 C91.2798987,109.250757 91.9723542,110.460823 93.5303792,110.460823" id="Fill-13"></path>
            <path d="M93.0105182,65.6253644 C94.3954293,65.6253644 95.6072266,64.9329089 95.7803405,63.5479977 C95.9534544,62.1630866 95.0878849,61.1226721 93.7029738,60.7781755 C92.3180627,60.6050616 91.2793793,61.2975172 91.1062654,62.853811 C90.9331515,64.2404533 91.6256071,65.4505194 93.0105182,65.6253644" id="Fill-15"></path>
            <path d="M93.1838052,91.0734525 C92.1451219,91.2465664 91.4526663,92.1121359 91.4526663,93.1490881 C91.6257802,94.5357303 92.4913497,95.7457964 94.0493747,95.5744137 C95.6073997,95.4012998 96.1267414,94.1895026 96.1267414,92.9777053 C95.7805136,91.2465664 94.7418302,90.7272247 93.1838052,91.0734525" id="Fill-17"></path>
            <path d="M116.208472,57.4886654 C117.593383,57.4886654 118.632066,56.449982 118.458953,55.0650709 C118.285839,54.3726153 117.420269,53.6801598 116.900928,53.1608181 C115.169789,53.333932 114.304219,54.1995014 114.477333,55.5844126 C114.477333,56.449982 115.169789,57.4886654 116.208472,57.4886654" id="Fill-19"></path>
            <path d="M124.517592,90.8993 C122.61334,91.074145 121.401542,91.9397144 121.574656,93.8422361 C121.574656,95.0540333 122.267112,95.7464889 123.305795,95.9196028 C125.210048,96.2675617 126.594959,95.0540333 126.941187,93.4960083 C127.114301,92.1110972 126.075618,91.074145 124.517592,90.8993" id="Fill-21"></path>
            <path d="M114.477333,83.9747443 C113.957991,85.5327694 114.823561,86.5714527 116.381586,86.5714527 C117.074041,86.5714527 117.939611,85.7058832 118.285839,85.5327694 C118.80518,83.8016305 117.939611,83.2840199 116.900928,82.936061 C115.862244,82.7629471 114.823561,83.1091749 114.477333,83.9747443" id="Fill-23"></path>
            <path d="M115.688611,72.203346 C117.246636,72.5495738 118.285319,72.0302321 118.285319,70.2990932 C118.285319,69.2604099 117.41975,68.5679543 116.381067,68.3948404 C115.342383,68.5679543 114.476814,68.9141821 114.130586,69.9528655 C113.957472,71.3377766 114.649928,72.0302321 115.688611,72.203346" id="Fill-25"></path>
            <path d="M117.41975,99.5549945 C116.900408,99.3818806 116.034839,99.9012222 115.861725,100.24745 C115.515497,101.286133 116.207953,102.151703 117.41975,101.978589 C117.765978,101.978589 118.112205,101.113019 118.631547,100.766792 C118.112205,100.420564 117.765978,99.5549945 117.41975,99.5549945" id="Fill-27"></path>
            <path d="M116.035185,38.0995634 C114.47716,38.2744084 113.611591,39.3113606 113.784704,40.6962718 C113.957818,42.0811829 115.169616,43.1198662 116.554527,43.2929801 C118.112552,43.4678251 118.978121,42.6022557 119.151235,41.0424995 C118.978121,39.1399779 118.112552,37.9264495 116.035185,38.0995634" id="Fill-29"></path>
            <path d="M2.29901282,91.245874 C1.08721559,91.0727601 0.394760028,91.9383295 0.394760028,92.9770129 C0.221646138,94.8812657 1.60655726,95.919949 3.33769616,96.2661768 C4.5494934,96.4392907 5.06883507,95.7468351 5.41506285,94.7081518 C5.06883507,92.6307851 4.03015172,91.5921017 2.29901282,91.245874" id="Fill-31"></path>
            <path d="M62.543166,96.2668692 C64.6205327,95.9206415 66.0054438,94.880227 65.8323299,92.4583636 C65.8323299,91.4179492 64.9667605,90.7272247 63.9280771,90.7272247 C61.6775965,90.7272247 60.1195715,91.5927942 59.7733437,93.8432748 C59.6002299,95.4012998 60.985141,96.0920242 62.543166,96.2668692" id="Fill-33"></path>
            <path d="M63.0621614,14.0377713 C61.5041364,14.2108852 60.8116809,15.5940652 60.8116809,16.8075936 C60.8116809,18.7101152 62.0234781,19.9219125 64.1008448,19.7505297 C65.6588698,19.5756847 66.1782115,18.3656186 66.3513253,16.9789763 C65.8319837,15.0764547 65.1395281,13.6915436 63.0621614,14.0377713" id="Fill-35"></path>
            <path d="M62.543166,5.03550282 C64.4474188,4.86065779 65.4861021,3.6505917 65.8323299,1.91945279 C66.0054438,0.707655561 65.3129882,0.0152 64.101191,0.0152 C62.3700521,0.18831389 61.1582549,1.22699723 60.8120271,3.12951889 C60.6389132,4.16993337 61.5044826,4.86065779 62.543166,5.03550282" id="Fill-37"></path>
            <path d="M48.3474808,15.7689102 C46.9625696,15.2478374 45.9238863,15.9420241 45.4045446,17.3252041 C45.0583168,18.5387325 45.9238863,19.056343 46.7894557,19.4043019 C48.1743669,19.7505297 49.2130502,19.2311881 50.4248474,16.1134069 C50.0786197,16.6344797 49.2130502,16.1134069 48.3474808,15.7689102" id="Fill-39"></path>
            <path d="M55.9643188,12.8256279 C57.5223438,12.9987418 58.2147994,11.9600584 58.3879133,10.5751473 C58.0416855,8.84400841 57.176116,7.63221117 55.0987494,7.80532506 C53.5407244,7.97843895 52.8482688,9.0171223 53.1944966,10.5751473 C53.5407244,11.9600584 54.5794077,12.8256279 55.9643188,12.8256279" id="Fill-41"></path>
            <path d="M55.0987494,118.250948 C56.4836605,118.077835 57.5223438,117.560224 57.6954577,116.000468 C57.8685716,114.615557 57.176116,113.578604 55.618091,113.403759 C54.2331799,113.403759 53.0213827,113.923101 53.0213827,115.481126 C53.0213827,116.866037 53.7138382,117.906452 55.0987494,118.250948" id="Fill-43"></path>
            <path d="M86.0859626,7.80463261 C84.8741654,7.63151872 84.1817098,8.32397428 84.1817098,9.36265762 C84.1817098,11.0937965 84.8741654,12.4787076 86.7784182,12.8249354 C87.8171015,12.9980493 88.3364432,12.1324799 88.682671,11.0937965 C88.8557849,9.18954373 87.8171015,8.15086039 86.0859626,7.80463261" id="Fill-45"></path>
            <path d="M93.1838052,15.7689102 C92.1451219,15.9420241 91.6257802,16.6344797 91.6257802,17.673163 C91.7988941,18.7101152 92.6644636,19.4043019 93.530033,19.2311881 C94.9149441,19.056343 95.7805136,18.0193908 95.4342858,16.6344797 C95.4342858,15.7689102 94.2224886,15.5940652 93.1838052,15.7689102" id="Fill-47"></path>
            <path d="M62.7155874,35.3304336 C64.1004985,35.3304336 65.3122958,34.6379781 65.4854097,33.2530669 C65.6585236,31.8681558 64.7929541,31.0025864 63.408043,30.6563586 C62.0231319,30.6563586 60.9844485,31.3488141 60.8113346,32.7337253 C60.6382207,33.9455225 61.1575624,35.1555886 62.7155874,35.3304336" id="Fill-49"></path>
            <path d="M93.3570922,35.3304336 C94.7420034,35.3304336 95.7806867,34.2900191 95.7806867,32.9068392 C95.7806867,31.521928 94.7420034,30.4832447 93.3570922,30.4832447 C91.9721811,30.4832447 91.2797256,31.521928 90.9334978,32.9068392 C91.2797256,34.2900191 91.9721811,35.3304336 93.3570922,35.3304336" id="Fill-51"></path>
            <path d="M63.5811569,45.1982716 C61.6769041,45.3713855 60.8113346,46.7545655 60.9844485,48.6605494 C61.1575624,50.0454605 62.1962458,51.2572578 63.5811569,51.0824127 C65.4854097,50.91103 66.3509791,49.5261189 66.1778652,47.6201349 C65.8316374,46.2369549 64.966068,45.0234266 63.5811569,45.1982716" id="Fill-53"></path>
            <path d="M62.8888744,60.6043692 C61.8501911,60.9505969 61.1577355,61.6447836 61.1577355,62.6817358 C61.3308494,64.066647 62.1964189,65.2784442 63.7544439,65.1070614 C65.3124689,64.9322164 65.8318106,63.7204192 65.8318106,62.3355081 C65.3124689,60.7792142 64.2737855,60.2581414 62.8888744,60.6043692" id="Fill-55"></path>
            <path d="M63.4087354,75.6656238 C62.0238243,75.6656238 60.985141,76.5311933 60.8120271,77.9161044 C60.6389132,79.4741294 61.8507104,80.3396989 63.2356215,79.9934711 C64.6205327,79.8203572 65.3129882,78.60856 65.3129882,77.5698766 C65.3129882,76.3580794 64.6205327,75.6656238 63.4087354,75.6656238" id="Fill-57"></path>
            <path d="M17.3602675,105.960555 C16.6678119,106.133669 16.3215842,107.345466 16.1484703,108.211035 C15.9753564,109.249719 16.8409258,110.115288 17.7064953,110.115288 C19.4376342,110.461516 19.783862,109.076605 19.9569759,107.864807 C19.6107481,106.479896 18.7451786,105.441213 17.3602675,105.960555" id="Fill-59"></path>
            <path d="M2.29901282,60.7785217 C1.08721559,60.6036767 0.394760028,61.4692461 0.394760028,62.5096606 C0.221646138,64.4139134 1.60655726,65.4508656 3.33769616,65.7970934 C4.5494934,65.9719384 5.06883507,65.106369 5.41506285,64.2407995 C5.06883507,62.3348156 4.03015172,61.1230184 2.29901282,60.7785217" id="Fill-61"></path>
            <path d="M1.95330438,75.8380453 C1.26084882,76.184273 0.39527937,77.2246875 0.22216548,78.090257 C0.0490515894,79.6465509 1.26084882,80.5121203 2.81887383,80.3407376 C4.37689885,80.1658925 5.06935441,79.1272092 4.89624052,77.5691842 C4.37689885,76.3591181 3.5113294,75.3187036 1.95330438,75.8380453" id="Fill-63"></path>
            <path d="M2.12572582,49.8709617 C3.51063694,50.0458068 4.72243417,49.5264651 4.89554806,47.9667089 C4.89554806,46.4086839 4.02997861,45.1986178 2.64506749,45.1986178 C1.26015637,45.1986178 0.394586914,46.4086839 0.221473024,47.7953262 C0.221473024,49.0053923 1.08704248,49.6978478 2.12572582,49.8709617" id="Fill-65"></path>
            <path d="M40.5573557,12.8256279 C41.9422668,12.8256279 42.9809502,11.7852134 42.9809502,10.4020334 C42.9809502,9.0171223 41.7691529,8.3229356 40.5573557,7.97843895 C38.9993307,8.15155284 38.3068751,9.18850505 38.3068751,10.4020334 C38.3068751,11.7852134 39.1724446,12.9987418 40.5573557,12.8256279" id="Fill-67"></path>
            <path d="M30.3438093,33.2527207 C30.5169232,34.8107457 31.5556065,35.5032013 32.9405176,35.3300874 C34.3254288,35.1569735 35.1909982,34.1182902 35.0178843,32.733379 C34.8447704,31.3484679 33.6329732,30.6560124 32.2480621,30.6560124 C30.6900371,30.6560124 30.1706954,31.8678096 30.3438093,33.2527207" id="Fill-69"></path>
            <path d="M40.5573557,57.8352394 C41.9422668,57.8352394 42.8078363,56.7948249 43.154064,55.4116449 C42.9809502,54.0267338 41.9422668,52.9880504 40.7304696,52.9880504 C39.1724446,52.8149365 38.3068751,54.0267338 38.3068751,55.4116449 C38.1337612,56.6234421 38.9993307,57.8352394 40.5573557,57.8352394" id="Fill-71"></path>
            <path d="M39.6917862,38.6185589 C39.1724446,38.7934039 38.8262168,39.6589733 38.8262168,40.1765839 C38.9993307,41.2152672 39.6917862,41.9077228 40.9035835,41.561495 C41.4229251,41.3901122 41.596039,40.5245428 41.7691529,40.0052011 C41.596039,38.7934039 40.9035835,38.2740622 39.6917862,38.6185589" id="Fill-73"></path>
            <path d="M40.3840687,22.5193133 C38.8260437,22.8655411 38.4798159,24.0773383 38.6529298,25.4622494 C38.8260437,27.0220056 39.864727,27.71273 41.2496381,27.887575 C42.6345493,27.887575 43.8463465,26.8471605 43.6732326,25.4622494 C43.3270048,23.5597278 42.2883215,22.3461994 40.3840687,22.5193133" id="Fill-75"></path>
            <path d="M32.9405176,96.0927167 C34.4985426,95.4019922 35.8834538,94.5364228 35.3641121,92.457325 C34.8447704,91.074145 33.6329732,90.5530722 32.2480621,90.8993 C30.6900371,91.2455277 30.1706954,92.457325 30.3438093,93.8422361 C30.3438093,95.4019922 31.5556065,96.0927167 32.9405176,96.0927167" id="Fill-77"></path>
            <path d="M33.2862261,19.5760309 C34.4980233,19.402917 35.1904789,18.7104615 35.017365,17.6717781 C35.017365,16.6348259 34.1517955,15.7692565 33.1131122,15.7692565 C31.7282011,15.7692565 30.5164038,16.4599809 30.8626316,18.1911198 C31.2088594,19.0566892 32.2475427,19.5760309 33.2862261,19.5760309" id="Fill-79"></path>
            <path d="M30.6895177,77.9157582 C30.5164038,78.9561727 31.3819733,79.6468971 32.4206566,79.9931249 C33.9786816,79.9931249 35.017365,79.1275554 35.1904789,77.7426443 C35.3635928,76.7039609 34.4980233,75.8383915 33.45934,75.6652776 C31.9013149,75.4938949 30.8626316,76.5308471 30.6895177,77.9157582" id="Fill-81"></path>
            <path d="M33.1138046,60.4319477 C31.5557796,60.6050616 30.5170963,61.4706311 30.8633241,63.0286561 C31.036438,63.8942255 31.9020074,64.9329089 32.7675769,65.1060228 C34.3256019,65.4505194 35.3642852,64.4135672 35.5373991,63.0286561 C35.5373991,61.4706311 34.4987158,60.6050616 33.1138046,60.4319477" id="Fill-83"></path>
            <path d="M33.8060871,46.4086839 C32.421176,45.8893422 31.3824926,46.4086839 30.6900371,47.7953262 C30.5169232,48.8322784 31.0362648,49.6978478 32.0749482,50.0458068 C33.4598593,50.7365312 34.4985426,50.0458068 35.0178843,48.6608956 C35.537226,47.4490984 34.6716565,46.7549117 33.8060871,46.4086839" id="Fill-85"></path>
            <path d="M9.57014244,69.0876422 C9.05080077,69.2607561 8.5314591,69.7783667 8.35834521,70.2994395 C8.01211743,71.5095056 8.87768688,72.0305784 9.74325633,72.2036923 C10.7819397,72.375075 11.4743952,71.6843506 11.4743952,70.6439361 C11.1281675,69.43387 10.6088258,68.7414145 9.57014244,69.0876422" id="Fill-87"></path>
            <path d="M10.4357119,41.3894198 C10.9550536,41.2145748 11.1281675,40.3490053 11.3012813,40.0045087 C11.1281675,38.7927114 10.262598,38.2733698 9.22391466,38.6178664 C8.70457299,38.7927114 8.35834521,39.6582809 8.35834521,40.1776226 C8.5314591,41.2145748 9.39702855,41.9087615 10.4357119,41.3894198" id="Fill-89"></path>
            <path d="M9.22356843,99.382573 C8.35799898,99.7288008 7.83865731,100.767484 8.53111287,101.633054 C8.70422676,101.979281 9.56979621,102.498623 10.0891379,102.498623 C10.9547073,102.325509 11.8202768,101.804436 11.6471629,101.113712 C10.9547073,99.5556869 10.0891379,99.0363453 9.22356843,99.382573" id="Fill-91"></path>
            <path d="M9.74342945,87.9560176 C11.1283406,88.1308626 12.1670239,87.4366759 12.6863656,86.0517648 C12.6863656,84.6685848 11.99391,83.6281703 10.6089989,83.2836737 C9.22408778,83.1088287 8.01229054,83.8030154 7.83917665,85.1861953 C7.66606276,86.5711065 8.18540443,87.7829037 9.74342945,87.9560176" id="Fill-93"></path>
            <path d="M18.05255,91.245874 C16.8407527,90.8996462 16.1482972,91.7652156 15.9751833,92.803899 C15.6289555,94.0156962 15.6289555,95.5737212 17.7063222,95.2274934 C18.3987777,95.0543795 19.0912333,94.1888101 19.610575,93.6694684 C19.610575,92.4576712 19.0912333,91.5921017 18.05255,91.245874" id="Fill-95"></path>
            <path d="M18.05255,75.6656238 C17.0138666,75.3193961 16.3214111,76.1849655 15.9751833,77.050535 C15.6289555,78.4354461 15.9751833,79.4741294 17.3600944,79.8203572 C18.5718916,80.166585 19.0912333,79.3010155 19.4374611,78.4354461 C20.1299166,77.050535 19.4374611,76.0118516 18.05255,75.6656238" id="Fill-97"></path>
            <path d="M12.5125592,55.0643784 C12.1663315,53.5080846 11.1276481,52.8138979 9.74273699,52.9887429 C8.70405365,53.1601256 8.01159809,53.8543123 8.01159809,55.0643784 C8.01159809,56.4510207 8.70405365,57.8359318 10.2620787,57.6610868 C11.6469898,57.6610868 12.5125592,56.6224034 12.5125592,55.0643784" id="Fill-99"></path>
            <path d="M48.1741938,125.175504 C49.2128771,125.00239 49.9053327,124.309935 49.9053327,123.790593 C49.5591049,121.540112 48.5204215,121.36873 47.1355104,121.540112 C46.0968271,121.713226 45.4043715,122.405682 45.5774854,123.61921 C45.5774854,124.831007 46.6161687,125.521732 48.1741938,125.175504" id="Fill-101"></path>
            <path d="M47.4819113,60.9509432 C46.0970002,61.124057 45.2314307,62.3358543 45.4045446,63.7207654 C45.5776585,65.2787904 46.7894557,65.7981321 48.1743669,65.7981321 C49.7323919,65.6250182 50.2517335,64.413221 50.0786197,63.0283098 C49.9055058,61.4702848 48.8668224,60.7778293 47.4819113,60.9509432" id="Fill-103"></path>
            <path d="M47.8284853,80.5124665 C49.5596242,80.5124665 50.0789659,79.4737832 49.905852,77.9157582 C49.7327381,76.5308471 48.5209409,75.6652776 47.1360298,75.6652776 C45.5780047,75.6652776 44.8855492,76.8770748 44.8855492,78.4350999 C45.231777,79.9931249 46.4435742,80.5124665 47.8284853,80.5124665" id="Fill-105"></path>
            <path d="M40.2107817,118.425101 C41.5956928,118.598215 42.6343761,117.905759 42.9806039,116.347734 C42.9806039,114.962823 42.2881484,113.922409 40.9032372,113.577912 C39.5183261,113.404798 38.4796428,114.097254 38.3065289,115.653548 C38.133415,117.213304 38.6527567,118.250256 40.2107817,118.425101" id="Fill-107"></path>
            <path d="M47.6551983,106.132976 C46.2702872,106.132976 45.2316038,107.173391 45.5778316,108.556571 C45.7509455,109.941482 46.9627427,110.807051 48.3476539,110.460823 C49.3863372,110.287709 50.0787928,109.595254 50.0787928,108.556571 C49.732565,107.173391 48.8669955,106.132976 47.6551983,106.132976" id="Fill-109"></path>
            <path d="M49.9053327,93.4960083 C50.0784465,92.457325 49.5591049,91.7648694 49.0397632,91.5917555 C47.3086243,90.8993 46.7892826,91.7648694 46.4430548,92.6304389 C46.0968271,93.4960083 46.0968271,94.7078055 47.1355104,95.0540333 C48.5204215,95.7464889 49.5591049,94.8809194 49.9053327,93.4960083" id="Fill-111"></path>
            <path d="M40.3840687,132.793208 C41.2496381,132.620094 41.9420937,132.100752 41.9420937,131.408297 C41.422752,129.850271 40.5571826,129.504044 39.6916131,129.850271 C38.8260437,130.196499 38.306702,131.235183 38.9991576,132.100752 C39.1722715,132.44698 39.864727,132.793208 40.3840687,132.793208" id="Fill-113"></path>
            <path d="M47.4819113,35.156281 C48.8668224,35.3311261 49.9055058,34.6369394 50.0786197,33.0806455 C49.9055058,31.6940032 49.559278,30.4839371 48.001253,30.4839371 C46.6163419,30.4839371 45.4045446,31.1746616 45.2314307,32.5595727 C45.2314307,33.946215 46.0970002,34.9831672 47.4819113,35.156281" id="Fill-115"></path>
            <path d="M48.1741938,50.7365312 C49.2128771,51.082759 50.0784465,50.3920345 50.2515604,49.3516201 C50.5977882,47.2742534 49.385991,46.4086839 47.3086243,45.8893422 C46.7892826,46.4086839 45.5774854,46.7549117 45.4043715,47.4490984 C44.7119159,49.8709617 46.6161687,50.3920345 48.1741938,50.7365312" id="Fill-117"></path>
            <path d="M53.1943235,70.4722071 C53.0212096,71.5108905 53.7136651,72.203346 54.7523485,72.3764599 C56.1372596,72.7226877 57.1759429,72.203346 57.5221707,70.645321 C57.5221707,69.6066377 57.002829,68.9141821 55.9641457,68.7410682 C54.5792346,68.3948404 53.5405512,68.9141821 53.1943235,70.4722071" id="Fill-119"></path>
            <path d="M55.9643188,42.7739847 C57.3492299,42.254643 58.2147994,41.2159597 57.8685716,39.8310485 C57.3492299,38.4461374 56.3105466,37.7536819 54.7525216,38.4461374 C53.7138382,38.7923652 53.1944966,39.6579347 53.3676105,40.696618 C53.3676105,41.9084152 54.4062938,42.7739847 55.9643188,42.7739847" id="Fill-121"></path>
            <path d="M54.9254624,102.844851 C56.3103735,103.191079 57.3490568,102.670006 57.5221707,101.633054 C57.6952846,99.9019147 57.002829,99.382573 55.9641457,99.0363453 C54.5792346,98.6901175 53.3674373,99.207728 53.1943235,100.767484 C53.1943235,101.979281 53.886779,102.498623 54.9254624,102.844851" id="Fill-123"></path>
            <path d="M63.7544439,121.368383 C62.3695328,121.368383 61.1577355,122.059108 61.1577355,123.618864 C61.1577355,125.003775 62.1964189,125.869344 63.7544439,126.040727 C65.139355,125.696231 65.8318106,124.655816 65.6586967,123.099522 C65.6586967,122.059108 64.7931272,121.368383 63.7544439,121.368383" id="Fill-125"></path>
            <path d="M56.6566013,55.9299479 C57.5221707,55.9299479 57.6952846,55.2392235 57.3490568,54.373654 C56.8297152,54.0256951 56.3103735,53.6794673 55.6179179,53.5080846 C55.444804,54.0256951 54.7523485,54.7198818 54.9254624,55.0643784 C55.0985762,55.5854512 55.9641457,55.9299479 56.6566013,55.9299479" id="Fill-127"></path>
            <path d="M56.6566013,83.4557489 C54.9254624,83.1095211 54.4061207,84.4944322 54.5792346,85.7062295 C54.5792346,86.398685 55.444804,87.6104823 56.1372596,87.6104823 C57.6952846,87.95671 58.2146263,86.5717989 58.3877402,85.3600017 C58.2146263,84.4944322 57.5221707,83.6288628 56.6566013,83.4557489" id="Fill-129"></path>
            <path d="M56.3108928,27.1937345 C57.3495762,27.0206207 58.0420317,26.3281651 58.0420317,25.1163679 C58.0420317,23.5583429 57.3495762,22.6927734 55.7915512,22.3465456 C54.40664,22.6927734 53.3679567,23.5583429 53.5410706,24.943254 C53.7141845,26.6743929 54.9259817,27.3668484 56.3108928,27.1937345" id="Fill-131"></path>
            <path d="M55.0987494,132.793208 C57.176116,132.966322 57.8685716,132.100752 57.8685716,131.062069 C57.8685716,129.504044 57.0030022,128.46536 55.4449771,128.46536 C54.2331799,128.292246 53.5407244,129.157816 53.5407244,130.369613 C53.5407244,131.754524 54.4062938,132.793208 55.0987494,132.793208" id="Fill-133"></path>
            <path d="M26.3616705,113.923101 C24.8036454,113.749987 24.2843038,114.444174 24.1111899,115.481126 C23.938076,116.866037 24.2843038,118.077835 25.8423288,118.250948 C26.8810121,118.425793 27.5734677,117.731607 27.7465816,116.519809 C27.9196955,115.134898 27.5734677,114.097946 26.3616705,113.923101" id="Fill-135"></path>
            <path d="M25.496101,83.2833275 C24.1111899,83.2833275 23.0725065,84.4933936 23.2456204,85.8800358 C23.2456204,86.9187192 24.1111899,87.7842886 25.1498732,87.9556714 C26.7078982,88.3018991 27.5734677,87.4363297 27.9196955,85.8800358 C27.7465816,84.3220108 27.054126,83.1084824 25.496101,83.2833275" id="Fill-137"></path>
            <path d="M25.496101,52.8142441 C24.1111899,52.9890891 23.0725065,54.0260413 23.2456204,55.4109524 C23.4187343,56.9689775 24.4574177,57.661433 26.0154427,57.4883191 C27.5734677,56.9689775 28.0928094,55.9302941 27.7465816,54.3722691 C27.4003538,53.5066996 26.5347844,52.6411302 25.496101,52.8142441" id="Fill-139"></path>
            <path d="M27.2272399,70.4722071 C26.8810121,69.9528655 26.5347844,69.2604099 26.1885566,69.2604099 C25.6692149,69.087296 24.8036454,69.6066377 24.6305316,69.9528655 C24.2843038,70.9915488 24.9767593,71.8571182 26.1885566,71.8571182 C26.5347844,71.6840044 26.8810121,70.8184349 27.2272399,70.4722071" id="Fill-141"></path>
            <path d="M26.015962,37.580568 C24.457937,37.2343402 23.9385953,38.0999096 23.7654814,39.138593 C23.5923676,40.5235041 23.5923676,42.0815291 24.8041648,42.6008708 C26.1890759,43.1202125 27.2277593,41.9084152 27.573987,40.5235041 C27.9202148,38.9654791 27.2277593,38.0999096 26.015962,37.580568" id="Fill-143"></path>
            <path d="M14.9368462,48.6605494 C15.10996,49.3512738 16.3217573,49.8706155 17.1873267,49.8706155 C18.2260101,50.0454605 19.0915795,49.1798911 19.2646934,48.3143216 C19.6109212,46.5831827 18.2260101,46.2369549 17.0142128,46.063841 C15.4561878,46.4083377 14.5906184,47.2739071 14.9368462,48.6605494" id="Fill-145"></path>
            <path d="M17.5335545,30.4835909 C16.1486434,30.8280876 15.10996,31.5222743 15.10996,32.9054542 C15.10996,34.2903654 16.1486434,35.3307798 17.5335545,35.3307798 C18.9184656,35.5021626 19.957149,34.2903654 19.957149,32.9054542 C19.7840351,31.5222743 18.9184656,30.6567048 17.5335545,30.4835909" id="Fill-147"></path>
            <path d="M35.190652,108.210689 C35.0175381,107.172006 34.4981964,106.306436 33.4595131,106.306436 C32.074602,106.133322 30.8628047,106.825778 30.6896908,108.210689 C30.5165769,109.5956 31.2090325,110.807397 32.7670575,110.634283 C33.9788547,110.634283 34.8444242,109.422486 35.190652,108.210689" id="Fill-149"></path>
            <path d="M42.80749,69.9532117 C42.80749,68.7414145 41.7688067,68.3951867 41.249465,68.3951867 C39.8645539,68.3951867 38.9989845,68.9127972 38.8258706,69.9532117 C38.4796428,71.1650089 39.1720983,71.8574645 40.2107817,72.0305784 C41.5956928,72.2036923 42.6343761,71.5095056 42.80749,69.9532117" id="Fill-151"></path>
            <path d="M40.2107817,88.1301702 C41.5956928,88.3032841 42.6343761,87.6108285 42.9806039,86.0528035 C42.9806039,84.6678924 42.2881484,83.6274779 40.9032372,83.2829812 C39.5183261,83.1098673 38.3065289,83.8023229 38.3065289,85.3586168 C38.133415,86.745259 38.6527567,87.9553251 40.2107817,88.1301702" id="Fill-153"></path>
            <path d="M32.9405176,126.041073 C34.3254288,126.041073 35.1909982,125.00239 35.537226,123.61921 C35.3641121,122.234299 34.4985426,121.193885 33.1136315,121.193885 C31.7287204,121.193885 30.6900371,122.059454 30.6900371,123.444365 C30.5169232,125.00239 31.5556065,126.041073 32.9405176,126.041073" id="Fill-155"></path>
            <path d="M24.4581101,102.844851 C25.8430212,103.191079 26.8817046,102.670006 27.0548185,101.633054 C27.2279324,99.9019147 26.5354768,99.382573 25.4967935,99.0363453 C24.1118823,98.6901175 22.9000851,99.207728 22.7269712,100.767484 C22.7269712,101.979281 23.4194268,102.670006 24.4581101,102.844851" id="Fill-157"></path>
            <path d="M38.8262168,100.767138 C38.8262168,101.28648 39.3455585,102.152049 39.6917862,102.325163 C40.7304696,102.671391 41.4229251,102.152049 41.7691529,100.940252 C41.4229251,100.42091 41.2498113,99.5553407 40.9035835,99.3822268 C39.8649001,99.035999 38.9993307,99.5553407 38.8262168,100.767138" id="Fill-159"></path>
            <path d="M17.5335545,65.2787904 C19.0915795,65.6250182 19.6109212,64.2401071 19.7840351,63.0283098 C19.7840351,61.9896265 19.0915795,61.124057 18.0528962,60.9509432 C16.3217573,60.6047154 15.8024156,61.9896265 15.9755295,63.2014237 C15.9755295,64.0669932 16.8410989,65.1056765 17.5335545,65.2787904" id="Fill-161"></path>
            <path d="M25.842675,22.5193133 C24.28465,22.5193133 23.2459667,23.3848827 23.2459667,24.9429077 C23.2459667,26.3278189 24.28465,27.1933883 25.842675,27.3665022 C27.4007,27.0220056 27.9200417,25.9815911 27.7469278,24.4252972 C27.5738139,23.3848827 26.8813584,22.5193133 25.842675,22.5193133" id="Fill-163"></path>
            <path d="M63.2354484,106.132976 C61.8505373,106.307821 60.9849679,107.344773 60.9849679,108.729684 C60.9849679,109.770099 61.6774234,110.460823 62.7161068,110.635668 C64.1010179,110.635668 65.3128151,109.941482 65.485929,108.556571 C65.6590429,106.998546 64.6203596,105.959862 63.2354484,106.132976" id="Fill-165"></path>
            <path d="M86.2592496,42.7739847 C87.6441607,42.254643 88.5097302,41.2159597 88.1635024,39.8310485 C87.8172746,38.4461374 86.6054774,37.7536819 85.0474524,38.4461374 C84.008769,38.7923652 83.4894274,39.6579347 83.6625413,40.696618 C83.8356552,41.9084152 84.7012246,42.7739847 86.2592496,42.7739847" id="Fill-167"></path>
            <path d="M78.2958376,35.3304336 C79.6807487,35.1555886 80.719432,34.2900191 80.719432,32.9068392 C80.719432,31.521928 79.8538626,30.4832447 78.2958376,30.4832447 C76.9109264,30.4832447 75.8722431,31.521928 75.8722431,32.9068392 C75.6991292,34.2900191 76.9109264,34.9842058 78.2958376,35.3304336" id="Fill-169"></path>
            <path d="M78.2958376,60.4319477 C76.9109264,60.4319477 75.5260153,60.9512894 75.5260153,62.5093144 C75.5260153,64.4135672 76.7378125,65.4505194 78.6420653,65.6253644 C80.3732042,65.6253644 80.8925459,64.2404533 80.719432,63.0286561 C80.719432,61.6437449 79.8538626,60.6050616 78.2958376,60.4319477" id="Fill-171"></path>
            <path d="M78.1234161,16.1137531 C77.7771883,16.2885981 77.2578467,17.1541676 77.2578467,17.6717781 C77.4309606,18.7104615 78.1234161,19.402917 79.1620995,19.0566892 C79.6814411,18.8853065 79.854555,18.019737 80.0276689,17.6717781 C80.0276689,16.2885981 79.1620995,15.9406392 78.1234161,16.1137531" id="Fill-173"></path>
            <path d="M86.2592496,27.366156 C87.297933,27.541001 87.9903885,26.6754316 88.3366163,25.8098621 C88.3366163,24.250106 87.4710469,23.2131538 86.0861357,22.8651948 C85.0474524,22.6938121 84.1818829,23.5593815 84.008769,24.5963337 C83.8356552,25.9812449 84.7012246,27.0216593 86.2592496,27.366156" id="Fill-175"></path>
            <path d="M78.6424116,45.024119 C77.0843865,45.1989641 76.7381588,46.4090301 76.9112727,47.7956724 C77.0843865,48.8326246 77.7768421,49.5268113 78.8155254,49.3519663 C80.3735505,49.0057385 80.8928921,47.9670552 80.5466644,46.582144 C80.3735505,45.7165746 79.6810949,45.024119 78.6424116,45.024119" id="Fill-177"></path>
            <path d="M102.705069,101.286133 C102.531955,100.766792 102.358841,99.9012222 102.012614,99.7298395 C101.147044,99.2087667 100.108361,99.5549945 99.7621331,100.595409 C99.5890192,100.939906 99.935247,101.978589 100.454589,102.151703 C101.320158,102.671044 102.185728,102.151703 102.705069,101.286133" id="Fill-179"></path>
            <path d="M101.666213,118.078527 C102.358668,117.905413 102.704896,116.693616 103.051124,116.347388 C103.051124,114.616249 102.358668,113.923794 101.319985,113.923794 C100.108188,113.923794 99.4157322,114.616249 99.4157322,115.828046 C99.2426183,117.212958 99.9350738,118.597869 101.666213,118.078527" id="Fill-181"></path>
            <path d="M84.0091153,116.347388 C84.1822292,117.386071 85.0477986,118.251641 86.086482,118.078527 C87.4713931,117.905413 88.3369625,116.693616 88.3369625,115.135591 C88.1638486,114.096907 87.2982792,113.231338 86.2595958,113.404452 C84.7015708,113.75068 83.8360014,114.789363 84.0091153,116.347388" id="Fill-183"></path>
            <path d="M85.2203932,54.198809 C85.2203932,54.7198818 85.5666209,55.5854512 85.9128487,55.756834 C86.2590765,55.9299479 87.124646,55.4106062 87.6439876,55.2392235 C87.2977598,54.7198818 87.124646,54.0256951 86.7784182,53.6794673 C86.2590765,53.1601256 85.3935071,53.3332395 85.2203932,54.198809" id="Fill-185"></path>
            <path d="M85.3936802,87.6111747 C86.9517052,88.1305164 87.8172746,87.0901019 88.3366163,85.7051908 C88.5097302,84.6682386 88.1635024,83.6278241 87.1248191,83.2833275 C85.5667941,82.7622547 84.5281107,83.6278241 84.1818829,85.1875803 C83.8356552,86.2245325 84.3549968,87.2649469 85.3936802,87.6111747" id="Fill-187"></path>
            <path d="M86.4325366,72.3757675 C87.47122,72.2026536 87.9905616,71.510198 87.9905616,70.4715147 C87.8174477,68.9134897 86.7787644,68.394148 85.2207394,68.7403758 C84.182056,68.9134897 83.4896005,69.6059452 83.6627144,70.6446286 C83.8358283,72.2026536 84.8745116,72.7219952 86.4325366,72.3757675" id="Fill-189"></path>
            <path d="M88.1636755,101.113712 C87.8174477,100.59437 87.8174477,99.7288008 87.2981061,99.5556869 C86.9518783,99.382573 85.913195,99.7288008 85.7400811,100.073297 C85.2207394,101.113712 85.7400811,101.804436 86.7787644,101.979281 C87.1249922,102.152395 87.6443339,101.45994 88.1636755,101.113712" id="Fill-191"></path>
            <path d="M77.6035551,75.8380453 C76.218644,76.0128903 75.3530745,77.0498425 75.5261884,78.4347536 C75.5261884,79.9927786 76.7379857,80.3407376 78.1228968,80.5121203 C79.6809218,80.3407376 80.3733773,79.3003231 80.2002635,77.915412 C80.0271496,76.5305008 78.9884662,75.6649314 77.6035551,75.8380453" id="Fill-193"></path>
            <path d="M86.9515321,132.793208 C87.9902154,132.44698 88.3364432,131.58141 88.1633293,130.369613 C87.6439876,128.984702 86.7784182,128.119133 85.2203932,128.638474 C84.1817098,128.984702 83.6623681,129.850271 84.0085959,130.888955 C84.5279376,132.44698 85.3935071,133.312549 86.9515321,132.793208" id="Fill-195"></path>
            <path d="M72.06443,100.767138 C72.06443,100.42091 71.3719744,99.9015685 71.0257466,99.5553407 C70.5064049,99.9015685 69.6408355,100.074682 69.6408355,100.42091 C69.4677216,100.940252 69.8139494,101.805821 70.3332911,101.978935 C71.1988605,102.498277 71.8913161,101.805821 72.06443,100.767138" id="Fill-197"></path>
            <path d="M67.9090041,10.2289195 C67.7358902,11.6138307 68.7745736,12.6507829 70.1594847,12.8256279 C71.5443958,12.9987418 72.4099653,12.1331723 72.7561931,10.7482612 C72.5830792,9.36335008 72.2368514,8.15155284 70.6788264,8.15155284 C69.1208014,7.97843895 68.082118,8.84400841 67.9090041,10.2289195" id="Fill-199"></path>
            <path d="M69.986717,130.024078 C69.6404893,130.197192 69.1211476,131.234144 69.2942615,131.580372 C69.6404893,132.445941 70.5060587,132.965283 71.3716282,132.445941 C71.7178559,132.099713 71.8909698,131.408989 72.0640837,130.889647 C71.7178559,129.849233 70.8522865,129.331622 69.986717,130.024078" id="Fill-201"></path>
            <path d="M78.1234161,106.132976 C76.738505,105.959862 75.6998217,106.825432 75.5267078,108.210343 C75.3535939,109.595254 76.0460494,110.635668 77.7771883,110.807051 C78.9889856,110.635668 80.2007828,110.460823 80.3738967,108.729684 C80.3738967,107.519618 79.6814411,106.307821 78.1234161,106.132976" id="Fill-203"></path>
            <path d="M78.1234161,121.713226 C77.7771883,121.888071 77.2578467,122.753641 77.2578467,123.271251 C77.4309606,124.309935 78.1234161,125.00239 79.1620995,124.656162 C79.6814411,124.48478 79.854555,123.61921 80.2007828,123.099868 C80.0276689,122.059454 79.1620995,121.540112 78.1234161,121.713226" id="Fill-205"></path>
            <path d="M71.0255735,68.7410682 C69.8137763,68.5679543 69.1213207,69.2604099 68.9482068,70.2990932 C68.7750929,71.8571182 69.6406624,72.8958016 71.0255735,73.2420294 C72.5835985,73.5882572 73.7953957,72.8958016 73.6222819,71.3377766 C73.449168,69.9528655 72.4104846,69.087296 71.0255735,68.7410682" id="Fill-207"></path>
            <path d="M71.1988605,57.3162439 C71.8913161,57.1413989 72.4106577,55.9296017 72.5837716,55.585105 C72.5837716,54.02708 71.8913161,53.1615106 70.8526327,53.1615106 C69.6408355,53.1615106 68.9483799,53.8539661 68.9483799,55.0640322 C68.9483799,56.4506745 69.4677216,57.6607406 71.1988605,57.3162439" id="Fill-209"></path>
            <path d="M73.4489948,85.1868878 C73.275881,83.8019767 72.0640837,83.1095211 70.6791726,83.1095211 C69.1211476,83.4557489 68.6018059,84.4944322 68.7749198,85.8793434 C68.9480337,87.4373684 69.986717,88.1298239 71.3716282,87.7835962 C72.7565393,87.7835962 73.6221087,86.7449128 73.4489948,85.1868878" id="Fill-211"></path>
            <path d="M70.160004,41.3894198 C71.1986874,41.7356476 71.891143,41.2145748 72.2373707,40.0045087 C71.891143,39.4834359 71.7180291,38.6178664 71.3718013,38.4464836 C70.3331179,38.1002559 69.4675485,38.7927114 69.2944346,39.8313948 C69.2944346,40.3490053 69.8137763,41.2145748 70.160004,41.3894198" id="Fill-213"></path>
            <path d="M80.0269765,92.6304389 C80.0269765,92.2842111 79.161407,91.7648694 78.8151792,91.4186416 C78.2958376,91.7648694 77.603382,92.1110972 77.603382,92.457325 C77.603382,92.9766666 77.9496098,93.8422361 78.2958376,94.01535 C79.3345209,94.5364228 80.0269765,93.8422361 80.0269765,92.6304389" id="Fill-215"></path>
            <path d="M71.0255735,22.6934659 C69.8137763,22.3472381 69.1213207,23.2128075 68.9482068,24.2497597 C68.601979,25.6346709 69.1213207,27.0213131 70.8524596,27.0213131 C71.891143,27.0213131 72.5835985,26.1557437 72.5835985,25.2901742 C72.5835985,23.903532 72.0642568,23.0379625 71.0255735,22.6934659" id="Fill-217"></path>
            <path d="M68.9478606,115.828393 C68.9478606,117.213304 69.4672023,118.598215 71.1983412,118.078873 C71.8907967,117.905759 72.2370245,116.693962 72.5832523,116.347734 C72.5832523,114.616595 71.8907967,113.922409 70.8521134,113.922409 C69.6403161,113.922409 68.9478606,114.616595 68.9478606,115.828393" id="Fill-219"></path>
            <path d="M123.82531,80.1658925 C125.210221,80.1658925 126.248905,78.9558264 126.075791,77.5691842 C126.075791,76.5305008 125.210221,75.6649314 124.171538,75.4935486 C122.613513,75.1473208 121.747943,76.0128903 121.401716,77.3960703 C121.747943,78.9558264 122.440399,80.1658925 123.82531,80.1658925" id="Fill-221"></path>
            <path d="M122.094171,47.2742534 C121.574829,48.3146678 122.094171,49.3516201 122.959741,49.6978478 C124.344652,50.3920345 125.383335,49.5264651 126.075791,48.3146678 C126.422018,47.1011395 125.729563,46.5835289 124.690879,46.23557 C123.479082,45.8893422 122.613513,46.23557 122.094171,47.2742534" id="Fill-223"></path>
            <path d="M123.652023,60.7785217 C122.61334,60.7785217 121.74777,61.6440912 121.920884,62.6827745 C122.093998,64.0659545 122.959567,65.106369 124.517592,65.2794829 C125.556276,65.106369 126.421845,64.4139134 126.421845,63.200385 C126.248731,61.8172051 125.210048,60.7785217 123.652023,60.7785217" id="Fill-225"></path>
            <path d="M132.134431,71.856772 C132.653772,71.6836581 132.826886,70.8180887 133,70.3004781 C132.653772,69.2600637 131.961317,68.5693392 130.922633,68.9138359 C130.576406,69.0869498 130.057064,69.9525192 130.057064,70.4718609 C130.230178,71.5105442 131.095747,72.2029998 132.134431,71.856772" id="Fill-227"></path>
            <path d="M101.320504,83.4557489 C100.108707,83.282635 99.5893654,84.1482045 99.4162515,85.1868878 C99.2431376,87.2642545 100.281821,88.3029378 102.186074,88.4760517 C103.224757,88.6491656 103.917213,87.7835962 104.26344,86.7449128 C104.26344,84.6675461 103.224757,83.6288628 101.320504,83.4557489" id="Fill-229"></path>
            <path d="M101.666213,71.856772 C102.012441,71.6836581 102.531782,70.8180887 102.531782,70.3004781 C102.358668,69.2600637 101.666213,68.5693392 100.627529,68.9138359 C100.108188,69.0869498 99.9350738,69.9525192 99.5888461,70.4718609 C99.9350738,71.6836581 100.627529,72.2029998 101.666213,71.856772" id="Fill-231"></path>
            <path d="M108.24506,50.0451143 C109.629971,50.0451143 110.49554,49.1795448 110.841768,47.7946337 C110.668654,46.2366087 109.629971,45.3710393 108.24506,45.3710393 C106.860149,45.3710393 105.821465,46.4079915 105.821465,47.7946337 C105.821465,49.1795448 106.860149,50.0451143 108.24506,50.0451143" id="Fill-233"></path>
            <path d="M108.937342,35.3304336 C110.495367,35.3304336 111.014709,34.1186364 111.014709,32.7337253 C110.841595,31.1757003 109.802912,30.4832447 108.418001,30.6563586 C107.03309,30.8277413 106.16752,31.8681558 106.340634,33.2530669 C106.340634,34.6379781 107.552431,35.3304336 108.937342,35.3304336" id="Fill-235"></path>
            <path d="M108.24506,95.7461427 C109.629971,95.7461427 110.668654,94.7074593 110.668654,93.3242793 C110.668654,91.9393682 109.629971,91.0737988 108.24506,90.8989537 C106.860149,91.0737988 105.648352,91.7645232 105.821465,93.1494343 C105.821465,94.5360766 106.860149,95.7461427 108.24506,95.7461427" id="Fill-237"></path>
            <path d="M107.898486,65.2787904 C109.802739,65.2787904 110.841422,64.2401071 110.495194,62.3358543 C110.32208,61.2971709 109.456511,60.7778293 108.417828,60.7778293 C107.032916,61.124057 105.994233,61.9896265 105.994233,63.3745376 C106.167347,64.413221 107.032916,65.2787904 107.898486,65.2787904" id="Fill-239"></path>
            <path d="M108.590768,80.5124665 C110.148793,80.3393526 110.841249,79.3006693 110.668135,77.9157582 C110.495021,76.5308471 109.456338,75.6652776 108.071427,75.8383915 C106.686516,76.0115054 105.820946,77.0501887 105.99406,78.4350999 C105.99406,79.9931249 107.205857,80.5124665 108.590768,80.5124665" id="Fill-241"></path>
            <path d="M109.110629,105.960555 C108.071946,105.960555 107.206377,106.826124 107.206377,107.864807 C107.206377,109.249719 107.898832,110.63463 109.629971,110.115288 C110.322427,109.942174 110.668654,108.730377 111.014882,108.211035 C110.841768,106.65301 110.149313,105.960555 109.110629,105.960555" id="Fill-243"></path>
        </g>
    </g>
</svg>