<?xml version="1.0" encoding="UTF-8"?>
<svg width="84px" height="64px" viewBox="0 0 84 64" version="1.1" xmlns="http://www.w3.org/2000/svg" xmlns:xlink="http://www.w3.org/1999/xlink">
    <!-- Generator: Sketch 48.2 (47327) - http://www.bohemiancoding.com/sketch -->
    <title>paperplane-right-coverage</title>
    <desc>Created with Sketch.</desc>
    <defs>
        <polygon id="path-1" points="6.78065854e-05 0.332209039 61.7733287 0.332209039 61.7733287 62 6.78065854e-05 62"></polygon>
    </defs>
    <g id="Voice-Features-Copy-3" stroke="none" stroke-width="1" fill="none" fill-rule="evenodd" transform="translate(-1100.000000, -1594.000000)">
        <g id="paperplane-right-coverage" transform="translate(1100.000000, 1594.000000)">
            <g id="Page-1">
                <g id="Group-3">
                    <mask id="mask-2" fill="white">
                        <use xlink:href="#path-1"></use>
                    </mask>
                    <g id="Clip-2"></g>
                    <path d="M1.64316999,52.8007835 C2.4573114,52.9170895 3.1551469,53.498619 3.1551469,54.3127605 C3.1551469,55.3595137 2.4573114,56.1736551 1.29425224,55.9410433 C0.480110823,55.7084315 -0.101418759,55.1269019 0.0148871573,54.1964545 C0.131193074,53.3823131 0.596416739,52.8007835 1.64316999,52.8007835 M1.87578182,18.0253146 C2.22469957,18.1416205 2.80622915,18.839456 2.80622915,19.1883737 C2.80622915,19.8862092 2.68992323,20.8166566 1.52686407,20.5840447 C1.0616404,20.4677388 0.829028571,19.8862092 0.480110823,19.5372915 C0.712722655,18.6068442 0.945334488,17.7927027 1.87578182,18.0253146 M1.41055815,6.39472294 C2.10839365,6.27841703 2.4573114,6.62733478 2.68992323,7.20886436 C3.03884098,8.02300577 2.68992323,8.72084127 1.99208773,9.06975902 C1.41055815,9.30237085 0.945334488,8.83714719 0.712722655,8.2556176 C0.363804906,7.44147619 0.596416739,6.74364069 1.41055815,6.39472294 M0.712722655,30.3537417 C0.945334488,29.7722121 1.52686407,29.4232944 1.99208773,29.6559062 C2.80622915,30.004824 3.03884098,30.7026595 2.68992323,31.5168009 C2.4573114,32.0983304 1.99208773,32.5635541 1.41055815,32.3309423 C0.712722655,31.9820245 0.363804906,31.1678831 0.712722655,30.3537417 M2.10839365,44.0778398 C1.29425224,44.1941457 0.829028571,43.4963102 0.712722655,42.6821688 C0.596416739,41.8680274 0.829028571,41.053886 1.7594759,41.053886 C2.57361732,40.9375801 3.03884098,41.5191097 3.1551469,42.3332511 C3.1551469,43.1473925 3.03884098,43.9615339 2.10839365,44.0778398 M5.48126522,60.476974 C5.83018297,59.4302208 6.87693622,58.6160794 8.03999538,58.6160794 C8.62152496,58.6160794 9.08674863,59.081303 8.8541368,59.7791385 C8.62152496,60.9421977 7.92368947,61.9889509 6.64432439,61.9889509 C5.83018297,61.9889509 5.24865339,61.1748095 5.48126522,60.476974 M7.80738355,11.861101 C8.8541368,11.861101 9.31936046,12.6752424 9.31936046,13.7219957 C9.31936046,14.7687489 8.8541368,15.5828903 7.57477172,15.4665844 C6.52801847,15.3502785 5.59757114,14.652443 5.59757114,13.7219957 C5.71387706,12.6752424 6.52801847,11.9774069 7.80738355,11.861101 M7.10954805,0.346815296 C8.27260722,0.23050938 8.97044271,0.812038961 8.97044271,1.97509812 C8.97044271,2.90554545 8.1563013,3.13815729 7.34215988,3.37076912 C6.52801847,3.37076912 5.83018297,2.90554545 5.83018297,2.09140404 C5.71387706,1.16095671 6.29540664,0.463121212 7.10954805,0.346815296 M6.41171255,24.8873636 C6.41171255,24.1895281 6.87693622,23.8406104 7.4584658,23.8406104 C8.50521905,23.8406104 8.62152496,24.5384459 8.62152496,25.3525873 C8.50521905,25.9341169 8.27260722,26.5156465 7.57477172,26.5156465 C6.64432439,26.5156465 6.41171255,25.7015051 6.41171255,24.8873636 M7.69107763,35.471202 C8.50521905,35.7038139 8.97044271,36.2853434 8.97044271,37.2157908 C8.73783088,38.0299322 8.27260722,38.6114618 7.34215988,38.4951558 C6.52801847,38.3788499 5.83018297,37.7973203 5.83018297,36.9831789 C5.83018297,35.9364257 6.52801847,35.1222843 7.69107763,35.471202 M9.90089004,48.4974646 C9.66827821,49.5442179 8.97044271,50.0094416 8.03999538,50.2420534 C6.99324214,50.4746652 6.06279481,50.2420534 5.83018297,49.0789942 C5.59757114,47.6833232 6.41171255,46.9854877 7.69107763,46.9854877 C8.62152496,46.9854877 9.43566638,47.4507114 9.90089004,48.4974646 M14.7857385,54.3127605 C14.6694326,55.1269019 14.4368208,55.8247374 13.6226794,55.9410433 C12.5759261,56.1736551 11.7617847,55.5921255 11.6454788,54.5453723 C11.5291729,53.8475368 11.9943965,53.0333954 12.808538,52.9170895 C13.7389853,52.6844776 14.4368208,53.2660072 14.7857385,54.3127605 M13.0411498,41.1701919 C14.087903,41.1701919 14.7857385,41.8680274 14.9020444,42.7984747 C14.9020444,43.4963102 14.3205149,44.1941457 13.5063734,44.3104517 C12.4596202,44.4267576 11.7617847,43.6126162 11.6454788,42.6821688 C11.5291729,41.9843333 12.1107025,41.4028038 13.0411498,41.1701919 M11.6454788,30.8189654 C11.8780906,30.1211299 12.3433143,29.5396003 13.2737616,29.6559062 C14.087903,30.004824 14.9020444,30.4700476 14.6694326,31.6331068 C14.4368208,32.3309423 13.9715971,33.0287778 13.0411498,32.7961659 C12.2270084,32.4472482 11.412867,31.8657186 11.6454788,30.8189654 M13.5063734,18.0253146 C14.3205149,18.1416205 14.5531267,18.839456 14.6694326,18.4905382 C14.3205149,20.4677388 13.7389853,20.9329625 13.0411498,20.5840447 C12.692232,20.4677388 12.3433143,19.7699033 12.2270084,19.3046797 C12.2270084,18.4905382 12.5759261,17.7927027 13.5063734,18.0253146 M13.5063734,6.39472294 C14.3205149,6.51102886 14.5531267,7.20886436 14.6694326,6.85994661 C14.3205149,8.83714719 13.7389853,9.30237085 13.0411498,8.9534531 C12.692232,8.83714719 12.3433143,8.13931169 12.2270084,7.67408802 C12.2270084,6.85994661 12.5759261,6.16211111 13.5063734,6.39472294 M19.5542811,58.3834675 C20.7173403,58.3834675 21.1825639,59.1976089 21.2988698,60.2443622 C21.2988698,61.2911154 20.8336462,62.1052569 19.670587,61.9889509 C18.6238338,61.872645 17.6933864,61.4074214 17.5770805,60.476974 C17.2281628,59.081303 18.274916,58.3834675 19.5542811,58.3834675 M20.2521166,48.9626883 C20.0195048,49.427912 19.9031988,50.0094416 19.0890574,49.7768297 C18.274916,49.5442179 18.0423042,48.9626883 18.0423042,48.1485469 C18.1586101,47.2180996 18.8564456,46.8691818 19.5542811,47.1017937 C20.2521166,47.3344055 20.6010343,48.1485469 20.2521166,48.9626883 M18.6238338,35.2385902 C19.670587,35.0059784 20.6010343,35.5875079 20.6010343,36.7505671 C20.6010343,37.5647085 19.9031988,38.0299322 19.0890574,38.262544 C18.1586101,38.3788499 17.5770805,37.9136263 17.4607746,37.0994848 C17.4607746,36.1690375 17.8096924,35.3548961 18.6238338,35.2385902 M20.4847284,24.3058341 C20.1358107,26.2830346 19.5542811,26.7482583 18.8564456,26.3993405 C18.5075278,26.2830346 18.1586101,25.5851991 18.0423042,25.1199755 C18.0423042,24.3058341 18.3912219,23.6079986 19.3216693,23.8406104 C20.2521166,23.9569163 20.4847284,24.6547518 20.4847284,24.3058341 M18.5075278,12.2100188 C19.5542811,11.9774069 20.2521166,12.5589365 20.6010343,13.4893838 C20.6010343,14.3035253 20.3684225,15.0013608 19.5542811,15.2339726 C18.5075278,15.4665844 17.6933864,15.0013608 17.5770805,13.9546075 C17.3444687,13.1404661 17.6933864,12.4426306 18.5075278,12.2100188 M19.3216693,0.579427128 C20.2521166,0.812038961 20.3684225,1.39356854 20.2521166,2.20770996 C20.1358107,3.02185137 19.5542811,3.60338095 18.7401397,3.2544632 C18.3912219,3.13815729 18.0423042,2.44032179 17.9259983,1.97509812 C18.0423042,1.04465079 18.3912219,0.463121212 19.3216693,0.579427128 M25.0206592,17.7927027 C25.8348006,17.9090087 26.3000242,18.4905382 26.4163302,19.3046797 C26.1837183,20.1188211 25.6021887,20.5840447 24.7880473,20.7003506 C23.8576,20.8166566 23.2760704,20.3514329 23.2760704,19.4209856 C23.2760704,18.4905382 23.8576,17.6763968 25.0206592,17.7927027 M25.3695769,6.39472294 C26.0674124,6.62733478 26.3000242,7.44147619 26.0674124,8.2556176 C25.8348006,8.72084127 25.7184947,9.30237085 24.9043532,9.06975902 C24.0902118,8.83714719 23.8576,8.2556176 23.8576,7.44147619 C23.9739059,6.39472294 24.7880473,6.16211111 25.3695769,6.39472294 M23.3923763,54.0801486 C23.5086823,53.2660072 24.0902118,52.6844776 24.9043532,52.8007835 C25.9511065,52.9170895 26.648942,53.498619 26.4163302,54.6616782 C26.3000242,55.3595137 25.8348006,56.0573492 24.2065177,55.8247374 C23.8576,55.8247374 23.1597645,55.2432078 23.3923763,54.0801486 M26.1837183,42.9147807 C26.0674124,43.7289221 25.4858828,44.3104517 24.6717414,43.9615339 C24.3228237,43.845228 23.8576,43.1473925 23.8576,42.6821688 C23.8576,41.8680274 24.2065177,41.1701919 25.1369651,41.4028038 C26.0674124,41.4028038 26.1837183,42.1006392 26.1837183,42.9147807 M24.7880473,32.67986 C23.7412941,32.4472482 23.1597645,31.8657186 23.2760704,30.8189654 C23.3923763,30.004824 23.9739059,29.4232944 24.7880473,29.5396003 C25.8348006,29.6559062 26.5326361,30.2374358 26.3000242,31.4004949 C26.1837183,32.2146364 25.7184947,32.7961659 24.7880473,32.67986 M31.9990141,60.0117504 C31.9990141,60.5932799 31.8827082,61.6400332 30.7196491,61.2911154 C29.9055076,61.0585036 29.6728958,60.476974 29.6728958,59.6628326 C29.7892017,58.7323853 30.4870372,58.4997734 31.1848727,58.6160794 C31.6500964,58.8486912 31.9990141,59.6628326 31.9990141,60.0117504 M31.1848727,49.7768297 C30.4870372,49.8931356 29.7892017,49.5442179 29.6728958,48.6137706 C29.5565899,47.7996291 29.7892017,47.2180996 30.9522609,46.9854877 C31.7664023,46.8691818 31.9990141,47.6833232 31.9990141,48.3811587 C31.9990141,48.8463824 31.5337905,49.6605238 31.1848727,49.7768297 M29.2076722,36.6342612 C29.3239781,35.8201198 29.9055076,35.2385902 30.835955,35.471202 C31.6500964,35.7038139 32.1153201,36.2853434 32.231626,37.0994848 C31.9990141,37.9136263 31.6500964,38.6114618 30.7196491,38.4951558 C29.6728958,38.3788499 28.9750603,37.7973203 29.2076722,36.6342612 M31.9990141,25.4688932 C31.8827082,26.2830346 31.3011786,26.8645642 30.4870372,26.5156465 C30.1381195,26.3993405 29.7892017,25.7015051 29.6728958,25.2362814 C29.6728958,24.42214 30.0218136,23.7243045 30.9522609,23.9569163 C31.8827082,23.9569163 31.9990141,24.6547518 31.9990141,25.4688932 M30.9522609,12.0937128 C31.7664023,11.9774069 31.9990141,12.7915483 31.9990141,13.4893838 C31.9990141,13.9546075 31.6500964,14.7687489 31.3011786,14.7687489 C30.6033431,14.8850548 29.9055076,14.5361371 29.7892017,13.6056898 C29.5565899,12.9078543 29.7892017,12.3263247 30.9522609,12.0937128 M31.3011786,0.346815296 C32.231626,0.463121212 32.3479319,1.27726263 32.4642378,1.97509812 C32.231626,2.78923954 31.8827082,3.37076912 31.0685668,3.37076912 C30.1381195,3.2544632 30.0218136,2.44032179 30.0218136,1.62618038 C29.9055076,0.812038961 30.4870372,0.346815296 31.3011786,0.346815296 M36.5349449,29.6559062 C37.3490863,29.7722121 37.9306159,30.2374358 38.1632277,31.0515772 C38.0469218,31.8657186 37.698004,32.5635541 36.8838626,32.67986 C35.8371094,32.7961659 35.022968,32.0983304 35.022968,30.9352713 C35.022968,30.1211299 35.6044975,29.5396003 36.5349449,29.6559062 M36.8838626,20.8166566 C36.0697212,20.8166566 35.4881916,20.3514329 35.4881916,19.4209856 C35.4881916,18.6068442 35.6044975,17.9090087 36.5349449,17.7927027 C37.3490863,17.7927027 37.9306159,18.2579264 37.9306159,19.0720678 C38.0469218,19.8862092 37.81431,20.7003506 36.8838626,20.8166566 M36.8838626,6.27841703 C37.81431,6.39472294 37.9306159,7.20886436 38.0469218,7.90669986 C37.9306159,8.72084127 37.4653922,9.30237085 36.6512508,9.18606494 C35.7208035,9.06975902 35.6044975,8.2556176 35.6044975,7.55778211 C35.4881916,6.62733478 36.0697212,6.16211111 36.8838626,6.27841703 M35.4881916,42.449557 C35.4881916,41.5191097 36.0697212,41.1701919 36.8838626,41.1701919 C37.81431,41.2864978 37.9306159,41.9843333 38.0469218,42.7984747 C37.9306159,43.6126162 37.4653922,44.1941457 36.6512508,44.0778398 C35.6044975,43.9615339 35.4881916,43.1473925 35.4881916,42.449557 M36.6512508,52.6844776 C37.4653922,52.8007835 37.9306159,53.3823131 37.9306159,54.1964545 C37.9306159,55.010596 37.4653922,55.7084315 36.6512508,55.7084315 C35.8371094,55.7084315 35.3718857,55.010596 35.3718857,54.1964545 C35.3718857,53.3823131 35.8371094,52.8007835 36.6512508,52.6844776 M43.7459117,59.8954444 C43.6296058,60.5932799 43.5132999,61.4074214 42.6991584,61.5237273 C41.885017,61.6400332 41.3034874,61.0585036 41.3034874,60.2443622 C41.3034874,59.5465267 41.4197934,58.7323853 42.3502407,58.6160794 C43.1643821,58.6160794 43.6296058,59.081303 43.7459117,59.8954444 M42.4665466,49.8931356 C41.6524052,49.8931356 41.1871815,49.1953001 41.1871815,48.3811587 C41.1871815,47.5670173 41.6524052,46.9854877 42.4665466,46.8691818 C43.280688,46.9854877 43.7459117,47.5670173 43.7459117,48.3811587 C43.7459117,49.1953001 43.3969939,50.0094416 42.4665466,49.8931356 M40.8382638,36.6342612 C40.9545697,35.8201198 41.5360993,35.2385902 42.4665466,35.471202 C43.280688,35.7038139 43.7459117,36.2853434 43.8622176,37.0994848 C43.6296058,37.9136263 43.280688,38.6114618 42.3502407,38.4951558 C41.3034874,38.3788499 40.6056519,37.7973203 40.8382638,36.6342612 M43.7459117,25.0036696 C43.7459117,25.7015051 43.5132999,26.3993405 42.6991584,26.6319524 C41.7687111,26.6319524 41.3034874,26.1667287 41.1871815,25.3525873 C41.1871815,24.6547518 41.3034874,23.8406104 42.2339348,23.7243045 C43.1643821,23.7243045 43.7459117,24.1895281 43.7459117,25.0036696 M41.1871815,13.256772 C41.4197934,12.4426306 42.0013229,12.0937128 42.8154644,12.3263247 C43.6296058,12.5589365 43.9785235,13.1404661 43.9785235,13.9546075 C43.7459117,14.652443 43.280688,15.3502785 42.4665466,15.2339726 C41.5360993,15.0013608 40.8382638,14.4198312 41.1871815,13.256772 M42.3502407,0.579427128 C43.280688,0.579427128 43.8622176,1.04465079 43.9785235,1.85879221 C44.0948294,2.67293362 43.6296058,3.37076912 42.6991584,3.48707504 C41.885017,3.48707504 41.1871815,3.13815729 41.0708756,2.20770996 C41.0708756,1.39356854 41.4197934,0.812038961 42.3502407,0.579427128 M47.9329247,18.0253146 C49.4449016,17.9090087 49.6775134,19.1883737 50.0264312,19.8862092 C50.0264312,21.2818802 49.3285957,21.3981861 48.5144543,21.3981861 C47.467701,21.2818802 46.6535596,20.7003506 46.5372537,19.6535974 C46.5372537,18.839456 47.1187833,18.0253146 47.9329247,18.0253146 M48.2818424,6.16211111 C49.0959838,6.16211111 49.6775134,6.51102886 49.9101253,7.32517027 C49.9101253,8.2556176 49.4449016,8.60453535 48.6307602,8.83714719 C47.8166188,9.06975902 47.1187833,8.83714719 46.8861714,8.02300577 C46.6535596,6.97625253 47.2350892,6.27841703 48.2818424,6.16211111 M47.9329247,30.3537417 C48.0492306,30.1211299 48.5144543,29.888518 48.7470661,29.888518 C49.3285957,30.004824 49.6775134,30.4700476 49.5612075,31.1678831 C49.3285957,31.6331068 48.863372,31.7494127 48.2818424,31.6331068 C47.8166188,31.4004949 47.5840069,30.8189654 47.9329247,30.3537417 M48.3981483,41.1701919 C49.2122898,41.1701919 49.5612075,41.8680274 49.7938193,42.6821688 C49.6775134,43.4963102 49.3285957,44.1941457 48.5144543,44.1941457 C47.7003128,44.1941457 47.2350892,43.4963102 47.2350892,42.6821688 C47.0024773,41.7517215 47.467701,41.1701919 48.3981483,41.1701919 M48.9796779,56.1736551 C47.7003128,56.1736551 46.7698655,55.5921255 46.6535596,54.3127605 C46.6535596,53.498619 47.2350892,53.0333954 48.1655365,52.8007835 C49.2122898,52.8007835 49.6775134,53.7312309 50.0264312,54.5453723 C50.259043,55.4758196 49.9101253,56.1736551 48.9796779,56.1736551 M55.4928092,60.2443622 C55.3765033,61.0585036 54.9112797,61.6400332 53.9808323,61.5237273 C53.050385,61.4074214 52.8177732,60.5932799 52.8177732,59.8954444 C52.8177732,58.9649971 53.3993027,58.6160794 54.2134442,58.6160794 C55.2601974,58.7323853 55.3765033,59.4302208 55.4928092,60.2443622 M54.3297501,47.1017937 C55.1438915,47.2180996 55.6091152,47.9159351 55.6091152,48.8463824 C55.3765033,49.5442179 55.0275856,50.3583593 54.0971382,50.2420534 C53.2829968,50.1257475 52.5851613,49.6605238 52.5851613,48.8463824 C52.4688554,47.5670173 53.1666909,46.8691818 54.3297501,47.1017937 M54.3297501,35.3548961 C55.2601974,35.471202 55.4928092,36.2853434 55.3765033,36.9831789 C55.2601974,37.7973203 54.7949737,38.262544 53.8645264,38.262544 C52.9340791,38.0299322 52.8177732,37.3320967 52.8177732,36.6342612 C52.9340791,35.7038139 53.5156087,35.2385902 54.3297501,35.3548961 M53.9808323,23.7243045 C54.7949737,23.6079986 55.3765033,24.1895281 55.4928092,25.0036696 C55.3765033,25.817811 55.2601974,26.5156465 54.3297501,26.6319524 C53.5156087,26.7482583 52.9340791,26.1667287 52.9340791,25.3525873 C52.8177732,24.5384459 53.050385,23.8406104 53.9808323,23.7243045 M53.5156087,12.7915483 C53.6319146,12.4426306 54.2134442,12.0937128 54.5623619,11.861101 C55.4928092,12.0937128 56.1906447,12.4426306 55.9580329,13.3730779 C55.841727,13.7219957 55.1438915,14.1872193 54.7949737,14.1872193 C53.8645264,14.1872193 53.1666909,13.7219957 53.5156087,12.7915483 M54.7949737,0.346815296 C55.6091152,0.463121212 55.9580329,1.16095671 56.0743388,2.20770996 C55.7254211,2.55662771 55.1438915,3.48707504 54.6786678,3.48707504 C53.8645264,3.48707504 53.6319146,2.55662771 53.6319146,1.85879221 C53.5156087,0.928344877 53.8645264,0.23050938 54.7949737,0.346815296 M59.6798222,52.6844776 C61.0754932,52.8007835 61.7733287,53.3823131 61.7733287,54.4290664 C61.7733287,55.4758196 60.9591873,56.0573492 59.7961281,56.0573492 C58.633069,56.0573492 58.0515394,55.2432078 58.0515394,54.3127605 C58.0515394,53.1497013 58.8656808,52.6844776 59.6798222,52.6844776 M59.6798222,41.2864978 C60.6102696,41.2864978 61.1917991,41.7517215 61.3081051,42.5658629 C61.424411,43.6126162 60.9591873,44.4267576 59.6798222,44.3104517 C58.8656808,44.1941457 58.2841512,43.6126162 58.2841512,42.7984747 C58.2841512,41.9843333 58.8656808,41.4028038 59.6798222,41.2864978 M60.3776577,31.7494127 C59.7961281,31.6331068 59.3309045,31.284189 59.4472104,30.7026595 C59.5635163,30.1211299 60.02874,29.7722121 60.6102696,30.004824 C60.9591873,30.1211299 61.1917991,30.4700476 61.3081051,30.7026595 C61.424411,31.5168009 60.8428814,31.6331068 60.3776577,31.7494127 M58.4004571,19.1883737 C58.633069,18.3742323 59.0982926,17.7927027 60.1450459,18.0253146 C60.8428814,18.2579264 61.5407169,18.839456 61.424411,19.5372915 C61.3081051,20.4677388 60.6102696,21.3981861 59.4472104,20.9329625 C58.633069,20.7003506 58.1678453,20.0025152 58.4004571,19.1883737 M60.3776577,6.27841703 C61.3081051,6.51102886 61.6570228,7.20886436 61.424411,8.02300577 C61.3081051,8.48822944 60.8428814,9.06975902 60.3776577,9.18606494 C59.4472104,9.30237085 59.0982926,8.60453535 58.9819867,7.79039394 C58.9819867,6.85994661 59.4472104,6.27841703 60.3776577,6.27841703" id="Fill-1" fill="#E5F0FA" mask="url(#mask-2)"></path>
                </g>
                <path d="M30.0185759,59.7876708 C29.9195046,60.3805191 30.2167183,60.8886747 30.9102167,60.9733674 C31.8018576,61.1427526 31.9009288,60.4652117 32,60.0417486 C32,59.7029781 31.7027864,59.1948225 31.4055728,59.1101298 C30.8111455,58.856052 30.1176471,59.0254372 30.0185759,59.7876708" id="Fill-4" fill="#D4FAF6"></path>
                <path d="M42.5434132,38 C43.4397743,38 43.7759097,37.3183508 44,36.6389699 C43.8879549,35.8450357 43.4397743,35.2779398 42.6554583,35.0499672 C41.7590972,34.8242631 41.1988715,35.391359 41.0868263,36.184159 C40.7506909,37.3183508 41.4229618,37.8854466 42.5434132,38" id="Fill-6" fill="#D4FAF6"></path>
                <path d="M31.1067448,24.0095068 C30.3127401,23.9229536 29.9157378,24.4422727 30.0149884,24.9624574 C30.0149884,25.3078046 30.3127401,25.8279893 30.7097424,25.9136769 C31.4044965,26.1733365 31.8014988,25.8279893 32,25.1355638 C32,24.6153791 31.9007494,24.0969255 31.1067448,24.0095068" id="Fill-8" fill="#D4FAF6"></path>
                <path d="M24.4507012,20.9819656 C25.2253506,20.8619596 25.7786716,20.3878765 26,19.5561518 C25.8893358,18.7244271 25.446679,18.1303381 24.6720296,18.0115203 C23.5653876,17.8915143 23.0120667,18.7244271 23.0120667,19.7937874 C22.9014025,20.624324 23.5653876,21.1007834 24.4507012,20.9819656" id="Fill-10" fill="#D4FAF6"></path>
                <path d="M31.4068408,13.9838999 C31.7034204,13.8971739 32,13.3828289 32,13.0385012 C32,12.5241562 31.8022803,11.9230852 31.1102612,12.0080938 C30.1216625,12.1798284 29.9239428,12.6091648 30.0228026,13.2110944 C30.3193823,13.8121653 30.8136816,14.0697672 31.4068408,13.9838999" id="Fill-12" fill="#D4FAF6"></path>
                <path d="M30.5434132,38 C31.4397743,38 31.7759097,37.3183508 32,36.6389699 C31.8879549,35.8450357 31.4397743,35.2779398 30.6554583,35.0499672 C29.7590972,34.8242631 29.1988715,35.391359 29.0868263,36.184159 C28.7506909,37.3183508 29.4229618,37.8854466 30.5434132,38" id="Fill-14" fill="#D4FAF6"></path>
                <path d="M31.153513,47 C30.1264021,47.1653877 29.9209799,47.578857 30.023691,48.1577141 C30.1264021,48.819265 30.7426686,49.0673466 31.3589352,48.9846527 C31.6670685,48.9019589 31.9752018,48.4057957 31.9752018,48.0750202 C32.0779129,47.4961632 31.8724907,47 31.153513,47" id="Fill-16" fill="#D4FAF6"></path>
                <path d="M24.8921087,7.96247439 C25.4868478,8.12791829 25.6850941,7.7122301 25.8833405,7.38051094 C26.18071,6.79854748 25.8833405,6.21575265 25.2886014,6.04947738 C24.6938623,5.88403349 24.0991232,6.13344639 24,6.79854748 C24,7.38051094 24.1982464,7.79619912 24.8921087,7.96247439" id="Fill-18" fill="#D4FAF6"></path>
                <path d="M24.5146656,30.0140903 C23.6094004,29.903501 23.1567678,30.4564473 23.0436097,31.2316779 C22.8172934,32.2258753 23.4962423,32.7788215 24.5146656,33 C25.4199307,33 25.8725633,32.5587489 25.9857215,31.7846241 C26.0988796,30.6787316 25.5330889,30.1257854 24.5146656,30.0140903" id="Fill-20" fill="#D4FAF6"></path>
                <path d="M25.1,41.0095068 C24.3,40.9229536 24,41.4422727 24,41.9624574 C24,42.3078046 24.3,42.8279893 24.7,42.9136769 C25.4,43.1733365 25.8,42.8279893 26,42.1355638 C26,41.6153791 25.9,41.0969255 25.1,41.0095068" id="Fill-22" fill="#D4FAF6"></path>
                <path d="M23.8287982,54.9498228 C25.284824,55.1756459 25.7328319,54.6110881 25.9568359,53.8207072 C26.1808398,52.8056323 25.508828,52.1270338 24.5008101,52.0141222 C23.6047942,51.9023398 23.1567863,52.4668976 23.0447843,53.2561494 C22.8207804,54.385265 23.4927923,54.9498228 23.8287982,54.9498228" id="Fill-24" fill="#D4FAF6"></path>
                <path d="M30.9090909,3.98748671 C31.5454545,4.10182969 31.9090909,3.41577181 32,2.61537095 C31.9090909,1.8149701 31.8181818,1.12891222 31.0909091,1.01456924 C30.4545455,0.90022626 30,1.47194116 30,2.27234201 C30.0909091,3.07274287 30.2727273,3.87314373 30.9090909,3.98748671" id="Fill-26" fill="#D4FAF6"></path>
                <path d="M36,55 C36.6363636,55 37,54.3076923 37,53.5 C37,52.6923077 36.6363636,52.1153846 36,52 C35.2727273,52.1153846 35,52.6923077 35,53.5 C35,54.3076923 35.2727273,55 36,55" id="Fill-28" fill="#D4FAF6"></path>
                <path d="M35.9090909,43.9848784 C36.5454545,44.1035566 36.9090909,43.5101654 37,42.6794177 C36.9090909,41.9673482 36.8181818,41.1366005 36.0909091,41.0179222 C35.4545455,40.899244 35,41.373957 35,42.3233829 C35.0909091,43.0354524 35.1818182,43.8662001 35.9090909,43.9848784" id="Fill-30" fill="#D4FAF6"></path>
                <path d="M42,47 C41.3636364,47.1153846 41,47.6923077 41,48.5 C41,49.3076923 41.3636364,50 42,50 C42.6363636,50 43,49.3076923 43,48.5 C43,47.6923077 42.6363636,47.1153846 42,47" id="Fill-32" fill="#D4FAF6"></path>
                <path d="M35.9090909,8.98487837 C36.5454545,9.10355662 36.9090909,8.51016539 37,7.67941767 C36.9090909,6.9673482 36.8181818,6.13660048 36.0909091,6.01792223 C35.4545455,5.89924399 35,6.37395697 35,7.32338293 C35.0909091,8.03545241 35.1818182,8.86620013 35.9090909,8.98487837" id="Fill-34" fill="#D4FAF6"></path>
                <path d="M41.0223758,60.6716369 C41.0223758,61.5062613 41.4932387,62.1032745 42.1524468,61.9850659 C42.9058274,61.8656633 43,61.0298448 43,60.312235 C42.9058274,59.4776105 42.5291371,59 41.869929,59 C41.1165484,59.1182086 40.9282032,59.8358185 41.0223758,60.6716369" id="Fill-36" fill="#D4FAF6"></path>
                <path d="M36.7777778,32.9875719 C37.5555556,32.8720385 37.8888889,32.1868455 38,31.3861191 C37.7777778,30.5842489 37.2222222,30.0123015 36.4444444,30.0123015 C35.5555556,29.8990559 35,30.5842489 35,31.3861191 C35,32.4156245 35.6666667,33.1019614 36.7777778,32.9875719" id="Fill-38" fill="#D4FAF6"></path>
                <path d="M35.860304,18 C35.1152589,18.1153846 34.9289976,18.8076923 35.0221282,19.6153846 C35.0221282,20.4230769 35.4877815,20.8846154 36.139696,21 C36.8847411,20.7692308 37.0710024,20.0769231 36.9778718,19.3846154 C36.9778718,18.4615385 36.5122185,18 35.860304,18" id="Fill-40" fill="#D4FAF6"></path>
                <path d="M2.26492078,7.95596058 C2.87945719,7.70217699 3.1867254,7.19713923 2.87945719,6.60610171 C2.67461172,6.18453429 2.26492078,5.93243697 1.7528071,6.01590732 C1.03584796,6.35400439 0.831002487,6.77557181 1.13827069,7.36576619 C1.34311616,7.78733361 1.7528071,8.12374441 2.26492078,7.95596058" id="Fill-42" fill="#D4FAF6"></path>
                <path d="M1.9,19.9723486 C2.8,20.1489047 3,19.4426803 3,18.913012 C3,18.5598998 2.5,18.1185095 2.2,18.0302315 C1.3,17.8545582 1.1,18.4716217 1,19.1787289 C1.3,19.4426803 1.6,19.9723486 1.9,19.9723486" id="Fill-44" fill="#D4FAF6"></path>
                <path d="M1.23057241,54.9580177 C2.33646465,55.1771301 3,54.5197928 3,53.4242307 C3,52.6562417 2.33646465,52.2191124 1.56234009,52 C0.677626292,52 0.124680171,52.5477811 0.014090947,53.3146745 C-0.0964982772,54.081568 0.456447844,54.7389053 1.23057241,54.9580177" id="Fill-46" fill="#D4FAF6"></path>
                <path d="M2.87826259,31.4058277 C3.18857588,30.8141256 2.87826259,30.3069523 2.25763601,30.0525203 C1.74044719,29.8843079 1.22325838,30.1378945 1.11982061,30.5605389 C0.809507321,31.1522411 1.11982061,31.6594144 1.84388496,31.913001 C2.25763601,32.1657424 2.5679493,31.8284721 2.87826259,31.4058277" id="Fill-48" fill="#D4FAF6"></path>
                <path d="M7.0454725,62 C8.14656058,62 8.74715408,61.0689655 8.94735191,60.0344828 C9.14754975,59.4137931 8.74715408,59 8.2466595,59 C7.14557142,59 6.34478008,59.6196552 6.04448333,60.6541379 C5.8442855,61.2758621 6.34478008,62 7.0454725,62" id="Fill-50" fill="#D4FAF6"></path>
                <path d="M7.5523452,14.9908227 C8.61395872,15.0872697 9,14.411176 9,13.5441171 C9,12.6760937 8.61395872,12 7.74536584,12 C6.68375232,12.0974115 6.00818007,12.6760937 6.00818007,13.4467056 C5.91166975,14.3156934 6.68375232,14.7979286 7.5523452,14.9908227" id="Fill-52" fill="#D4FAF6"></path>
                <path d="M1.85714286,41 C1.0952381,41.1149093 1,41.9192747 1,42.6075816 C1.0952381,43.413096 1.38095238,44.1014029 2.14285714,43.9876426 C2.80952381,43.8727333 3,43.068368 3,42.2640027 C3,41.5745467 2.61904762,41 1.85714286,41" id="Fill-54" fill="#D4FAF6"></path>
                <path d="M19.2951514,47.0494838 C18.7058882,46.8840405 18.116625,47.1334525 18.0184145,47.7977201 C17.9202039,48.380513 18.2148355,48.7961998 18.9023093,48.9624745 C19.4915725,49.1279179 19.6879935,48.7122311 19.8844146,48.380513 C20.1790462,47.7977201 19.8844146,47.2157585 19.2951514,47.0494838" id="Fill-56" fill="#D4FAF6"></path>
                <path d="M19.3073589,61.9877636 C20.5163883,62.1163596 21,61.2149013 21,60.0588228 C20.8790971,58.9014583 20.3954853,58 19.186456,58 C17.8565237,58 16.8893003,58.7728623 17.0102032,60.3147289 C17.2520091,61.3447833 18.3401355,61.9877636 19.3073589,61.9877636" id="Fill-58" fill="#D4FAF6"></path>
                <path d="M19.563645,37.9790722 C20.3370669,37.7512849 21,37.4096039 21,36.4973156 C21,35.3583789 20.2265781,34.9039431 19.1216897,35.0166979 C18.3482677,35.1317305 17.9063124,35.9278472 18.0168012,36.7251029 C18.1272901,37.7512849 18.6797343,38.0929659 19.563645,37.9790722" id="Fill-61" fill="#D4FAF6"></path>
                <path d="M12.6761865,7.92075867 C13.3380932,8.18137909 13.7163257,7.8338852 14,6.35703617 C13.9054419,6.61765659 13.7163257,6.09641576 13.0544189,6.00954229 C12.297954,5.92266881 11.9197216,6.44390965 12.0142797,6.96515048 C12.0142797,7.31264437 12.297954,7.8338852 12.6761865,7.92075867" id="Fill-63" fill="#D4FAF6"></path>
                <path d="M18,24.978036 C18,25.3204548 18.2857143,25.8362285 18.6666667,25.9220477 C19.3333333,26.1786473 19.7142857,25.8362285 20,24.3773012 C19.9047619,24.634759 19.7142857,24.1198435 19.047619,24.0331661 C18.2857143,23.8623858 18,24.3773012 18,24.978036" id="Fill-65" fill="#D4FAF6"></path>
                <path d="M12.6761865,19.9207587 C13.3380932,20.1813791 13.7163257,19.8338852 14,18.3570362 C13.9054419,18.6176566 13.7163257,18.0964158 13.0544189,18.0095423 C12.297954,17.9226688 11.9197216,18.4439096 12.0142797,18.9651505 C12.0142797,19.3126444 12.297954,19.8338852 12.6761865,19.9207587" id="Fill-67" fill="#D4FAF6"></path>
                <path d="M19.6347664,2.91697327 C20.3564883,3.16701326 20.872004,2.8336266 20.9751072,2.16768676 C21.0782103,1.58342665 20.872004,1.16669333 20.1502821,1 C19.325457,1 19.0161476,1.41673332 19.0161476,1.9168133 C18.9130444,2.33354662 19.325457,2.8336266 19.6347664,2.91697327" id="Fill-69" fill="#D4FAF6"></path>
                <path d="M20.0068966,14.9438242 C20.7793103,14.721205 21,14.0533475 21,13.2741804 C20.6689655,12.3837037 20.0068966,11.8271558 19.0137931,12.0486619 C18.2413793,12.2723942 17.9103448,12.9402517 18.0206897,13.7183057 C18.2413793,14.721205 19.0137931,15.1664434 20.0068966,14.9438242" id="Fill-71" fill="#D4FAF6"></path>
                <path d="M7.45070123,3 C8.22535062,2.88405589 9,2.54081542 9,1.62244625 C9,0.474484789 8.33601481,-0.0994959411 7.22937284,0.0141522434 C6.45472345,0.130096351 6.01206666,0.818873227 6.01206666,1.62244625 C5.90140246,2.6544636 6.56538765,3 7.45070123,3" id="Fill-73" fill="#D4FAF6"></path>
                <path d="M6,36.5338983 C6,37.3157186 6.66666667,37.8749607 7.44444444,37.9879276 C8.33333333,38.0986575 8.77777778,37.4286855 9,36.7564766 C9,35.9746562 8.55555556,35.3024473 7.77777778,35.0787505 C6.66666667,34.7432053 6,35.5272626 6,36.5338983" id="Fill-76" fill="#D4FAF6"></path>
                <path d="M6.03495161,48.8768658 C6.2615258,49.8642562 7.16782258,50.0847734 8.18740645,49.9739663 C9.09370322,49.7545462 9.8867129,49.315706 10,48.3283155 C9.66013871,47.3420222 8.75384193,47.0117949 7.84754516,47.0117949 C6.71467419,46.9020849 5.80837741,47.5603452 6.03495161,48.8768658" id="Fill-78" fill="#D4FAF6"></path>
                <path d="M8,25.1792064 C8,24.5492882 7.89473684,23.9193699 6.94736842,24.0084583 C6.42105263,24.0084583 6,24.2793232 6,24.8192531 C6,25.4491714 6.21052632,26.0790897 7.05263158,25.9882015 C7.68421053,26.0790897 8,25.6291481 8,25.1792064" id="Fill-80" fill="#D4FAF6"></path>
                <path d="M13.3905824,32.9572348 C14.2659233,33.1752552 14.7035937,32.521194 14.9224289,31.8671328 C15.2506818,30.7770308 14.4847585,30.34099 13.6094176,30.0139594 C12.6246591,29.9049492 12.1869887,30.4500002 12.0775711,31.1040614 C11.7493182,32.1941634 12.5152415,32.7392144 13.3905824,32.9572348" id="Fill-82" fill="#D4FAF6"></path>
                <path d="M12.7142857,43.9894354 C13.4642857,43.9894354 14,43.3240092 14,42.5500776 C14,41.5535992 13.3571429,41 12.2857143,41 C11.5357143,41.1096126 11,41.7750388 11,42.4393578 C11.1071429,43.3240092 11.75,44.1001553 12.7142857,43.9894354" id="Fill-84" fill="#D4FAF6"></path>
                <path d="M12.1216897,52.0484321 C11.3482677,52.1611482 10.9063124,52.942349 11.0168012,53.6108337 C11.2377789,54.6163507 12.0112008,55.1743513 12.8951116,54.9511511 C13.6685335,54.838435 13.8895112,54.0583502 14,53.3876335 C13.6685335,52.3843484 13.0056004,51.8263479 12.1216897,52.0484321" id="Fill-86" fill="#D4FAF6"></path>
                <path d="M59.0721073,20.8794774 C60.3115589,21.3322156 60.874946,20.4278711 60.9876234,19.5223948 C61.1003008,18.730103 60.4242363,18.2762329 59.7481718,18.0498639 C58.734075,17.8246266 58.1706879,18.3905493 58.0580105,19.1817093 C57.8326557,19.9740011 58.2833654,20.6542402 59.0721073,20.8794774" id="Fill-88" fill="#D4FAF6"></path>
                <path d="M48.7517847,7.93844881 C49.5461035,7.77097733 50,7.43603438 50,6.84988421 C49.7730518,6.26373404 49.2056811,5.92962844 48.4113623,6.01252682 C47.3900952,6.09626256 46.8227246,6.59867699 47.0496728,7.35229864 C47.2766211,7.93844881 47.9574658,8.10592029 48.7517847,7.93844881" id="Fill-90" fill="#D4FAF6"></path>
                <path d="M48.6610553,20.9770617 C49.3820255,21.0794937 50,20.8736054 50,19.6444215 C49.6910128,19.0308539 49.4850213,17.904102 48.1460766,18.006534 C47.4251064,18.1079416 46.9101277,18.7235579 47.0131234,19.4405818 C47.0131234,20.3614454 47.7340936,20.8736054 48.6610553,20.9770617" id="Fill-92" fill="#D4FAF6"></path>
                <path d="M47.013729,42.5 C47.013729,43.3076923 47.3748692,44 48.0068645,44 C48.6388598,44 48.909715,43.3076923 49,42.5 C48.909715,41.6923077 48.6388598,41 47.9165794,41 C47.2845841,41.1153846 46.9234439,41.6923077 47.013729,42.5" id="Fill-94" fill="#D4FAF6"></path>
                <path d="M49.9800298,31.4042801 C50.1085236,30.6551289 49.5945485,30.2824231 49.0805735,30.031875 C48.8235859,29.9084707 48.3096109,30.1577723 48.1811171,30.5317246 C47.7956358,31.0290813 48.0526233,31.6523352 48.6950922,31.9016367 C49.2090672,32.1521848 49.7230423,31.9016367 49.9800298,31.4042801" id="Fill-96" fill="#D4FAF6"></path>
                <path d="M42.6699127,3.9816959 C43.6241485,3.9816959 44.1012665,3.14801373 43.981987,2.31313888 C43.8627075,1.47707134 43.1470306,1 42.3120743,1 C41.3578384,1.12046051 41,1.83487485 41,2.66974971 C41.1192795,3.62389239 41.8349564,4.10215642 42.6699127,3.9816959" id="Fill-98" fill="#D4FAF6"></path>
                <path d="M42.4265337,14.9871436 C43.2737848,15.1041935 43.7579283,14.4018941 44,13.6984243 C43.8789641,12.8802455 43.6368924,12.2949961 42.7896413,12.0608963 C41.9423902,11.8267965 41.3372109,12.2949961 41.0951391,12.9972954 C40.7320315,14.1677943 41.4582467,14.7530438 42.4265337,14.9871436" id="Fill-100" fill="#D4FAF6"></path>
                <path d="M59.3767753,43.9890649 C60.6388193,44.1039848 61.0977444,43.2983967 60.9830132,42.2652674 C60.8682819,41.4608285 60.1798942,41 59.3767753,41 C58.4589251,41.116069 58,41.6906682 58,42.4951071 C58,43.2983967 58.5736564,43.8729959 59.3767753,43.9890649" id="Fill-102" fill="#D4FAF6"></path>
                <path d="M53.9090909,4 C54.3636364,4 54.7272727,3.11443509 55,2.78234825 C54.9090909,1.78608773 54.6363636,1.12191405 54,1.01232539 C53.2727273,0.900522825 53,1.56580346 53,2.3395658 C53.0909091,3.11443509 53.2727273,4 53.9090909,4" id="Fill-104" fill="#D4FAF6"></path>
                <path d="M54.1006225,25.9847875 C54.8201245,25.865396 54.9100623,25.149047 55,24.3133065 C54.9100623,23.477566 54.5503113,23 53.8308093,23 C53.1113073,23.1193915 52.9314319,23.8357405 53.0213696,24.671481 C53.0213696,25.5072215 53.4710583,26.104179 54.1006225,25.9847875" id="Fill-106" fill="#D4FAF6"></path>
                <path d="M54.0460246,14 C54.4133752,14 54.964401,13.601 54.964401,13.3 C55.1480763,12.5 54.5970505,12.2 53.8623494,12 C53.5868365,12.2 53.1276483,12.4 53.0358106,12.8 C52.8521354,13.601 53.4031612,14 54.0460246,14" id="Fill-108" fill="#D4FAF6"></path>
                <path d="M59.875,55 C61,55 61.875,54.4825802 62,53.5522594 C62,52.6198689 61.25,52.1024491 59.75,52 C58.875,52 58,52.412901 58,53.4477406 C58,54.2756123 58.625,54.896516 59.875,55" id="Fill-110" fill="#D4FAF6"></path>
                <path d="M60.1111111,8.98697267 C60.3888889,8.98697267 60.8518519,8.26890444 60.9444444,7.7921836 C61.1296296,6.95583125 60.8518519,6.23776302 60.1111111,6 C59.3703704,6 59,6.59739453 59,7.43255209 C59,8.38957813 59.3703704,9.10645157 60.1111111,8.98697267" id="Fill-112" fill="#D4FAF6"></path>
                <path d="M61.2645441,30.0801797 C60.6418774,29.8242036 60.143744,30.2081677 60.0192107,30.8481078 C59.8946773,31.4880479 60.3928107,31.8707321 61.0154774,32 C61.6381442,31.8707321 62.2608109,31.744024 61.8872109,30.9748159 C61.8872109,30.5908519 61.6381442,30.2081677 61.2645441,30.0801797" id="Fill-114" fill="#D4FAF6"></path>
                <path d="M41.8308093,23 C41.1113073,23.12 40.9314319,23.84 41.0213696,24.68 C41.0213696,25.52 41.4710583,26 42.1905603,26 C42.8201245,25.76 43,25.04 43,24.32 C42.9100623,23.48 42.4603735,23 41.8308093,23" id="Fill-116" fill="#D4FAF6"></path>
                <path d="M53.8094397,38 C54.5289417,38 54.8886927,37.5229019 54.9786304,36.6879804 C55.0685681,35.9723333 54.8886927,35.1374117 54.1691907,35.0181372 C53.5396265,34.8988627 53.0899377,35.3759607 53,36.2108823 C53,37.0458039 53.1798755,37.761451 53.8094397,38" id="Fill-118" fill="#D4FAF6"></path>
                <path d="M48.3383144,52 C47.5147363,52.1034483 47,52.6206897 47,53.3448276 C47.1029473,54.4827586 47.9265253,55 49.0589452,55 C49.8825233,55 50.1913651,54.2758621 49.8825233,53.6551724 C49.6766288,52.8275862 49.367787,52.1034483 48.3383144,52" id="Fill-120" fill="#D4FAF6"></path>
                <path d="M53.5555556,49.9880583 C54.4444444,50.0971784 54.7777778,49.4424577 55,48.6786169 C55,47.9147761 54.5555556,47.2600554 53.7777778,47.0418152 C52.6666667,46.823575 52,47.4782957 52,48.5694968 C52.1111111,49.4424577 52.7777778,49.877847 53.5555556,49.9880583" id="Fill-122" fill="#D4FAF6"></path>
                <path d="M53,60.3133062 C53,61.1490465 53.173913,61.8665892 53.8695652,61.9847867 C54.4782609,62.1041782 54.826087,61.5072209 55,60.6726745 C54.9130435,59.8369342 54.826087,59.1193915 54.1304348,59 C53.4347826,59 53,59.3581744 53,60.3133062" id="Fill-124" fill="#D4FAF6"></path>
            </g>
            <g id="Page-1" transform="translate(60.678233, 45.867559) scale(-1, 1) rotate(171.000000) translate(-60.678233, -45.867559) translate(40.678233, 29.867559)" stroke="#6BD1FF" stroke-linecap="round" stroke-linejoin="round" stroke-width="2">
                <g id="Group-7" transform="translate(0.000000, 0.680000)">
                    <polyline id="Stroke-1" points="-0.000150943396 28.1506415 39.6979623 30.1883774 29.9621132 16.6034717"></polyline>
                    <polyline id="Stroke-3" points="-0.000150943396 28.1506415 28.0753208 -0.000301886792 29.9621132 16.6034717"></polyline>
                    <path d="M-0.000150943396,28.1506415 L29.9621132,16.6034717" id="Stroke-5"></path>
                </g>
                <polyline id="Stroke-8" points="33.2829434 21.7367547 36.4527547 14.7933585 29.3584151 11.5480755"></polyline>
            </g>
        </g>
    </g>
</svg>