<?xml version="1.0" encoding="utf-8"?>
<!-- Generator: Adobe Illustrator 21.1.0, SVG Export Plug-In . SVG Version: 6.00 Build 0)  -->
<svg version="1.1" id="Layer_1" xmlns="http://www.w3.org/2000/svg" xmlns:xlink="http://www.w3.org/1999/xlink" x="0px" y="0px"
	 viewBox="0 0 28 26" style="enable-background:new 0 0 28 26;" xml:space="preserve">
<path style="fill:none;stroke:#48578C;stroke-width:2;stroke-linecap:round;stroke-linejoin:round;stroke-miterlimit:10;" d="
	M6.6,17.8c-0.2-3.2-0.2-7,0-10.3C6.7,7.2,7,7,7.3,7l1.5,0c1,0,1.8-0.7,1.8-1.6l0-2.7C10.6,1.7,9.8,1,8.8,1L7.2,1
	C4.2,1,1.6,3.2,1.3,6l0,0c-0.4,4.6-0.4,9.2,0,13.9l0,0c0.3,2.9,2.8,5,5.9,5l1.6,0c1,0,1.8-0.7,1.8-1.6l0-2.7c0-0.9-0.8-1.6-1.8-1.6
	H7.3c-0.3,0-0.6-0.2-0.6-0.6C6.6,18.2,6.6,18,6.6,17.8z"/>
<path style="fill:none;stroke:#48578C;stroke-width:2;stroke-linecap:round;stroke-linejoin:round;stroke-miterlimit:10;" d="
	M21.4,17.8c0.2-3.2,0.2-7,0-10.3C21.3,7.2,21,7,20.7,7l-1.5,0c-1,0-1.8-0.7-1.8-1.6l0-2.7c0-0.9,0.8-1.6,1.8-1.6l1.6,0
	c3.1,0,5.6,2.2,5.9,5l0,0c0.4,4.6,0.4,9.2,0,13.9l0,0c-0.3,2.9-2.8,5-5.9,5l-1.6,0c-1,0-1.8-0.7-1.8-1.6l0-2.7
	c0-0.9,0.8-1.6,1.8-1.6h1.5c0.3,0,0.6-0.2,0.6-0.6C21.4,18.2,21.4,18,21.4,17.8z"/>
<g>
	<path style="fill:none;stroke:#2481D7;stroke-width:2;stroke-linecap:round;stroke-linejoin:round;stroke-miterlimit:10;" d="
		M10,13l2,2L10,13z"/>
	<path style="fill:none;stroke:#2481D7;stroke-width:2;stroke-linecap:round;stroke-linejoin:round;stroke-miterlimit:10;" d="
		M10,13l2-2L10,13z"/>
	<path style="fill:none;stroke:#2481D7;stroke-width:2;stroke-linecap:round;stroke-linejoin:round;stroke-miterlimit:10;" d="
		M18,13l-2,2L18,13z"/>
	<path style="fill:none;stroke:#2481D7;stroke-width:2;stroke-linecap:round;stroke-linejoin:round;stroke-miterlimit:10;" d="
		M18,13l-2-2L18,13z"/>
	
		<line style="fill:none;stroke:#2481D7;stroke-width:2;stroke-linejoin:round;stroke-miterlimit:10;" x1="11" y1="13" x2="17" y2="13"/>
</g>
</svg>
