<svg width="128pt" height="128pt" viewBox="0 0 1981.9354838709678 1981.9354838709678" xmlns="http://www.w3.org/2000/svg"><g fill="none" fill-rule="evenodd"><g stroke="#2481D7" stroke-width="80" stroke-linecap="round" stroke-linejoin="round"><path d="M1905.968 911.54l-993.452 993.452-836.548-836.629 993.451-993.371M1801.395 179.54l104.549 732M1069.395 74.968l732 104.548"/></g><path d="M1365.227 615.709l-36.84 36.839M760.101 1220.834l-36.838 36.839M800.688 936.707c-67.233 67.232-67.233 176.316 0 243.549 67.232 67.233 176.316 67.233 243.549 0 67.232-67.233 67.232-176.317 0-243.55-67.233-67.232-67.233-176.316 0-243.548 67.232-67.233 176.316-67.233 243.549 0 67.232 67.232 67.232 176.316 0 243.549" stroke="#85B8EA" stroke-width="80" stroke-linecap="round" stroke-linejoin="round"/><path d="M1611.115 450.404c-23.233 23.233-60.788 23.233-84.02 0-23.234-23.233-23.234-60.788 0-84.02 23.232-23.154 60.787-23.154 84.02 0 23.233 23.232 23.233 60.787 0 84.02" fill="#2481D7"/></g></svg>