<?xml version="1.0" encoding="UTF-8"?>
<svg width="193px" height="185px" viewBox="0 0 193 185" version="1.1" xmlns="http://www.w3.org/2000/svg" xmlns:xlink="http://www.w3.org/1999/xlink">
    <!-- Generator: Sketch 48.2 (47327) - http://www.bohemiancoding.com/sketch -->
    <title>Page 1</title>
    <desc>Created with Sketch.</desc>
    <defs></defs>
    <g id="homepage-copy-19" stroke="none" stroke-width="1" fill="none" fill-rule="evenodd" transform="translate(-194.000000, -2045.000000)" stroke-linecap="round" stroke-linejoin="round">
        <g id="Page-1" transform="translate(195.000000, 2047.000000)">
            <path d="M190,-0.0004 C190,27.3376 167.838,49.4996 140.5,49.4996 L50,49.4996 C22.662,49.4996 0.5,71.6616 0.5,98.9996 C0.5,126.3376 22.662,148.4996 50,148.4996 L127.982,148.4996 C132.155,148.4996 136.158,150.1576 139.108,153.1076 L143.75,157.7496" id="Stroke-1" stroke="#CEE7F9" stroke-width="3" stroke-dasharray="0,10"></path>
            <polyline id="Stroke-3" stroke="#48578C" stroke-width="2" points="175.5156 181.4771 141.6906 173.6381 153.1236 164.5741"></polyline>
            <polyline id="Stroke-5" stroke="#48578C" stroke-width="2" points="175.5156 181.4771 158.7096 151.0941 153.1236 164.5741"></polyline>
            <path d="M175.5156,181.4771 L153.1236,164.5741" id="Stroke-7" stroke="#48578C" stroke-width="2"></path>
            <polyline id="Stroke-9" stroke="#48578C" stroke-width="2" points="149.2783 167.5582 148.2903 160.9242 155.0453 159.9202"></polyline>
        </g>
    </g>
</svg>