<svg width="24pt" height="24pt" viewBox="0 0 2304 2304" xmlns="http://www.w3.org/2000/svg"><g fill="none" fill-rule="evenodd"><g stroke="#48578C" stroke-width="160" stroke-linecap="round" stroke-linejoin="round"><path d="M2027 1076.001l-950.022 950.022L277 1225.968l950.022-949.945M1926.999 376.001l99.978 700M1226.999 276l700 99.978"/></g><path d="M1509.898 793.102l-35.228 35.228M931.226 1371.774l-35.228 35.228M970.038 1100.067c-64.293 64.294-64.293 168.61 0 232.903 64.294 64.293 168.609 64.293 232.902 0 64.294-64.294 64.294-168.61 0-232.903-64.293-64.293-64.293-168.608 0-232.902 64.294-64.293 168.609-64.293 232.902 0 64.294 64.294 64.294 168.609 0 232.902" stroke="#2481D7" stroke-width="160" stroke-linecap="round" stroke-linejoin="round"/><path d="M1745.037 635.024c-22.217 22.217-58.13 22.217-80.348 0-22.217-22.217-22.217-58.13 0-80.348 22.218-22.141 58.13-22.141 80.348 0 22.217 22.217 22.217 58.13 0 80.348" fill="#48578C"/></g></svg>