<?xml version="1.0" encoding="UTF-8"?>
<svg width="271px" height="136px" viewBox="0 0 271 136" version="1.1" xmlns="http://www.w3.org/2000/svg" xmlns:xlink="http://www.w3.org/1999/xlink">
    <!-- Generator: Sketch 48.2 (47327) - http://www.bohemiancoding.com/sketch -->
    <title>Page 1</title>
    <desc>Created with Sketch.</desc>
    <defs></defs>
    <g id="Voice-Home-Copy-15" stroke="none" stroke-width="1" fill="none" fill-rule="evenodd" transform="translate(-881.000000, -525.000000)" stroke-linecap="round" stroke-linejoin="round">
        <g id="Group-12" transform="translate(812.784421, 252.015075)">
            <g id="Group-10" transform="translate(0.692706, 0.372996)">
                <g id="Page-1" transform="translate(196.941179, 338.410787) scale(-1, 1) rotate(20.000000) translate(-196.941179, -338.410787) translate(77.441179, 236.910787)">
                    <g id="Group-7" transform="translate(28.447879, 178.838654) rotate(18.000000) translate(-28.447879, -178.838654) translate(4.947879, 161.338654)" stroke="#2CE9D3" stroke-width="2">
                        <polyline id="Stroke-1" points="-0.0001749355 32.6251209 46.0078617 34.9867502 34.7245219 19.2425552"></polyline>
                        <polyline id="Stroke-3" points="-0.0001749355 32.6251209 32.5378281 -0.000349871001 34.7245219 19.2425552"></polyline>
                        <path d="M-0.0001749355,32.6251209 L34.7245219,19.2425552" id="Stroke-5"></path>
                        <polyline id="Stroke-8" points="38.4859926 24.2207399 42.1596381 16.1737069 33.9376696 12.4125937"></polyline>
                    </g>
                    <path d="M55.1070877,184.295074 C62.9791852,185.43303 84.4962517,187.531381 103.564221,174.324626 C120.882836,162.340669 135.227547,138.462848 128.405062,126.654702 C125.256223,121.230827 117.20919,117.470588 112.136061,119.831343 C107.325335,122.018036 104.876238,129.540263 106.188254,134.701735 C109.774432,149.396317 147.035693,159.97904 176.512325,151.844539 C209.225263,142.836236 239.926444,108.548003 238.264557,67.7880312 C237.214944,40.6730286 222.520362,14.8700423 198.904069,0.350395807" id="Stroke-9" stroke="#48578C" stroke-width="3" stroke-dasharray="1,7"></path>
                </g>
            </g>
        </g>
    </g>
</svg>