<?xml version="1.0" encoding="UTF-8"?>
<svg width="42px" height="140px" viewBox="0 0 42 140" version="1.1" xmlns="http://www.w3.org/2000/svg" xmlns:xlink="http://www.w3.org/1999/xlink">
    <!-- Generator: Sketch 41.2 (35397) - http://www.bohemiancoding.com/sketch -->
    <title>Artboard</title>
    <desc>Created with Sketch.</desc>
    <defs></defs>
    <g id="Page-1" stroke="none" stroke-width="1" fill="none" fill-rule="evenodd">
        <g id="Artboard">
            <g id="stackoverflow" fill="#E4E5E8">
                <polygon id="Shape" points="35.322 45.5084746 35.322 32.1186441 39.732 32.1186441 39.732 49.9576271 0 49.9576271 0 32.1186441 4.41 32.1186441 4.41 45.5084746"></polygon>
                <path d="M9.282,30.8898305 L30.912,35.4661017 L31.836,31.1016949 L10.206,26.5254237 L9.282,30.8898305 Z M12.138,20.4661017 L32.172,29.8728814 L34.02,25.8474576 L13.986,16.3983051 L12.138,20.4661017 Z M17.682,10.5508475 L34.65,24.8305085 L37.464,21.3983051 L20.496,7.11864407 L17.682,10.5508475 Z M28.644,0 L25.116,2.66949153 L38.304,20.5508475 L41.832,17.8813559 L28.644,0 Z M8.82,41.0169492 L30.912,41.0169492 L30.912,36.5677966 L8.82,36.5677966 L8.82,41.0169492 L8.82,41.0169492 Z" id="Shape"></path>
            </g>
            <g id="google" transform="translate(0.000000, 65.000000)">
                <path d="M13.72,7.15898305 C13.72,6.66275424 13.6755085,6.18521186 13.5927542,5.72724576 L7,5.72724576 L7,8.435 L10.7672458,8.435 C10.605,9.31 10.1117373,10.0512288 9.37050847,10.5477542 L9.37050847,12.3039831 L11.6327542,12.3039831 C12.9565254,11.0852119 13.72,9.29072034 13.72,7.15898305 L13.72,7.15898305 Z" id="Shape" fill="#FFFFFF"></path>
                <path d="M7,14 C8.89,14 10.4744915,13.3732627 11.6327542,12.3039831 L9.37050847,10.5477542 C8.74377119,10.9677542 7.94173729,11.2160169 7,11.2160169 C5.17673729,11.2160169 3.63377119,9.98478814 3.08326271,8.33 L0.744491525,8.33 L0.744491525,10.1437712 C1.89622881,12.4315254 4.26347458,14 7,14 L7,14 Z" id="Shape" fill="#FFFFFF"></path>
                <path d="M3.08326271,8.33 C2.94326271,7.91 2.86377119,7.46122881 2.86377119,7 C2.86377119,6.53877119 2.94326271,6.09 3.08326271,5.67 L3.08326271,3.85622881 L0.744491525,3.85622881 C0.270508475,4.80122881 0,5.87050847 0,7 C0,8.12949153 0.270508475,9.19877119 0.744491525,10.1437712 L3.08326271,8.33 L3.08326271,8.33 Z" id="Shape" fill="#FFFFFF"></path>
                <path d="M7,2.78398305 C8.02775424,2.78398305 8.95050847,3.13724576 9.67601695,3.83072034 L11.6837712,1.8229661 C10.4712288,0.693771186 8.88673729,0 7,0 C4.26377119,0 1.89622881,1.56877119 0.744491525,3.85622881 L3.08326271,5.67 C3.63377119,4.01550847 5.1770339,2.78398305 7,2.78398305 Z" id="Shape" fill="#FFFFFF"></path>
                <polygon id="Shape" points="0 0 14 0 14 14 0 14"></polygon>
            </g>
            <g id="facebook" transform="translate(0.000000, 100.000000)" fill="#FFFFFF">
                <path d="M5.03820225,14.9949812 L5.03820225,8.34197152 L7.117603,8.34197152 L7.42921348,5.74897065 L5.03820225,5.74897065 L5.03820225,4.0953696 C5.03820225,3.3425629 5.22996255,2.83425752 6.23670412,2.83425752 L7.51310861,2.83425752 L7.51310861,0.517929199 C7.29138577,0.485757972 6.53033708,0.414981273 5.6494382,0.414981273 C3.80374532,0.414981273 2.54531835,1.6246194 2.54531835,3.83799979 L2.54531835,5.74897065 L0.459925094,5.74897065 L0.459925094,8.34197152 L2.54531835,8.34197152 L2.54531835,14.9949812 L5.03820225,14.9949812 Z" id="f"></path>
            </g>
        </g>
    </g>
</svg>