<?xml version="1.0" encoding="utf-8"?>
<!-- Generator: Adobe Illustrator 16.0.0, SVG Export Plug-In . SVG Version: 6.00 Build 0)  -->
<!DOCTYPE svg PUBLIC "-//W3C//DTD SVG 1.1//EN" "http://www.w3.org/Graphics/SVG/1.1/DTD/svg11.dtd">
<svg version="1.1" id="Layer_1" xmlns="http://www.w3.org/2000/svg" xmlns:xlink="http://www.w3.org/1999/xlink" x="0px" y="0px"
	 width="304px" height="608px" viewBox="0 0 304 608" enable-background="new 0 0 304 608" xml:space="preserve">
<path fill="#EBF5FF" d="M264,0H40C17.909,0,0,17.909,0,40v528c0,22.092,17.909,40,40,40h224c22.092,0,40-17.908,40-40V40
	C304,17.909,286.092,0,264,0z M124.1,32h55.8c3.312,0,6,2.686,6,6s-2.688,6-6,6h-55.8c-3.313,0-6-2.686-6-6S120.786,32,124.1,32z
	 M152,576c-14.912,0-27-12.089-27-27s12.088-27,27-27c14.911,0,27,12.089,27,27S166.911,576,152,576z M280,490H24V76h256V490z"/>
</svg>
