<?xml version="1.0" encoding="UTF-8" standalone="no"?>
<svg width="40px" height="44px" viewBox="0 0 40 44" version="1.1" xmlns="http://www.w3.org/2000/svg" xmlns:xlink="http://www.w3.org/1999/xlink" xmlns:sketch="http://www.bohemiancoding.com/sketch/ns">
    <!-- Generator: Sketch 3.2.2 (9983) - http://www.bohemiancoding.com/sketch -->
    <title>Imported Layers</title>
    <desc>Created with Sketch.</desc>
    <defs></defs>
    <g id="notificaties" stroke="none" stroke-width="1" fill="none" fill-rule="evenodd" sketch:type="MSPage">
        <g id="error-2" sketch:type="MSLayerGroup" transform="translate(-35.000000, -25.000000)" fill="#CD2C23">
            <path d="M72.7030209,59.6661887 L61.2130209,46.5857359 L72.7030209,33.5036227 C74.6546875,31.5576604 74.6546875,28.4037737 72.7030209,26.4578114 C70.7488542,24.5135095 67.5830209,24.5143397 65.6305209,26.4586416 L54.5830209,39.0376604 L43.5363542,26.4586416 C41.5838542,24.5143397 38.4180209,24.5135095 36.4638542,26.4578114 C34.5121875,28.4037737 34.5121875,31.5576604 36.4638542,33.5036227 L47.9538542,46.5857359 L36.4638542,59.6661887 C34.5121875,61.6113208 34.5121875,64.7652076 36.4630209,66.7111699 C38.4163542,68.6571321 41.5821875,68.6571321 43.5363542,66.7111699 L54.5830209,54.1313208 L65.6305209,66.7111699 C67.5846875,68.6571321 70.7505209,68.6571321 72.7038542,66.7111699 C74.6546875,64.7652076 74.6546875,61.6113208 72.7030209,59.6661887" id="Imported-Layers" sketch:type="MSShapeGroup"></path>
        </g>
    </g>
</svg>