<?xml version="1.0" encoding="utf-8"?>
<!-- Generator: Adobe Illustrator 19.2.1, SVG Export Plug-In . SVG Version: 6.00 Build 0)  -->
<svg version="1.1" id="Layer_1" xmlns="http://www.w3.org/2000/svg" xmlns:xlink="http://www.w3.org/1999/xlink" x="0px" y="0px"
	 width="174px" height="141px" viewBox="0 0 174 141" style="enable-background:new 0 0 174 141;" xml:space="preserve">
<style type="text/css">
	.st0{fill:#F4F8FB;}
	.st1{fill:#FFFFFF;}
	.st2{fill:#51AAF1;}
	.st3{fill:#D2EBFD;}
	.st4{fill:#FFC522;}
	.st5{fill:#F38021;}
	.st6{fill:#FFCC01;}
	.st7{fill:#F48024;}
	.st8{fill:#7BC8EF;}
</style>
<g>
	<g>
		<g>
			<circle class="st0" cx="71.7" cy="-97.9" r="65.7"/>
		</g>
		<g>
			<path class="st1" d="M126.2-131.6H30.6c-3.4,0-6.1,2.7-6.1,6.1v61.4h14.9v19.2l19.2-19.2h71.5v-63.5
				C130.2-129.8,128.4-131.6,126.2-131.6z"/>
			<path class="st2" d="M39-43.6v-19.9H24.1v-61.9c0-3.6,3-6.6,6.6-6.6h95.6c2.5,0,4.5,2,4.5,4.5v64H58.9L39-43.6z M25.1-64.6H40
				v18.5l18.5-18.5h71.2v-63c0-1.9-1.6-3.5-3.5-3.5H30.6c-3.1,0-5.6,2.5-5.6,5.6V-64.6z"/>
		</g>
		<g>
			<rect x="60.2" y="-116.4" class="st3" width="33" height="5.7"/>
		</g>
		<g>
			<rect x="60.2" y="-107.1" class="st3" width="51.1" height="4.7"/>
		</g>
		<g>
			<rect x="60.2" y="-97.9" class="st3" width="51.1" height="4.7"/>
		</g>
		<g>
			<rect x="60.2" y="-88.8" class="st3" width="17" height="4.7"/>
		</g>
		<g>
			<g id="XMLID_5_">
				<path class="st4" d="M96.4-77.3l52.1-52.1c1.1-1.1,1.1-2.9,0-4l-4-4c-1.1-1.1-2.9-1.1-4,0L88.4-85.4l-4,12L96.4-77.3z"/>
			</g>
			<g id="XMLID_4_">
				<path class="st5" d="M87.6-68.5L92-81.6l52.2-52.2c1.3-1.3,3.4-1.3,4.7,0l4,4c0.6,0.6,1,1.5,1,2.4s-0.3,1.7-1,2.4l-52.2,52.2
					L87.6-68.5z M92.9-81.1l-3.7,11l11-3.7l52-52c0.4-0.4,0.7-1,0.7-1.7s-0.2-1.2-0.7-1.7l-4-4c-0.9-0.9-2.4-0.9-3.3,0L92.9-81.1z"
					/>
			</g>
			<g id="XMLID_3_">
				
					<rect x="143.7" y="-131.3" transform="matrix(0.7071 -0.7071 0.7071 0.7071 131.0867 65.1229)" class="st5" width="1" height="11.3"/>
			</g>
			<g id="XMLID_2_">
				
					<rect x="95.9" y="-83" transform="matrix(0.7071 -0.7071 0.7071 0.7071 82.9348 45.5338)" class="st5" width="1" height="11.3"/>
			</g>
			<g id="XMLID_1_">
				
					<rect x="97.5" y="-104.7" transform="matrix(0.7071 -0.7071 0.7071 0.7071 109.796 56.6591)" class="st5" width="51.6" height="1"/>
			</g>
		</g>
		<g>
			<g>
				<g>
					<path class="st6" d="M24.5-150.6c0,0,0.1,0.1,0.1,0.2v0.7c0,0.1,0,0.1-0.1,0.2c0,0-0.1,0.1-0.2,0.1H21v3.4c0,0.1,0,0.1-0.1,0.2
						c0,0-0.1,0.1-0.2,0.1H20c-0.1,0-0.1,0-0.2-0.1c0,0-0.1-0.1-0.1-0.2v-3.4h-3.4c-0.1,0-0.1,0-0.2-0.1c0,0-0.1-0.1-0.1-0.2v-0.7
						c0-0.1,0-0.1,0.1-0.2c0,0,0.1-0.1,0.2-0.1h3.4v-3.3c0-0.1,0-0.1,0.1-0.2s0.1-0.1,0.2-0.1h0.7c0.1,0,0.1,0,0.2,0.1
						s0.1,0.1,0.1,0.2v3.3h3.3C24.3-150.6,24.4-150.6,24.5-150.6z"/>
				</g>
			</g>
			<g>
				<g>
					<path class="st7" d="M0.9-135.1c-0.1,0-0.1-0.1-0.1-0.2c0-0.1,0-0.1,0-0.1L1-136c0.1-0.1,0.1-0.1,0.2-0.1c0,0,0.1,0,0.1,0
						l1.7,0.6L2.9-137v0c0-0.1,0-0.1,0.1-0.2c0,0,0.1-0.1,0.2-0.1h0.6c0.1,0,0.1,0,0.2,0.1c0,0,0.1,0.1,0,0.2l-0.1,1.5l1.6-0.6
						c0.1,0,0.1,0,0.2,0c0.1,0,0.2,0,0.2,0.1l0.2,0.5c0,0.1,0,0.1,0,0.1c0,0.1-0.1,0.2-0.2,0.2l-2.5,0.7L0.9-135.1z M2.9-131.4
						c0,0-0.1-0.1-0.1-0.2l0.1-1.5l-1.7,0.6c-0.1,0-0.1,0-0.1,0c-0.1,0-0.2,0-0.2-0.1l-0.2-0.5c0,0,0-0.1,0-0.1c0-0.1,0-0.2,0.1-0.2
						l2.5-0.7l2.5,0.7c0.1,0,0.2,0.1,0.2,0.2c0,0,0,0.1,0,0.1l-0.2,0.5c0,0.1-0.1,0.1-0.2,0.1c0,0-0.1,0-0.2,0l-1.6-0.6l0.1,1.5v0
						c0,0.1,0,0.1-0.1,0.2c0,0-0.1,0.1-0.2,0.1H3.1C3-131.4,3-131.4,2.9-131.4z"/>
				</g>
			</g>
			<g>
				<circle class="st7" cx="44.8" cy="-148.5" r="1.5"/>
			</g>
		</g>
		<g>
			<g>
				<g>
					<path class="st7" d="M81.5-148.7c-0.2-0.1-0.3-0.2-0.3-0.5c0-0.1,0-0.2,0-0.3l0.4-1c0.1-0.2,0.3-0.3,0.5-0.3
						c0.1,0,0.2,0,0.3,0.1l3.3,1.3l-0.3-3v-0.1c0-0.1,0-0.2,0.1-0.3c0.1-0.1,0.2-0.1,0.3-0.1h1.2c0.2,0,0.3,0,0.4,0.1
						c0.1,0.1,0.1,0.2,0.1,0.4l-0.2,3l3.2-1.3c0.1,0,0.2-0.1,0.3-0.1c0.2,0,0.3,0.1,0.4,0.3l0.4,1c0,0.1,0.1,0.2,0.1,0.3
						c0,0.2-0.1,0.3-0.3,0.4l-5,1.5L81.5-148.7z M85.5-141.3c-0.1-0.1-0.1-0.2-0.1-0.4l0.3-3l-3.3,1.3c-0.1,0-0.2,0.1-0.3,0.1
						c-0.2,0-0.3-0.1-0.4-0.3l-0.4-1c0-0.1,0-0.2,0-0.3c0-0.2,0.1-0.4,0.3-0.5l5-1.4l5,1.5c0.2,0.1,0.3,0.2,0.3,0.4
						c0,0,0,0.1-0.1,0.3l-0.4,1c-0.1,0.2-0.2,0.3-0.4,0.3c-0.1,0-0.2,0-0.3-0.1l-3.2-1.3l0.2,3v0.1c0,0.2,0,0.3-0.1,0.3
						c-0.1,0.1-0.2,0.1-0.3,0.1h-1.2C85.8-141.1,85.6-141.2,85.5-141.3z"/>
				</g>
			</g>
			<g>
				<path class="st7" d="M119.4-156.3c-2.2,0-3.9-1.8-3.9-3.9c0-2.2,1.8-3.9,3.9-3.9c2.2,0,3.9,1.8,3.9,3.9
					C123.3-158,121.6-156.3,119.4-156.3z M119.4-163.1c-1.6,0-2.9,1.3-2.9,2.9c0,1.6,1.3,2.9,2.9,2.9c1.6,0,2.9-1.3,2.9-2.9
					C122.3-161.8,121-163.1,119.4-163.1z"/>
			</g>
		</g>
	</g>
	<g>
		<g>
			<path class="st8" d="M54.6-96c0.1,0.1,0.2,0.2,0.2,0.4v1.8c0,0.2-0.1,0.3-0.2,0.4c-0.1,0.1-0.2,0.2-0.4,0.2h-1.3
				c-0.7,0-1.3-0.1-1.8-0.3c-0.6-0.2-1.1-0.5-1.5-0.7c-0.4-0.3-1-0.7-1.7-1.3l-1.9-1.5c-0.4-0.3-0.7-0.5-1-0.6
				c-0.3-0.1-0.7-0.2-1.3-0.2c-1.2,0-2.4-0.3-3.4-0.9c-1-0.6-1.9-1.4-2.5-2.5c-0.6-1-0.9-2.2-0.9-3.4v-5.5c0-1.2,0.3-2.4,0.9-3.4
				c0.6-1,1.4-1.9,2.5-2.5c1-0.6,2.2-0.9,3.4-0.9s2.4,0.3,3.4,0.9c1,0.6,1.9,1.4,2.5,2.5c0.6,1,0.9,2.2,0.9,3.4v5.5
				c0,1.1-0.2,2.1-0.7,3c-0.5,0.9-1.1,1.7-1.9,2.3l1.3,1.1c0,0,0.1,0.1,0.5,0.4c0.7,0.6,1.3,1,1.8,1.3c0.4,0.3,0.9,0.4,1.4,0.4h1.3
				C54.3-96.1,54.5-96.1,54.6-96z M40.4-102.7c0.3,0.6,0.8,1,1.4,1.4c0.6,0.3,1.2,0.5,1.8,0.5c0.7,0,1.3-0.2,1.8-0.5
				c0.6-0.3,1-0.8,1.4-1.4c0.3-0.6,0.5-1.2,0.5-1.9v-5.5c0-0.7-0.2-1.3-0.5-1.9c-0.3-0.6-0.8-1-1.4-1.4c-0.6-0.3-1.2-0.5-1.8-0.5
				c-0.7,0-1.3,0.2-1.8,0.5c-0.6,0.3-1,0.8-1.4,1.4c-0.3,0.6-0.5,1.2-0.5,1.9v5.5C39.9-104,40.1-103.3,40.4-102.7z"/>
		</g>
	</g>
</g>
<g>
	<g>
		<circle class="st0" cx="94.5" cy="73.3" r="65.8"/>
	</g>
	<g>
		<g id="XMLID_42_">
			<path class="st1" d="M129.2,31.6h21.3c2.1,0,3.9,1.7,3.9,3.9v81.1c0,2.1-1.7,3.9-3.9,3.9H38.4c-2.1,0-3.9-1.7-3.9-3.9V35.5
				c0-2.1,1.7-3.9,3.9-3.9h21.3"/>
			<path class="st2" d="M150.5,121H38.4c-2.4,0-4.4-2-4.4-4.4V35.5c0-2.4,2-4.4,4.4-4.4h21.3v1H38.4c-1.9,0-3.4,1.5-3.4,3.4v81.1
				c0,1.9,1.5,3.4,3.4,3.4h112.1c1.9,0,3.4-1.5,3.4-3.4V35.5c0-1.9-1.5-3.4-3.4-3.4h-21.3v-1h21.3c2.4,0,4.4,2,4.4,4.4v81.1
				C154.9,119,152.9,121,150.5,121z"/>
		</g>
		<g id="XMLID_36_">
			<polyline class="st3" points="129.2,39.3 146.6,39.3 146.6,101.2 42.3,101.2 42.3,39.3 59.7,39.3 			"/>
			<polygon class="st2" points="147.1,101.7 41.8,101.7 41.8,38.8 59.7,38.8 59.7,39.8 42.8,39.8 42.8,100.7 146.1,100.7 
				146.1,39.8 129.2,39.8 129.2,38.8 147.1,38.8 			"/>
		</g>
		<g id="XMLID_35_">
			<polygon class="st1" points="108,139.8 80.9,139.8 84.8,120.5 104.1,120.5 			"/>
			<path class="st2" d="M108.6,140.3H80.3l4.1-20.3h20.1L108.6,140.3z M81.6,139.3h25.8l-3.7-18.3H85.2L81.6,139.3z"/>
		</g>
		<g id="XMLID_34_">
			<line class="st1" x1="34.6" y1="108.9" x2="154.4" y2="108.9"/>
			<rect x="34.6" y="108.4" class="st2" width="119.8" height="1"/>
		</g>
		<g id="XMLID_33_">
			<line class="st1" x1="73.2" y1="139.8" x2="115.7" y2="139.8"/>
			<rect x="73.2" y="139.3" class="st2" width="42.5" height="1"/>
		</g>
		<g>
			<circle class="st1" cx="94.1" cy="114.9" r="1.5"/>
			<path class="st2" d="M94.1,116.8c-1.1,0-2-0.9-2-2s0.9-2,2-2s2,0.9,2,2S95.2,116.8,94.1,116.8z M94.1,113.9c-0.5,0-1,0.4-1,1
				s0.4,1,1,1s1-0.4,1-1S94.6,113.9,94.1,113.9z"/>
		</g>
	</g>
	<g>
		<g>
			<g>
				<path class="st6" d="M5.1,38.1c0,0-0.1,0.1-0.2,0.1H4.1c-0.1,0-0.1,0-0.2-0.1c0,0-0.1-0.1-0.1-0.2v-3.6H0.3
					c-0.1,0-0.1,0-0.2-0.1c0,0-0.1-0.1-0.1-0.2v-0.8c0-0.1,0-0.1,0.1-0.2c0,0,0.1-0.1,0.2-0.1h3.6v-3.6c0-0.1,0-0.1,0.1-0.2
					c0,0,0.1-0.1,0.2-0.1h0.8c0.1,0,0.1,0,0.2,0.1c0,0,0.1,0.1,0.1,0.2v3.6h3.6c0.1,0,0.1,0,0.2,0.1c0,0,0.1,0.1,0.1,0.2v0.8
					c0,0.1,0,0.1-0.1,0.2c0,0-0.1,0.1-0.2,0.1H5.2v3.6C5.2,38,5.1,38.1,5.1,38.1z"/>
			</g>
		</g>
		<g>
			<g>
				<path class="st7" d="M29.2,8.1C29,8.1,29,7.9,29,7.7c0-0.1,0-0.2,0-0.2l0.3-0.8c0.1-0.2,0.2-0.2,0.4-0.2c0.1,0,0.1,0,0.2,0.1
					l2.7,1l-0.2-2.4V5.1c0-0.1,0-0.2,0.1-0.3c0.1-0.1,0.2-0.1,0.3-0.1h1c0.1,0,0.2,0,0.3,0.1C34,4.9,34.1,5,34.1,5.2l-0.2,2.4l2.6-1
					c0.1,0,0.2-0.1,0.3-0.1c0.2,0,0.3,0.1,0.3,0.2l0.3,0.8c0,0.1,0.1,0.2,0.1,0.2c0,0.2-0.1,0.3-0.3,0.3l-4,1.2L29.2,8.1z
					 M32.4,14.1c-0.1-0.1-0.1-0.2-0.1-0.3l0.2-2.4l-2.7,1c-0.1,0-0.2,0.1-0.2,0.1c-0.1,0-0.3-0.1-0.3-0.2L29,11.4c0-0.1,0-0.1,0-0.2
					c0-0.2,0.1-0.3,0.2-0.4l4-1.1l4,1.2c0.2,0.1,0.3,0.2,0.3,0.3c0,0,0,0.1-0.1,0.2l-0.3,0.8c-0.1,0.1-0.2,0.2-0.3,0.2
					c-0.1,0-0.2,0-0.3-0.1l-2.6-1l0.2,2.4v0.1c0,0.1,0,0.2-0.1,0.3c-0.1,0.1-0.2,0.1-0.3,0.1h-1C32.6,14.2,32.5,14.1,32.4,14.1z"/>
			</g>
		</g>
		<g>
			<circle class="st7" cx="16.3" cy="52" r="1.6"/>
		</g>
	</g>
	<g>
		<g>
			<polyline class="st1" points="59.8,100.2 59.8,6.6 129.2,6.6 129.2,100.2 			"/>
			<polygon class="st5" points="129.7,100.2 128.7,100.2 128.7,7.1 60.3,7.1 60.3,100.2 59.3,100.2 59.3,6.1 129.7,6.1 			"/>
		</g>
		<g>
			<line class="st1" x1="75.8" y1="41.6" x2="75.8" y2="51.8"/>
			<rect x="75.3" y="41.6" class="st5" width="1" height="10.3"/>
		</g>
		<g>
			<line class="st1" x1="86.4" y1="78" x2="117.8" y2="78"/>
			<rect x="86.4" y="77.5" class="st5" width="31.5" height="1"/>
		</g>
		<g>
			<g>
				<path class="st4" d="M67.4,29.1L67.4,29.1c-8,0-14.6-6.5-14.6-14.6v0c0-8,6.5-14.6,14.6-14.6h0C75.4,0,82,6.5,82,14.6v0
					C82,22.6,75.4,29.1,67.4,29.1z"/>
			</g>
			<g>
				<path class="st1" d="M77.1,25.9h-1c0-4.8-3.9-8.7-8.7-8.7s-8.7,3.9-8.7,8.7h-1c0-5.4,4.4-9.7,9.7-9.7S77.1,20.5,77.1,25.9z"/>
			</g>
			<g>
				<path class="st1" d="M67.4,15.1c-2.9,0-5.2-2.3-5.2-5.2s2.3-5.2,5.2-5.2s5.2,2.3,5.2,5.2S70.3,15.1,67.4,15.1z M67.4,5.7
					c-2.3,0-4.2,1.9-4.2,4.2s1.9,4.2,4.2,4.2s4.2-1.9,4.2-4.2S69.7,5.7,67.4,5.7z"/>
			</g>
		</g>
		<g>
			<line class="st1" x1="86.4" y1="33.3" x2="117.8" y2="33.3"/>
			<rect x="86.4" y="32.8" class="st5" width="31.5" height="1"/>
		</g>
		<g>
			<line class="st1" x1="86.4" y1="38" x2="117.8" y2="38"/>
			<rect x="86.4" y="37.5" class="st5" width="31.5" height="1"/>
		</g>
		<g>
			<line class="st1" x1="86.4" y1="42.7" x2="100.9" y2="42.7"/>
			<rect x="86.4" y="42.2" class="st5" width="14.5" height="1"/>
		</g>
		<g>
			<line class="st1" x1="86.4" y1="53.6" x2="117.8" y2="53.6"/>
			<rect x="86.4" y="53.1" class="st5" width="31.5" height="1"/>
		</g>
		<g>
			<line class="st1" x1="86.4" y1="58.2" x2="117.8" y2="58.2"/>
			<rect x="86.4" y="57.7" class="st5" width="31.5" height="1"/>
		</g>
		<g>
			<line class="st1" x1="86.4" y1="62.9" x2="100.9" y2="62.9"/>
			<rect x="86.4" y="62.4" class="st5" width="14.5" height="1"/>
		</g>
		<g>
			<line class="st1" x1="86.4" y1="73.6" x2="117.8" y2="73.6"/>
			<rect x="86.4" y="73.1" class="st5" width="31.5" height="1"/>
		</g>
		<g>
			<line class="st1" x1="86.4" y1="83" x2="100.9" y2="83"/>
			<rect x="86.4" y="82.5" class="st5" width="14.5" height="1"/>
		</g>
		<g>
			<line class="st1" x1="87" y1="20.5" x2="109.5" y2="20.5"/>
			<rect x="87" y="20" class="st5" width="22.5" height="1"/>
		</g>
		<g>
			<circle class="st6" cx="76.6" cy="37.8" r="2.3"/>
		</g>
		<g>
			<circle class="st6" cx="76.6" cy="57.7" r="2.3"/>
		</g>
		<g>
			<circle class="st6" cx="76.6" cy="78.3" r="2.3"/>
		</g>
		<g>
			<path class="st5" d="M75.8,38.8c-1.5,0-2.8-1.3-2.8-2.8s1.3-2.8,2.8-2.8c1.5,0,2.8,1.3,2.8,2.8S77.3,38.8,75.8,38.8z M75.8,34.2
				c-1,0-1.8,0.8-1.8,1.8s0.8,1.8,1.8,1.8s1.8-0.8,1.8-1.8S76.8,34.2,75.8,34.2z"/>
		</g>
		<g>
			<path class="st5" d="M75.8,58.8c-1.5,0-2.8-1.3-2.8-2.8c0-1.5,1.3-2.8,2.8-2.8c1.5,0,2.8,1.3,2.8,2.8
				C78.6,57.5,77.3,58.8,75.8,58.8z M75.8,54.2c-1,0-1.8,0.8-1.8,1.8s0.8,1.8,1.8,1.8s1.8-0.8,1.8-1.8S76.8,54.2,75.8,54.2z"/>
		</g>
		<g>
			<path class="st5" d="M75.8,79.4c-1.5,0-2.8-1.3-2.8-2.8c0-1.5,1.3-2.8,2.8-2.8c1.5,0,2.8,1.3,2.8,2.8
				C78.6,78.1,77.3,79.4,75.8,79.4z M75.8,74.7c-1,0-1.8,0.8-1.8,1.8s0.8,1.8,1.8,1.8s1.8-0.8,1.8-1.8S76.8,74.7,75.8,74.7z"/>
		</g>
		<g>
			<line class="st1" x1="75.8" y1="61.7" x2="75.8" y2="72"/>
			<rect x="75.3" y="61.7" class="st5" width="1" height="10.3"/>
		</g>
		<g>
			<line class="st1" x1="75.8" y1="82.3" x2="75.8" y2="100.2"/>
			<rect x="75.3" y="82.3" class="st5" width="1" height="17.9"/>
		</g>
	</g>
	<g>
		<g>
			<g>
				<path class="st6" d="M146.1,18.3c0,0-0.1,0.1-0.1,0.1h-0.6c-0.1,0-0.1,0-0.1-0.1c0,0,0-0.1,0-0.1v-2.7h-2.8c-0.1,0-0.1,0-0.1,0
					s-0.1-0.1-0.1-0.1v-0.6c0-0.1,0-0.1,0.1-0.1c0,0,0.1,0,0.1,0h2.8v-2.8c0-0.1,0-0.1,0-0.1c0,0,0.1-0.1,0.1-0.1h0.6
					c0.1,0,0.1,0,0.1,0.1c0,0,0,0.1,0,0.1v2.8h2.7c0.1,0,0.1,0,0.1,0c0,0,0.1,0.1,0.1,0.1v0.6c0,0.1,0,0.1-0.1,0.1s-0.1,0-0.1,0
					h-2.7v2.7C146.2,18.2,146.2,18.2,146.1,18.3z"/>
			</g>
		</g>
		<g>
			<circle class="st1" cx="170.4" cy="16.7" r="2.7"/>
			<path class="st5" d="M170.4,19.9c-1.7,0-3.2-1.4-3.2-3.2s1.4-3.2,3.2-3.2s3.2,1.4,3.2,3.2S172.1,19.9,170.4,19.9z M170.4,14.5
				c-1.2,0-2.2,1-2.2,2.2s1,2.2,2.2,2.2s2.2-1,2.2-2.2S171.6,14.5,170.4,14.5z"/>
		</g>
		<g>
			<circle class="st7" cx="168.5" cy="43.3" r="1.9"/>
		</g>
	</g>
</g>
<g>
	<g>
		<circle class="st0" cx="78.1" cy="264.5" r="65.8"/>
	</g>
	<g id="XMLID_6_">
		<g id="XMLID_32_">
			<path class="st1" d="M45.3,224h88.1V305H34.7c-5.8,0-10.6-4.7-10.6-10.6V224c0-5.8,4.7-10.6,10.6-10.6S45.3,218.2,45.3,224v70.5
				c0-5.8-4.7-10.6-10.6-10.6s-10.6,4.7-10.6,10.6"/>
			<path class="st2" d="M133.9,305.5H34.7c-6.1,0-11.1-5-11.1-11.1V224c0-6.1,5-11.1,11.1-11.1c5.9,0,10.8,4.7,11.1,10.6h88.1V305.5
				z M24.6,294.5c0,5.6,4.5,10.1,10.1,10.1h98.2v-80H45.8v70h-1c0-5.6-4.5-10.1-10.1-10.1S24.6,288.9,24.6,294.5z M34.7,213.9
				c-5.6,0-10.1,4.5-10.1,10.1v65.9c1.7-3.8,5.6-6.5,10.1-6.5s8.3,2.7,10.1,6.5V224C44.8,218.4,40.2,213.9,34.7,213.9z"/>
		</g>
		<g id="XMLID_31_">
			<polygon class="st4" points="64.6,283.9 71.7,292.7 57.6,292.7 			"/>
		</g>
		<g id="XMLID_30_">
			<polygon class="st4" points="103.4,259.2 110.5,268 96.4,268 			"/>
		</g>
		<g id="XMLID_29_">
			<path class="st4" d="M85.8,248.7c0,0-10.6-17.1-10.6-22.9c0-5.8,4.7-10.6,10.6-10.6c5.8,0,10.6,4.7,10.6,10.6
				C96.4,231.6,85.8,248.7,85.8,248.7z"/>
		</g>
		<g id="XMLID_28_">
			<line class="st1" x1="68.6" y1="224" x2="45.3" y2="224"/>
			<rect x="45.3" y="223.5" class="st2" width="23.4" height="1"/>
		</g>
		<g id="XMLID_27_">
			<path class="st5" d="M133.4,274.3h-1.8c-0.6,0-1-0.4-1-1s0.4-1,1-1h1.8c0.6,0,1,0.4,1,1S133.9,274.3,133.4,274.3z"/>
		</g>
		<g id="XMLID_26_">
			<path class="st5" d="M124.5,274.3h-2c-0.6,0-1-0.4-1-1s0.4-1,1-1h2c0.6,0,1,0.4,1,1S125.1,274.3,124.5,274.3z M118.5,274.3h-2
				c-0.6,0-1-0.4-1-1s0.4-1,1-1h2c0.6,0,1,0.4,1,1S119,274.3,118.5,274.3z M112.5,274.3h-2c-0.6,0-1-0.4-1-1s0.4-1,1-1h2
				c0.6,0,1,0.4,1,1S113,274.3,112.5,274.3z M106.4,274.3h-2c-0.6,0-1-0.4-1-1s0.4-1,1-1h2c0.6,0,1,0.4,1,1S107,274.3,106.4,274.3z
				 M100.4,274.3h-2c-0.6,0-1-0.4-1-1s0.4-1,1-1h2c0.6,0,1,0.4,1,1S101,274.3,100.4,274.3z M94.4,274.3h-2c-0.6,0-1-0.4-1-1
				s0.4-1,1-1h2c0.6,0,1,0.4,1,1S94.9,274.3,94.4,274.3z M88.4,274.3h-2c-0.6,0-1-0.4-1-1s0.4-1,1-1h2c0.6,0,1,0.4,1,1
				S88.9,274.3,88.4,274.3z M82.4,274c-0.1,0-0.1,0-0.2,0c-0.7-0.2-1.4-0.4-2.1-0.6c-0.5-0.2-0.8-0.8-0.6-1.3
				c0.2-0.5,0.8-0.8,1.3-0.6c0.6,0.2,1.2,0.4,1.8,0.5c0.5,0.1,0.9,0.7,0.8,1.2C83.2,273.6,82.8,274,82.4,274z M76.9,271.6
				c-0.2,0-0.4-0.1-0.6-0.2c-0.6-0.4-1.2-0.8-1.7-1.3c-0.4-0.4-0.5-1-0.1-1.4c0.4-0.4,1-0.5,1.4-0.1c0.5,0.4,1,0.8,1.5,1.2
				c0.5,0.3,0.6,0.9,0.3,1.4C77.5,271.4,77.2,271.6,76.9,271.6z M72.6,267.3c-0.3,0-0.6-0.2-0.8-0.4c-0.4-0.6-0.8-1.2-1.1-1.8
				c-0.2-0.5,0-1.1,0.4-1.3c0.5-0.2,1.1,0,1.3,0.4c0.3,0.6,0.6,1.1,1,1.6c0.3,0.5,0.2,1.1-0.3,1.4C73,267.3,72.8,267.3,72.6,267.3z
				 M70.3,261.8c-0.5,0-0.9-0.3-1-0.8c-0.1-0.7-0.3-1.4-0.3-2.1c0-0.6,0.4-1,0.9-1.1c0.6-0.1,1,0.4,1.1,0.9c0.1,0.6,0.1,1.3,0.3,1.9
				c0.1,0.5-0.2,1.1-0.8,1.2C70.4,261.8,70.4,261.8,70.3,261.8z M69.7,255.8c-0.5,0-0.9-0.3-1-0.8c-0.1-0.6-0.2-1.2-0.4-1.8
				c-0.2-0.5,0.1-1.1,0.7-1.2c0.5-0.2,1.1,0.1,1.2,0.7c0.2,0.7,0.4,1.4,0.5,2.1c0.1,0.5-0.3,1.1-0.8,1.2
				C69.8,255.8,69.8,255.8,69.7,255.8z M67.6,250.2c-0.3,0-0.7-0.2-0.9-0.5c-0.3-0.5-0.7-1-1.1-1.5c-0.3-0.4-0.3-1.1,0.2-1.4
				c0.4-0.3,1.1-0.3,1.4,0.2c0.4,0.6,0.9,1.1,1.2,1.7c0.3,0.5,0.1,1.1-0.3,1.4C68,250.2,67.8,250.2,67.6,250.2z M63.6,245.8
				c-0.2,0-0.4-0.1-0.6-0.2c-0.5-0.4-1-0.7-1.6-1c-0.5-0.3-0.6-0.9-0.4-1.4c0.3-0.5,0.9-0.6,1.4-0.4c0.6,0.4,1.2,0.7,1.8,1.2
				c0.4,0.3,0.5,1,0.2,1.4C64.2,245.6,63.9,245.8,63.6,245.8z M58.2,243.2c-0.1,0-0.2,0-0.3,0c-0.6-0.2-1.2-0.3-1.8-0.4
				c-0.5-0.1-0.9-0.6-0.9-1.1c0.1-0.5,0.6-0.9,1.1-0.9c0.7,0.1,1.4,0.2,2.1,0.4c0.5,0.1,0.8,0.7,0.7,1.2
				C59.1,242.9,58.7,243.2,58.2,243.2z M52.2,242.6h-1.7c-0.6,0-1-0.4-1-1s0.4-1,1-1h1.7c0.6,0,1,0.4,1,1S52.8,242.6,52.2,242.6z"/>
		</g>
		<g id="XMLID_25_">
			<path class="st5" d="M47,242.6h-1.8c-0.6,0-1-0.4-1-1s0.4-1,1-1H47c0.6,0,1,0.4,1,1S47.6,242.6,47,242.6z"/>
		</g>
		<g id="XMLID_24_">
			<path class="st5" d="M72.7,287.9H56.6l8.1-10.1L72.7,287.9z M58.6,286.9h12l-6-7.5L58.6,286.9z"/>
		</g>
		<g id="XMLID_23_">
			<path class="st5" d="M111.5,263.3H95.3l8.1-10.1L111.5,263.3z M97.4,262.3h12l-6-7.5L97.4,262.3z"/>
		</g>
		<g id="XMLID_22_">
			<path class="st5" d="M85.8,244.3l-0.4-0.7c-0.4-0.7-10.6-17.3-10.6-23.2c0-6.1,5-11.1,11.1-11.1s11.1,5,11.1,11.1
				c0,5.9-10.2,22.5-10.6,23.2L85.8,244.3z M85.8,210.4c-5.6,0-10.1,4.5-10.1,10.1c0,5,8.1,18.7,10.1,21.9c2-3.3,10.1-17,10.1-21.9
				C95.9,214.9,91.3,210.4,85.8,210.4z"/>
		</g>
		<g id="XMLID_21_">
			<path class="st2" d="M126.3,299c-0.3,0-0.5-0.1-0.7-0.3c-0.1-0.1-0.2-0.2-0.2-0.3c0-0.1-0.1-0.2-0.1-0.4s0-0.3,0.1-0.4
				c0.1-0.1,0.1-0.2,0.2-0.3c0.2-0.2,0.6-0.3,0.9-0.3c0.1,0,0.1,0,0.2,0.1c0.1,0,0.1,0,0.2,0.1c0.1,0,0.1,0.1,0.2,0.1
				c0.2,0.2,0.3,0.5,0.3,0.7s-0.1,0.5-0.3,0.7c-0.1,0.1-0.2,0.2-0.3,0.2C126.6,299,126.5,299,126.3,299z"/>
		</g>
		<g id="XMLID_20_">
			<path class="st2" d="M126.3,291.9c-0.1,0-0.3,0-0.4-0.1c-0.1,0-0.2-0.1-0.3-0.2c-0.1-0.1-0.2-0.2-0.2-0.3c0-0.1-0.1-0.2-0.1-0.4
				c0-0.3,0.1-0.5,0.3-0.7c0.2-0.2,0.6-0.3,0.9-0.3c0.1,0,0.1,0,0.2,0.1c0.1,0,0.1,0,0.2,0.1c0.1,0,0.1,0.1,0.2,0.1
				c0.1,0.1,0.2,0.2,0.2,0.3c0.1,0.1,0.1,0.2,0.1,0.4c0,0.1,0,0.3-0.1,0.4c0,0.1-0.1,0.2-0.2,0.3c-0.1,0.1-0.2,0.2-0.3,0.2
				C126.6,291.9,126.5,291.9,126.3,291.9z"/>
		</g>
		<g id="XMLID_19_">
			<path class="st2" d="M126.3,284.9c-0.3,0-0.5-0.1-0.7-0.3c-0.1-0.1-0.2-0.2-0.2-0.3c0-0.1-0.1-0.2-0.1-0.4c0-0.3,0.1-0.5,0.3-0.7
				c0.1-0.1,0.2-0.2,0.3-0.2c0.2-0.1,0.5-0.1,0.8,0c0.1,0,0.2,0.1,0.3,0.2c0.2,0.2,0.3,0.4,0.3,0.7c0,0.3-0.1,0.5-0.3,0.7
				C126.8,284.8,126.6,284.9,126.3,284.9z"/>
		</g>
		<g id="XMLID_18_">
			<path class="st2" d="M119.3,299c-0.3,0-0.5-0.1-0.7-0.3c-0.1-0.1-0.2-0.2-0.2-0.3s-0.1-0.2-0.1-0.4c0-0.3,0.1-0.5,0.3-0.7
				c0,0,0.1-0.1,0.1-0.1c0.1,0,0.1-0.1,0.2-0.1c0.1,0,0.1,0,0.2-0.1c0.3-0.1,0.7,0,0.9,0.3c0.1,0.1,0.2,0.2,0.2,0.3
				c0,0.1,0.1,0.2,0.1,0.4c0,0.3-0.1,0.5-0.3,0.7c-0.1,0.1-0.2,0.2-0.3,0.2C119.5,299,119.4,299,119.3,299z"/>
		</g>
		<g id="XMLID_17_">
			<path class="st2" d="M119.3,291.9c-0.3,0-0.5-0.1-0.7-0.3c-0.1-0.1-0.2-0.2-0.2-0.3c0-0.1-0.1-0.2-0.1-0.4c0-0.1,0-0.3,0.1-0.4
				c0.1-0.1,0.1-0.2,0.2-0.3c0,0,0.1-0.1,0.1-0.1c0.1,0,0.1-0.1,0.2-0.1c0.1,0,0.1,0,0.2-0.1c0.2,0,0.4,0,0.6,0.1
				c0.1,0,0.2,0.1,0.3,0.2c0.2,0.2,0.3,0.4,0.3,0.7c0,0.1,0,0.3-0.1,0.4c-0.1,0.1-0.1,0.2-0.2,0.3
				C119.8,291.8,119.5,291.9,119.3,291.9z"/>
		</g>
		<g id="XMLID_16_">
			<path class="st2" d="M112.2,299c-0.3,0-0.5-0.1-0.7-0.3c-0.2-0.2-0.3-0.5-0.3-0.7s0.1-0.5,0.3-0.7c0.4-0.4,1-0.4,1.4,0
				c0.2,0.2,0.3,0.5,0.3,0.7s-0.1,0.5-0.3,0.7c-0.1,0.1-0.2,0.2-0.3,0.2C112.5,299,112.3,299,112.2,299z"/>
		</g>
		<g id="XMLID_15_">
			<path class="st2" d="M126.3,232c-0.3,0-0.5-0.1-0.7-0.3c-0.2-0.2-0.3-0.4-0.3-0.7c0-0.1,0-0.2,0.1-0.4c0.1-0.1,0.1-0.2,0.2-0.3
				c0.4-0.4,1-0.4,1.4,0c0.2,0.2,0.3,0.4,0.3,0.7c0,0.3-0.1,0.5-0.3,0.7c-0.1,0.1-0.2,0.2-0.3,0.2C126.6,232,126.5,232,126.3,232z"
				/>
		</g>
		<g id="XMLID_14_">
			<path class="st2" d="M119.3,232c-0.1,0-0.3,0-0.4-0.1c-0.1-0.1-0.2-0.1-0.3-0.2c-0.2-0.2-0.3-0.4-0.3-0.7c0-0.3,0.1-0.5,0.3-0.7
				c0.1-0.1,0.2-0.2,0.3-0.2c0.4-0.1,0.8-0.1,1.1,0.2c0.2,0.2,0.3,0.4,0.3,0.7c0,0.3-0.1,0.5-0.3,0.7
				C119.8,231.9,119.5,232,119.3,232z"/>
		</g>
		<g id="XMLID_13_">
			<path class="st2" d="M112.2,232c-0.3,0-0.5-0.1-0.7-0.3c-0.2-0.2-0.3-0.4-0.3-0.7c0-0.3,0.1-0.5,0.3-0.7c0.4-0.4,1.1-0.4,1.4,0
				c0.2,0.2,0.3,0.4,0.3,0.7c0,0.3-0.1,0.5-0.3,0.7c-0.1,0.1-0.2,0.2-0.3,0.2C112.5,232,112.3,232,112.2,232z"/>
		</g>
		<g id="XMLID_12_">
			<path class="st2" d="M126.3,239.1c-0.3,0-0.5-0.1-0.7-0.3c-0.1-0.1-0.2-0.2-0.2-0.3c0-0.1-0.1-0.2-0.1-0.4c0-0.1,0-0.3,0.1-0.4
				c0.1-0.1,0.1-0.2,0.2-0.3c0.4-0.4,1-0.4,1.4,0c0.1,0.1,0.2,0.2,0.2,0.3c0.1,0.1,0.1,0.2,0.1,0.4c0,0.1,0,0.3-0.1,0.4
				c0,0.1-0.1,0.2-0.2,0.3C126.8,239,126.6,239.1,126.3,239.1z"/>
		</g>
		<g id="XMLID_11_">
			<path class="st2" d="M119.3,239.1c-0.3,0-0.5-0.1-0.7-0.3c-0.2-0.2-0.3-0.4-0.3-0.7c0-0.1,0-0.3,0.1-0.4c0.1-0.1,0.1-0.2,0.2-0.3
				c0.4-0.4,1-0.4,1.4,0c0.1,0.1,0.2,0.2,0.2,0.3c0,0.1,0.1,0.2,0.1,0.4c0,0.1,0,0.3-0.1,0.4c-0.1,0.1-0.1,0.2-0.2,0.3
				C119.8,239,119.5,239.1,119.3,239.1z"/>
		</g>
		<g id="XMLID_10_">
			<path class="st2" d="M126.3,246.1c-0.3,0-0.5-0.1-0.7-0.3c-0.2-0.2-0.3-0.4-0.3-0.7c0-0.3,0.1-0.5,0.3-0.7c0.4-0.4,1-0.4,1.4,0
				c0.1,0.1,0.2,0.2,0.2,0.3c0.1,0.1,0.1,0.2,0.1,0.4c0,0.3-0.1,0.5-0.3,0.7C126.8,246,126.6,246.1,126.3,246.1z"/>
		</g>
		<g id="XMLID_9_">
			<circle class="st1" cx="34.7" cy="294.5" r="3.5"/>
			<path class="st2" d="M34.7,298.5c-2.2,0-4-1.8-4-4s1.8-4,4-4s4,1.8,4,4S36.9,298.5,34.7,298.5z M34.7,291.4c-1.7,0-3,1.4-3,3
				c0,1.7,1.4,3,3,3s3-1.4,3-3C37.7,292.8,36.4,291.4,34.7,291.4z"/>
		</g>
		<g>
			<path class="st3" d="M34.7,213.4c-5.8,0-10.6,4.7-10.6,10.6v70.5l0,0c0-8.2,7.3-10.6,10.6-10.6c5.8,0,10.6,4.7,10.6,10.6V224
				C45.3,218.2,40.5,213.4,34.7,213.4z"/>
			<path class="st2" d="M45.8,294.5h-1c0-5.6-4.5-10.1-10.1-10.1c-3.3,0-10.1,2.5-10.1,10.1h-1V224c0-6.1,5-11.1,11.1-11.1
				c6.1,0,11.1,5,11.1,11.1V294.5z M34.7,283.4c4.5,0,8.3,2.7,10.1,6.5V224c0-5.6-4.5-10.1-10.1-10.1s-10.1,4.5-10.1,10.1v65.7
				C26.8,285,31.9,283.4,34.7,283.4z"/>
		</g>
		<g id="XMLID_8_">
			<line class="st1" x1="31.2" y1="253.9" x2="31.2" y2="236.3"/>
			<rect x="30.7" y="236.3" class="st2" width="1" height="17.6"/>
		</g>
		<g id="XMLID_7_">
			<path class="st2" d="M31.2,232c-0.1,0-0.3,0-0.4-0.1c-0.1-0.1-0.2-0.1-0.3-0.2c-0.2-0.2-0.3-0.4-0.3-0.7c0-0.3,0.1-0.5,0.3-0.7
				c0.1-0.1,0.2-0.2,0.3-0.2c0.4-0.1,0.8-0.1,1.1,0.2c0.2,0.2,0.3,0.4,0.3,0.7c0,0.3-0.1,0.5-0.3,0.7c-0.1,0.1-0.2,0.2-0.3,0.2
				C31.4,232,31.3,232,31.2,232z"/>
		</g>
		<g>
			<g>
				<path class="st5" d="M85.8,227l-4.2-4.2c-1-1-1-2.7,0-3.7c1-1,2.7-1,3.7,0l0.5,0.5l0.5-0.5c1-1,2.7-1,3.7,0
					c0.5,0.5,0.8,1.2,0.8,1.9c0,0.7-0.3,1.4-0.8,1.9L85.8,227z M83.5,219.4c-0.4,0-0.8,0.2-1.1,0.5c-0.6,0.6-0.6,1.7,0,2.3l3.5,3.5
					l3.5-3.5c0.3-0.3,0.5-0.7,0.5-1.1c0-0.4-0.2-0.8-0.5-1.1c-0.6-0.6-1.7-0.6-2.3,0l-1.2,1.2l-1.2-1.2
					C84.3,219.6,83.9,219.4,83.5,219.4z"/>
			</g>
		</g>
	</g>
	<g>
		<g>
			<g>
				<path class="st6" d="M151.3,222.6c0,0-0.1,0.1-0.2,0.1h-0.7c-0.1,0-0.1,0-0.2-0.1c0,0-0.1-0.1-0.1-0.2v-3.3h-3.4
					c-0.1,0-0.1,0-0.2-0.1c0,0-0.1-0.1-0.1-0.2v-0.7c0-0.1,0-0.1,0.1-0.2c0,0,0.1-0.1,0.2-0.1h3.4v-3.4c0-0.1,0-0.1,0.1-0.2
					c0,0,0.1-0.1,0.2-0.1h0.7c0.1,0,0.1,0,0.2,0.1c0,0,0.1,0.1,0.1,0.2v3.4h3.3c0.1,0,0.1,0,0.2,0.1c0,0,0.1,0.1,0.1,0.2v0.7
					c0,0.1,0,0.1-0.1,0.2c0,0-0.1,0.1-0.2,0.1h-3.3v3.3C151.4,222.5,151.3,222.6,151.3,222.6z"/>
			</g>
		</g>
		<g>
			<g>
				<path class="st7" d="M127.8,194.1c-0.2-0.1-0.3-0.2-0.3-0.4c0-0.1,0-0.2,0-0.2l0.3-0.8c0.1-0.2,0.2-0.3,0.4-0.3
					c0.1,0,0.2,0,0.2,0.1l2.9,1.1l-0.2-2.6v-0.1c0-0.1,0-0.2,0.1-0.3c0.1-0.1,0.2-0.1,0.3-0.1h1c0.1,0,0.2,0,0.3,0.1
					c0.1,0.1,0.1,0.2,0.1,0.3l-0.2,2.6l2.8-1.1c0.1,0,0.2-0.1,0.3-0.1c0.2,0,0.3,0.1,0.3,0.2l0.4,0.8c0,0.1,0.1,0.2,0.1,0.3
					c0,0.2-0.1,0.3-0.3,0.3l-4.3,1.3L127.8,194.1z M131.3,200.6c-0.1-0.1-0.1-0.2-0.1-0.3l0.2-2.6l-2.9,1.1c-0.1,0-0.2,0.1-0.3,0.1
					c-0.2,0-0.3-0.1-0.4-0.3l-0.3-0.8c0-0.1,0-0.1,0-0.2c0-0.2,0.1-0.3,0.3-0.4l4.3-1.2l4.3,1.3c0.2,0.1,0.3,0.2,0.3,0.4
					c0,0,0,0.1-0.1,0.2l-0.4,0.8c-0.1,0.2-0.2,0.2-0.3,0.2c-0.1,0-0.2,0-0.3-0.1l-2.8-1.1l0.2,2.6v0.1c0,0.1,0,0.2-0.1,0.3
					c-0.1,0.1-0.2,0.1-0.3,0.1h-1C131.5,200.7,131.3,200.7,131.3,200.6z"/>
			</g>
		</g>
	</g>
	<g>
		<g>
			<g>
				<path class="st6" d="M-8.6,225.1c0,0-0.1,0-0.1,0h-0.4c0,0-0.1,0-0.1,0c0,0,0-0.1,0-0.1V223h-2.1c0,0-0.1,0-0.1,0
					c0,0,0-0.1,0-0.1v-0.4c0,0,0-0.1,0-0.1c0,0,0.1,0,0.1,0h2.1v-2.1c0,0,0-0.1,0-0.1c0,0,0.1,0,0.1,0h0.4c0,0,0.1,0,0.1,0
					c0,0,0,0.1,0,0.1v2.1h2.1c0,0,0.1,0,0.1,0c0,0,0,0.1,0,0.1v0.4c0,0,0,0.1,0,0.1c0,0-0.1,0-0.1,0h-2.1v2.1
					C-8.6,225.1-8.6,225.1-8.6,225.1z"/>
			</g>
		</g>
		<g>
			<g>
				<path class="st7" d="M9.4,201.6c-0.2-0.1-0.2-0.2-0.2-0.4c0-0.1,0-0.2,0-0.2l0.3-0.8c0.1-0.2,0.2-0.2,0.4-0.2
					c0.1,0,0.1,0,0.2,0.1l2.7,1l-0.2-2.4v-0.1c0-0.1,0-0.2,0.1-0.3c0.1-0.1,0.2-0.1,0.3-0.1h1c0.1,0,0.2,0,0.3,0.1
					c0.1,0.1,0.1,0.2,0.1,0.3l-0.2,2.4l2.6-1c0.1,0,0.2-0.1,0.3-0.1c0.2,0,0.3,0.1,0.3,0.2l0.3,0.8c0,0.1,0.1,0.2,0.1,0.2
					c0,0.2-0.1,0.3-0.3,0.3l-4,1.2L9.4,201.6z M12.7,207.5c-0.1-0.1-0.1-0.2-0.1-0.3l0.2-2.4l-2.7,1c-0.1,0-0.2,0.1-0.2,0.1
					c-0.1,0-0.3-0.1-0.3-0.2l-0.3-0.8c0-0.1,0-0.1,0-0.2c0-0.2,0.1-0.3,0.2-0.4l4-1.1l4,1.2c0.2,0.1,0.3,0.2,0.3,0.3
					c0,0,0,0.1-0.1,0.2l-0.3,0.8c-0.1,0.1-0.2,0.2-0.3,0.2c-0.1,0-0.2,0-0.3-0.1l-2.6-1l0.2,2.4v0.1c0,0.1,0,0.2-0.1,0.3
					c-0.1,0.1-0.2,0.1-0.3,0.1h-1C12.8,207.7,12.7,207.6,12.7,207.5z"/>
			</g>
		</g>
		<g>
			<circle class="st7" cx="-3.5" cy="245.4" r="1.6"/>
		</g>
	</g>
</g>
</svg>
