<svg id="Layer_1" xmlns="http://www.w3.org/2000/svg" viewBox="-185 317 240 159">
<style>.st0{fill:#344f71;} .st1{fill:#FFFFFF;}</style>
<g id="Page-1"><g id="Imported-Layers"><path id="Fill-1" class="st0" d="M-53.7 357.8c0-2.7-1.9-3.5-3.9-3.5H-65v7h7.3c1.7 0 4-.9 4-3.5"/><path id="Fill-2" class="st0" d="M-20.2 414.6h-7.5v8.2h8c2.9 0 4.4-1.5 4.4-4.3-.1-2.7-2.2-3.9-4.9-3.9"/><path id="Fill-3" class="st0" d="M-57.4 367.4H-65v8.4h7.6c3 0 5.1-1.1 5.1-4.1 0-3.2-2.2-4.3-5.1-4.3"/><path id="Fill-4" class="st0" d="M-141.2 417.1l-4.1 12.7h8.3l-4-12.7h-.2"/><path id="Fill-5" class="st0" d="M-141.8 357.1h-.1l-4.1 12.7h8.3l-4.1-12.7"/><path id="Fill-6" class="st0" d="M14.3 354.6H6.8v8.2h8c2.9 0 4.4-1.5 4.4-4.3-.1-2.7-2.2-3.9-4.9-3.9"/><path id="Fill-7" class="st0" d="M53.9 379.5c-.2-8.2-.4-16.5-1.1-24.7-.4-5-1.6-10-4.2-14.3-5.6-9.4-14.9-15.5-25.7-17.1h-.4c-.1 0-.3-.1-.4-.1C11 322-.1 320.8-11.3 320c-17.9-1.3-35.9-2-53.9-2.1-18 0-36 .7-53.9 2.1-11.1.8-22.3 2-33.4 3.3-.2 0-.3.1-.4.1h-.4c-10.8 1.6-20.1 7.7-25.7 17.1-2.6 4.3-3.8 9.3-4.2 14.3-.7 8.2-.9 16.5-1.1 24.7v.3c-.1 5.4-.2 10.7-.2 16.1 0 8.5.3 16.6.8 26.6.6 12.3 1.4 25.2 10.2 34.6 8.8 9.4 21.1 10.3 33.1 11.6 16.3 1.7 32.6 2.8 49 3.4 8.7.3 17.5.5 26.3.4 8.8 0 17.5-.1 26.3-.4 16.4-.6 32.7-1.7 49-3.4 12-1.3 24.3-2.2 33.1-11.6 8.8-9.4 9.6-22.3 10.2-34.6.5-10 .8-18 .8-26.6 0-5.4 0-10.7-.2-16.1-.2-.1-.2-.2-.2-.3zM-146.7 347h9.6l13.6 36.4h-9.9l-2.2-6.5h-12.7l-2.3 6.5h-9.7l13.6-36.4zm14.1 96.4l-2.2-6.5h-12.7l-2.3 6.5h-9.7l13.6-36.4h9.6l13.6 36.4h-9.9zm39.2 0h-26.5V407h9.5v28.3h17v8.1zm-3.3-60h-7.2l-7.6-27.6h-.1v27.6h-8.9V347h14l6.3 24.3h.1L-94 347h14v36.4h-8.9v-27.6h-.1l-7.7 27.6zm16.6 48.1c-2.5 2.5-6.6 2.5-9.2 0-2.5-2.5-2.5-6.6 0-9.2 2.5-2.5 6.6-2.5 9.2 0 2.5 2.5 2.5 6.7 0 9.2zm11.9 11.9l-2.9 2.9-5.8-5.8 2.9-2.9c5.9-5.9 5.9-15.5 0-21.3l-2.9-2.9 5.8-5.8 2.9 2.9c9.1 9 9.1 23.8 0 32.9zm11.7 11.7l-2.9 2.9-5.8-5.8 2.9-2.9c12.3-12.3 12.3-32.4 0-44.8l-2.9-2.9 5.8-5.8 2.9 2.9c15.6 15.5 15.6 40.9 0 56.4zm-.5-71.7h-17.5V347h17c6.3-.1 13.2 1.5 13.2 9.1 0 3.3-1.9 5.9-4.8 7.3 3.9 1.1 6.3 4.5 6.3 8.6 0 8.7-6.4 11.4-14.2 11.4zm19.4-36.4h29v7.6h-19.5v6.4h17.8v7.3h-17.8v6.9h20v8.2h-29.5V347zm23.5 96.4s-.7-4.1-1.1-5.8c-.8-3.6-1.3-7.4-5.3-7.4h-7.2v13.3h-9.5V407h18.6c6.4 0 12.7 2.9 12.7 10.2 0 3.9-1.9 7.6-5.7 9.1v.1c3.1 1.1 4.7 5.3 5.3 8.7.3 1.8 1.5 8.2 1.5 8.2h-9.3v.1zm43.2-28.3H18.3v28.3H8.8v-28.3H-2.1V407h31.2v8.1zm-8.7-31.7s-.7-4.1-1.1-5.8c-.8-3.6-1.3-7.4-5.3-7.4H6.8v13.3h-9.5V347h18.6c6.4 0 12.7 2.9 12.7 10.2 0 3.9-1.9 7.6-5.7 9.1v.1c3.1 1.1 4.7 5.3 5.3 8.7.3 1.8 1.5 8.2 1.5 8.2h-9.3v.1z"/><path id="Fill-9" class="st1" d="M-148.2 376.9h12.7l2.2 6.5h9.9L-137 347h-9.6l-13.6 36.4h9.7l2.3-6.5zm6.3-19.8h.1l4 12.7h-8.3l4.2-12.7z"/><path id="Fill-10" class="st1" d="M-49.1 363.5c2.9-1.4 4.8-4.1 4.8-7.3 0-7.6-6.9-9.2-13.2-9.1h-17v36.4H-57c7.8 0 14.2-2.7 14.2-11.3 0-4.3-2.4-7.6-6.3-8.7zm-15.9-9.2h7.3c2 0 3.9.9 3.9 3.5s-2.2 3.5-3.9 3.5H-65v-7zm7.6 21.5H-65v-8.4h7.6c2.9 0 5.1 1.1 5.1 4.3 0 3-2.1 4.1-5.1 4.1z"/><path id="Fill-11" class="st1" d="M-8.1 375.2h-20v-6.9h17.8V361h-17.8v-6.4h19.5V347h-29v36.4h29.5v-8.2"/><path id="Fill-12" class="st1" d="M22.9 366.5v-.1c3.8-1.5 5.7-5.2 5.7-9.1 0-7.3-6.3-10.2-12.7-10.2H-2.7v36.4h9.5v-13.3H14c4 0 4.5 3.8 5.3 7.4.4 1.7 1.1 5.8 1.1 5.8h9.4s-1.2-6.4-1.5-8.2c-.7-3.4-2.3-7.7-5.4-8.7zm-8.1-3.7h-8v-8.2h7.5c2.7 0 4.8 1.2 4.8 3.9 0 2.8-1.5 4.3-4.3 4.3z"/><path id="Fill-13" class="st1" d="M-11.6 426.5v-.1c3.8-1.5 5.7-5.2 5.7-9.1 0-7.3-6.3-10.2-12.7-10.2h-18.6v36.4h9.5v-13.3h7.2c4 0 4.5 3.8 5.3 7.4.4 1.7 1.1 5.8 1.1 5.8h9.4s-1.2-6.4-1.5-8.2c-.7-3.4-2.3-7.7-5.4-8.7zm-8.1-3.7h-8v-8.2h7.5c2.7 0 4.8 1.2 4.8 3.9 0 2.8-1.5 4.3-4.3 4.3z"/><path id="Fill-14" class="st1" d="M-145.9 407l-13.6 36.4h9.7l2.3-6.5h12.7l2.2 6.5h9.9l-13.6-36.4h-9.6zm.6 22.8l4.1-12.7h.1l4 12.7h-8.2z"/><path id="Fill-15" class="st1" d="M-2.1 415.1H8.8v28.3h9.5v-28.3h10.9V407H-2.1v8.1"/><path id="Fill-16" class="st1" d="M-88.9 355.8v27.6h8.9V347h-14l-6.3 24.3h-.1l-6.3-24.3h-14v36.4h8.9v-27.6h.1l7.6 27.6h7.2l7.6-27.6h.4"/><path id="Fill-17" class="st1" d="M-110.4 407h-9.5v36.4h26.5v-8.2h-17V407"/><path id="Fill-18" class="st1" d="M-89.3 422.3c-2.5 2.5-2.5 6.6 0 9.2 2.5 2.5 6.6 2.5 9.2 0 2.5-2.5 2.5-6.6 0-9.2-2.6-2.5-6.7-2.5-9.2 0"/><path id="Fill-19" class="st1" d="M-68.2 410.4l-2.9-2.9-5.8 5.8 2.9 2.9c5.9 5.9 5.9 15.5 0 21.3l-2.9 2.9 5.8 5.8 2.9-2.9c9.1-9 9.1-23.8 0-32.9"/><path id="Fill-20" class="st1" d="M-59.4 395.7l-5.8 5.8 2.9 2.9c12.3 12.3 12.3 32.4 0 44.8l-2.9 2.9 5.8 5.8 2.9-2.9c15.6-15.6 15.6-40.9 0-56.5l-2.9-2.8"/></g></g>
</svg>