<?xml version="1.0" encoding="utf-8"?>
<!-- Generator: Adobe Illustrator 21.1.0, SVG Export Plug-In . SVG Version: 6.00 Build 0)  -->
<svg version="1.1" id="Layer_1" xmlns="http://www.w3.org/2000/svg" xmlns:xlink="http://www.w3.org/1999/xlink" x="0px" y="0px"
	 viewBox="0 0 61 61" style="enable-background:new 0 0 61 61;" xml:space="preserve">
<path style="fill:#E5F0FA;" d="M54.7,30.7c0,13.9-11.2,25.2-25.1,25.4c-0.1,0-0.2,0-0.3,0c-0.8,0-1.5,0-2.3-0.1c0.1,0,0.2,0,0.3,0
	c12.8-1.3,22.8-12.1,22.8-25.3s-10-24-22.8-25.3c-0.1,0-0.2,0-0.3,0c0.7-0.1,1.5-0.1,2.3-0.1c0.1,0,0.2,0,0.3,0
	C43.5,5.5,54.7,16.8,54.7,30.7z"/>
<ellipse style="fill:none;stroke:#6BD1FF;stroke-linecap:round;stroke-linejoin:round;stroke-miterlimit:10;" cx="30.1" cy="30.5" rx="13.6" ry="25.4"/>
<line style="fill:none;stroke:#6BD1FF;stroke-linecap:round;stroke-linejoin:round;stroke-miterlimit:10;" x1="30.5" y1="5.1" x2="30.5" y2="55.9"/>
<line style="fill:none;stroke:#6BD1FF;stroke-linecap:round;stroke-linejoin:round;stroke-miterlimit:10;" x1="6.8" y1="39" x2="54.2" y2="39"/>
<line style="fill:none;stroke:#6BD1FF;stroke-linecap:round;stroke-linejoin:round;stroke-miterlimit:10;" x1="6.8" y1="22" x2="53.3" y2="22"/>
<circle style="fill:none;stroke:#48578C;stroke-width:2;stroke-linecap:round;stroke-linejoin:round;stroke-miterlimit:10;" cx="30.5" cy="30.5" r="25.4"/>
<path style="fill:none;stroke:#48578C;stroke-linecap:round;stroke-linejoin:round;stroke-miterlimit:10;stroke-dasharray:0,2;" d="
	M30.5,0.5c16.6,0,30,13.4,30,30s-13.4,30-30,30s-30-13.4-30-30"/>
<g>
	
		<polyline style="fill:none;stroke:#FF9F90;stroke-width:2;stroke-linecap:round;stroke-linejoin:round;stroke-miterlimit:10;" points="
		5.2,5.1 18.8,37.1 25.8,24.2 	"/>
	
		<polyline style="fill:none;stroke:#FF9F90;stroke-width:2;stroke-linecap:round;stroke-linejoin:round;stroke-miterlimit:10;" points="
		5.2,5.1 38.1,16.4 25.8,24.2 	"/>
	
		<line style="fill:none;stroke:#FF9F90;stroke-width:2;stroke-linecap:round;stroke-linejoin:round;stroke-miterlimit:10;" x1="5.2" y1="5.1" x2="25.8" y2="24.2"/>
	
		<polyline style="fill:none;stroke:#FF9F90;stroke-width:2;stroke-linecap:round;stroke-linejoin:round;stroke-miterlimit:10;" points="
		23.5,28.5 30.2,28.4 30,21.5 	"/>
</g>
</svg>
