<?xml version="1.0" encoding="utf-8"?>
<!-- Generator: Adobe Illustrator 21.1.0, SVG Export Plug-In . SVG Version: 6.00 Build 0)  -->
<svg version="1.1" id="Layer_1" xmlns="http://www.w3.org/2000/svg" xmlns:xlink="http://www.w3.org/1999/xlink" x="0px" y="0px"
	 viewBox="0 0 69.7 62.9" style="enable-background:new 0 0 69.7 62.9;" xml:space="preserve">
<g>
	<g>
		<path style="fill:#E5F0FA;" d="M11.5,62.4h31c2.3,0,4.2-1.9,4.2-4.2V4.7c0-2.3-1.9-4.2-4.2-4.2h-31c-2.3,0-4.2,1.9-4.2,4.2v53.6
			C7.3,60.5,9.2,62.4,11.5,62.4z"/>
		<path style="fill:none;stroke:#48578C;stroke-linecap:round;stroke-linejoin:round;stroke-miterlimit:10;" d="M8.8,62.4h31
			c2.3,0,4.2-1.9,4.2-4.2V4.7c0-2.3-1.9-4.2-4.2-4.2h-31c-2.3,0-4.2,1.9-4.2,4.2v53.6C4.6,60.5,6.5,62.4,8.8,62.4z"/>
		<path style="fill:#FFFFFF;stroke:#48578C;stroke-linecap:round;stroke-linejoin:round;stroke-miterlimit:10;" d="M4.7,62.4h31
			c2.3,0,4.2-1.9,4.2-4.2V4.7c0-2.3-1.9-4.2-4.2-4.2h-31c-2.3,0-4.2,1.9-4.2,4.2v53.6C0.5,60.5,2.4,62.4,4.7,62.4z"/>
		<rect x="3.5" y="10.9" style="fill:#E5F0FA;" width="30.9" height="46.1"/>
		
			<line style="fill:none;stroke:#48578C;stroke-linecap:round;stroke-linejoin:round;stroke-miterlimit:10;" x1="1" y1="54.2" x2="39.5" y2="54.2"/>
		
			<line style="fill:none;stroke:#48578C;stroke-linecap:round;stroke-linejoin:round;stroke-miterlimit:10;" x1="0.8" y1="8.1" x2="34.1" y2="8.1"/>
		<circle style="fill:#48578C;" cx="18.8" cy="4.4" r="1.4"/>
	</g>
	<g>
		<path style="fill:#FFFFFF;" d="M38.2,26.3H19.4c-2.8,0-5.1-2.3-5.1-5.1v0c0-2.8,2.3-5.1,5.1-5.1h13.6c2.8,0,5.1,2.3,5.1,5.1V26.3z
			"/>
		<path style="fill:#FFFFFF;" d="M7.3,40.3h25.7c2.8,0,5.1-2.3,5.1-5.1v0c0-2.8-2.3-5.1-5.1-5.1H12.4c-2.8,0-5.1,2.3-5.1,5.1V40.3z"
			/>
	</g>
	<path style="fill:#FFFFFF;stroke:#48578C;stroke-width:2;stroke-linecap:round;stroke-linejoin:round;stroke-miterlimit:10;" d="
		M34.2,42.9c-0.1,1.1-0.4,1.8-0.7,2.3c-1,1.5-3,2.4-3,2.4l0,0c0.8,0.4,2.1,1,3.7,1.1c3.4,0.2,5.8-1.5,6.5-2.1l0,0
		c2.2,0.8,4.5,1.2,6.9,1.2c11.6,0,21-9.4,21-21s-9.4-21-21-21s-21,9.4-21,21C26.7,33.2,29.6,39,34.2,42.9"/>
	<g>
		<path style="fill:none;stroke:#2D9BF3;stroke-width:2;stroke-linecap:round;stroke-linejoin:round;stroke-miterlimit:10;" d="
			M55.2,36.1h-15c-0.8,0-1.5-0.7-1.5-1.5v-8.9c0-0.8,0.7-1.5,1.5-1.5h15c0.8,0,1.5,0.7,1.5,1.5v8.9C56.7,35.4,56,36.1,55.2,36.1z"/>
		<path style="fill:none;stroke:#2D9BF3;stroke-width:2;stroke-linecap:round;stroke-linejoin:round;stroke-miterlimit:10;" d="
			M53.7,24.1v-4c0-3.3-2.7-6-6-6h0c-3.3,0-6,2.7-6,6v4"/>
		
			<circle style="fill:none;stroke:#2D9BF3;stroke-width:2;stroke-linecap:round;stroke-linejoin:round;stroke-miterlimit:10;" cx="47.7" cy="30.1" r="1.3"/>
	</g>
</g>
</svg>
