<?xml version="1.0" encoding="UTF-8"?>
<!-- Generator: Adobe Illustrator 18.1.1, SVG Export Plug-In . SVG Version: 6.00 Build 0)  -->
<!DOCTYPE svg PUBLIC "-//W3C//DTD SVG 1.1//EN" "http://www.w3.org/Graphics/SVG/1.1/DTD/svg11.dtd">
<svg version="1.1" id="Ebene_1" xmlns="http://www.w3.org/2000/svg" xmlns:xlink="http://www.w3.org/1999/xlink" x="0px" y="0px" viewBox="0 0 404.7 385.4" enable-background="new 0 0 404.7 385.4" xml:space="preserve">
<g id="Lautsprecher">
	<rect x="0" y="129.5" fill="#999999" width="70.1" height="122.7"/>
	<g>
		<polygon fill="#999999" points="83.4,129.9 83.4,252.7 216.2,385.5 216.2,0.1   "/>
	</g>
</g>
<g>
	<path fill="#FFFFFF" stroke="#999999" stroke-width="14" stroke-miterlimit="10" d="M295.9,76.4c20.7,33.1,32.5,69.1,33.8,107   c1.4,44.5-12,87.3-37.3,126.6"/>
	<path fill="#999999" stroke="#999999" stroke-width="14" stroke-miterlimit="10" d="M296.7,311l-8.6-2   c25.9-40.2,38.3-82.4,37-125.5c-1.2-36.7-12.4-72.3-33.4-106l8.7-2.2c21.4,34.3,32.9,70.6,34.1,108C335.7,227,323.1,270,296.7,311z   "/>
	<path fill="#999999" stroke="#999999" stroke-width="10" stroke-miterlimit="10" d="M348,310.3l-8.6-2   c25.9-40.2,38.3-82.4,37-125.5c-1.2-36.7-12.4-72.3-33.4-106l8.7-2.2c21.4,34.3,32.9,70.6,34.1,108   C387.1,226.4,374.4,269.4,348,310.3z"/>
</g>
</svg>