<svg preserveAspectRatio="xMinYMin" xmlns="http://www.w3.org/2000/svg" viewBox="0 0 194 30"><path d="M113.59 23h-8.67l-2.41 5.22h-7.87L109.06 0h9.72l2.38 28.21h-7.37zm-5.87-6h5.67l-.31-12.35zm35.15-8.8L140.16 21c-.89 4.08-3.07 7.56-9.29 7.56-4.56 0-6.16-3.19-6.16-5.9a7.25 7.25 0 0 1 .16-1.76l2.71-12.78h5.35l-2.68 12.68a7.83 7.83 0 0 0-.2 1.57q0 1.76 1.66 1.76c2.07 0 2.72-1.66 3.13-3.59l2.64-12.39zm7.89 20.05h-5.35l3.26-15.49h-4.37l.95-4.56h14.09l-1 4.56H154zm19.18-20.33c6.29 0 7.53 4.71 7.53 7.73 0 5.41-2.71 12.91-10.66 12.91-3.4 0-7.73-1.5-7.73-7.73 0-3.83 1.79-12.91 10.86-12.91zm2.12 7.79c0-2.92-1.59-3.33-2.58-3.33-3.28 0-5 4.95-5 8.41 0 2.62 1.17 3.33 2.74 3.33 2.4.01 4.84-3.25 4.84-8.4zm19.66 6.42c0 2.72-1.44 6.42-7.66 6.42a9.39 9.39 0 0 1-5.18-1.3v-4.78a11.16 11.16 0 0 0 5.35 1.7c1.06 0 2.05-.25 2.05-1.63 0-1.23-1.34-2.09-2.25-2.8a7.08 7.08 0 0 1-3-5.58c0-2.74 1.9-6.23 7.11-6.23A12.08 12.08 0 0 1 194 9.39l-1.86 4.08a9.15 9.15 0 0 0-4-1.21c-.7 0-1.86.29-1.86 1.5s1.2 1.95 2.22 2.84 3.22 2.31 3.22 5.54z" fill="#c00"/><path d="M19.08 22.4l-.82-.72a7.71 7.71 0 0 0 1.66-4.6c0-4.79-3.75-7.92-8.38-7.92-6.23 0-8.38 4.92-8.38 10.4a8.56 8.56 0 0 0 8.51 8.87 12.35 12.35 0 0 0 7-2.22 8.21 8.21 0 0 0 1.14-1l.49.72a11.59 11.59 0 0 1-8.51 4C5.32 30 0 25.34 0 18.75A11.34 11.34 0 0 1 11.61 7c5.54 0 10.21 3.49 10.21 9.36a9 9 0 0 1-2.74 6.04zm-5.93-8l-3.76 8.52c-.33.72-.78 1.53-1.66 1.53a1.14 1.14 0 0 1-1.17-1.14A3.86 3.86 0 0 1 7 21.85l4-9.2c.33-.68.68-1.21 1.47-1.21a1.11 1.11 0 0 1 1.14 1.14 4.19 4.19 0 0 1-.47 1.87zm3 5.12l-1.47 3.36c-.33.72-.82 1.5-1.7 1.5a1.11 1.11 0 0 1-1.14-1.14 3.36 3.36 0 0 1 .46-1.43l1.79-4c.33-.65.68-1.21 1.47-1.21a1.11 1.11 0 0 1 1.14 1.14 4.78 4.78 0 0 1-.59 1.83zm18.25 8.69s2.15-9.54 2.15-10.73-.59-1.83-1.73-1.83c-2.46 0-4.09 3.23-4.73 6.26l-1.3 6.29h-3.16l4.43-20.9h3.16l-2.05 8.51s2.09-2.67 4.73-2.67c2.9 0 3.78 2 3.78 4 0 1.77-2.18 11-2.18 11zm13.7.26c-3.67 0-5.58-2.33-5.58-5.67 0-5.51 3.35-9.75 7.83-9.75 3.1 0 4.57 1.49 4.57 3.72 0 3.84-4 5.22-8.61 5.22h-.59v.82c0 2 1 3.17 3 3.16a8.48 8.48 0 0 0 4.17-1.14v2.51a11.14 11.14 0 0 1-4.79 1.13zm2.05-13c-2.32 0-3.68 2.74-4 4.24h.39c3.23 0 5.38-.9 5.38-2.77-.04-.77-.37-1.45-1.77-1.45zm9.33 12.72h-3.17l3.16-14.84h3.16zm.62-18.5a1.9 1.9 0 0 1 2-2 1.4 1.4 0 0 1 1.6 1.43 1.82 1.82 0 0 1-1.92 2.05 1.47 1.47 0 0 1-1.68-1.48zm13.66 14c0 3.78-3 4.86-6 4.86a8.16 8.16 0 0 1-4.3-.91v-2.76a7.71 7.71 0 0 0 4.21 1.21c1.63 0 2.9-.57 2.93-2s-1.33-1.81-2.35-2.48c-1.5-1-3.09-1.7-3.1-4.08S66.9 13 70.5 13a11.59 11.59 0 0 1 4.66 1.21l-1 2.38a7.94 7.94 0 0 0-3.55-1c-1.52 0-2.24.93-2.22 1.66 0 1.22 1.09 1.55 2.25 2.28 1.76 1.15 3.12 1.75 3.12 4.11zm8.77 4.83c-3.67 0-5.58-2.33-5.58-5.67C77 17.28 80.3 13 84.78 13c3.1 0 4.57 1.49 4.57 3.72 0 3.84-4 5.22-8.61 5.22h-.59v.82c0 2 1 3.17 3 3.16a8.48 8.48 0 0 0 4.17-1.14v2.51a11.14 11.14 0 0 1-4.79 1.18zm2.05-13c-2.32 0-3.68 2.74-4 4.24h.39c3.23 0 5.38-.9 5.38-2.77-.04-.82-.35-1.5-1.77-1.5z" fill="#989898"/></svg>