<svg preserveAspectRatio="xMinYMin" xmlns="http://www.w3.org/2000/svg" viewBox="0 0 600 93"><path d="M351.34 71.26h-26.83l-7.46 16.18h-24.3L337.32 0h30l7.36 87.44h-22.74zm-18.15-18.7h17.55l-1-38.27zm108.7-27.29l-8.37 39.93c-2.76 12.64-9.48 23.45-28.74 23.45-14.11 0-19.06-9.89-19.06-18.3a22.52 22.52 0 0 1 .5-5.46l8.37-39.62h16.54l-8.27 39.22a24.32 24.32 0 0 0-.61 4.85q0 5.46 5.14 5.46c6.4 0 8.4-5.14 9.68-11.12l8.17-38.41zm24.4 62.17h-16.54l10.08-48h-13.51l2.92-14.15h43.56l-3 14.15h-13.53zm59.29-62.88c19.46 0 23.29 14.61 23.29 24 0 16.77-8.37 40-33 40-10.52 0-23.9-4.65-23.9-24 .03-11.74 5.59-40 33.61-40zm6.55 24.16c0-9-4.91-10.31-8-10.31-10.14 0-15.53 15.33-15.53 26.08 0 8.12 3.63 10.31 8.47 10.31 7.55 0 15.07-10.1 15.07-26.08zm60.8 19.91c0 8.44-4.45 19.91-23.7 19.91-10.42 0-16-4-16-4V69.65s8 5.26 16.54 5.26c3.28 0 6.35-.77 6.35-5.05 0-3.81-4.15-6.47-7-8.69-3.51-2.77-9.38-8.25-9.38-17.29 0-8.49 5.86-19.31 22-19.31A37.3 37.3 0 0 1 600 29.11l-5.75 12.64S588 38 582 38c-2.15 0-5.75.91-5.75 4.65 0 3.93 3.71 6 6.86 8.79 3.35 3 9.83 7.19 9.83 17.2z" fill="#c00"/><path d="M59 69.45l-2.52-2.22A23.92 23.92 0 0 0 61.61 53c0-14.86-11.6-24.56-25.92-24.56-19.26 0-25.92 15.26-25.92 32.25 0 15.06 11 27.49 26.32 27.49a38.14 38.14 0 0 0 21.78-6.87 25.4 25.4 0 0 0 3.53-3l1.51 2.22A35.8 35.8 0 0 1 36.6 93C16.44 93 0 78.54 0 58.13 0 37.4 15.13 21.84 35.9 21.84c17.14 0 31.56 10.82 31.56 29A27.78 27.78 0 0 1 59 69.45zM40.64 44.78L29 71.06c-1 2.22-2.42 4.75-5.14 4.75a3.53 3.53 0 0 1-3.63-3.54 12 12 0 0 1 1.41-4.55l12.5-28.51c1-2.12 2.12-3.74 4.54-3.74A3.45 3.45 0 0 1 42.25 39c.1 2-.81 4-1.61 5.78zm9.18 15.87l-4.54 10.41c-1 2.22-2.52 4.65-5.24 4.65a3.45 3.45 0 0 1-3.53-3.54 10.45 10.45 0 0 1 1.41-4.45l5.55-12.53c1-2 2.12-3.74 4.54-3.74A3.45 3.45 0 0 1 51.53 55a14.85 14.85 0 0 1-1.72 5.65zm56.57 26.79S113 57.87 113 54.18s-1.82-5.66-5.34-5.66c-7.61 0-12.65 10-14.62 19.41L89 87.44h-9.74L93 22.65h9.78L96.4 49s6.46-8.29 14.62-8.29c9 0 11.7 6.35 11.7 12.53 0 5.47-6.76 34.17-6.76 34.17zm42.35.81c-11.34 0-17.24-7.21-17.24-17.59 0-17.08 10.36-30.23 24.2-30.23 9.6 0 14.12 4.63 14.12 11.53 0 11.89-12.41 16.17-26.62 16.17h-1.82l-.1 2.53c0 6.25 3.18 9.82 9.28 9.81a26.19 26.19 0 0 0 12.91-3.54v7.78a34.4 34.4 0 0 1-14.74 3.54zM155.09 48c-7.19 0-11.39 8.51-12.5 13.14h1.21c10 0 16.64-2.78 16.64-8.59-.01-2.43-1.03-4.55-5.35-4.55zm28.84 39.42h-9.78l9.78-46h9.78zM185.84 30c0-2.73 1.55-6.27 6.15-6.27 2.63 0 4.94 1.26 4.94 4.45 0 4.14-2.31 6.37-5.95 6.37-2.83.02-5.14-1.44-5.14-4.55zm42.25 43.26c0 11.71-9.35 15.06-18.45 15.06s-13.31-2.83-13.31-2.83v-8.36s4.76 3.57 13 3.74c5 .1 9-1.77 9.08-6.17.08-3.94-4.11-5.6-7.26-7.68-4.64-3.06-9.56-5.27-9.58-12.64 0-7.55 5.32-14 16.44-14 7.28 0 14.42 3.74 14.42 3.74l-3.13 7.38a24.52 24.52 0 0 0-11-3.13c-4.7 0-6.94 2.87-6.86 5.16.14 3.79 3.37 4.81 7 7.08 5.45 3.5 9.65 5.39 9.65 12.68zm27.13 15C243.88 88.25 238 81 238 70.66c0-17.08 10.36-30.23 24.2-30.23 9.6 0 14.12 4.63 14.12 11.53 0 11.89-12.41 16.17-26.62 16.17h-1.82l-.1 2.53c0 6.25 3.18 9.82 9.28 9.81a26.19 26.19 0 0 0 12.91-3.54v7.78a34.4 34.4 0 0 1-14.75 3.54zM261.57 48c-7.19 0-11.39 8.51-12.5 13.14h1.21c10 0 16.64-2.78 16.64-8.59 0-2.43-1.02-4.55-5.35-4.55z" fill="#989898"/></svg>