<svg xmlns="http://www.w3.org/2000/svg" viewBox="0 0 270.6 35.2"><title>brandworld</title><path d="M41.9 7h3.7v8.8h.1a4.9 4.9 0 0 1 1.8-1.7 5.26 5.26 0 0 1 2.6-.6c2.5 0 5.1 1.7 5.1 6.4v8.7h-3.7v-8.2c0-2.1-.8-3.7-2.8-3.7a3.17 3.17 0 0 0-2.9 2.1c-.2 0-.2.4-.2.8v8.8h-3.7V7zm30 15.2c0-.3.1-.8.1-1.5 0-3.2-1.7-7.2-6.4-7.2s-7.2 3.8-7.2 7.9c0 4.5 2.8 7.4 7.6 7.4a14.13 14.13 0 0 0 5.1-.9l-.5-2.6a15.47 15.47 0 0 1-4.1.6c-2.3 0-4.4-1.1-4.5-3.8 0 0 9.8 0 9.9.1zM62 19.5c.1-1.5 1.1-3.6 3.4-3.6s3.1 2.3 3 3.6zM77.2 7.6a2 2 0 0 0-2.1 2 1.94 1.94 0 0 0 2 2 2 2 0 0 0 2.1-2 2 2 0 0 0-2-2zm1.7 20.8V13.7h-3.7v14.7zm3.3-.8a9.67 9.67 0 0 0 4.5 1c3.9 0 6-1.9 6-4.6-.1-2.1-1.3-3.5-4-4.5-1.9-.6-2.6-1-2.6-2s.7-1.5 2-1.5a6.43 6.43 0 0 1 3.3.9l.7-2.6a8 8 0 0 0-3.9-.9c-3.5 0-5.6 2-5.6 4.6 0 1.7 1.2 3.3 4.1 4.3 1.8.6 2.4 1.1 2.4 2.1s-.7 1.7-2.4 1.7a8.91 8.91 0 0 1-3.8-1.1zm26.2-5.4c0-.3.1-.8.1-1.5 0-3.2-1.6-7.2-6.4-7.2s-7.2 3.8-7.2 7.9c0 4.5 2.8 7.4 7.6 7.4a14.13 14.13 0 0 0 5.1-.9l-.5-2.6a15.47 15.47 0 0 1-4.1.6c-2.3 0-4.4-1.1-4.5-3.8 0 0 9.9 0 9.9.1zm-9.8-2.7c.1-1.5 1.1-3.6 3.4-3.6s3.1 2.3 3 3.6zm-65.3-5.2c0-9-7.1-14.3-15.6-14.3C7.4 0-.1 7.8 0 18c0 10 8.2 17.2 18 17.2a17.48 17.48 0 0 0 13-6.1l-.7-1.1c-.6.5-1.2 1.1-1.8 1.5a18.94 18.94 0 0 1-10.8 3.4c-7.6 0-13-6.2-13-13.6 0-8.4 3.4-16 12.9-16 7.1 0 12.9 4.7 12.9 12.1a12.1 12.1 0 0 1-2.6 7.1l1.3 1.1a12.56 12.56 0 0 0 4.1-9.3zM21 8.6a1.73 1.73 0 0 0-1.8-1.8c-1.2 0-1.8.8-2.3 1.9l-6.1 14.1a5.68 5.68 0 0 0-.7 2.2 1.73 1.73 0 0 0 1.8 1.8c1.4 0 2.1-1.3 2.6-2.4l5.7-13a6.94 6.94 0 0 0 .8-2.8zm4.6 7.9a1.73 1.73 0 0 0-1.8-1.8c-1.2 0-1.8.9-2.3 1.9l-2.8 6.1a6.26 6.26 0 0 0-.7 2.2 1.73 1.73 0 0 0 1.8 1.8c1.4 0 2.1-1.2 2.6-2.3l2.3-5.1a9.18 9.18 0 0 0 .9-2.8z" fill="#999"/><path d="M118.5 9.4h6.6c4 0 7.1 1.1 7.1 4.8a4.27 4.27 0 0 1-3.3 4.2v.1q4.2.75 4.2 4.5c0 3.9-3.3 5.7-7.5 5.7h-7.2V9.4zm6.4 7.8c2.1 0 3.1-.9 3.1-2.4s-1-2-3-2h-2.1v4.4zm.4 8.1c2.4 0 3.6-.9 3.6-2.6s-1.2-2.4-3.6-2.4h-2.4v5.1h2.4zM136.1 14v14.8h4.4v-8.5a3.52 3.52 0 0 1 3.2-2.7 7.77 7.77 0 0 1 1.6.2l.7-3.8a3.69 3.69 0 0 0-1.7-.3 4.93 4.93 0 0 0-4.2 2.9h-.1l-.3-2.6zm18.6 5.3a2 2 0 0 0-2.3-2.1 8.18 8.18 0 0 0-3.9 1.3l-1.5-2.9a12.57 12.57 0 0 1 6.3-1.9c3.8 0 5.8 2.1 5.8 6.6v8.4h-3.6l-.3-1.5h-.1a6.32 6.32 0 0 1-4.3 1.9 4.25 4.25 0 0 1-4.4-4.4c.1-3.2 2.5-4.8 8.3-5.4zm-2.4 6.4a3.3 3.3 0 0 0 2.4-1.2v-2.6c-3.1.4-4.1 1.3-4.1 2.4 0 .9.7 1.4 1.7 1.4zM162.8 14v14.6h4.4v-9.9a3.62 3.62 0 0 1 2.7-1.4c1.2 0 1.8.7 1.8 2.8v8.6h4.4v-9.1c0-3.6-1.4-5.9-4.6-5.9a6.56 6.56 0 0 0-4.7 2.2h-.1l-.3-1.9zm22.3-.3a5 5 0 0 1 3.6 1.5l-.2-2.3v-5h4.4v20.8h-3.6l-.3-1.5h-.1A5.92 5.92 0 0 1 185 29c-3.6 0-6-2.9-6-7.7s3-7.6 6.1-7.6zm1 11.8a3 3 0 0 0 2.4-1.3v-6a3.45 3.45 0 0 0-2.4-.9c-1.4 0-2.6 1.3-2.6 4.1s.9 4.1 2.6 4.1zm12.7 3.2h5.4l1.8-8.8c.3-1.5.6-3.1.8-4.5h.1c.2 1.4.5 3 .8 4.5l1.9 8.8h5.5l3.4-19.3h-4.2l-1.3 9c-.3 2-.6 4-.8 6.1h-.1c-.4-2.1-.8-4.1-1.2-6.1l-2.1-9h-3.7l-2.1 9c-.4 2-.7 4.1-1.1 6.1h-.1c-.3-2-.5-4.1-.8-6.1l-1.3-9h-4.5zm28.3-15c3.7 0 7.1 2.8 7.1 7.7s-3.4 7.7-7.1 7.7-7.2-2.8-7.2-7.7 3.5-7.7 7.2-7.7zm0 11.8c1.8 0 2.7-1.6 2.7-4.2s-.9-4.2-2.7-4.2-2.7 1.6-2.7 4.2.9 4.2 2.7 4.2zM237.2 14v14.8h4.4v-8.5a3.52 3.52 0 0 1 3.2-2.7 7.77 7.77 0 0 1 1.6.2l.7-3.8a3.69 3.69 0 0 0-1.7-.3 4.93 4.93 0 0 0-4.2 2.9h-.1l-.3-2.6zM249 24.1c0 2.9 1 4.9 4 4.9a5.74 5.74 0 0 0 2.2-.4l-.5-3.2a.9.9 0 0 1-.5.1c-.4 0-.8-.3-.8-1.2V7.9H249zm13.8-10.4a5 5 0 0 1 3.6 1.5l-.2-2.3v-5h4.4v20.8H267l-.3-1.5h-.1a5.92 5.92 0 0 1-3.9 1.8c-3.6 0-6-2.9-6-7.7s3-7.6 6.1-7.6zm1 11.8a3 3 0 0 0 2.4-1.3v-6a3.45 3.45 0 0 0-2.4-.9c-1.4 0-2.6 1.3-2.6 4.1s1 4.1 2.6 4.1z" fill="#db0d15"/></svg>