<svg preserveAspectRatio="xMinYMin" xmlns="http://www.w3.org/2000/svg" viewBox="0 0 500 372"><path d="M332.38 9.88L421 0l9.89 9.88L408.5 101l81.61-9.87L500 101l-21.84 88.7h-91.58l-10.3 41.83s-3.16 10.56-2 17.23a25.91 25.91 0 0 0 5 12.35c3.56 5 6.67 7.4 12.31 9.87 5.35 2.35 14.78 2.45 14.78 2.45l61.62-9.87 9.89 9.87L453.54 372H379c-65.3.65-106.24-44.16-106.24-99.39 0-12.06 3.46-31.34 10.8-64.65l4.71-18.96 44.1-179.1zm-95.6 0l-29.31 69 9.89 9.87H259l-34.77 91.07 9.89 9.87h42.19l44.3-179.81-9.9-9.88-73.94 9.88zM180.12 101C83.95 100.83 9.89 194 9.89 272.25c0 55.23 40.5 101.19 105.94 99.71h101.73l24.27-98.57-9.89-9.87-94.35 9.87c-21.49-.12-28-21.74-28-34.85 0-23 25.85-48.82 50.74-48.88h62.1L244.25 101l-9.89-9.87-54.24 9.87z" fill="#c6c6c5"/><path d="M180.12 101l32.39 78.82 9.89 9.87h-62.1c-24.89.06-50.74 25.9-50.74 48.88 0 13.12 6.54 34.73 28 34.85 0 0-127.7 54.09-127.7-1.14C9.89 194 83.95 100.83 180.12 101zm56.65-91.12l-29.31 69 9.89 9.87H259l-34.77 91.07 9.89 9.87h42.19l-9.89-9.87L236.77 9.88zm60 143.5l171.47 26.41 9.89 9.87h-91.55l-9.89-9.87c-.56 6.7-35 53.86-29.7 90.67 7.45 51.35 96.66 91.63 96.66 91.63l9.89 9.88H379c-65.3.65-106.24-44.16-106.24-99.39 0-12.06 3.46-31.34 10.8-64.65l4.71-18.93 8.52-35.59zm-159.2 120l70.08 88.69 9.89 9.88H115.83C50.4 373.44 9.89 327.49 9.89 272.25c0-78.23 106.21 1 127.7 1.14z" fill="#575757"/><path d="M322.48 0H421l-22.39 91.09h91.5l-21.84 88.69h-91.59l-10.3 41.82s-3.16 10.56-2 17.23a25.91 25.91 0 0 0 5 12.35c3.56 5 6.67 7.4 12.31 9.87 5.35 2.34 14.78 2.45 14.78 2.45h71.51l-24.27 98.57h-74.6c-65.3.66-106.24-44.16-106.24-99.39 0-12.06 3.46-31.34 10.8-64.65l4.71-18.94L322.48 0zm-95.6 0l-19.41 78.85h41.66l-24.88 100.94h42.19L310.71 0zm-56.66 91.09C74.05 91 0 184.15 0 262.37c0 55.24 40.5 101.19 105.94 99.71h101.73l24.27-98.57H127.7c-21.49-.12-28-21.74-28-34.85 0-23 25.85-48.82 50.74-48.88h62.1l21.84-88.69z" fill="#fff"/></svg>