<svg preserveAspectRatio="xMinYMin" xmlns="http://www.w3.org/2000/svg" viewBox="0 0 500 370"><path d="M329 0h100.54l-22.89 93.08H500l-22.28 90.62h-93.43l-10.5 42.73s-3.22 10.79-2.08 17.61a26.5 26.5 0 0 0 5.07 12.62c3.63 5.13 6.81 7.56 12.56 10.09 5.46 2.39 15.07 2.51 15.07 2.51h73L452.6 370h-76c-66.62.67-108.38-45.12-108.38-101.55 0-12.32 3.53-32 11-66.06L284 183 329 0zm-97.54 0l-19.81 80.56h42.5L228.78 183.7h43L317 0zm-57.8 93.08C75.55 92.93 0 188.15 0 268.08 0 324.52 41.32 371.47 108.08 370h103.78l24.76-100.71H130.27c-21.92-.12-28.59-22.21-28.59-35.61 0-23.49 26.37-49.88 51.77-49.95h63.35l22.28-90.62z" fill="#2288c6"/></svg>