<svg preserveAspectRatio="xMinYMin" xmlns="http://www.w3.org/2000/svg" viewBox="0 0 40 30"><path d="M26.32 0h8l-1.79 7.55H40l-1.78 7.35h-7.48l-.84 3.46a4.13 4.13 0 0 0-.17 1.43 2.16 2.16 0 0 0 .41 1 2.12 2.12 0 0 0 1 .82 3.88 3.88 0 0 0 1.21.2h5.84l-2 8.17h-6.06c-5.33.05-8.67-3.66-8.67-8.23a30.21 30.21 0 0 1 .88-5.36l.38-1.57L26.32 0zm-7.8 0l-1.59 6.53h3.4l-2 8.36h3.44L25.36 0zm-4.63 7.55C6 7.54 0 15.26 0 21.74A8 8 0 0 0 8.65 30h8.3l2-8.17h-8.53c-1.75 0-2.29-1.8-2.29-2.89a4.55 4.55 0 0 1 4.14-4h5.07l1.78-7.35z" fill="#2288c6"/></svg>