<svg preserveAspectRatio="xMinYMin" xmlns="http://www.w3.org/2000/svg" width="208" height="30" viewBox="0 0 208 30"><path data-name="developer" d="M80.2 22.3V21h2.1V7.4h-2.1V6.1h8.3c2.9 0 5.1.7 6.7 2.1a7.7 7.7 0 0 1 2.3 6 7.7 7.7 0 0 1-2.3 6c-1.5 1.4-3.8 2.1-6.7 2.1h-8.3zm6.3-1.3H88a4.3 4.3 0 0 0 3.7-1.6 9 9 0 0 0 1.2-5.2c0-2.3-.4-4.1-1.2-5.1A4.2 4.2 0 0 0 88 7.5h-1.5V21zm25.5-3.9h-7.9a5.9 5.9 0 0 0 .7 3.2 2.5 2.5 0 0 0 2.2 1 3 3 0 0 0 2-.6 3.2 3.2 0 0 0 1-1.9h1.8a4.6 4.6 0 0 1-1.8 2.9 6.9 6.9 0 0 1-3.9.9 6.2 6.2 0 0 1-4.6-1.6 6.1 6.1 0 0 1-1.6-4.5 5.9 5.9 0 0 1 1.6-4.5 6.3 6.3 0 0 1 4.5-1.6 5.6 5.6 0 0 1 4.4 1.7 7.4 7.4 0 0 1 1.6 5zm-4.2-1.3a8.5 8.5 0 0 0-.4-3.2 1.4 1.4 0 0 0-1.5-.9 1.5 1.5 0 0 0-1.4.9 7.6 7.6 0 0 0-.4 3v.2h3.7zm10.6 6.5l-4.1-10.2H113v-1.3h6.6v1.3h-1.4l2.9 7.3 2.9-7.3h-1.5v-1.3h4.3v1.3h-1.3l-4.1 10.2h-3.1zm21.5-5.2H132a5.9 5.9 0 0 0 .7 3.2 2.5 2.5 0 0 0 2.2 1 3 3 0 0 0 2-.6 3.2 3.2 0 0 0 1-1.9h1.8a4.6 4.6 0 0 1-1.8 2.9 6.9 6.9 0 0 1-3.9.9 6.2 6.2 0 0 1-4.6-1.6 6.1 6.1 0 0 1-1.6-4.5 5.9 5.9 0 0 1 1.6-4.5 6.3 6.3 0 0 1 4.5-1.6 5.6 5.6 0 0 1 4.4 1.7 7.4 7.4 0 0 1 1.6 5zm-4.2-1.3a8.5 8.5 0 0 0-.4-3.2 1.4 1.4 0 0 0-1.5-.9 1.5 1.5 0 0 0-1.4.9 7.6 7.6 0 0 0-.4 3v.2h3.7zm11.9 5.2h1.6v1.3h-7.1V21h1.6V6.7h-1.6V5.4h5.5V21zm10.1 1.6a6.8 6.8 0 0 1-4.8-1.6 5.9 5.9 0 0 1-1.7-4.5 5.8 5.8 0 0 1 1.7-4.5 7.9 7.9 0 0 1 9.6 0 5.8 5.8 0 0 1 1.7 4.5 5.8 5.8 0 0 1-1.7 4.5 6.6 6.6 0 0 1-4.8 1.6zm0-1.2a1.7 1.7 0 0 0 1.7-1 9.9 9.9 0 0 0 .5-3.8 9.9 9.9 0 0 0-.5-3.8 1.7 1.7 0 0 0-1.7-1 1.7 1.7 0 0 0-1.7 1 9.8 9.8 0 0 0-.5 3.8 9.9 9.9 0 0 0 .5 3.8 1.7 1.7 0 0 0 1.7 1zm10-9.3h-1.6v-1.3h5.5v1.5a3.3 3.3 0 0 1 1.3-1.3 4.4 4.4 0 0 1 2.1-.4 4.9 4.9 0 0 1 3.9 1.6 6.6 6.6 0 0 1 1.4 4.4 6.5 6.5 0 0 1-1.4 4.5 4.8 4.8 0 0 1-3.9 1.6 4.5 4.5 0 0 1-2.1-.4 3 3 0 0 1-1.3-1.3v4.8h1.8v1.3h-7.3v-1.5h1.6V12.1zm3.8 3.9v1.1a6.2 6.2 0 0 0 .5 2.9 1.8 1.8 0 0 0 1.7.9 1.7 1.7 0 0 0 1.7-1 8.5 8.5 0 0 0 .5-3.4 8 8 0 0 0-.5-3.4 1.7 1.7 0 0 0-1.7-1 1.8 1.8 0 0 0-1.7.9 5.9 5.9 0 0 0-.5 3zm23.1 1.1h-7.9a5.9 5.9 0 0 0 .7 3.2 2.5 2.5 0 0 0 2.2 1 3 3 0 0 0 2-.6 3.2 3.2 0 0 0 1-1.9h1.8a4.6 4.6 0 0 1-1.8 2.9 6.9 6.9 0 0 1-3.9.9A6.2 6.2 0 0 1 184 21a6.1 6.1 0 0 1-1.6-4.5A5.9 5.9 0 0 1 184 12a6.3 6.3 0 0 1 4.5-1.6 5.6 5.6 0 0 1 4.4 1.7 7.7 7.7 0 0 1 1.7 5zm-4.2-1.3a8.5 8.5 0 0 0-.4-3.2 1.4 1.4 0 0 0-1.5-.9 1.5 1.5 0 0 0-1.4.9 7.6 7.6 0 0 0-.4 3v.2h3.7zm17.6-5.1v3.4h-1.2a2.2 2.2 0 0 0-.5-1.4 1.6 1.6 0 0 0-1.2-.4 2.2 2.2 0 0 0-2 1.1 5.5 5.5 0 0 0-.7 3.1V21h2.1v1.3h-7.6V21h1.6v-8.9h-1.8v-1.3h5.6v2.1a4.1 4.1 0 0 1 1.5-1.8 4.2 4.2 0 0 1 2.3-.6h1.9z" fill="#661136"/><path d="M35.2 9.7h1.6V15a3 3 0 0 1 1.1-1 3.3 3.3 0 0 1 1.6-.4c1.1 0 3 .7 3 3.7v5.1h-1.6v-5c0-1.4-.5-2.6-2-2.6a2.2 2.2 0 0 0-2.1 1.6 2.1 2.1 0 0 0-.1.7v5.2h-1.5V9.7zm10.7 8.6a2.7 2.7 0 0 0 2.9 3 6 6 0 0 0 2.4-.4l.3 1.1a6.6 6.6 0 0 1-2.8.5 4 4 0 0 1-4.2-4.3c0-2.6 1.5-4.6 4-4.6s3.5 2.4 3.5 4a4.7 4.7 0 0 1-.1.7h-6zm4.5-1.1a2.2 2.2 0 0 0-2.2-2.5 2.6 2.6 0 0 0-2.4 2.5h4.5zm5.2-5.8a.9.9 0 0 1-1 1 .9.9 0 0 1-.9-1 1 1 0 0 1 1-1 .9.9 0 0 1 .9.9zm-1.7 11v-8.7h1.6v8.6h-1.6zm3.9-1.6a4 4 0 0 0 2 .6c1.1 0 1.7-.6 1.7-1.3s-.4-1.1-1.6-1.6-2.3-1.4-2.3-2.4 1.1-2.5 2.9-2.5a4.1 4.1 0 0 1 2.1.5l-.4 1.1a3.4 3.4 0 0 0-1.8-.5 1.2 1.2 0 0 0-1.4 1.2c0 .7.5 1 1.6 1.4s2.4 1.4 2.4 2.6-1.2 2.6-3.2 2.6a5.1 5.1 0 0 1-2.4-.6zm8.1-2.4a2.7 2.7 0 0 0 2.9 3 6 6 0 0 0 2.4-.4l.3 1a6.6 6.6 0 0 1-2.8.5 4 4 0 0 1-4.2-4.3c0-2.6 1.5-4.6 4-4.6s3.5 2.4 3.5 4a4.7 4.7 0 0 1-.1.7h-6zm4.5-1.1a2.2 2.2 0 0 0-2.2-2.5 2.6 2.6 0 0 0-2.4 2.5h4.5zm-45.5 2.8l-1.1-.9a9.9 9.9 0 0 0 2.2-6c0-6.4-4.9-10.4-11-10.4-8.1 0-11 6.4-11 13.6S8.7 28 15.2 28a16 16 0 0 0 9.2-2.9l1.5-1.3.6.9A15.1 15.1 0 0 1 15.3 30C6.9 30 0 23.9 0 15.3S6.4 0 15.2 0c7.3 0 13.3 4.6 13.3 12.2a11.5 11.5 0 0 1-3.6 7.9zM17.2 9.7l-4.9 11c-.4.9-1 2-2.2 2a1.5 1.5 0 0 1-1.5-1.5 4.9 4.9 0 0 1 .6-1.9l5.3-12a2.1 2.1 0 0 1 1.9-1.6 1.4 1.4 0 0 1 1.5 1.5 6 6 0 0 1-.7 2.5zm3.8 6.7l-1.9 4.4c-.4.9-1.1 2-2.2 2a1.4 1.4 0 0 1-1.5-1.5 4.5 4.5 0 0 1 .6-1.9l2.4-5.3a2.1 2.1 0 0 1 1.9-1.6 1.4 1.4 0 0 1 1.5 1.5 5.7 5.7 0 0 1-.8 2.4z" fill="#888"/></svg>