<svg preserveAspectRatio="xMinYMin" xmlns="http://www.w3.org/2000/svg" width="595" height="86" viewBox="0 0 595 86"><path data-name="developer" d="M228.8 64v-3.8h6V21.3h-6v-3.7h23.8c8.3 0 14.7 2 19.1 6s6.6 9.7 6.6 17.2-2.2 13.2-6.6 17.2-10.8 6-19.1 6h-23.8zm17.9-3.7h4.3c4.8 0 8.4-1.6 10.6-4.7s3.3-8 3.3-14.8-1.1-11.7-3.3-14.7-5.8-4.6-10.6-4.6h-4.3v38.7zM319.8 49h-22.7v.2c0 4.2.7 7.4 1.9 9.2s3.3 2.8 6.3 2.8a8.6 8.6 0 0 0 5.8-1.9 9.1 9.1 0 0 0 2.8-5.5h5.1a13.3 13.3 0 0 1-5.3 8.3c-2.7 1.8-6.3 2.7-11.2 2.7s-10.1-1.5-13.2-4.5-4.6-7.3-4.6-12.9 1.6-9.7 4.7-12.8 7.5-4.6 13-4.6 9.7 1.6 12.6 4.8 4.7 8 4.8 14.2zm-12.1-3.6c0-4.3-.4-7.4-1.2-9.2a4.2 4.2 0 0 0-4.2-2.6 4.3 4.3 0 0 0-4.1 2.6c-.8 1.7-1.2 4.6-1.2 8.6v.6h10.6zM338.2 64l-11.7-29.3h-3.6v-3.8h19v3.8h-4l8.3 20.8 8.3-20.8h-4.3v-3.8h12.4v3.8h-3.8L347.1 64h-8.9zm61.7-15h-22.7v.2c0 4.2.7 7.4 1.9 9.2s3.3 2.8 6.3 2.8a8.6 8.6 0 0 0 5.8-1.9 9.1 9.1 0 0 0 2.8-5.5h5.1a13.3 13.3 0 0 1-5.3 8.3c-2.7 1.8-6.3 2.7-11.2 2.7s-10.1-1.5-13.2-4.5-4.6-7.3-4.6-12.9 1.6-9.7 4.7-12.8 7.5-4.6 13-4.6 9.7 1.6 12.6 4.8 4.6 8 4.8 14.2zm-12.1-3.6c0-4.3-.4-7.4-1.2-9.2a4.2 4.2 0 0 0-4.2-2.6 4.3 4.3 0 0 0-4.1 2.6c-.8 1.7-1.2 4.6-1.2 8.6v.6h10.6zm34.1 14.9h4.7V64h-20.4v-3.8h4.7V19.3h-4.7v-3.7h15.7v44.6zm28.9 4.6c-5.8 0-10.4-1.6-13.7-4.6s-5-7.4-5-12.8 1.6-9.7 5-12.8S445 30 450.8 30s10.4 1.6 13.7 4.6 4.9 7.4 4.9 12.8-1.6 9.7-5 12.8-7.8 4.7-13.6 4.7zm0-3.5a5 5 0 0 0 4.9-3c1-2 1.4-5.7 1.4-10.9s-.4-8.9-1.4-10.9a5 5 0 0 0-4.9-3 4.9 4.9 0 0 0-4.9 3c-1 2-1.4 5.7-1.4 10.9s.4 8.9 1.4 10.9a4.8 4.8 0 0 0 4.9 3zm28.6-26.6h-4.7v-3.9h15.7v4.2a9.5 9.5 0 0 1 3.8-3.9 12.5 12.5 0 0 1 5.9-1.3c4.7 0 8.4 1.6 11.1 4.6s4.1 7.4 4.1 12.7-1.3 9.8-4.1 12.9-6.4 4.7-11.1 4.7a12.9 12.9 0 0 1-5.9-1.3 8.7 8.7 0 0 1-3.8-3.9v13.7h5.1v3.8h-20.7v-3.8h4.7V34.7zm11 11.1v3.3c0 3.9.5 6.6 1.5 8.3a5.1 5.1 0 0 0 4.8 2.6 4.8 4.8 0 0 0 4.8-2.8c.9-1.8 1.4-5.1 1.4-9.8s-.4-8-1.4-9.8a5 5 0 0 0-4.8-2.8 5 5 0 0 0-4.8 2.6c-1 1.7-1.4 4.5-1.4 8.3zm66.3 3.1H534v.2c0 4.2.7 7.4 1.9 9.2s3.3 2.8 6.3 2.8a8.6 8.6 0 0 0 5.8-1.9 9.1 9.1 0 0 0 2.8-5.5h5.1a13.3 13.3 0 0 1-5.3 8.3c-2.7 1.8-6.3 2.7-11.2 2.7s-10.1-1.5-13.2-4.5-4.6-7.3-4.6-12.9 1.6-9.7 4.7-12.8 7.5-4.6 13-4.6 9.7 1.6 12.6 4.8 4.6 8 4.8 14.2zm-12.1-3.6c0-4.3-.4-7.4-1.2-9.2a4.2 4.2 0 0 0-4.2-2.6 4.3 4.3 0 0 0-4.1 2.6c-.8 1.7-1.2 4.6-1.2 8.6v.6h10.6zM595 30.6v9.8h-3.5a6.4 6.4 0 0 0-1.4-3.9 4.6 4.6 0 0 0-3.6-1.3 6.3 6.3 0 0 0-5.7 3.2c-1.4 2.1-2.1 5.1-2.1 8.8v13h6V64H563v-3.8h4.7V34.7h-5.1v-3.8h16.1v5.9a11.8 11.8 0 0 1 4.2-5.1 12.1 12.1 0 0 1 6.5-1.6h2.4z" fill="#661136"/><path d="M100.9 27.9h4.4v15.4h.1a8.6 8.6 0 0 1 3.2-3.1 9.5 9.5 0 0 1 4.6-1.3c3.3 0 8.6 2 8.6 10.5V64h-4.4V49.9c0-3.9-1.5-7.3-5.7-7.3a6.4 6.4 0 0 0-6 4.4 6 6 0 0 0-.3 2.1V64H101V27.9zm30.7 24.6c.1 6 3.9 8.5 8.4 8.5a17.1 17.1 0 0 0 6.8-1.3l.7 3.2a19 19 0 0 1-8.1 1.6c-7.6 0-12.1-5-12.1-12.4s4.4-13.3 11.5-13.3 10.1 7 10.1 11.6a13.3 13.3 0 0 1-.1 2.1h-17.2zm13-3.3c.1-2.8-1.2-7.3-6.2-7.3s-6.5 4.1-6.8 7.3h13zm14.8-16.7a2.6 2.6 0 0 1-2.8 2.7 2.6 2.6 0 0 1-2.7-2.7 2.8 2.8 0 0 1 2.8-2.8 2.6 2.6 0 0 1 2.7 2.8zm-5 31.4V39.4h4.4v24.5h-4.4zm11.3-4.5a11.4 11.4 0 0 0 5.9 1.8c3.3 0 4.7-1.6 4.7-3.6s-1.3-3.3-4.6-4.5-6.5-4-6.5-7 3.2-7.2 8.4-7.2a11.8 11.8 0 0 1 6 1.6l-1.1 3.3a9.7 9.7 0 0 0-5-1.4c-2.7 0-4.1 1.6-4.1 3.3s1.5 3 4.7 4.1 6.4 3.8 6.4 7.4-3.3 7.4-9.2 7.4a14.5 14.5 0 0 1-6.9-1.7zm23.2-6.9c.1 6 3.9 8.5 8.4 8.5a17.1 17.1 0 0 0 6.8-1.3l.7 3.2a19 19 0 0 1-8.1 1.6c-7.6 0-12.1-5-12.1-12.4s4.4-13.3 11.5-13.3 10.1 7 10.1 11.6a13.3 13.3 0 0 1-.1 2.1h-17.2zm13-3.3c.1-2.8-1.2-7.3-6.2-7.3s-6.5 4.1-6.8 7.3h13zM71.4 57.6L68.3 55a28.3 28.3 0 0 0 6.2-17.3C74.5 19.7 60.4 8 43 8 19.7 8 11.5 26.4 11.5 47c0 18.2 13.4 33.3 31.9 33.3a45.9 45.9 0 0 0 26.4-8.4 28 28 0 0 0 4.2-3.6l1.8 2.7a43.2 43.2 0 0 1-31.9 15C19.9 86.1 0 68.6 0 43.9S18.3 0 43.5 0c20.8 0 38.1 13.1 38.1 35 0 8.1-4.3 17.1-10.2 22.6zM49.3 27.7l-14 31.7c-1.2 2.7-3 5.8-6.3 5.8a4.2 4.2 0 0 1-4.3-4.2c0-1.9 1-3.7 1.7-5.4l15.1-34.5c1.2-2.6 2.6-4.5 5.6-4.5a4 4 0 0 1 4.2 4.2c0 2.5-1.1 4.8-2 6.9zm11 19.3l-5.6 12.6c-1.3 2.7-3 5.6-6.4 5.6a4 4 0 0 1-4.2-4.2 12.9 12.9 0 0 1 1.7-5.3l6.7-15.2c1.2-2.5 2.6-4.5 5.6-4.5a4 4 0 0 1 4.2 4.2 16.2 16.2 0 0 1-2 6.8z" fill="#888"/></svg>