<svg preserveAspectRatio="xMinYMin" xmlns="http://www.w3.org/2000/svg" viewBox="0 0 1998 321.8"><path fill="#329ECD" d="M389.7 65.7h11.4v76.9h.5c3.4-6.6 9-12.9 16.1-17 6.6-4.1 14.6-6.6 23.6-6.6 10.9 0 40.4 5.6 40.4 48.9v70.5h-11.4v-69.1c0-21.2-8.3-40.4-32.1-40.4-16.5 0-30.4 11.9-35.3 26.5-1.2 3.4-1.7 6.8-1.7 11.4v71.5h-11.4V65.7zM521.8 178.8c0 37.5 20.4 52.1 44.5 52.1 17 0 25.8-3.4 32.4-6.6l2.9 9.2c-4.4 2.4-16.3 7.5-36.7 7.5-33.6 0-54.5-24.6-54.5-58.9 0-38.9 22.4-63.2 52.5-63.2 38.2 0 45.5 36 45.5 52.8 0 3.2 0 5.1-.5 7.1h-86.1zm74.4-9.3c.2-16.3-6.6-41.1-34.8-41.1-25.8 0-37 23.1-38.9 41.1h73.7zM653.1 88.3c0 5.4-3.6 10-9.7 10-5.4 0-9-4.6-9-10s4.1-10.2 9.5-10.2c5.6 0 9.2 4.6 9.2 10.2zm-15.1 150V121.6h11.4v116.8H638zM684 223c6.3 3.9 15.8 8 26.3 8 18.5 0 27.2-10 27.2-22.1 0-12.9-7.8-19.7-24.6-26.5-19.2-7.3-29.7-17.8-29.7-31.9 0-16.8 13.1-31.6 36-31.6 10.7 0 19.7 3.2 25.8 7.3l-4.6 9.5c-3.9-2.9-11.4-7.1-23.1-7.1-14.8 0-22.6 9.5-22.6 20.2 0 12.2 8.3 17.5 24.1 24.1 19 7.3 30.2 16.8 30.2 34.5 0 19.9-15.6 33.6-39.4 33.6-11.4 0-21.9-3.4-29.7-8.3l4.1-9.7zM781.3 178.8c0 37.5 20.4 52.1 44.5 52.1 17 0 25.8-3.4 32.4-6.6l2.9 9.2c-4.4 2.4-16.3 7.5-36.7 7.5-33.6 0-54.5-24.6-54.5-58.9 0-38.9 22.4-63.2 52.5-63.2 38.2 0 45.5 36 45.5 52.8 0 3.2 0 5.1-.5 7.1h-86.1zm74.4-9.3c.2-16.3-6.6-41.1-34.8-41.1-25.8 0-37 23.1-38.9 41.1h73.7zM945.5 76.6c13.1-2.2 29.9-3.4 47.7-3.4 30.6 0 51.8 6.3 66.9 19 15.8 12.9 25.5 32.4 25.5 60.3 0 29.2-10 51.1-25.5 65.2-16.3 14.8-42.3 22.4-74.2 22.4-17.5 0-30.6-1-40.4-2.2V76.6zm29.9 138.9c4.1.7 10.5.7 16.5.7 38.9.2 62-21.2 62-62.8.2-36.2-20.7-56.9-58.1-56.9-9.5 0-16.3.7-20.4 1.7v117.3zM1223 178c0 43.5-30.6 63-60.8 63-33.6 0-59.3-23.1-59.3-61.1 0-38.9 25.5-62.8 61.3-62.8 35.2.1 58.8 24.9 58.8 60.9zm-89.2 1.2c0 22.9 11.2 40.1 29.4 40.1 17 0 28.9-16.8 28.9-40.6 0-18.5-8.3-39.6-28.7-39.6-21.1 0-29.6 20.4-29.6 40.1zM1263.7 119.9l12.4 53.8c2.7 12.7 5.4 25.5 7.5 38.4h.5c2.4-12.9 6.3-26 9.7-38.2l15.3-54h24.3l14.8 52.5c3.7 13.9 6.8 26.8 9.5 39.6h.5c1.9-12.9 4.6-25.8 7.8-39.6l13.1-52.5h29.4l-37.2 118.5h-27.7l-14.1-48.2c-3.6-12.4-6.3-23.6-9-37.9h-.5c-2.4 14.6-5.6 26.3-9 37.9l-15.1 48.2h-28l-35-118.5h30.8zM1427.8 155.2c0-13.6-.2-25.1-1-35.3h26.3l1.5 17.8h.7c5.1-9.2 18-20.4 37.7-20.4 20.7 0 42.1 13.4 42.1 50.8v70.3h-29.9v-66.9c0-17-6.3-29.9-22.6-29.9-11.9 0-20.2 8.5-23.4 17.5-1 2.7-1.2 6.3-1.2 9.7v69.6h-30.2v-83.2zM1564.1 65.7h30.2v172.7h-30.2V65.7zM1739.2 178c0 43.5-30.6 63-60.8 63-33.6 0-59.3-23.1-59.3-61.1 0-38.9 25.5-62.8 61.3-62.8 35.2.1 58.8 24.9 58.8 60.9zm-89.3 1.2c0 22.9 11.2 40.1 29.4 40.1 17 0 28.9-16.8 28.9-40.6 0-18.5-8.3-39.6-28.7-39.6-21.1 0-29.6 20.4-29.6 40.1zM1855.7 209.9c0 10.7.5 21.2 1.7 28.5h-27l-1.9-13.1h-.7c-7.3 9.2-19.7 15.8-35 15.8-23.8 0-37.2-17.3-37.2-35.3 0-29.9 26.5-45 70.3-44.8v-1.9c0-7.8-3.2-20.7-24.1-20.7-11.7 0-23.8 3.6-31.9 8.8l-5.8-19.5c8.8-5.4 24.1-10.5 42.8-10.5 37.9 0 48.9 24.1 48.9 49.9v42.8zm-29.2-29.4c-21.2-.5-41.3 4.1-41.3 22.1 0 11.7 7.5 17 17 17 11.9 0 20.7-7.8 23.4-16.3.7-2.2 1-4.6 1-6.6v-16.2zM1997 65.7V205c0 12.2.5 25.3 1 33.3h-26.8l-1.2-18.7h-.5c-7.1 13.1-21.4 21.4-38.7 21.4-28.2 0-50.6-24.1-50.6-60.6-.2-39.6 24.6-63.2 53-63.2 16.3 0 28 6.8 33.3 15.6h.5V65.7h30zm-29.9 103.6c0-2.4-.2-5.3-.7-7.8-2.7-11.7-12.2-21.2-25.8-21.2-19.2 0-29.9 17-29.9 39.2 0 21.6 10.7 37.5 29.7 37.5 12.2 0 22.9-8.3 25.8-21.2.7-2.7 1-5.6 1-8.8v-17.7zM267 215.6l-11.6-10c14.3-17.2 23.2-42.5 23.2-64.7 0-67.3-52.7-111.1-117.8-111.1-87.2 0-117.8 69-117.8 146 0 68 50.1 124.4 119.4 124.4 36.5 0 68.7-10.9 98.5-31.2 5.6-4 10.9-8.6 15.9-13.6l6.6 10c-27.9 34.2-75.3 56.4-119.4 56.4-89.7 0-164-65.4-164-157.6C0 70.7 68.3 0 162.5 0c78 0 142.6 49.1 142.6 131 .1 30.2-15.9 64-38.1 84.6zm-82.9-112.1L132 222.2c-4.3 10-10.9 21.6-23.6 21.6-9.3 0-16.3-6.6-16.3-15.9 0-7.3 3.6-13.9 6.3-20.2L154.8 79c4.3-9.6 9.6-16.9 20.9-16.9 9.3 0 15.9 6.6 15.9 15.9.1 8.9-3.9 17.5-7.5 25.5zm41.5 72.3l-20.9 46.8c-4.6 10-11.3 21.2-23.9 21.2-9.3 0-15.9-6.6-15.9-15.9 0-7 3.3-13.6 6.3-19.9l25.2-56.7c4.3-9.3 9.6-16.9 20.9-16.9 9.3 0 15.9 6.6 15.9 15.9 0 8.9-4 17.5-7.6 25.5z"/></svg>