<svg xmlns="http://www.w3.org/2000/svg" viewBox="0 0 2000 302.7"><title>events</title><path d="M407.8 43.6L396 138.7c16.5-11.5 27.8-15.7 43.4-15.7 27.8 0 42.8 16.5 42.8 46.7a177.2 177.2 0 0 1-1.8 21.9l-8.3 67.3h-48.6L430 206c1.8-13.3 2.1-16.5 2.1-21.6 0-14.2-5.6-21-17.7-21-15.7 0-22.4 8.6-25.4 32.8l-7.7 62.6h-48.8l26.6-215.2h48.7zm146.8 159.2c0 18 7.1 25.7 23 25.7 10.6 0 16.5-4.1 18.6-13.6h53.2c-6.2 15.9-9.7 21.9-18.3 29.8-13 11.8-31.9 18-54.3 18-42.8 0-68.5-24.2-68.5-64.4 0-44.6 31.6-75.3 77.7-75.3 42.5 0 67.9 25.4 67.9 67.9 0 3.2-.3 5.9-.6 11.8h-98.7zm49.3-27.5C603 162 595.3 155 582 155s-21.3 6.8-24.2 20.4h46.1zm134.4-48.4l-16.3 132h-48.7l16.2-132h48.7zm10.9-50.2c0 16.5-12.7 29.5-28.6 29.5A29.1 29.1 0 0 1 691.3 77c0-15.9 13.3-28.6 29.8-28.6a28.3 28.3 0 0 1 28.1 28.3zm128.4 59.4l-11.5 33.4c-13.9-8.6-21.9-11.2-32.2-11.2s-16.8 2.7-16.8 8c0 3.2 2.1 5 7.7 6.5l15.9 4.1c24.2 6.5 35.1 18 35.1 36.9 0 30.1-23.9 49-61.4 49-21.9 0-38.1-5.3-60.8-20.1l18-31.9c18.6 11.8 27.8 15.4 41 15.4 11.5 0 18-3.2 18-9.2 0-3.5-2.4-5.6-7.4-7.1l-15.9-3.5c-24.8-5.9-35.4-17.7-35.4-38.4 0-27.2 22.4-45.5 56.7-45.5 16.2 0 31 4.1 49 13.6zm65.6 66.7c0 18 7.1 25.7 23 25.7 10.6 0 16.5-4.1 18.6-13.6h53.2c-6.2 15.9-9.7 21.9-18.3 29.8-13 11.8-31.9 18-54.3 18-42.8 0-68.5-24.2-68.5-64.4 0-44.6 31.6-75.3 77.7-75.3 42.5 0 67.9 25.4 67.9 67.9 0 3.2-.3 5.9-.6 11.8h-98.7zm49.3-27.5c-.9-13.3-8.6-20.4-21.9-20.4s-21.3 6.8-24.2 20.4h46.1zm-741.3 27.5l-10.9-9.4c13.4-16.2 21.8-39.9 21.8-60.8 0-63.3-49.6-104.5-110.8-104.5-82 0-110.7 64.9-110.7 137.3 0 64 47.1 117 112.3 117 34.3 0 64.6-10.3 92.7-29.3a116 116 0 0 0 15-12.8l6.2 9.4c-26.2 32.1-70.8 53-112.3 53C69.9 302.7 0 241.2 0 154.5S64.3 0 152.9 0c73.3 0 134.2 46.2 134.2 123.3 0 28.3-15 60.2-35.9 79.5z" fill="#999"/><path d="M1267.5 61.9l-5.3 43.4h-57.9l-4.1 34h56.1l-5.3 43.1h-56.1l-4.1 33.1h60.2l-5.3 43.4h-110.2l24.2-197h107.8zm178.4 65l-89.2 132h-33.1l-51.4-132h50.5l15.1 40.2c3 7.7 5.3 16.5 9.4 32.8a339.6 339.6 0 0 1 19.2-34.3l25.4-38.7h54zm41.9 75.9c0 18 7.1 25.7 23 25.7 10.6 0 16.5-4.1 18.6-13.6h53.2c-6.2 15.9-9.7 21.9-18.3 29.8-13 11.8-31.9 18-54.3 18-42.8 0-68.5-24.2-68.5-64.4 0-44.6 31.6-75.3 77.7-75.3 42.5 0 67.9 25.4 67.9 67.9 0 3.2-.3 5.9-.6 11.8h-98.6zm49.3-27.5c-.9-13.3-8.6-20.4-21.9-20.4s-21.3 6.8-24.2 20.4h46zm134.4-48.4l-4.1 17.1c18-15.9 29.8-21 47.8-21 26.9 0 41.6 14.2 41.6 40.2a163.7 163.7 0 0 1-1.5 21.6l-9.2 74.1h-48.7l7.4-58.2a129.6 129.6 0 0 0 1.2-16.2c0-13.6-6.5-21-17.7-21-15.7 0-22.4 9.4-25.7 35.7l-7.4 59.6h-48.7l16.2-132h48.7zm176.3 37.5l-11.8 94.5h-48.4l11.5-94.5h-20.7l4.4-37.5h21l5-42.2h48.7l-5.3 42.2h26l-4.4 37.5h-26zm152.2-28.3l-11.5 33.4c-13.9-8.6-21.9-11.2-32.2-11.2s-16.8 2.7-16.8 8c0 3.2 2.1 5 7.7 6.5l15.9 4.1c24.2 6.5 35.1 18 35.1 36.9 0 30.1-23.9 49-61.4 49-21.9 0-38.1-5.3-60.8-20.1l18-31.9c18.6 11.8 27.8 15.4 41 15.4 11.5 0 18-3.2 18-9.2 0-3.5-2.4-5.6-7.4-7.1l-15.9-3.5c-24.8-5.9-35.4-17.7-35.4-38.4 0-27.2 22.4-45.5 56.7-45.5 16.2 0 31 4.1 49 13.6zM173.2 97.4l-49 111.7c-4.1 9.4-10.3 20.3-22.2 20.3-8.7 0-15.3-6.2-15.3-15 0-6.9 3.4-13.1 5.9-19l53-121.1c4.1-9 9.1-15.9 19.7-15.9 8.7 0 15 6.2 15 15s-3.7 16.5-7.1 24zm39 68l-19.7 44c-4.4 9.4-10.6 20-22.5 20-8.7 0-15-6.2-15-15 0-6.6 3.1-12.8 5.9-18.7l23.7-53.4c4.1-8.7 9-15.9 19.7-15.9 8.7 0 15 6.2 15 15s-3.7 16.5-7.1 24z" fill="#005fb4"/></svg>