<?xml version="1.0" encoding="utf-8"?>
<!-- Generator: Adobe Illustrator 15.1.0, SVG Export Plug-In . SVG Version: 6.00 Build 0)  -->
<!DOCTYPE svg PUBLIC "-//W3C//DTD SVG 1.1//EN" "http://www.w3.org/Graphics/SVG/1.1/DTD/svg11.dtd">
<svg version="1.1" id="Ebene_1" xmlns="http://www.w3.org/2000/svg" xmlns:xlink="http://www.w3.org/1999/xlink" x="0px" y="0px"
	 width="24px" height="24px" viewBox="408.945 583.275 24 24" enable-background="new 408.945 583.275 24 24" xml:space="preserve">
<g>
	<circle fill="#E32122" cx="420.945" cy="595.275" r="12"/>
	<path fill="#FDCB0B" d="M427.473,592.203c-0.192,6.335-7.104,5.856-7.488,7.392c-0.096,0.288-0.096,0.479-0.192,0.768
		c0,0,0.096-0.288,0.192-0.768c1.824-7.776-3.072-13.152-4.032-13.729c0.672,6.624-4.512,10.752-4.512,14.208
		c0,4.128,6.048,6.816,9.6,6.816s6.144-1.44,7.68-3.36C431.217,600.172,429.681,593.451,427.473,592.203z"/>
	<path fill="#FCF7CD" d="M418.833,594.987c0.192,5.28,2.304,4.8,2.688,6.048c0.096,0.192,0.096,0.48,0.191,0.672
		c0,0-0.096-0.288-0.191-0.672c-1.44-6.336,2.496-10.752,3.264-11.232c-0.576,5.472,3.36,8.833,3.36,11.712
		c0,3.359-4.608,5.567-7.488,5.567s-5.088-1.151-6.24-2.783C412.209,601.515,417.009,595.947,418.833,594.987z"/>
	<path fill="#F2961A" d="M422.96,601.035c-0.096,2.688-2.976,2.4-3.072,3.072c0,0.096-0.096,0.192-0.096,0.288
		c0,0,0-0.096,0.096-0.288c0.768-3.264-1.248-5.472-1.632-5.664c0.288,2.784-2.4,5.088-2.4,6.528c0,1.728,2.976,2.208,4.416,2.208
		c1.439,0,2.592-0.576,3.168-1.44C424.496,604.3,423.824,601.515,422.96,601.035z"/>
</g>
</svg>
