<svg preserveAspectRatio="xMinYMin" xmlns="http://www.w3.org/2000/svg" width="156" height="30" viewBox="0 0 156 30"><path d="M45.4 5.2L44.2 9h5.2L48 14.2h-5.3L40 23.3h-4.7L42.1.1h10.5l-1.5 5.1h-5.7zM62 16.5c-1.3 4.6-5.1 7.2-8.5 7.2s-5.7-2.6-4.3-7.2 5.1-7.2 8.5-7.2 5.6 2.6 4.3 7.2zm-8.9 0c-.5 1.7 0 3 1.5 3a3.8 3.8 0 0 0 3.3-3c.5-1.7 0-3.1-1.5-3.1s-2.8 1.5-3.3 3.1zm13.5 6.7h-3.8l2.8-9.5h-1.2l1.2-3.9h1.2L68 5.7h3.8l-1.2 4.1h2.1l-1.2 3.9h-2.1zm18.7-6.7c-1.3 4.6-5.1 7.2-8.5 7.2s-5.7-2.6-4.3-7.2 5.1-7.2 8.5-7.2 5.7 2.6 4.3 7.2zm-8.9 0c-.5 1.7 0 3 1.5 3a3.8 3.8 0 0 0 3.3-3c.5-1.7 0-3.1-1.5-3.1s-2.8 1.5-3.2 3.1zM98.3 22c-1.7 5.7-4.6 8-8.5 8s-5.3-1.6-4.6-5.2h4.2a1.1 1.1 0 0 0 .4 1 1.6 1.6 0 0 0 1 .3c2 0 2.9-1.7 3.6-3.9l.2-.6a5.6 5.6 0 0 1-3.9 1.8c-3.1 0-4.4-3-3.2-6.9s4.3-7.3 7.6-7.3a2.4 2.4 0 0 1 2.6 1.9l.4-1.4h3.8zm-6.9-5.5c-.5 1.7 0 3 1.5 3a3.8 3.8 0 0 0 3.3-3c.5-1.7 0-3.1-1.5-3.1s-2.8 1.4-3.3 3zm16.8-4.5a5.1 5.1 0 0 1 4.2-2.4h.7l-1.3 4.6a2 2 0 0 0-1.5-.4c-2.1 0-3.1 1.8-3.8 4.1l-1.6 5.4h-3.8l4-13.5h3.8zm14.6 11.3H119l.4-1.5a4.9 4.9 0 0 1-3.8 1.9c-3.2 0-4.4-3.3-3.3-7.2s4.3-7.2 7.4-7.2a2.8 2.8 0 0 1 2.8 1.8l.5-1.3h3.8zm-6.5-6.7c-.5 1.7 0 3 1.5 3a3.8 3.8 0 0 0 3.3-3c.5-1.7 0-3.1-1.5-3.1s-2.8 1.4-3.3 3zm14.1 6.7h-3.8l2.8-9.5H128l1.2-3.9h1.3l.5-1.8a9.7 9.7 0 0 1 2.5-4.7 6.3 6.3 0 0 1 4.4-2.2 2.2 2.2 0 0 1 1.5.5l-1.2 4.1a2.1 2.1 0 0 0-1.2-.4c-1 0-1.5.7-2 2.3l-.6 2.2h2.6l-1.2 3.9h-2.6zm8.9 0h-3.8l4-13.5h3.8zM145 4.6a3.6 3.6 0 0 1-3 2.7c-1.2 0-1.8-1.2-1.3-2.7a3.6 3.6 0 0 1 2.9-2.7c1.2 0 1.8 1.2 1.3 2.7zm10.4 12.7h-8c-.6 1.9-.1 3 1.5 3a2.6 2.6 0 0 0 2.2-1.2h3.6a7.7 7.7 0 0 1-6.8 4.6c-3.5 0-5.4-2.5-4.1-7.2s4.5-7.2 8-7.2 5 2.9 3.6 7.5v.5zm-2.7-2.8a1.6 1.6 0 0 0-1.5-2.1 3.3 3.3 0 0 0-2.9 2.1h4.4z" fill="#ffb000"/><path d="M14.5 0l-1.2 5.1H16l-1.6 6.5h2.7L19.9 0h-5.4zm6.1 0l-3.1 12.7a23.1 23.1 0 0 0-.7 4.1c0 3.5 2.6 6.4 6.8 6.4h4.8l1.6-6.3h-4.6l-.9-.2a1.8 1.8 0 0 1-1.1-1.4 3.2 3.2 0 0 1 .1-1.1l.7-2.7H30l1.4-5.7h-5.9L27 0h-6.3zm-9.7 5.8c-6.2 0-10.9 6-10.9 11a6.3 6.3 0 0 0 6.8 6.4h6.5l1.6-6.3H8.2c-1.4 0-1.8-1.4-1.8-2.2a3.5 3.5 0 0 1 3.2-3.1h4L15 5.8h-4.1z" fill="#87888a"/></svg>