<svg preserveAspectRatio="xMinYMin" xmlns="http://www.w3.org/2000/svg" width="203" height="39.2" viewBox="0 0 203 39.2"><path d="M58.3 6.7l-1.5 5.1h6.8l-2 6.7h-6.7l-3.5 11.9h-6.2L54.1 0h13.7l-2 6.7zm21.8 14.9c-1.8 6-6.7 9.4-11.1 9.4s-7.4-3.4-5.6-9.4 6.5-9.4 11-9.4 7.4 3.4 5.7 9.4zm-11.6 0c-.7 2.2 0 4 2 4s3.7-1.7 4.3-4 0-4-2-4-3.7 1.8-4.3 4zm17.6 8.8h-4.9l3.7-12.5h-1.7l1.5-5.2h1.6l1.6-5.3h4.9l-1.6 5.3H94l-1.5 5.2h-2.7zm24.4-8.8c-1.8 6-6.7 9.4-11.1 9.4s-7.4-3.4-5.6-9.4 6.7-9.4 11.2-9.4 7.3 3.4 5.6 9.4zm-11.5 0c-.7 2.2 0 4 2 4s3.7-1.7 4.3-4 0-4-2-4-3.7 1.8-4.3 4zm28.6 7.1c-2.2 7.5-6 10.5-11.2 10.5-3.2 0-6.9-2.1-6-6.7h5.6a1.5 1.5 0 0 0 .5 1.3 2.1 2.1 0 0 0 1.3.4c2.7 0 3.8-2.2 4.7-5.1l.2-.8c-1.8 1.6-3.3 2.4-5.1 2.4-4.1 0-5.7-3.9-4.2-9s5.7-9.6 9.9-9.6a3.2 3.2 0 0 1 3.4 2.4h.1l.5-1.9h4.9zm-9-7.2c-.7 2.2 0 4 2 4s3.7-1.7 4.3-4 0-4-2-4-3.7 1.8-4.3 4zm22-5.8h.1a6.7 6.7 0 0 1 5.4-3.1h1l-1.8 6a2.7 2.7 0 0 0-1.9-.6c-2.7 0-4.1 2.3-5 5.3l-2.1 7.1h-4.9l5.2-17.6h4.9zm19.1 14.8h-4.9l.6-2h-.1a6.5 6.5 0 0 1-5 2.5c-4.1 0-5.8-4.4-4.3-9.4s5.6-9.4 9.7-9.4a3.7 3.7 0 0 1 3.6 2.3l.5-1.7h4.9zm-8.6-8.8c-.7 2.2 0 4 2 4s3.7-1.7 4.3-4 0-4-2-4-3.7 1.7-4.3 3.9zm18.4 8.8h-4.9l3.7-12.5h-1.7l1.5-5.2h1.7l.7-2.2c.7-2.4 1.3-4.2 3.2-6.2a8.2 8.2 0 0 1 5.7-2.8 2.9 2.9 0 0 1 1.9.6l-1.6 5.4a2.7 2.7 0 0 0-1.6-.6c-1.3 0-2 1-2.6 3l-.8 2.9h3.5l-1.5 5.2h-3.5zm11.6 0h-4.9l5.2-17.6h4.9zm7.5-24.4c-.6 1.9-2.3 3.5-3.8 3.5s-2.3-1.6-1.7-3.5 2.3-3.5 3.8-3.5 2.2 1.5 1.7 3.4zm13.6 16.6h-10.5c-.7 2.5-.1 3.9 1.9 3.9a3.4 3.4 0 0 0 2.8-1.6h4.8a10.1 10.1 0 0 1-8.9 6.1c-4.6 0-7.1-3.3-5.3-9.4s6-9.5 10.6-9.5 6.5 3.8 4.8 9.8zm-3.5-3.6c.2-1.7-.7-2.8-2-2.8a4.3 4.3 0 0 0-3.8 2.8z" fill="#fc0"/><path d="M34.4 7.6L36.1.8l-.8-.8-1.9 7.6zm2.7 22.7h-6.2a9.1 9.1 0 0 1-6.1-2.1 8.8 8.8 0 0 0 6.9 3H38l2-8.3-.8-.8zM41 7.6L39.2 15h-7.7l-.9 3.5a4.1 4.1 0 0 0-.2 1.4 2.2 2.2 0 0 0 .4 1 2.1 2.1 0 0 0 .7.7 2.2 2.2 0 0 1-.3-.9 4.1 4.1 0 0 1 .2-1.4l.9-3.5H40l1.8-7.4zm-20.2-1h-3.4l.8.8h2.5zM26 0l-3.7 15.1h-3.5l.8.8h3.5L26.8.8zM12.6 15.1a3.8 3.8 0 0 0-1.8.5 5.2 5.2 0 0 0-1.5 1.3 4.2 4.2 0 0 0-.8 1.7 3.4 3.4 0 0 0 0 1.6 2.7 2.7 0 0 0 1 1.5h.2a3.4 3.4 0 0 1-.4-1 3.3 3.3 0 0 1 .4-2.5 5.2 5.2 0 0 1 1.3-1.4 4.5 4.5 0 0 1 1.7-.8h5.9l1.8-7.4-.8-.8-1.8 7.4zm4.8 15.3H9.1a9.7 9.7 0 0 1-3.7-.5 8.2 8.2 0 0 1-2.1-1.1l-.4-.4.4.4.4.4.9.7a7.1 7.1 0 0 0 4.3 1.3h9.3l2.1-8.3-.8-.8z" fill="#bbbcbe"/><path d="M19 0l-1.6 6.6h3.5l-2.1 8.5h3.5L26 0zm8 0l-4.1 16.6A30.2 30.2 0 0 0 22 22c0 4.6 3.4 8.4 8.9 8.3h6.2l2-8.3h-6a4 4 0 0 1-1.2-.2 2.4 2.4 0 0 1-1.4-1.9 4.1 4.1 0 0 1 .2-1.4l.9-3.5h7.7L41 7.6h-7.6L35.3 0zM14.3 7.6C6.2 7.6 0 15.4 0 22c0 4.6 3.4 8.5 8.9 8.4h8.5l2-8.3h-8.7c-1.8 0-2.3-1.8-2.3-2.9a4.6 4.6 0 0 1 4.2-4.1h5.2l1.8-7.4z" fill="#87888a"/></svg>