<svg preserveAspectRatio="xMinYMin" xmlns="http://www.w3.org/2000/svg" viewBox="0 0 64 64"><path fill="#888" d="M54.4 42.5l-2.3-2c2.8-3.4 4.6-8.3 4.6-12.7 0-13.2-10.3-21.7-23-21.7-17.1 0-23 13.5-23 28.6C10.6 48 20.4 59 34 59c7.2 0 13.4-2.2 19.3-6.1 1.1-.8 2.2-1.7 3.1-2.7l1.3 2C52.2 58.9 43 63.3 34.3 63.3c-17.6 0-32.2-12.8-32.2-30.8C2.1 14.1 15.5.3 34 .3c15.2 0 27.9 9.6 27.9 25.6 0 6-3.2 12.6-7.5 16.6zM38.2 20.6L28 43.8c-.9 2-2.2 4.2-4.6 4.2-1.8 0-3.2-1.3-3.2-3.1 0-1.4.7-2.7 1.2-4l11.1-25.2c.9-1.9 1.9-3.3 4.1-3.3 1.8 0 3.1 1.3 3.1 3.1s-.8 3.5-1.5 5.1zm8.1 14.1l-4.1 9.2c-.9 2-2.2 4.1-4.7 4.1-1.8 0-3.1-1.3-3.1-3.1 0-1.4.7-2.7 1.2-3.9l4.9-11.1c.9-1.8 1.9-3.3 4.1-3.3 1.8 0 3.1 1.3 3.1 3.1.1 1.8-.7 3.5-1.4 5z"/></svg>