<svg preserveAspectRatio="xMinYMin" xmlns="http://www.w3.org/2000/svg" viewBox="0 841.9 1057.3 200"><g fill="#888"><path d="M0 944c0-58.2 42.5-102.2 101.1-102.2 48.4 0 88.7 30.5 88.7 81.5 0 18.8-10 39.8-23.8 52.5l-7.2-6.2c9-10.7 14.5-26.4 14.5-40.3 0-41.9-32.7-69.1-73.2-69.1-54.3 0-73.2 42.9-73.2 90.8 0 42.4 31.2 77.3 74.2 77.3 22.7 0 42.7-6.9 61.3-19.5 3.4-2.4 6.9-5.3 9.8-8.4l4.1 6.2c-17.4 21.2-46.9 35.1-74.2 35.1C46.2 1042.1 0 1001.4 0 944"/><path d="M114.6 906.3L82.2 980c-2.8 6.2-6.9 13.4-14.6 13.4-5.9 0-10.2-4.1-10.2-9.8 0-4.5 2.2-8.6 4-12.6l35.1-80c2.8-6 6-10.5 12.9-10.5 5.9 0 9.8 4.1 9.8 9.8 0 5.7-2.4 11-4.6 16zM140.2 951.3l-12.9 29.1c-2.9 6.2-7.1 13.1-14.8 13.1-5.9 0-9.8-4.1-9.8-9.8 0-4.3 2.1-8.4 4-12.4l15.7-35.3c2.8-5.9 6-10.5 12.9-10.5 5.9 0 9.8 4.1 9.8 9.8-.1 5.6-2.5 11-4.9 16z"/><path d="M0 944c0-58.2 42.5-102.2 101.1-102.2 48.4 0 88.7 30.5 88.7 81.5 0 18.8-10 39.8-23.8 52.5l-7.2-6.2c9-10.7 14.5-26.4 14.5-40.3 0-41.9-32.7-69.1-73.2-69.1-54.3 0-73.2 42.9-73.2 90.8 0 42.4 31.2 77.3 74.2 77.3 22.7 0 42.7-6.9 61.3-19.5 3.4-2.4 6.9-5.3 9.8-8.4l4.1 6.2c-17.4 21.2-46.9 35.1-74.2 35.1C46.2 1042.1 0 1001.4 0 944"/><path d="M114.6 906.3L82.2 980c-2.8 6.2-6.9 13.4-14.6 13.4-5.9 0-10.2-4.1-10.2-9.8 0-4.5 2.2-8.6 4-12.6l35.1-80c2.8-6 6-10.5 12.9-10.5 5.9 0 9.8 4.1 9.8 9.8 0 5.7-2.4 11-4.6 16zM140.2 951.3l-12.9 29.1c-2.9 6.2-7.1 13.1-14.8 13.1-5.9 0-9.8-4.1-9.8-9.8 0-4.3 2.1-8.4 4-12.4l15.7-35.3c2.8-5.9 6-10.5 12.9-10.5 5.9 0 9.8 4.1 9.8 9.8-.1 5.6-2.5 11-4.9 16z"/></g><path fill="#888" d="M239.7 880.5h19.6v46h.2c2.3-3.6 5.7-6.8 9.7-8.8 4-2.3 8.4-3.4 13.3-3.4 13.1 0 26.9 8.6 26.9 33.4v45.4h-19.6v-43.3c0-11.3-4.1-19.6-14.9-19.6-7.5 0-12.9 5-15.1 11-.7 1.6-.7 3.6-.7 5.9v46.2h-19.6V880.7h.2v-.2zM344 959.9c.5 13.8 11.3 19.9 23.7 19.9 9.2 0 15.4-1.3 21.4-3.4l2.9 13.5c-6.6 2.7-16 5-26.9 5-25 0-39.7-15.4-39.7-39.2 0-21.4 12.9-41.5 37.7-41.5 25.1 0 33.2 20.7 33.2 37.5 0 3.6-.2 6.5-.7 8.3l-51.6-.1zm34-13.7c.2-7-3.1-18.9-16-18.9-12 0-17.1 11-18 18.9h34zm58-51.9c0 5.9-4.3 10.4-11.1 10.4-6.5 0-10.8-4.5-10.8-10.4s4.5-10.6 11-10.6c6.6 0 10.5 4.5 10.9 10.6zm-20.9 98.6v-77.1h19.6v77.1h-19.6zm43-17.7c4.5 2.7 12.8 5.6 19.8 5.6 8.6 0 12.2-3.4 12.2-8.6 0-5.2-3.2-7.9-12.8-11.3-15.1-5.2-21.4-13.5-21.2-22.5 0-13.7 11.3-24.2 29.1-24.2 8.6 0 16 2.3 20.5 4.5l-4 13.8c-3.4-1.8-9.5-4.5-16.3-4.5-7 0-10.8 3.4-10.8 8.1 0 5 3.6 7.4 13.5 10.8 13.8 5 20.5 12.2 20.7 23.7 0 13.8-11 24.2-31.4 24.2-9.3 0-17.8-2.3-23.4-5.6l4.1-14zm83.9-15.3c.5 13.8 11.3 19.9 23.7 19.9 9.2 0 15.4-1.3 21.4-3.4l2.9 13.5c-6.6 2.7-16 5-26.9 5-25.1-.2-39.9-15.6-39.9-39.2 0-21.4 12.9-41.5 37.7-41.5 25.1 0 33.2 20.7 33.2 37.5 0 3.6-.2 6.5-.7 8.3l-51.4-.1zm33.9-13.7c.2-7-3.1-18.9-16-18.9-12 0-17.1 11-18 18.9h34zm140.1 7.6c0 28.4-19.9 41-39.5 41-21.9-.2-38.6-15.1-38.6-39.9 0-25.3 16.7-41 39.9-41 22.8.2 38.2 16.4 38.2 39.9zm-58.2.7c0 14.9 7.4 26 19.2 26 11.1 0 18.9-11 18.9-26.4 0-12-5.4-25.9-18.7-25.9-13.8.3-19.4 13.5-19.4 26.3zm74.2-15.6c0-8.8-.2-16.3-.7-23h17.1l.9 11.5h.5c3.4-5.9 11.7-13.3 24.6-13.3 13.5 0 27.5 8.6 27.5 33.2v45.8h-19.6v-43.6c0-11.1-4.1-19.6-14.7-19.6-7.7 0-13.1 5.6-15.3 11.3-.7 1.8-.7 4.1-.7 6.3v45.3H732v-53.9zm90.5-58.4h19.6v112.6h-19.6V880.5zm61.6 13.8c0 5.9-4.3 10.4-11.1 10.4-6.5 0-10.8-4.5-10.8-10.4s4.5-10.6 11-10.6c6.6 0 10.8 4.5 10.9 10.6zm-20.8 98.6v-77.1h19.6v77.1h-19.6zm40.6-54c0-8.8-.2-16.3-.7-23h17.1l.9 11.5h.5c3.4-5.9 11.7-13.3 24.6-13.3 13.5 0 27.5 8.6 27.5 33.2v45.8h-19.6v-43.6c0-11.1-4.1-19.6-14.7-19.6-7.7 0-13.1 5.6-15.3 11.3-.7 1.8-.7 4.1-.7 6.3v45.3h-19.6v-53.9zm101.1 21c.5 13.8 11.3 19.9 23.7 19.9 9.2 0 15.4-1.3 21.4-3.4l2.9 13.5c-6.6 2.7-16 5-26.9 5-25 0-39.7-15.4-39.7-39.2 0-21.4 12.9-41.5 37.7-41.5 25.1 0 33.2 20.7 33.2 37.5 0 3.6-.2 6.5-.7 8.3l-51.6-.1zm34-13.7c.2-7-3.1-18.9-16-18.9-12 0-17.1 11-18 18.9h34z"/></svg>