<svg preserveAspectRatio="xMinYMin" xmlns="http://www.w3.org/2000/svg" viewBox="0 0 600 610"><path d="M238.41 610h-139l246.76-361.66-51.76-178.62h127.34l12.81 45.67 31.26-45.67H600L475.16 252.6l70.42 242.66H418.23l-30.82-109.78zm-100-20.61h89.17L395.36 337.6l38.47 137h84.33L452.68 249 561 90.34h-84.33l-50 73.08-20.5-73.08h-84.35l46.83 161.6zm-2.07-95.46H0l186.69-273.45H323zM39 473.31h86.47L284 241.1h-86.4zm221.28-290.19A91.56 91.56 0 1 1 323 25l2 1.89-18.13 19.24-2-1.88a65 65 0 1 0-21.15 108l2.56-1 9.55 24.75-2.56 1a91 91 0 0 1-32.99 6.12z" fill="#4c5c64"/></svg>