<svg preserveAspectRatio="xMinYMin" xmlns="http://www.w3.org/2000/svg" viewBox="0 0 30 30"><path d="M11.92 30H5l12.31-17.79-2.59-8.78h6.37l.64 2.25 1.56-2.25H30l-6.24 9 3.52 11.93h-6.37L19.37 19zm-5-1h4.46l8.39-12.4 1.92 6.74h4.22l-3.27-11.1L28 4.44h-4.17L21.33 8l-1-3.59h-4.24l2.34 7.95zm-.1-4.69H0l9.33-13.47h6.81zM2 23.28h4.27l7.93-11.42H9.88zM13 9a4.54 4.54 0 0 1-4.56-4.5A4.54 4.54 0 0 1 13 0a4.59 4.59 0 0 1 3.14 1.23l.1.09-.91.95-.1-.09A3.26 3.26 0 0 0 13 1.3a3.23 3.23 0 0 0-3.23 3.2A3.23 3.23 0 0 0 13 7.7a3.28 3.28 0 0 0 1.17-.21h.13l.48 1.22h-.13A4.62 4.62 0 0 1 13 9z" fill="#4c5c64"/></svg>