<svg preserveAspectRatio="xMinYMin" xmlns="http://www.w3.org/2000/svg" width="595" height="184" viewBox="0 0 595 184"><path d="M152.3 123l-6.6-5.7A61.1 61.1 0 0 0 159 80.4C159 42 128.9 17 91.8 17 42 17 24.6 56.4 24.6 100.3c0 38.8 28.6 71 68.1 71 20.8 0 39.2-6.2 56.2-17.8a70.9 70.9 0 0 0 9.1-7.7l3.8 5.7c-15.9 19.5-43 32.2-68.1 32.2-51.3-.1-93.7-37.4-93.7-90S39 0 92.7 0c44.5 0 81.4 28 81.4 74.8 0 17.2-9.1 36.5-21.8 48.2zM105 59.1l-29.7 67.7c-2.5 5.7-6.2 12.3-13.4 12.3a8.9 8.9 0 0 1-9.3-9.1c0-4.2 2.1-7.9 3.6-11.5l32.2-73.4c2.5-5.5 5.5-9.7 11.9-9.7a8.8 8.8 0 0 1 9.1 9.1c0 5.1-2.3 10-4.4 14.6zm23.7 41.2L116.8 127c-2.7 5.7-6.4 12.1-13.6 12.1a8.7 8.7 0 0 1-9.1-9.1c0-4 1.9-7.7 3.6-11.4L112 86.3c2.5-5.3 5.5-9.6 11.9-9.6a8.7 8.7 0 0 1 9.1 9.1c0 5-2.2 10-4.3 14.5zM244.7 0h6v20.6h.1a11.3 11.3 0 0 1 4.3-4.3 12.3 12.3 0 0 1 6.1-1.6c4.4 0 11.5 2.7 11.5 14v19.7h-6v-19c0-5.3-2-9.7-7.6-9.7a8.7 8.7 0 0 0-8 5.9 7.8 7.8 0 0 0-.4 2.9v19.9h-6V0zm40.2 33c.1 8.1 5.2 11.4 11.3 11.4a21.4 21.4 0 0 0 9.1-1.7l1.1 4.3a26.9 26.9 0 0 1-11 2.1c-10.2 0-16.2-6.7-16.2-16.7s5.9-17.7 15.5-17.7 13.6 9.4 13.6 15.5a15 15 0 0 1-.3 2.8h-23.2zm17.6-4.3c.1-3.7-1.6-9.7-8.3-9.7s-8.7 5.5-9.2 9.7h17.5zm18.6-22.6a3.6 3.6 0 0 1-3.8 3.7 3.5 3.5 0 0 1-3.6-3.7 3.7 3.7 0 0 1 3.7-3.7 3.6 3.6 0 0 1 3.7 3.7zm-6.7 42.2v-33h6v33h-6zm13.3-6.1a16.9 16.9 0 0 0 8 2.3c4.3 0 6.3-2.1 6.3-4.9s-1.7-4.4-6.1-6c-6-2.2-8.8-5.4-8.8-9.3s4.4-9.7 11.4-9.7a15.3 15.3 0 0 1 8 2l-1.4 4.4a12.8 12.8 0 0 0-6.7-2c-3.6 0-5.5 2-5.5 4.5s1.9 4 6.2 5.7 8.7 5 8.7 9.9-4.6 9.9-12.3 9.9a18.9 18.9 0 0 1-9.3-2.3zm30.2-9.2c.1 8.1 5.3 11.4 11.3 11.4a21.6 21.6 0 0 0 9.1-1.7l1.1 4.3a26.9 26.9 0 0 1-11 2.1c-10.1 0-16.2-6.7-16.2-16.7s5.9-17.7 15.5-17.7 13.6 9.4 13.6 15.5a14.7 14.7 0 0 1-.2 2.8h-23.2zm17.6-4.3c.1-3.7-1.6-9.7-8.3-9.7s-8.7 5.5-9.2 9.7h17.5z" fill="#585650"/><path d="M215.9 168.7c9.1-.7 16.6-3.1 21.3-8.4s7.5-14.4 7.5-40.1V69.6h19.5v58.1c0 20.8-3.3 34.4-12.9 44.1S228.5 184 218.1 184zm173.7-46.3c0 39.7-27.7 57-53.4 57-28.8 0-51.4-21.3-51.4-55.2 0-35.7 23.7-56.7 53.2-56.7s51.6 22.3 51.6 54.9zm-84.9 1.1c0 23.5 13.3 41.2 32.4 41.2s32.6-17.5 32.6-41.7c0-18.2-9.1-41-32.1-41s-32.9 21.3-32.9 41.5zm106-107.6H430v71h.5c6.9-12 19.3-19.5 36.6-19.5 26.8 0 45.4 22.2 45.4 54.5 0 38.4-24.4 57.4-48.3 57.4-15.5 0-27.9-6-36.1-20h-.5l-1.1 17.5h-16.7c.4-7.3.9-18.2.9-27.7V15.9zm19.3 118a24.7 24.7 0 0 0 .9 7.1c3.6 13.5 15.1 22.8 29.3 22.8 20.6 0 32.6-16.6 32.6-41.2 0-21.5-11.1-39.9-32.1-39.9-13.1 0-25.5 9.3-29.5 23.9a31.2 31.2 0 0 0-1.1 8.2v19.1zm99.6 23.3c6 3.5 16.2 7.5 25.9 7.5 14 0 20.6-6.9 20.6-16s-5.5-14.2-19.7-19.5c-19.5-7.1-28.6-17.5-28.6-30.4 0-17.3 14.2-31.5 37-31.5 10.9 0 20.4 2.9 26.2 6.6l-4.7 14.2a41.6 41.6 0 0 0-22-6.4c-11.5 0-17.7 6.7-17.7 14.6s6.2 12.9 20.2 18.4c18.4 7 28.2 16.3 28.2 32.3 0 19.1-14.8 32.4-39.9 32.4-11.7 0-22.6-3.1-30.1-7.5z" fill="#73b72b"/></svg>