<svg preserveAspectRatio="xMinYMin" xmlns="http://www.w3.org/2000/svg" viewBox="0 0 126 30"><path d="M24.13 29.55l1.76-11.8c.48-3.19 1-6.09 1.48-8.81-1.41 3.22-2.81 6.23-4 8.61l-5.84 11.54h-5.1l-1-11.53c-.19-2.27-.37-5.19-.54-8.7l-.43 2.06c-.53 2.55-1 5-1.5 6.93l-2.87 11.7H0L7.18 1.16h8.52L16.6 12c0 .67.09 1.36.15 2.09.13 1.77.27 3.73.33 5.69 1.09-2.91 2.45-5.85 3.43-7.88l5.28-10.74h8.63l-3.87 28.39zm24.08-3.3v.67c-.06.83-.11 1.61-.14 2.33v.3h6.09v-.3a48.38 48.38 0 0 1 .83-9L57.1 9.42l-.25-.08a24.4 24.4 0 0 0-6.83-1c-10.21 0-14.86 7.44-14.86 14.36 0 4.37 2.59 7.3 6.45 7.3a7.87 7.87 0 0 0 6.6-3.76zm1.47-12.72l-.86 4.38c-1 5-3.12 6.74-4.67 6.74-1.89 0-2.17-1.91-2.17-3.06 0-3.78 2.8-8.17 6.41-8.17a8 8 0 0 1 1.29.1zm23.48 15.33l.16-.08v-5.1l-.39.16a10.07 10.07 0 0 1-3.93.81 3.52 3.52 0 0 1-3.71-3.88 6.77 6.77 0 0 1 9.26-6.63l.29.12 1.68-5.14-.31-.12a12.9 12.9 0 0 0-4.26-.68c-7.73 0-13.57 5.62-13.57 13.08 0 5.19 3.48 8.54 8.86 8.54a14.58 14.58 0 0 0 5.92-1.08zm24.51-1.1l.18.24A15 15 0 0 0 99 29.46l.09.09h7.83l-.41-.47a60.46 60.46 0 0 1-3.92-5 26.17 26.17 0 0 0 6.51-10.76l.13-.38h-6.13l-.07.2a20.52 20.52 0 0 1-3.54 6.69c-1-1.37-2.35-3.23-3.4-4.84 4.69-2.2 6.88-4.69 6.88-7.83C103 3.3 100 .7 95.56.7c-5.25 0-9.07 3.47-9.07 8.3A9.11 9.11 0 0 0 88 13.62c-4.48 2.15-6.75 5.09-6.75 8.75 0 4.64 3.53 7.63 9 7.63a12.54 12.54 0 0 0 7.42-2.24zm-2.75-3.86a4.62 4.62 0 0 1-3 1.07c-2.43 0-4-1.43-4-3.63a5.13 5.13 0 0 1 2.38-4c1.36 2.15 3.07 4.55 4.62 6.56zm2.14-16.68c0 2.05-1.89 3.42-3.57 4.22a5.28 5.28 0 0 1-1.05-3.11c0-1.81 1.13-3.22 2.58-3.22a1.94 1.94 0 0 1 2.04 2.11zm23.68 22.33l4-20.76h-6.58l-4 20.76zm1.43-22.7A3.61 3.61 0 0 0 126 3.22 3.1 3.1 0 0 0 122.67 0a3.67 3.67 0 0 0-3.74 3.67 3 3 0 0 0 3.16 3.18z" fill="#464141"/></svg>