<svg preserveAspectRatio="xMinYMin" xmlns="http://www.w3.org/2000/svg" viewBox="0 0 600 143"><path d="M114.92 140.84l8.36-56.26c2.31-15.2 4.63-29 7-42-6.73 15.36-13.4 29.68-19.12 41l-27.68 55.09H59.17l-4.87-55c-.89-10.79-1.74-24.67-2.55-41.42-.68 3.25-1.37 6.53-2.05 9.8-2.54 12.16-4.95 23.64-7.15 33L29 140.84H0L34.18 5.51h40.59L79 57.12c.2 3.17.44 6.5.69 10C80.34 75.5 81 84.87 81.3 94.2 86.48 80.31 93 66.34 97.63 56.65l25.16-51.14h41.08l-18.41 135.33zm114.65-15.75q-.11 1.63-.22 3.21c-.28 3.94-.54 7.66-.66 11.12v1.41h29v-1.41c-.41-12.45 1.73-31.43 3.94-43l10.35-51.56-1.17-.37a116.1 116.1 0 0 0-32.52-4.79c-48.6 0-70.74 35.48-70.74 68.45 0 20.82 12.34 34.81 30.71 34.81 12.45.04 23.46-6.28 31.31-17.88zm7-60.64l-4.09 20.86c-4.58 23.72-14.84 32.14-22.23 32.14-9 0-10.32-9.13-10.32-14.57 0-18 13.34-39 30.53-39a38.28 38.28 0 0 1 6.11.56zm111.8 73.11l.78-.38-.22-24.31-1.87.74a47.89 47.89 0 0 1-18.71 3.84c-8.53 0-17.65-4.86-17.65-18.5 0-22 16.24-33.85 31.52-33.85a31.79 31.79 0 0 1 12.56 2.26l1.37.56 8-24.49-1.24-.43a61.35 61.35 0 0 0-20.29-3.23c-36.83 0-64.6 26.81-64.6 62.35 0 24.73 16.57 40.71 42.2 40.71 10.78-.03 21.31-1.99 28.15-5.28zm116.71-5.23l.85 1.16a71.51 71.51 0 0 0 5.57 6.93l.41.43h37.3l-2-2.26a288.17 288.17 0 0 1-18.67-23.71c13.53-13 23.12-28.87 31-51.28l.64-1.82h-29.24l-.31.93c-4.38 13-10 23.76-16.84 31.87C469 88 462.57 79.16 457.58 71.52c22.34-10.5 32.76-22.37 32.76-37.3 0-18.47-14.17-30.87-35.26-30.87-25 0-43.19 16.54-43.19 39.33 0 7 2.22 14.1 7 22.22-21.34 10.24-32.16 24.27-32.16 41.71 0 22.1 16.8 36.38 42.8 36.38 13.7.01 25.35-3.49 35.55-10.67zM452 113.9a22 22 0 0 1-14.37 5.1c-11.57 0-19-6.8-19-17.32 0-8.86 6.16-14.92 11.35-18.88 6.52 10.12 14.64 21.56 22.02 31.1zm10.22-79.48c0 9.78-9 16.28-17 20.12a25.18 25.18 0 0 1-5-14.81c0-8.61 5.4-15.36 12.3-15.36 8.99 0 9.69 7.69 9.69 10.05zM575 140.84l19-98.93h-31.4l-19 98.93zm6.79-108.2c10.56 0 18.22-7.28 18.22-17.3C600 6.16 593.63 0 584.15 0a17.47 17.47 0 0 0-17.82 17.5c0 8.91 6.19 15.14 15 15.14z" fill="#464141"/></svg>