<svg preserveAspectRatio="xMinYMin" xmlns="http://www.w3.org/2000/svg" viewBox="0 0 600 178"><path d="M559.08 49.1H600v36.77h-40.92zm0 89.61H600v36.77h-40.92zM430 112.34c0-49.1 37.39-66 63.4-66s58 13 58 70.41v5.76h-83.64c1.91 20.91 13.51 28.89 29.33 28.89 14.92 0 28.83-7.37 37.39-15.15L549.2 159c-14.72 12.53-32.86 19-54.93 19-32.86 0-64.27-16.87-64.27-65.66zM517.15 100c-1.91-17.78-9.88-26.27-24.19-26.27-11.89 0-22 7.78-24.79 26.27zM319.3 0h38.1v96.17L396.71 49h40.92l-41.22 47.17 43.54 79.2h-39.21l-27.92-51.52-15.42 17.28v34.15h-38.1V0zM188.68 143.15c0-29.2 24.59-45.26 79.93-49.8v-3.14c0-9.29-4.74-15.15-17-15.15-16 0-29.73 6.57-41.42 15.66l-16-21.82c12.5-11.31 31.45-22.53 62.89-22.53 34.47 0 48.78 17.07 48.78 49.5v48.69c0 15.15 1 24.45 3.53 30.81h-37.9a61.44 61.44 0 0 1-2.82-18.49c-11.59 13-25.3 20.41-44 20.41-19.36-.1-35.99-12.62-35.99-34.14zm79.93-5.56v-23.33c-30 3.13-42.84 10.71-42.84 22.22 0 8.08 5.74 12.12 13.91 12.12 13.4 0 22.57-4.54 28.92-11.01zM0 0h50.8l39 129h.4L126.69 0h52v175.47h-37.08V55.66h-.4c-2.62 15.15-5.95 26.27-9.68 39.1l-26.21 80.62H71.16l-26-80.62A322 322 0 0 1 35 53.74h-.4v121.63H0V0z" fill="#ff000f"/></svg>