<svg xmlns="http://www.w3.org/2000/svg" viewBox="0 0 600 178"><title>make</title><path d="M559.08 49.1H600v36.77h-40.92zm0 89.6H600v36.77h-40.92zM430 112.34c0-49.1 37.39-66 63.39-66s58 13 58 70.41v5.76h-83.63c1.92 20.91 13.51 28.89 29.33 28.89 14.92 0 28.83-7.37 37.4-15.15L549.2 159c-14.71 12.52-32.86 19-54.93 19-32.86 0-64.27-16.87-64.27-65.66zM517.15 100c-1.91-17.78-9.88-26.26-24.19-26.26-11.89 0-22 7.77-24.79 26.26zM319.3 0h38.1v96.17L396.71 49h40.92l-41.22 47.17 43.59 79.2h-39.26l-27.92-51.52-15.42 17.28v34.14h-38.1V0zM188.68 143.15c0-29.2 24.59-45.26 79.92-49.81v-3.13c0-9.29-4.73-15.15-17-15.15-16 0-29.73 6.57-41.42 15.66l-16-21.82c12.5-11.32 31.45-22.53 62.89-22.53 34.47 0 48.79 17.07 48.79 49.5v48.69c0 15.16 1 24.45 3.52 30.81h-37.95a61.15 61.15 0 0 1-2.83-18.48c-11.59 13-25.29 20.4-44 20.4-19.29-.1-35.92-12.62-35.92-34.14zm79.92-5.56v-23.33c-30 3.13-42.83 10.7-42.83 22.22 0 8.08 5.74 12.12 13.91 12.12 13.4 0 22.57-4.54 28.92-11.01zM0 0h50.8l39 129h.41L126.69 0h52v175.47h-37.08V55.66h-.4c-2.62 15.16-6 26.27-9.68 39.1l-26.2 80.61H71.16l-26-80.61A322.28 322.28 0 0 1 35 53.74h-.4v121.63H0V0z" fill="#e2001a"/></svg>