<svg preserveAspectRatio="xMinYMin" xmlns="http://www.w3.org/2000/svg" viewBox="0 0 101 30"><path d="M94.11 8.27H101v6.2h-6.89zm0 15.1H101v6.2h-6.89zm-21.73-4.44c0-8.27 6.29-11.12 10.67-11.12s9.76 2.2 9.76 11.87v1H78.74c.32 3.52 2.27 4.87 4.94 4.87A9.79 9.79 0 0 0 90 23l2.48 3.83A13.73 13.73 0 0 1 83.2 30c-5.53 0-10.82-2.84-10.82-11.07zm14.68-2.08c-.32-3-1.66-4.43-4.07-4.43-2 0-3.7 1.31-4.17 4.43zM53.75 0h6.41v16.21l6.62-8h6.89l-6.94 8 7.33 13.35h-6.6l-4.7-8.68-2.6 2.91v5.75h-6.41V0zm-22 24.13c0-4.92 4.14-7.63 13.45-8.39v-.54c0-1.57-.8-2.55-2.87-2.55a11.27 11.27 0 0 0-7 2.64l-2.7-3.68a14.88 14.88 0 0 1 10.59-3.8c5.8 0 8.21 2.88 8.21 8.34v8.21a14.92 14.92 0 0 0 .59 5.19h-6.33a10.37 10.37 0 0 1-.48-3.12 9.38 9.38 0 0 1-7.41 3.44c-3.24-.01-6.04-2.12-6.04-5.74zm13.45-.94v-3.93c-5.04.52-7.2 1.8-7.2 3.74 0 1.36 1 2 2.34 2a6.49 6.49 0 0 0 4.88-1.81zM0 0h8.55l6.57 21.74h.07L21.33 0h8.75v29.57h-6.24V9.38h-.07A55.79 55.79 0 0 1 22.14 16l-4.41 13.56H12L7.6 16a54.32 54.32 0 0 1-1.71-6.94h-.07v20.5H0V0z" fill="#ff000f"/></svg>