<svg xmlns="http://www.w3.org/2000/svg" viewBox="0 0 595.2 100.5"><title>netze</title><path d="M409.9 24l-7.5 61.3h-17L369 57.7a99.4 99.4 0 0 1-7.5-15.2v2.8a79.4 79.4 0 0 1-.7 11.6l-3.5 28.4h-15.5l7.5-61.3h16.8l17.5 29.5 2.7 5 2.4 4.7 1.2 2.3a94.1 94.1 0 0 1 .7-10.5l3.8-31h15.5zM427 67.8c0 5.6 2.2 8 7.1 8 3.3 0 5.1-1.3 5.8-4.2h16.5c-1.9 5-3.1 6.8-5.7 9.3s-9.9 5.6-16.9 5.6c-13.3 0-21.4-7.5-21.4-20s10-23.5 24.3-23.5 21.1 7.9 21.1 21.1c0 1-.1 1.9-.1 3.6H427zm15.4-8.6c-.3-4.2-2.7-6.3-6.8-6.3s-6.6 2.1-7.5 6.3h14.3zm44.1-3.4l-3.6 29.5h-15.2l3.6-29.5h-6.5l1.4-11.7h6.5l1.7-13.1h15.2L488 44.2h8l-1.4 11.7h-8.1zm57.6 17.8l-1.9 11.7h-45.7l25.4-29.5H504l1.9-11.7h43.4l-25.1 29.5h19.9zm20.3-5.8c0 5.6 2.2 8 7.1 8 3.3 0 5.1-1.3 5.8-4.2h16.5c-1.9 5-3.1 6.8-5.7 9.3s-9.9 5.6-16.9 5.6c-13.3 0-21.4-7.5-21.4-20S559.7 43 574.1 43s21.1 7.9 21.1 21.1c0 1-.1 1.9-.1 3.6h-30.7zm15.3-8.6c-.3-4.2-2.7-6.3-6.8-6.3s-6.6 2.1-7.5 6.3h14.3zM57.5 32.4l-16.3 37c-1.3 3.1-3.4 6.8-7.4 6.8a4.9 4.9 0 0 1-5.1-5c0-2.3 1.1-4.4 1.9-6.3l17.8-40.3c1.3-3 3-5.3 6.5-5.3a4.8 4.8 0 0 1 5 5c0 2.9-1.2 5.5-2.4 8.1zm13 22.5L64 69.6c-1.5 3.1-3.5 6.6-7.4 6.6a4.8 4.8 0 0 1-5-5c0-2.2 1-4.2 2-6.3l7.9-17.7c1.3-2.9 3-5.3 6.5-5.3a4.8 4.8 0 0 1 5 5 21.3 21.3 0 0 1-2.5 8z" fill="#1c7b98"/><path d="M83.5 67.4l-3.6-3.1a33.3 33.3 0 0 0 7.3-20.2C87.1 23 70.7 9.3 50.3 9.3c-27.2 0-36.8 21.6-36.8 45.6 0 21.3 15.6 38.8 37.4 38.8 11.4 0 21.4-3.4 30.8-9.7a38.5 38.5 0 0 0 5-4.2l2.1 3.1c-8.8 10.6-23.6 17.6-37.5 17.6C23.2 100.5 0 80.1 0 51.3S21.4 0 50.8 0c24.4 0 44.6 15.3 44.6 40.9 0 9.5-5 20-11.9 26.5zm34.3-43.6l-7.7 61.6H124l2.2-17.9c.9-6.9 2.8-9.4 7.3-9.4s5.1 1.9 5.1 6a40.5 40.5 0 0 1-.6 6.2l-1.9 15.2h14l2.4-19.3a44.6 44.6 0 0 0 .5-6.2c0-8.6-4.3-13.4-12.3-13.4-4.5 0-7.7 1.2-12.4 4.5l3.4-27.2h-13.9zm85.7 45.7c.1-1.6.1-2.5.1-3.3 0-12.2-7.3-19.5-19.5-19.5s-22.2 8.8-22.2 21.6 7.4 18.5 19.6 18.5c6.4 0 11.8-1.8 15.6-5.1s3.5-4 5.3-8.6h-15.3c-.6 2.7-2.3 3.9-5.4 3.9-4.6 0-6.6-2.2-6.6-7.4h28.4zm-27.4-7.9c.8-3.9 3.2-5.8 6.9-5.8s6 2 6.3 5.8h-13.2zm39.4-13.9l-4.7 37.9h14l4.7-37.9h-14zm9.1-22.5a8.3 8.3 0 1 0 8 8.1 8.1 8.1 0 0 0-8-8.1zm31.6 21.3c-9.8 0-16.2 5.2-16.2 13 0 6 3.1 9.3 10.2 11l4.5 1c1.4.4 2.1 1 2.1 2s-1.9 2.6-5.1 2.6-6.4-1-11.8-4.4l-5.1 9.3c6.5 4.2 11.2 5.7 17.4 5.7 10.8 0 17.6-5.4 17.6-14.1 0-5.4-3.1-8.7-10-10.6l-4.5-1.2c-1.6-.4-2.2-.9-2.2-1.9s1.7-2.3 4.8-2.3 5.3.7 9.2 3.2l3.3-9.6c-5.2-2.6-9.4-3.8-14.2-3.7zm63.1 23c.1-1.6.1-2.5.1-3.3 0-12.2-7.3-19.5-19.5-19.5s-22.2 8.8-22.2 21.6 7.4 18.5 19.6 18.5c6.4 0 11.8-1.8 15.6-5.1s3.5-4 5.3-8.6h-15.3c-.6 2.7-2.3 3.9-5.4 3.9-4.6 0-6.6-2.2-6.6-7.4h28.4zm-27.4-7.9c.8-3.9 3.2-5.8 6.9-5.8s6 2 6.3 5.8h-13.2z" fill="#999"/></svg>