<svg preserveAspectRatio="xMinYMin" xmlns="http://www.w3.org/2000/svg" viewBox="0 841.9 1120.9 200"><g fill="#888"><path d="M0 944c0-58.2 42.5-102.2 101.1-102.2 48.4 0 88.7 30.5 88.7 81.5 0 18.8-10 39.8-23.8 52.5l-7.2-6.2c9-10.7 14.5-26.4 14.5-40.3 0-41.9-32.7-69.1-73.2-69.1-54.3 0-73.2 42.9-73.2 90.8 0 42.4 31.2 77.3 74.2 77.3 22.7 0 42.7-6.9 61.3-19.5 3.4-2.4 6.9-5.3 9.8-8.4l4.1 6.2c-17.4 21.2-46.9 35.1-74.2 35.1C46.2 1042.1 0 1001.4 0 944"/><path d="M114.6 906.3L82.2 980c-2.8 6.2-6.9 13.4-14.6 13.4-5.9 0-10.2-4.1-10.2-9.8 0-4.5 2.2-8.6 4-12.6l35.1-80c2.8-6 6-10.5 12.9-10.5 5.9 0 9.8 4.1 9.8 9.8 0 5.7-2.4 11-4.6 16zM140.2 951.3l-12.9 29.1c-2.9 6.2-7.1 13.1-14.8 13.1-5.9 0-9.8-4.1-9.8-9.8 0-4.3 2.1-8.4 4-12.4l15.7-35.3c2.8-5.9 6-10.5 12.9-10.5 5.9 0 9.8 4.1 9.8 9.8-.1 5.6-2.5 11-4.9 16z"/><path d="M0 944c0-58.2 42.5-102.2 101.1-102.2 48.4 0 88.7 30.5 88.7 81.5 0 18.8-10 39.8-23.8 52.5l-7.2-6.2c9-10.7 14.5-26.4 14.5-40.3 0-41.9-32.7-69.1-73.2-69.1-54.3 0-73.2 42.9-73.2 90.8 0 42.4 31.2 77.3 74.2 77.3 22.7 0 42.7-6.9 61.3-19.5 3.4-2.4 6.9-5.3 9.8-8.4l4.1 6.2c-17.4 21.2-46.9 35.1-74.2 35.1C46.2 1042.1 0 1001.4 0 944"/><path d="M114.6 906.3L82.2 980c-2.8 6.2-6.9 13.4-14.6 13.4-5.9 0-10.2-4.1-10.2-9.8 0-4.5 2.2-8.6 4-12.6l35.1-80c2.8-6 6-10.5 12.9-10.5 5.9 0 9.8 4.1 9.8 9.8 0 5.7-2.4 11-4.6 16zM140.2 951.3l-12.9 29.1c-2.9 6.2-7.1 13.1-14.8 13.1-5.9 0-9.8-4.1-9.8-9.8 0-4.3 2.1-8.4 4-12.4l15.7-35.3c2.8-5.9 6-10.5 12.9-10.5 5.9 0 9.8 4.1 9.8 9.8-.1 5.6-2.5 11-4.9 16z"/></g><path fill="#1C7B98" d="M780.5 880.7l-13.8 112.6h-31.3l-29.9-50.6c-4.9-7.9-9.2-16.5-13.8-27.9v5.2c0 8.5-.3 14.3-1.2 21.3l-6.4 52.1h-28.6l13.8-112.6h30.9l32.1 54.2 4.9 9.2 4.4 8.6 2.2 4.2c.1-7.1.5-12.7 1.4-19.3l7-57.1h28.3zm31.6 80.5c0 10.2 4.1 14.8 13.1 14.8 6.1 0 9.4-2.3 10.7-7.8h30.3c-3.6 9.2-5.6 12.4-10.5 17.1-7.4 6.7-18.2 10.2-31 10.2-24.5 0-39.2-13.8-39.2-36.8 0-25.6 18-43 44.4-43 24.3 0 38.8 14.5 38.8 38.8 0 1.9-.1 3.4-.3 6.7h-56.3zm28.3-15.7c-.5-7.7-4.9-11.6-12.4-11.6-7.4 0-12.2 3.8-13.8 11.6h26.2zm80.9-6.3l-6.7 54.1h-27.7l6.6-54.1h-11.9l2.6-21.5h12l2.9-24.2H927l-3 24.2h14.9l-2.6 21.5h-15zm105.7 32.7l-3.6 21.5h-83.8l46.6-54.1h-32.9l3.6-21.5h79.7l-46 54.1h36.4zm37.4-10.7c0 10.2 4.1 14.8 13.1 14.8 6 0 9.4-2.3 10.7-7.8h30.3c-3.6 9.2-5.6 12.4-10.5 17.1-7.4 6.7-18.2 10.2-31 10.2-24.5 0-39.2-13.8-39.2-36.8 0-25.6 18-43 44.4-43 24.3 0 38.8 14.5 38.8 38.8 0 1.9-.1 3.4-.3 6.7h-56.3zm28.1-15.7c-.5-7.7-4.9-11.6-12.4-11.6-7.4 0-12.2 3.8-13.8 11.6h26.2z"/><path fill="#888" d="M269.8 880.5l-6.3 50c8.7-6 14.6-8.2 22.8-8.2 14.6 0 22.5 8.7 22.5 24.6 0 3-.3 6.7-1 11.5l-4.4 35.4h-25.7l3.4-27.9c1-7 1.1-8.7 1.1-11.3 0-7.5-3-11.1-9.3-11.1-8.2 0-11.8 4.5-13.4 17.2l-4.1 32.9H230l14.1-113.1h25.7zm79.8 83.9c0 9.4 3.7 13.5 12.2 13.5 5.6 0 8.7-2.2 9.8-7.1h28c-3.3 8.3-5.2 11.5-9.7 15.7-6.8 6.1-16.8 9.4-28.6 9.4-22.5 0-36.1-12.7-36.1-33.9 0-23.5 16.7-39.6 40.9-39.6 22.4 0 35.8 13.4 35.8 35.8 0 1.6-.1 3.1-.3 6.1h-52zm25.9-14.5c-.4-7-4.5-10.7-11.5-10.7-6.8 0-11.2 3.6-12.7 10.7h24.2zm73.8-25.6l-8.6 69.6H415l8.6-69.6h25.7zm5.8-26.4c0 8.7-6.7 15.6-15 15.6-8.6 0-15.4-6.8-15.4-15.4 0-8.3 7-15 15.7-15 8 0 14.7 6.5 14.7 14.8zm69.2 31.2l-6 17.6c-7.2-4.5-11.5-5.9-16.9-5.9-5.7 0-8.9 1.4-8.9 4.2 0 1.8 1.1 2.6 4.1 3.4l8.3 2.2c12.7 3.4 18.4 9.4 18.4 19.4 0 15.9-12.6 25.8-32.4 25.8-11.5 0-20.1-2.7-32-10.5l9.4-16.8c9.8 6.1 14.6 8.1 21.6 8.1 6 0 9.4-1.8 9.4-4.8 0-1.9-1.2-3-3.8-3.7l-8.3-1.9c-13.1-3.1-18.7-9.3-18.7-20.2 0-14.3 11.8-23.9 29.8-23.9 8.8-.1 16.6 2.1 26 7zm37.9 35.3c0 9.4 3.7 13.5 12.2 13.5 5.6 0 8.7-2.2 9.8-7.1h28c-3.3 8.3-5.2 11.5-9.7 15.7-6.8 6.1-16.8 9.4-28.6 9.4-22.5 0-36.1-12.7-36.1-33.9 0-23.5 16.7-39.6 40.9-39.6 22.4 0 35.8 13.4 35.8 35.8 0 1.6-.1 3.1-.3 6.1h-52zm25.9-14.5c-.4-7-4.5-10.7-11.5-10.7-6.8 0-11.2 3.6-12.7 10.7h24.2z"/></svg>