<svg preserveAspectRatio="xMinYMin" xmlns="http://www.w3.org/2000/svg" viewBox="0 841.9 1040.3 200"><path fill="#191970" d="M761.1 936.5v2c0 33.9-22.6 56.8-55.9 56.8-33.5 0-56.3-21.1-56.3-52.2 0-32.4 24.1-55.1 58.3-55.1 31.1 0 52.7 19.2 53.9 48.5zm-27 2.9c-.8-16.3-12-26.6-28.1-26.6-17.7 0-30.5 12.5-30.5 29.3 0 17 11.5 28.3 29 28.3 17.7 0 29.8-12 29.8-29.2 0-.8 0-1.3-.2-1.8zm73.3-15.3l-2 8.8c9.1-8.1 15.3-10.8 24.3-10.8 17.4 0 28.5 12.8 28.5 33.4 0 23.9-13.1 39.8-33 39.8-10.6 0-18-4.2-24.9-13.8l-6.1 49.9h-25.3L782 923.9l25.4.2zm24.6 32.3c0-8.8-5.2-14.5-13.6-14.5-9.4 0-16.3 8.1-16.3 18.5 0 8.8 5.4 14.5 13.8 14.5 9.4.4 16.1-7.5 16.1-18.5zm64.4 7.3c0 9.4 3.7 13.5 12 13.5 5.6 0 8.6-2.2 9.8-7.1H946c-3.2 8.4-5.2 11.5-9.6 15.7-6.7 6.1-16.7 9.4-28.5 9.4-22.4 0-35.9-12.6-35.9-33.7 0-23.3 16.5-39.4 40.6-39.4 22.2 0 35.6 13.3 35.6 35.6 0 1.7-.2 3.2-.2 6.1l-51.6-.1zm25.8-14.3c-.5-6.9-4.5-10.6-11.5-10.6-6.7 0-11.1 3.5-12.6 10.6h24.1zm73.4-25.3l-2.2 9.1c9.4-8.4 15.7-11 25.1-11 14 0 21.7 7.4 21.7 21.1 0 2.9-.2 6.6-.7 11.3l-4.7 38.8h-25.6l3.9-30.5c.5-4 .7-6.1.7-8.6 0-7.1-3.4-11-9.3-11-8.1 0-11.8 4.9-13.5 18.7l-3.9 31.2h-25.4l8.6-69.1h25.3z"/><path fill="#888" d="M278.1 880.4l-6.1 49.7c8.6-6.1 14.5-8.1 22.7-8.1 14.5 0 22.4 8.6 22.4 24.4 0 2.9-.2 6.6-.8 11.5l-4.4 35.2h-25.6l3.4-27.6c.8-7.1 1.2-8.6 1.2-11.3 0-7.4-2.9-11-9.3-11-8.1 0-11.8 4.5-13.3 17.2l-4 32.9h-25.6l14-112.9h25.4zm78.7 83.4c0 9.4 3.7 13.5 12 13.5 5.6 0 8.6-2.2 9.8-7.1h27.8c-3.2 8.4-5.2 11.5-9.6 15.7-6.7 6.1-16.7 9.4-28.5 9.4-22.4 0-35.9-12.6-35.9-33.7 0-23.3 16.5-39.4 40.8-39.4 22.2 0 35.6 13.3 35.6 35.6 0 1.7-.2 3.2-.2 6.1l-51.8-.1zm25.8-14.4c-.5-7.1-4.5-10.6-11.5-10.6-6.7 0-11.1 3.5-12.6 10.6h24.1zm72.6-25.3l-8.6 69.3H421l8.6-69.3h25.6zm5.8-26.3c0 8.6-6.6 15.5-15 15.5-8.6 0-15.3-6.7-15.3-15.3 0-8.4 7.1-15 15.7-15 7.8 0 14.6 6.5 14.6 14.8zm68 31.2l-6.1 17.4c-7.2-4.5-11.5-5.9-16.9-5.9-5.7 0-8.8 1.3-8.8 4.2 0 1.7 1.2 2.7 4 3.4l8.4 2.2c12.6 3.4 18.4 9.4 18.4 19.4 0 15.8-12.5 25.8-32.2 25.8-11.5 0-19.9-2.7-31.8-10.6l9.4-16.7c9.8 6.1 14.5 8.1 21.6 8.1 6.1 0 9.4-1.7 9.4-4.7 0-1.9-1.2-2.9-3.9-3.7l-8.4-1.9c-13-3.2-18.5-9.3-18.5-20.1 0-14.3 11.8-23.8 29.7-23.8 8.5-.2 16.5 1.8 25.7 6.9zm36.9 34.8c0 9.4 3.7 13.5 12 13.5 5.6 0 8.6-2.2 9.8-7.1h27.8c-3.2 8.4-5.2 11.5-9.6 15.7-6.7 6.1-16.7 9.4-28.5 9.4-22.4 0-35.9-12.6-35.9-33.7 0-23.3 16.5-39.4 40.8-39.4 22.2 0 35.6 13.3 35.6 35.6 0 1.7-.2 3.2-.2 6.1l-51.8-.1zm25.8-14.4c-.5-7.1-4.5-10.6-11.5-10.6-6.7 0-11.1 3.5-12.6 10.6h24.1z"/><g fill="#888"><path d="M0 944c0-58.2 42.5-102.2 101.1-102.2 48.4 0 88.7 30.5 88.7 81.5 0 18.8-10 39.8-23.8 52.5l-7.2-6.2c9-10.7 14.5-26.4 14.5-40.3 0-41.9-32.7-69.1-73.2-69.1-54.3 0-73.2 42.9-73.2 90.8 0 42.4 31.2 77.3 74.2 77.3 22.7 0 42.7-6.9 61.3-19.5 3.4-2.4 6.9-5.3 9.8-8.4l4.1 6.2c-17.4 21.2-46.9 35.1-74.2 35.1C46.2 1042.1 0 1001.4 0 944"/><path d="M114.6 906.3L82.2 980c-2.8 6.2-6.9 13.4-14.6 13.4-5.9 0-10.2-4.1-10.2-9.8 0-4.5 2.2-8.6 4-12.6l35.1-80c2.8-6 6-10.5 12.9-10.5 5.9 0 9.8 4.1 9.8 9.8 0 5.7-2.4 11-4.6 16zM140.2 951.3l-12.9 29.1c-2.9 6.2-7.1 13.1-14.8 13.1-5.9 0-9.8-4.1-9.8-9.8 0-4.3 2.1-8.4 4-12.4l15.7-35.3c2.8-5.9 6-10.5 12.9-10.5 5.9 0 9.8 4.1 9.8 9.8-.1 5.6-2.5 11-4.9 16z"/><path d="M0 944c0-58.2 42.5-102.2 101.1-102.2 48.4 0 88.7 30.5 88.7 81.5 0 18.8-10 39.8-23.8 52.5l-7.2-6.2c9-10.7 14.5-26.4 14.5-40.3 0-41.9-32.7-69.1-73.2-69.1-54.3 0-73.2 42.9-73.2 90.8 0 42.4 31.2 77.3 74.2 77.3 22.7 0 42.7-6.9 61.3-19.5 3.4-2.4 6.9-5.3 9.8-8.4l4.1 6.2c-17.4 21.2-46.9 35.1-74.2 35.1C46.2 1042.1 0 1001.4 0 944"/><path d="M114.6 906.3L82.2 980c-2.8 6.2-6.9 13.4-14.6 13.4-5.9 0-10.2-4.1-10.2-9.8 0-4.5 2.2-8.6 4-12.6l35.1-80c2.8-6 6-10.5 12.9-10.5 5.9 0 9.8 4.1 9.8 9.8 0 5.7-2.4 11-4.6 16zM140.2 951.3l-12.9 29.1c-2.9 6.2-7.1 13.1-14.8 13.1-5.9 0-9.8-4.1-9.8-9.8 0-4.3 2.1-8.4 4-12.4l15.7-35.3c2.8-5.9 6-10.5 12.9-10.5 5.9 0 9.8 4.1 9.8 9.8-.1 5.6-2.5 11-4.9 16z"/></g></svg>