<svg xmlns="http://www.w3.org/2000/svg" viewBox="0 0 595.2 110.4"><title>open</title><path d="M88.7 71.7l-3.9-3.3a35.1 35.1 0 0 0 7.7-21.5C92.5 24.5 75 10 53.4 10c-29 0-39.1 22.9-39.1 48.5C14.3 81.1 31 99.8 54 99.8a56.9 56.9 0 0 0 32.7-10.3A45.1 45.1 0 0 0 92 85l2.2 3.3c-9.2 11.3-25 18.6-39.7 18.6C24.7 106.9 0 85.2 0 54.5S22.7 0 54 0c25.9 0 47.4 16.3 47.4 43.5 0 10.1-5.3 21.3-12.7 28.2zm54.2-50.8h-15.1l-8.3 67h15.2l2.4-19.5c.9-7.5 3.1-10.2 7.9-10.2s5.5 2.1 5.5 6.5a60.9 60.9 0 0 1-.7 6.7l-2 16.4H163l2.6-20.9a49 49 0 0 0 .5-6.8c0-9.4-4.7-14.5-13.3-14.5-4.9 0-8.4 1.2-13.5 4.8l3.6-29.5zm46.7 49.5h30.7c0-1.7.1-2.6.1-3.6 0-13.2-7.9-21.1-21.1-21.1s-24.2 9.6-24.2 23.4 8 20 21.3 20c7 0 12.9-2 16.9-5.6s3.8-4.3 5.7-9.3h-16.5c-.7 2.9-2.5 4.2-5.8 4.2-4.9 0-7.1-2.4-7.1-8zm1-8.6c.9-4.2 3.5-6.3 7.5-6.3s6.5 2.1 6.8 6.3h-14.3zm42.2-15l-5.1 41.1h15.2l5.1-41.1h-15.2zm9.9-24.4a9 9 0 1 0 8.7 8.8 8.8 8.8 0 0 0-8.7-8.8zm33.9 23.2c-10.6 0-17.6 5.6-17.6 14.1 0 6.4 3.3 10 11 11.9l5 1.1c1.6.5 2.3 1.1 2.3 2.2s-2 2.8-5.6 2.8-7-1.2-12.8-4.8l-5.6 9.9c7.1 4.7 12.1 6.3 18.9 6.3 11.7 0 19.1-5.9 19.1-15.3 0-5.9-3.4-9.5-10.9-11.5l-5-1.3c-1.7-.4-2.4-1-2.4-2s1.8-2.5 5.2-2.5 5.7.8 10 3.5l3.6-10.3c-5.5-3-10.2-4.2-15.2-4.1zm37.1 24.8h30.7c0-1.7.1-2.6.1-3.6 0-13.2-7.9-21.1-21.1-21.1s-24.2 9.6-24.2 23.4 8 20 21.3 20c7 0 12.9-2 16.9-5.6s3.8-4.3 5.7-9.3h-16.5c-.7 2.9-2.5 4.2-5.8 4.2-4.9 0-7.1-2.4-7.1-8zm1-8.6c.9-4.2 3.5-6.3 7.5-6.3s6.5 2.1 6.8 6.3h-14.3z" fill="#999"/><path d="M429.5 54.2v1.2c0 20.1-13.4 33.7-33.2 33.7s-33.4-12.5-33.4-31 14.3-32.7 34.6-32.7c18.5 0 31.3 11.4 32 28.8zm-16 1.7c-.5-9.7-7.1-15.8-16.7-15.8s-18.1 7.4-18.1 17.4 6.8 16.8 17.2 16.8 17.7-7.1 17.7-17.3a3.4 3.4 0 0 0-.1-1.1zm43.5-9.1l-1.2 5.2c5.4-4.8 9.1-6.4 14.4-6.4 10.3 0 16.9 7.6 16.9 19.8 0 14.2-7.8 23.6-19.6 23.6-6.3 0-10.7-2.5-14.8-8.2l-3.6 29.6h-15l7.8-63.7H457zM471.6 66c0-5.2-3.1-8.6-8.1-8.6s-9.7 4.8-9.7 11S457 77 462 77s9.6-4.5 9.6-11zm38.2 4.3c0 5.6 2.2 8 7.1 8 3.3 0 5.1-1.3 5.8-4.2h16.5c-1.9 5-3.1 6.8-5.7 9.3s-9.9 5.6-16.9 5.6c-13.3 0-21.3-7.5-21.3-20s9.8-23.4 24.1-23.4 21.1 7.9 21.1 21.1c0 1-.1 1.9-.1 3.6h-30.6zm15.3-8.5c-.3-4.1-2.7-6.3-6.8-6.3s-6.6 2.1-7.5 6.3h14.3zm43.6-15l-1.3 5.4c5.6-5 9.3-6.5 14.9-6.5 8.3 0 12.9 4.4 12.9 12.5a63.2 63.2 0 0 1-.4 6.7l-2.8 23h-15.2l2.3-18.1a37.5 37.5 0 0 0 .4-5.1c0-4.2-2-6.5-5.5-6.5s-7 2.9-8 11.1l-2.3 18.5h-15.1l5.1-41h15zM61.2 34.4L43.8 73.9C42.4 77.2 40.2 81 36 81a5.2 5.2 0 0 1-5.4-5.3c0-2.5 1.2-4.6 2.1-6.7l18.8-42.8c1.4-3.2 3.2-5.7 6.9-5.7a5.1 5.1 0 0 1 5.3 5.3c0 3.1-1.3 6-2.5 8.6zm13.7 24L68 74c-1.6 3.3-3.7 7.1-8 7.1a5.1 5.1 0 0 1-5.3-5.3c0-2.3 1.1-4.5 2.1-6.6l8.4-18.8c1.4-3.1 3.2-5.7 6.9-5.7a5.1 5.1 0 0 1 5.3 5.3c.1 3-1.3 5.8-2.5 8.4z" fill="#191970"/></svg>