<svg preserveAspectRatio="xMinYMin" xmlns="http://www.w3.org/2000/svg" viewBox="0 0 2000 351.7"><path fill="#999" d="M291.9 235.7l-12.7-10.9c15.6-18.9 25.4-46.4 25.4-70.7 0-73.6-57.7-121.5-128.7-121.5-95.4 0-128.7 75.4-128.7 159.5 0 74.3 54.8 136 130.5 136 39.9 0 75.1-12 107.7-34.1 6.2-4.4 12-9.4 17.4-14.9l7.3 10.9c-30.5 37.3-82.3 61.6-130.5 61.6C81.2 351.7 0 280.3 0 179.5 0 77.2 74.7 0 177.7 0c85.2 0 155.9 53.7 155.9 143.2 0 33-17.4 70-41.7 92.5zm-90.7-122.6l-56.9 129.8c-4.7 10.9-12 23.6-25.7 23.6-10.2 0-17.8-7.3-17.8-17.4 0-8 4-15.2 6.9-22.1l61.6-140.7c4.7-10.5 10.5-18.5 22.8-18.5 10.2 0 17.4 7.3 17.4 17.4.1 9.8-4.3 19.2-8.3 27.9zm45.4 79.1l-22.8 51.1c-5.1 10.9-12.3 23.2-26.1 23.2-10.2 0-17.4-7.3-17.4-17.4 0-7.6 3.6-14.9 6.9-21.8l27.6-62c4.7-10.2 10.5-18.5 22.8-18.5 10.2 0 17.4 7.3 17.4 17.4-.1 9.9-4.4 19.3-8.4 28zM423.4 83.7c11.7-2.1 27.9-3.7 50-3.7 23.9 0 41.5 5.1 52.9 14.6 10.6 8.8 17.6 22.9 17.6 39.6 0 17-5.3 31.1-15.4 40.7-13 13-33.5 19.1-56.6 19.1-6.1 0-11.7-.3-16-1.1v67.5h-32.4V83.7zm32.4 83.5c4 1.1 9.3 1.3 16 1.3 24.5 0 39.4-12 39.4-33 0-19.9-13.8-30.6-36.4-30.6-9 0-15.4.8-18.9 1.6v60.7zm111.7 5.6c0-17.6-.3-30-1.1-41.7h28.5l1.1 24.7h1.1c6.4-18.3 21.5-27.7 35.4-27.7 3.2 0 5.1.3 7.7.8v30.8c-2.7-.5-5.6-1.1-9.6-1.1-15.7 0-26.3 10.1-29.3 24.7-.5 2.9-1.1 6.4-1.1 10.1v67h-32.7v-87.6zM682.9 205c.8 23.4 19.1 33.5 39.9 33.5 15.2 0 26.1-2.1 35.9-5.9l4.8 22.6c-11.2 4.5-26.6 8-45.2 8-42 0-66.7-25.8-66.7-65.4 0-35.9 21.8-69.7 63.3-69.7 42 0 55.8 34.6 55.8 63 0 6.1-.5 10.9-1.1 13.8h-86.7zm56.9-22.9c.3-12-5.1-31.6-26.9-31.6-20.2 0-28.7 18.3-30 31.6h56.9zm92-87.2c0 9.8-7.2 17.6-18.6 17.6-10.9 0-18.1-7.7-18.1-17.6 0-10.1 7.4-17.8 18.3-17.8 11.2 0 18.2 7.7 18.4 17.8zM797 260.6V131h33v129.5h-33zm66.5-30.1c7.4 4.5 21.5 9.3 33.2 9.3 14.4 0 20.7-5.9 20.7-14.4 0-8.8-5.3-13.3-21.3-18.9-25.3-8.8-35.9-22.6-35.6-37.8 0-22.9 18.9-40.7 48.9-40.7 14.4 0 26.9 3.7 34.3 7.7l-6.4 23.1c-5.6-3.2-16-7.4-27.4-7.4-11.7 0-18.1 5.6-18.1 13.6 0 8.2 6.1 12.2 22.6 18.1 23.4 8.5 34.3 20.5 34.6 39.6 0 23.4-18.3 40.4-52.7 40.4-15.7 0-29.8-3.7-39.4-9l6.6-23.6zM996.7 131l21 65.7c3.7 11.4 6.4 21.8 8.8 32.4h.8c2.4-10.6 5.3-20.7 8.8-32.4l20.5-65.7h34.6l-49.5 129.5h-32.2L961.3 131h35.4zm134 74c.8 23.4 19.1 33.5 39.9 33.5 15.2 0 26.1-2.1 35.9-5.9l4.8 22.6c-11.2 4.5-26.6 8-45.2 8-42 0-66.7-25.8-66.7-65.4 0-35.9 21.8-69.7 63.3-69.7 42 0 55.8 34.6 55.8 63 0 6.1-.5 10.9-1.1 13.8h-86.7zm56.9-22.9c.3-12-5.1-31.6-26.9-31.6-20.2 0-28.7 18.3-30 31.6h56.9zm57.2-9.3c0-17.6-.3-30-1.1-41.7h28.5l1.1 24.7h1.1c6.4-18.3 21.5-27.7 35.4-27.7 3.2 0 5.1.3 7.7.8v30.8c-2.7-.5-5.6-1.1-9.6-1.1-15.7 0-26.3 10.1-29.3 24.7-.5 2.9-1.1 6.4-1.1 10.1v67h-32.7v-87.6zm210.9-41.8c-.5 8.8-1.1 19.4-1.1 37.2v73.4c0 27.1-5.6 46.5-19.1 58.8-13.6 12-32.2 15.7-50 15.7-16.5 0-34-3.5-45.2-10.4l7.2-24.7c8.2 4.8 22.1 9.8 37.8 9.8 21.3 0 37.2-11.2 37.2-39.1v-11.2h-.5c-7.4 11.4-20.7 19.1-37.8 19.1-32.2 0-55-26.6-55-63.3 0-42.5 27.7-68.3 58.8-68.3 19.7 0 31.4 9.6 37.5 20.2h.5l1.3-17.3h28.4zm-33.8 51.9c0-2.9-.3-6.1-1.1-8.8-3.5-12-12.8-21-26.6-21-18.3 0-31.9 16-31.9 42.3 0 22.1 11.2 39.9 31.6 39.9 12.2 0 22.9-8 26.6-19.7.8-3.5 1.3-8 1.3-11.7v-21zm67.8-111.2h33v188.8h-33V71.7zm91.5 133.3c.8 23.4 19.1 33.5 39.9 33.5 15.2 0 26.1-2.1 35.9-5.9l4.8 22.6c-11.2 4.5-26.6 8-45.2 8-42 0-66.7-25.8-66.7-65.4 0-35.9 21.8-69.7 63.3-69.7 42 0 55.8 34.6 55.8 63 0 6.1-.5 10.9-1.1 13.8h-86.7zm56.9-22.9c.3-12-5.1-31.6-26.9-31.6-20.2 0-28.7 18.3-30 31.6h56.9zm92-87.2c0 9.8-7.2 17.6-18.6 17.6-10.9 0-18.1-7.7-18.1-17.6 0-10.1 7.4-17.8 18.3-17.8 11.2 0 18.1 7.7 18.4 17.8zm-34.8 165.7V131h33v129.5h-33zm163.2-4c-6.9 3.2-20.5 6.6-36.7 6.6-40.4 0-66.7-25.8-66.7-65.9 0-38.8 26.6-69.1 72.1-69.1 12 0 24.2 2.7 31.6 6.1l-5.8 24.5c-5.3-2.4-13-5.1-24.7-5.1-25 0-39.9 18.3-39.6 42 0 26.6 17.3 41.8 39.6 41.8 11.4 0 19.4-2.4 25.8-5.1l4.4 24.2zm24.2-184.9h33v77.1h.5c4-6.1 9.3-11.2 16.2-14.9 6.4-3.7 14.1-5.9 22.3-5.9 22.1 0 45.2 14.6 45.2 56.1v76.3h-32.7V188c0-18.9-6.9-33-25-33-12.8 0-21.8 8.5-25.3 18.3-1.1 2.7-1.3 6.1-1.3 9.8v77.4h-33V71.7z"/></svg>