<svg preserveAspectRatio="xMinYMin" xmlns="http://www.w3.org/2000/svg" width="163" height="30" viewBox="0 0 163 30"><path d="M24.9 20.1l-1.1-.9a10 10 0 0 0 2.2-6c0-6.3-4.9-10.4-11-10.4-8.1 0-11 6.4-11 13.6S8.7 28 15.2 28a15.9 15.9 0 0 0 9.2-2.9l1.5-1.3.6.9A15 15 0 0 1 15.3 30C6.9 30 0 23.9 0 15.3S6.4 0 15.2 0c7.3 0 13.3 4.6 13.3 12.2a11.5 11.5 0 0 1-3.6 7.9zM39 10h-2.9l-1.5 12.4h2.8l.4-3.6c.2-1.4.5-1.9 1.5-1.9a1 1 0 0 1 1 1.2 9 9 0 0 1-.1 1.2l-.4 3.1h2.8l.5-3.9a12 12 0 0 0 .1-1.3c0-1.7-.9-2.7-2.5-2.7a4 4 0 0 0-2.5.9L39 10zm8.7 9.2h5.7v-.7a3.6 3.6 0 0 0-3.9-3.9 4.2 4.2 0 0 0-4.5 4.3c0 2.3 1.5 3.7 4 3.7a4.5 4.5 0 0 0 3.1-1 4 4 0 0 0 1.1-1.7h-3.1a.9.9 0 0 1-1.1.8 1.2 1.2 0 0 1-1.3-1.5zm.2-1.6a1.3 1.3 0 0 1 1.4-1.2 1.1 1.1 0 0 1 1.3 1.2h-2.7zm7.9-2.8l-.9 7.6h2.8l.9-7.6h-2.8zm1.8-4.5a1.7 1.7 0 1 0 0 3.3 1.7 1.7 0 0 0 1.7-1.7 1.6 1.6 0 0 0-1.7-1.7zm6.4 4.3c-2 0-3.3 1.1-3.3 2.6s.6 1.9 2 2.2l.9.2a.5.5 0 0 1 .4.4c0 .3-.4.5-1 .5a4 4 0 0 1-2.4-.9l-1 1.8a5.8 5.8 0 0 0 3.5 1.2c2.2 0 3.5-1.1 3.5-2.8s-.6-1.7-2-2.1l-.9-.2c-.3-.1-.4-.2-.4-.4s.3-.5 1-.5a3.3 3.3 0 0 1 1.9.6l.7-1.9a5.4 5.4 0 0 0-2.9-.7zm7 4.6h5.7v-.7a3.6 3.6 0 0 0-3.9-3.9 4.2 4.2 0 0 0-4.5 4.4c0 2.3 1.5 3.7 4 3.7a4.5 4.5 0 0 0 3.1-1 4 4 0 0 0 1.1-1.7h-3.1a.9.9 0 0 1-1.1.8 1.2 1.2 0 0 1-1.3-1.6zm.2-1.6a1.3 1.3 0 0 1 1.4-1.2 1.1 1.1 0 0 1 1.3 1.2h-2.7z" fill="#999"/><path d="M17.2 9.7l-4.9 11c-.4.9-1 2-2.2 2a1.5 1.5 0 0 1-1.5-1.5 5 5 0 0 1 .6-1.9l5.3-12a2.1 2.1 0 0 1 2-1.6A1.4 1.4 0 0 1 18 7.2a6 6 0 0 1-.8 2.5zm3.8 6.7l-1.9 4.4c-.4.9-1 2-2.2 2a1.4 1.4 0 0 1-1.5-1.5 4.4 4.4 0 0 1 .6-1.9l2.4-5.3a2.1 2.1 0 0 1 2-1.6 1.4 1.4 0 0 1 1.4 1.5 5.9 5.9 0 0 1-.8 2.4zm72.5-7.8l-1.7 2.9a4.4 4.4 0 0 0-2.6-1.1c-1 0-1.7.5-1.7 1.3s.4 1.1 1.9 1.8 3.3 2.2 3.3 4.2-2.4 5.1-5.7 5.1a8.6 8.6 0 0 1-5-1.6l1.7-2.9a5.2 5.2 0 0 0 3.1 1.2c1.2 0 2-.6 2-1.5s-.3-1-1.7-1.7-3.4-2.3-3.4-4.3 2.3-4.8 5.5-4.8a7.6 7.6 0 0 1 4.3 1.4zm3.8 9.6c0 1.4.5 1.9 1.7 1.9a1.2 1.2 0 0 0 1.4-1h4a4.8 4.8 0 0 1-1.4 2.2 6 6 0 0 1-4 1.4c-3.2 0-5.2-1.8-5.2-4.9a5.5 5.5 0 0 1 5.9-5.7c3.2 0 5.1 1.9 5.1 5.1v.9h-7.5zm3.7-2.1a1.5 1.5 0 0 0-1.7-1.5 1.7 1.7 0 0 0-1.8 1.5h3.5zm13.3-3.3l-.3 3.1a2.7 2.7 0 0 0-2-.9 2.4 2.4 0 0 0-2.4 2.6 2 2 0 0 0 2 2.1 3.1 3.1 0 0 0 2-.7l-.4 3.1a7.1 7.1 0 0 1-2.6.5 4.7 4.7 0 0 1-4.8-5 5.4 5.4 0 0 1 5.5-5.6 6.9 6.9 0 0 1 3 .8zm12.3-.4l-.6 5.3c-.3 2.1-.7 3.1-1.5 3.8a6.5 6.5 0 0 1-4.2 1.2c-3.2 0-5-1.4-5-3.9a11.9 11.9 0 0 1 .1-1.4l.6-5h3.7l-.6 4.8c-.1.6-.1 1-.1 1.2a1.3 1.3 0 0 0 1.5 1.3c1.2 0 1.7-.6 1.9-2l.6-5.2h3.7zm5.4 0l-.3 1.4a4.3 4.3 0 0 1 3.3-1.4h.7l-.4 3.4a3.3 3.3 0 0 0-1.7-.4c-1.5 0-2.1.7-2.4 2.8l-.5 4.3H127l1.2-10h3.8zm8.5 0l-1.2 10h-3.7l1.2-10h3.7zm.8-3.8a2.2 2.2 0 0 1-2.2 2.2 2.2 2.2 0 1 1 0-4.4 2.1 2.1 0 0 1 2.3 2.2zm5.7 6.6l-.9 7.2h-3.7l.9-7.2h-1.6l.3-2.8h1.6l.4-3.2h3.7l-.4 3.2h2l-.3 2.8h-2zm16-2.8l-9.6 15.5h-4.1l3.9-6.3-3.5-9.2h4.1l1.1 2.7a13.9 13.9 0 0 1 .8 2.9 20.7 20.7 0 0 1 1.3-2.4l1.9-3.1h4.1z" fill="#004084"/></svg>