<svg preserveAspectRatio="xMinYMin" xmlns="http://www.w3.org/2000/svg" width="595" height="110" viewBox="0 0 595 110"><path d="M91.3 73.7l-4-3.4a36.7 36.7 0 0 0 8-22.1c0-23-18.1-38-40.3-38-29.9 0-40.3 23.6-40.3 49.9 0 23.2 17.1 42.5 40.8 42.5a58.4 58.4 0 0 0 33.9-10.7 41.5 41.5 0 0 0 5.5-4.6l2.3 3.4C87.6 102.4 71.4 110 56.3 110 25.4 110.1 0 87.7 0 56.2S23.4 0 55.6 0c26.7 0 48.8 16.8 48.8 44.8 0 10.3-5.5 21.9-13.1 28.9zm51.5-37.2h-10.3l-5.7 45.6h10.3l1.6-13.3c.6-5.1 2-6.9 5.4-6.9s3.8 1.5 3.8 4.5a33 33 0 0 1-.4 4.5l-1.4 11.2h10.3l1.8-14.3a43.8 43.8 0 0 0 .4-4.6c0-6.4-3.2-9.9-9.1-9.9-3.3 0-5.7.9-9.2 3.3l2.5-20.1zm32 33.7h21c.1-1.3.1-1.9.1-2.5 0-9.1-5.4-14.4-14.4-14.4s-16.4 6.5-16.4 16S170.5 83 179.6 83c4.8 0 8.8-1.3 11.5-3.8s2.5-3 3.9-6.3h-11.3c-.4 2-1.7 2.9-3.9 2.9s-4.9-1.6-4.9-5.4zm.7-5.8c.6-2.9 2.4-4.3 5.1-4.3s4.4 1.5 4.6 4.3h-9.7zm29-10.3L201.1 82h10.3l3.4-27.9h-10.2zm6.7-16.6a6.1 6.1 0 1 0-.1 12.3 6.1 6.1 0 0 0 6.1-6.2 6 6 0 0 0-5.9-6.1zm23.4 15.8c-7.3 0-12 3.9-12 9.7s2.2 6.8 7.5 8.1l3.3.7c1 .3 1.6.7 1.6 1.5s-1.3 1.9-3.8 1.9-4.8-.7-8.7-3.3l-3.8 6.8c4.8 3.1 8.2 4.2 12.9 4.2 8 0 13-4 13-10.4 0-4-2.3-6.4-7.4-7.8l-3.3-.9c-1.2-.4-1.6-.7-1.6-1.4s1.3-1.7 3.6-1.7 3.9.6 6.8 2.4l2.5-7.1c-4-1.9-7.1-2.8-10.5-2.6zm25.6 16.9h21c.1-1.3.1-1.9.1-2.5 0-9.1-5.4-14.4-14.4-14.4s-16.4 6.5-16.4 16S256 82.9 265 82.9c4.8 0 8.8-1.3 11.5-3.8s2.5-3 3.9-6.3h-11.3c-.4 2-1.7 2.9-3.9 2.9s-4.9-1.6-4.9-5.4zm.7-5.8c.6-2.9 2.4-4.3 5.1-4.3s4.4 1.5 4.6 4.3H261z" fill="#999"/><path d="M63 35.4L45.1 76c-1.5 3.4-3.8 7.4-8 7.4a5.3 5.3 0 0 1-5.5-5.5c0-2.5 1.2-4.8 2.1-6.9L53 27c1.5-3.3 3.3-5.8 7.2-5.8a5.3 5.3 0 0 1 5.5 5.5c-.1 3-1.5 6-2.7 8.7zm14.1 24.8l-7.1 16c-1.6 3.4-3.8 7.2-8.2 7.2a5.3 5.3 0 0 1-5.5-5.5c0-2.4 1.1-4.6 2.1-6.8L67 51.7c1.5-3.2 3.3-5.7 7.2-5.7a5.3 5.3 0 0 1 5.5 5.5c.1 3-1.3 5.9-2.6 8.7zm263.2-28.8l-6.1 10.5c-3.7-2.7-6.6-4-9.6-4s-6.2 1.8-6.2 4.8 1.4 3.9 7 6.5c9 4.2 12.1 8.1 12.1 15.3 0 11-8.7 18.7-20.9 18.7-6.5 0-11.1-1.5-18.4-5.9l6.2-10.5c4.9 3.3 7.8 4.5 11.5 4.5s7.3-2.2 7.3-5.6-1.3-3.7-6.4-6.2c-9.7-4.9-12.6-8.5-12.6-15.8 0-9.9 8.5-17.2 20.1-17.2a27.7 27.7 0 0 1 16 4.9zm13.8 35.1c0 5 1.9 7.1 6.4 7.1s4.6-1.1 5.1-3.8h14.7c-1.7 4.5-2.7 6.1-5.1 8.2s-8.8 5-15.1 5c-11.9 0-19-6.7-19-17.8s8.8-20.9 21.6-20.9 18.9 7.1 18.9 18.9c0 .9-.1 1.6-.1 3.3h-27.4zm13.7-7.7c-.2-3.7-2.4-5.7-6.1-5.7s-5.9 1.9-6.7 5.7h12.8zm48.8-12l-1.4 11.4c-2.6-2.4-4.6-3.3-7.4-3.3-5.1 0-8.7 4-8.7 9.6s2.9 7.9 7.5 7.9c2.5 0 4.2-.7 7.2-2.7l-1.4 11.4c-4.7 1.6-6.5 1.9-9.7 1.9-10.3 0-17.5-7.5-17.5-18.2s8.5-20.6 20.2-20.6a25.3 25.3 0 0 1 11.2 2.8zm45.1-1.5l-2.3 19.3c-1 7.7-2.5 11.4-5.5 13.9s-8.8 4.5-15.5 4.5c-11.7.2-18.4-5-18.4-14.3a43.5 43.5 0 0 1 .3-5l2.3-18.3h13.5l-2.2 17.5c-.2 2.2-.4 3.6-.4 4.2 0 3.1 1.9 4.8 5.5 4.8s6.2-2.1 6.8-7.4l2.4-19.1h13.5zm19.7 0l-1 5c4.2-3.8 7.1-5 12.2-5h2.6l-1.5 12.5a12.1 12.1 0 0 0-6.2-1.6c-5.6 0-7.8 2.6-8.8 10.1l-1.9 15.6h-13.5l4.5-36.6h13.5zm31.3 0l-4.5 36.6h-13.6l4.5-36.6h13.5zm3-13.9a8 8 0 0 1-8 8.2 8 8 0 1 1 .1-16.1 7.8 7.8 0 0 1 7.8 8.1zm20.8 24.3l-3.3 26.2h-13.5l3.2-26.2h-5.7l1.3-10.4h5.8l1.4-11.7h13.5l-1.5 11.7h7.2l-1.3 10.4h-7.2zM595 45.5l-35.3 56.9h-15.2l14.2-23.1-12.9-33.8h15l3.9 9.9a50.8 50.8 0 0 1 3 10.5 75.8 75.8 0 0 1 4.8-8.8l7.1-11.5H595z" fill="#004084"/></svg>