<svg xmlns="http://www.w3.org/2000/svg" width="153.1" height="30" viewBox="0.1 1.5 151.8 32"><title>techstage_rec</title><path d="M71.1 3.9h12.5v3.7H71a.4.4 0 0 0 0 .1v1.7c0 .5.9 1 2.4 1.4l6.1 1.4c2.7.9 4 2.5 4 4.6v1.6a3.9 3.9 0 0 1-1.1 2.7 3.7 3.7 0 0 1-2.7 1.1H67.3v-3.7h12.6v-1.7c0-.5-.9-1-2.4-1.4L71.4 14h-.1c-2.7-.9-4-2.5-4-4.6V7.8A3.7 3.7 0 0 1 68.4 5a3.8 3.8 0 0 1 2.7-1.1zM115.6 5a3.7 3.7 0 0 1 1.1 2.7v10.7a3.7 3.7 0 0 1-1.1 2.7 3.8 3.8 0 0 1-2.7 1.1h-8.6a3.8 3.8 0 0 1-3.8-3.8v-1.6c0-2.1 1.4-3.7 4-4.6h.1l6.1-1.4c1.5-.4 2.4-.9 2.4-1.4V7.8h-11.7V3.9h11.5a3.7 3.7 0 0 1 2.7 1.2zm-2.6 8.8l-3 .8-4.4 1c-.6.2-1.4.6-1.4 1.1v1.6a.3.3 0 0 0 0 .1h8.8a.4.4 0 0 0 0-.1zm-23.7 4.7h-.1a.3.3 0 0 1 0-.1V7.6h10.3V3.9H89.2V0h-3.7v18.4a3.8 3.8 0 0 0 3.9 3.9h10.7a5.6 5.6 0 0 1-1.5-3.7zM152 5.1a3.7 3.7 0 0 1 1.1 2.7v1.6c0 2.1-1.4 3.7-4 4.6h-.1l-6 1.4c-1.5.4-2.4.9-2.4 1.4v1.6h12.6v3.7h-12.5a3.8 3.8 0 0 1-3.9-3.9V7.8A3.7 3.7 0 0 1 138 5a3.8 3.8 0 0 1 2.7-1.1h8.6a3.7 3.7 0 0 1 2.7 1.2zm-2.6 2.7a.3.3 0 0 0 0-.1h-8.8a.4.4 0 0 0 0 .1v4.5l3-.8 4.4-1c.6-.2 1.4-.6 1.4-1.1zm-14.5 0v18.3a3.8 3.8 0 0 1-1.1 2.7 3.7 3.7 0 0 1-2.7 1.1h-11.4v-3.6h11.6a.4.4 0 0 0 0-.1v-4h-8.7a3.8 3.8 0 0 1-3.9-3.9V7.8a3.7 3.7 0 0 1 1.1-2.8 3.8 3.8 0 0 1 2.7-1.1h8.6a3.8 3.8 0 0 1 3.8 3.8zm-3.7 10.6V7.8a.3.3 0 0 0 0-.1h-8.8a.4.4 0 0 0 0 .1v10.5a.3.3 0 0 0 0 .1h8.8zM10.7 20a5.2 5.2 0 0 0 1 2.2H3.3a3.2 3.2 0 0 1-2.4-1 3.2 3.2 0 0 1-1-2.4V0h2.3v3.9h9.5a5.2 5.2 0 0 0-1 2.2H2.2v12.8a1.1 1.1 0 0 0 .3.8 1.1 1.1 0 0 0 .8.3zM64.2 4.9a3.2 3.2 0 0 0-2.3-1h-9.5l-1.1.2V0h-2.2v26.3h2.2V7.2a1.1 1.1 0 0 1 1.1-1.1h9.4A1.1 1.1 0 0 1 63 7.2v15h2.2v-15a3.2 3.2 0 0 0-1-2.3zM28.9 20a5.2 5.2 0 0 0 1 2.2H16a3.3 3.3 0 0 1-3.3-3.3V7.2a3.2 3.2 0 0 1 1-2.3 3.2 3.2 0 0 1 2.4-1h9.5a3.2 3.2 0 0 1 2.3 1 3.2 3.2 0 0 1 1 2.3v1.7c0 1.9-1.3 3.3-3.8 4.2l-6.7 1.6c-2.2.5-3.4 1.3-3.4 2.4v1.7a1.1 1.1 0 0 0 1 1.2zm-14-6.3a16.5 16.5 0 0 1 4.5-1.5l5-1.2c1.4-.5 2.2-1.2 2.2-2.1V7.2a1.1 1.1 0 0 0-1.1-1.1H16a1.1 1.1 0 0 0-1.1 1.1zm17-8.8a3.2 3.2 0 0 0-1 2.3v11.7a3.3 3.3 0 0 0 3.3 3.3H47V20H34.2a1.1 1.1 0 0 1-1.1-1.1V7.2a1.1 1.1 0 0 1 1.1-1.1H47V3.9H34.2a3.2 3.2 0 0 0-2.3 1z"/></svg>