<svg xmlns="http://www.w3.org/2000/svg" viewBox="0 0 1998 711.2"><title>techstage</title><path data-name="techstage" d="M332.4 349.7a32.6 32.6 0 0 1-9.8-23.9V207.4a32.2 32.2 0 0 1 9.9-23.7 32.9 32.9 0 0 1 23.9-9.7h129.2v22H356.3a11.4 11.4 0 0 0-11.4 11.3v118.3a11.4 11.4 0 0 0 11.4 11.3h129.3v22.6H356.3a32.6 32.6 0 0 1-23.9-9.8zm-184.4 0a32.6 32.6 0 0 1-9.8-23.9V207.4a32.2 32.2 0 0 1 9.9-23.7 32.9 32.9 0 0 1 23.8-9.7h95.9a32.4 32.4 0 0 1 23.6 9.8 32 32 0 0 1 9.8 23.5V225c0 19-12.9 33.2-38.4 42.1l-68.1 16.2c-22.7 5.4-34.2 13.7-34.2 24.7v17.6a11.4 11.4 0 0 0 11.4 11.4h130.5a53.1 53.1 0 0 0 10.5 22.6h-141a32.6 32.6 0 0 1-23.9-9.9zm12.5-76.7c10.2-5.7 25.4-10.7 45.4-14.9 29.4-6.2 46.6-10.1 51-11.7 14.5-5.2 21.9-12.3 21.9-21.1v-17.9a11.4 11.4 0 0 0-11.3-11.4h-95.6a11.4 11.4 0 0 0-11.3 11.4V273zM43.2 359.5h85.2a53.1 53.1 0 0 1-10.4-22.6H43.2a11.4 11.4 0 0 1-11.4-11.3V196H118a52.7 52.7 0 0 1 10.3-22H31.9v-39.6H9.5v191.4a32.6 32.6 0 0 0 9.8 23.9 32.6 32.6 0 0 0 23.9 9.8zm-30.6 72.4A41.5 41.5 0 0 0 0 462.5v17.9c0 23.7 15.1 41 45 51.5l.6.2 68 15.9c17.2 4 27 9.7 27 15.4v17.3a4.4 4.4 0 0 1-.2 1.5 3.4 3.4 0 0 1-1.6.3H0v41.7h139.1a41.1 41.1 0 0 0 30.3-12.6 43.2 43.2 0 0 0 12.7-30.7v-17.5c.4-23.7-14.7-41-44.8-51.5l-.5-.2-68.1-15.9c-17.3-4.3-27.3-9.9-27.3-15.5v-17.8a4.2 4.2 0 0 1 .2-1.6 3.2 3.2 0 0 1 1.6-.3h138.9v-41.1H43.2a42.1 42.1 0 0 0-30.6 12.4zm528.5.2a41.9 41.9 0 0 1 12.6 30.7v118.4c0 12.1-4.2 22.3-12.6 30.6a42.2 42.2 0 0 1-30.7 12.4h-95.9a42.9 42.9 0 0 1-43-43.1v-17.9c0-23.7 15.1-41.1 45-51.6l.6-.2 68.1-15.9c17.2-4 27-9.6 27-15.2V463a3.8 3.8 0 0 0-.2-1.5 4.9 4.9 0 0 0-1.6-.2H382.2v-41.8h128.2a41.9 41.9 0 0 1 30.7 12.6zm-28.9 98.2a233.1 233.1 0 0 1-34 9.4c-36 7.6-46.9 10.5-49.8 11.6-7.1 2.5-15.5 6.6-15.5 12.1v17.8a3.4 3.4 0 0 0 .3 1.6 4.3 4.3 0 0 0 1.6.2h95.7a3.6 3.6 0 0 0 1.6-.2 4.6 4.6 0 0 0 .2-1.6v-50.9zm147.9-346.5a32.3 32.3 0 0 0-23.6-9.8h-95.9a33.8 33.8 0 0 0-11.4 1.9v-41.5h-22.3v263.9h3.5a66 66 0 0 1 18.9 2.7V207.4a11.4 11.4 0 0 1 11.3-11.4h95.7a11.4 11.4 0 0 1 11.3 11.4v152.1H670V207.4a32.4 32.4 0 0 0-9.9-23.6zM246.6 582.5a4.4 4.4 0 0 1-1.6-.2 3.5 3.5 0 0 1-.2-1.6v-120h116.1v-41.2H244.8V380h-41.4v200.9a42.8 42.8 0 0 0 43.2 43.2h120.2a62.9 62.9 0 0 1-16.5-41.7H246.6zM948 432.1a41.7 41.7 0 0 1 12.5 30.5v17.9c0 23.7-15.1 41-45 51.6l-.6.2-68.1 15.9c-17.2 4-27 9.6-27 15.2v17.4a3.6 3.6 0 0 0 .2 1.5 4.4 4.4 0 0 0 1.6.2h138.9v41.7H821.7a42.8 42.8 0 0 1-43.2-43.2V462.5a41.5 41.5 0 0 1 12.5-30.6 42.1 42.1 0 0 1 30.7-12.4h95.9a41.6 41.6 0 0 1 30.4 12.6zm-28.9 30.4a3.4 3.4 0 0 0-.3-1.6 4.2 4.2 0 0 0-1.6-.2h-95.5a3.4 3.4 0 0 0-1.6.2 4.3 4.3 0 0 0-.2 1.6v50.9a234.5 234.5 0 0 1 34-9.4c36-7.6 46.9-10.5 49.8-11.6 7.1-2.5 15.5-6.6 15.5-12.1v-17.8zm-162 0v205.4a42.1 42.1 0 0 1-12.4 30.6 41.5 41.5 0 0 1-30.6 12.6h-128v-41.3h127.7a3.4 3.4 0 0 0 1.6-.2 4.4 4.4 0 0 0 .2-1.6v-43.8h-97.4a42.8 42.8 0 0 1-43.2-43.3V462.5a41.5 41.5 0 0 1 12.6-30.6 42.2 42.2 0 0 1 30.7-12.4h95.9a42.9 42.9 0 0 1 42.9 43zM715.7 581a2.9 2.9 0 0 0 0-.3V462.5a3.4 3.4 0 0 0-.2-1.6 4.3 4.3 0 0 0-1.6-.2h-95.7a3.4 3.4 0 0 0-1.6.2 4.9 4.9 0 0 0-.2 1.6v118.2a3.7 3.7 0 0 0 .2 1.6 4.6 4.6 0 0 0 1.6.2h95.7a3.4 3.4 0 0 0 1.6-.2 6.5 6.5 0 0 0 .2-1.3z" fill="#1a171b"/><path d="M678.1 2.5L661.3 0c-4.3 9.1-9.4 18-13.7 27.1l18.3 2.5c3.7-9 8.4-18 12.2-27.1z" fill="#9f66a2"/><path d="M820.1 37.8l-3.2-27.1-17-.2 1.6 27.3h18.6z" fill="#152863"/><path d="M505.7 15.2l-18.1-6.1-28 29.7 19.7 6.5z" fill="#008191"/><path d="M634.6 36.8l-18.8-3.4-15.5 31.7 20.5 3.5z" fill="#00afbe"/><path d="M657.8 74.1l20.6 2.7 9.3-31.9-19-2.6z" fill="#2a2b83"/><path d="M740.8 48.5l-19.1-1.1-5.1 32.3 20.7 1z" fill="#744691"/><path d="M794.5 50.3l-19.2-.4-.6 32 20.8.2z" fill="#2d2150"/><path d="M911.8 78.9L902 48.3l-19.2 1.1 8.2 30.9z" fill="#744691"/><path d="M969.9 73.6l-14.2-29.8-19.1 1.8 12.6 30.1z" fill="#ce5897"/><path d="M383.7 27.5l-20-7.9-34.7 28 21.5 8.3z" fill="#008191"/><path d="M468.7 57.3l-20.4-6.6-28 29.7 22 7z" fill="#00b0bb"/><path d="M585.7 76.2l-21-3.9-17.7 31.5 22.6 4.1z" fill="#003e69"/><path d="M610.6 114.4l22.8 3.2 11.5-31.9-21.2-3.1z" fill="#5a2581"/><path d="M741.6 129l23 .5c.4-10.7.9-21.4 1.3-32.1l-21.4-.6q-1.4 16.1-2.9 32.2z" fill="#80cbde"/><path d="M806 129.5l23-.4-3.2-31.6-21.4.2c.6 10.6 1.1 21.2 1.6 31.8z" fill="#ce5897"/><path d="M893.4 124.2L885.8 94l-21.4 1 6 30.4z" fill="#520a28"/><path d="M966.8 118l22.9-2.6-14.2-29.9-21.3 2.3z" fill="#a23e8b"/><path d="M1085.4 93.4l-20.7-30.3-21.2 3.8 19.2 30.7z" fill="#9e0d16"/><path d="M1180.4 72l-27.1-28.2-21 5.1 25.6 28.7z" fill="#722f0f"/><path d="M368.6 78.6l-22.3-8-32.5 28.6 23.9 8.4z" fill="#95d3f0"/><path d="M731 141.6l-23.6-.9-5.1 32.3 25.2.8z" fill="#00afbe"/><path d="M737.6 174l25.2.3c.5-10.7.9-21.4 1.3-32.1l-23.6-.4q-1.4 16.1-2.9 32.2z" fill="#5a7ca0"/><path d="M808.2 174l25.2-.6-3.2-31.6-23.7.5q.9 15.8 1.7 31.7z" fill="#80cbde"/><path d="M896.4 138.7l-23.6 1.3 6 30.2 25.2-1.6z" fill="#e3273f"/><path d="M914.1 167.9l25.2-2-9.8-29.6-23.6 1.8z" fill="#ce5897"/><path d="M962.5 133.2l-23.6 2.2 10.4 29.5 25.1-2.5z" fill="#901240"/><path d="M1044.6 149.2l-16.3-29.7-23.5 3.3 14.8 30.1z" fill="#e1a200"/><path d="M1089.5 140.6l24.9-4.8-20.7-30.3-23.4 4.4z" fill="#f4db00"/><path d="M1149.1 128.4l-22.8-29.6-23.3 4.9 21.3 30.1z" fill="#c6d000"/><path d="M1286.8 91.4l-31.2-26.5-22.9 6.9 29.7 27.1z" fill="#deda00"/><path d="M1354.7 68.6l-35.3-24.7-22.7 7.8 33.9 25.3z" fill="#dcdd4f"/><path d="M798.5 186.6l-25.9.2-.6 32.3 27.5-.4q-.5-16-1-32.1z" fill="#2d2150"/><path d="M810.5 218.6l27.5-.9-3.2-32-25.9.7q.8 16 1.6 32.2z" fill="#63325a"/><path d="M979.3 175.5l-25.7 2.7 10.4 30 27.3-3z" fill="#e54383"/><path d="M1029.4 200.7l-14.2-29.6-25.7 3.2 12.6 29.9z" fill="#81314c"/><path d="M1061.4 159.9l17 31.1 27.1-4.9-18.5-30.7z" fill="#e43534"/><path d="M1097.1 152.9l19.2 30.7 27-5.5-20.7-30.3z" fill="#990d16"/><path d="M1191.9 167.3l26.8-6.6-24.9-28.9-25.3 6.1z" fill="#e1a200"/><path d="M759.3 266.7l1.3-33.9-28.1-.2-2.8 34.1h29.7z" fill="#5a2581"/><path d="M883.9 262.2l-5.4-33.2-28.1 1.6 3.9 33.4z" fill="#ce5897"/><path d="M937.2 257.9l29.6-3-9.8-32.5-28 2.7z" fill="#a90f42"/><path d="M1049.3 244.2l-14.2-31.3-27.9 3.8 12.7 31.7z" fill="#744691"/><path d="M1090.5 236.6l-16.4-31.3-27.8 4.5 14.8 31.7z" fill="#a90f42"/><path d="M1124 196l19.2 30.8 29.2-6.1-20.7-30.3z" fill="#e54140"/><path d="M1277.9 159l27.7 27.9 28.7-8.5-29.2-27.4z" fill="#fcdc00"/><path d="M1493 122.5l-37.4-23.7L1429 109l35.9 24.4z" fill="#96bd0d"/><path d="M859.7 310.7l31.8-2.1-5.4-33.2-30.3 1.9q1.9 16.7 3.9 33.4z" fill="#2d2150"/><path d="M940.5 270.4l8.3 33.2 31.8-3.4-9.9-32.9z" fill="#e2005f"/><path d="M1012.9 262.1l-30.1 3.8 10.5 32.8 31.7-4.1z" fill="#e54380"/><path d="M1180.6 232.7l-29.8 6.3 19.2 30.7 31.3-6.7z" fill="#4a2b17"/><path d="M1213.8 260.2l31.2-7.4-22.8-29.6-29.7 6.9z" fill="#9fc556"/><path d="M1418 202.8l-31.2-26.5-29.2 9.4 29.8 27.1z" fill="#4ea829"/><path d="M1029.8 307.6l-32.3 4.2 10.5 32.8q17-2.1 33.9-4.5z" fill="#a90f42"/><path d="M1087.8 298.8l14.9 31.8 33.7-5.9-16.4-31.5z" fill="#e54383"/><path d="M1164.9 284.7l-32.1 6.2 17 31.3q16.8-3.2 33.6-6.6z" fill="#e43534"/><path d="M1277 294.3l-22.8-29.6-31.9 7.5 21.3 30.1q16.8-3.9 33.4-8z" fill="#e53d46"/><path d="M1342.8 240.9l-31.5 8.9 25.5 28.7q16.6-4.6 33.1-9.5z" fill="#d76316"/><path d="M1159.3 368.8l-16.4-31.5c-11.4 2.1-22.9 4.2-34.4 6.1l14.8 31.9z" fill="#e4356a"/><path d="M1190.8 327.9l-34.2 6.8 17 31.3 35.8-7.2z" fill="#721554"/><path d="M1223.6 355.8l35.6-8-20.7-30.3-34.1 7.5z" fill="#fcdc00"/><path d="M1299.7 302.7l23.4 29.4 35.3-9.5-25-28.9q-16.7 4.6-33.7 9z" fill="#f4db00"/><path d="M1602.1 241.4l-35.3-24.7-32.9 12.5 33.9 25.4q17.2-6.5 34.3-13.2z" fill="#c6d000"/><path d="M1063.4 398.6q-18.3 2.7-36.7 5.1l10.5 32.8 38.2-5.4z" fill="#e3273f"/><path d="M1128.9 422.5l-14.2-32q-18.3 3.1-36.6 5.9l12.7 32.4q19.1-3 38.1-6.3z" fill="#95991d"/><path d="M1165.8 381.4l-36.5 6.7 14.8 31.8q19-3.4 38-7z" fill="#721554"/><path d="M1267.5 359.9c-12 2.8-24.2 5.5-36.2 8.2l19.2 30.7q18.9-4.2 37.8-8.6z" fill="#c6d000"/><path d="M1340.9 377.2l-22.8-29.6q-18 4.6-36.1 8.9l21.3 30.1z" fill="#e96854"/><path d="M1418.5 319.7q-17.8 5.4-35.8 10.4l25.6 28.7c12.4-3.5 24.9-7.2 37.3-11z" fill="#9fc556"/><path d="M1512.4 326.7l36.9-12.6-31.3-26.5q-17.6 6.1-35.4 11.9z" fill="#418930"/><path d="M1600.6 295.6l-33.3-25.6q-17.5 6.5-35.2 12.7l31.8 26.3q18.4-6.6 36.7-13.4z" fill="#9fc556"/><path d="M1148.8 467.4l-14.2-32q-19.4 3.3-38.8 6.4l12.7 32.3q20.2-3.3 40.3-6.7z" fill="#ca175d"/><path d="M1261.3 445.4l-18.5-30.9-38.6 8 17 31.3q20.1-4.1 40.1-8.4z" fill="#a90f42"/><path d="M1333.1 428.8q19.9-4.9 39.7-10.1l-22.8-29.6q-19.1 4.9-38.2 9.6z" fill="#deda00"/><path d="M1403.4 374.7q-19 5.3-38 10.4l23.4 29.4q19.8-5.3 39.6-10.9z" fill="#e1a200"/><path d="M1471.6 354.5l27.7 27.9q19.7-6.2 39.2-12.6l-29.2-27.4q-18.8 6.3-37.7 12.1z" fill="#fcdc00"/><path d="M1613.9 305.8q-18.6 6.9-37.2 13.6l31.8 26.3q19.4-7 38.7-14.3z" fill="#cad200"/><path d="M1097.1 489.6q-20.5 3.2-41.1 6l10.5 32.8q21.3-3 42.6-6.3z" fill="#a1145f"/><path d="M1287.3 488.7l-18.6-30.9q-20.3 4.4-40.7 8.5l17 31.3z" fill="#d26a13"/><path d="M1382.1 430.6c-13.4 3.5-26.9 6.9-40.4 10.2l21.3 30.1q21-5.2 41.9-10.7z" fill="#8c2421"/><path d="M1454.4 410.6l25.6 28.7q20.8-6.1 41.5-12.5l-27.1-28.1z" fill="#96bd0d"/><path d="M1131.3 532.3l12.7 32.4q22.4-3.7 44.7-7.7l-14.3-32q-21.5 3.8-43.1 7.3z" fill="#a2102e"/><path d="M1191.6 521.9l14.8 31.9q22.3-4.2 44.6-8.6l-16.4-31.5q-21.4 4.2-43 8.2z" fill="#e53d46"/><path d="M1375.2 517.4l-20.7-30.3q-21.3 5.2-42.7 10l19.2 30.7q22.1-5 44.2-10.4z" fill="#674114"/><path d="M1371.5 483l21.3 30.1q22-5.6 44-11.4L1414 472q-21.2 5.7-42.5 11z" fill="#deda00"/><path d="M1431 467.5l23.4 29.4q21.9-6 43.8-12.3l-25-28.9q-21 6-42.2 11.8z" fill="#e75b94"/><path d="M1740.4 403.2l-33.3-25.6q-20.6 7.9-41.4 15.4l31.8 26.3q21.6-7.9 42.9-16.1z" fill="#c6d000"/><path d="M1085.4 587.5l10.5 32.8q23.5-3.4 47-7.2l-12-32.5q-22.8 3.6-45.5 6.9z" fill="#ce5897"/><path d="M1275.6 554l17 31.3q23.3-4.9 46.6-10.1l-18.6-30.9q-22.4 5-45 9.7z" fill="#e43534"/><path d="M1338.6 540.2l19.2 30.7q23.2-5.4 46.4-11.1l-20.7-30.3q-22.4 5.6-44.9 10.7z" fill="#921553"/><path d="M1597.2 505.6l-27-28.2q-22.1 6.9-44.2 13.5l25.6 28.7q22.8-6.8 45.6-14z" fill="#e1a200"/><path d="M1649.2 451.5l29.7 27.1q22.6-7.8 45.1-16l-31.2-26.5q-21.7 7.9-43.6 15.4z" fill="#68712b"/><path d="M1626.5 510.9l27.7 27.9q23.8-7.7 47.5-15.8l-29.2-27.3q-23 7.8-46 15.2z" fill="#deda00"/><path d="M1690.9 489.4l29.7 27.1q23.6-8.2 47.2-16.8l-31.2-26.5q-22.8 8.3-45.7 16.2z" fill="#5e8521"/><path d="M1963.9 421.2l-37.4-23.7c-14.9 6.5-29.9 12.9-44.8 19.2l35.9 24.4q23.2-9.8 46.3-19.9z" fill="#9fc556"/><path d="M1529.4 591l23.4 29.4c16.8-4.7 33.5-9.5 50.2-14.5l-25-28.9q-24.2 7.3-48.6 14z" fill="#deda00"/><path d="M1962.7 493.2q-24.6 10.3-49.3 20.1l33.9 25.4q25.4-10.2 50.7-20.7z" fill="#f4db00"/></svg>