<svg xmlns="http://www.w3.org/2000/svg" viewBox="0 841.9 137.4 30"><path fill="#B42900" d="M13.1 842.3v3.4H8.6v25.9h-4v-25.9H0v-3.4h13.1zm14.8 0v3.4h-6.7v9.2h6v3.4h-6v9.9h6.7v3.4H17.2v-29.2h10.7zm9.7 0v25.9h6.7v3.4H33.7v-29.2h3.9zm21.4 0v3.4h-6.7v9.2h6v3.4h-6v9.9H59v3.4H48.3v-29.2H59zm6.3 29.2v-29.2H70c3.4 0 7.7.3 7.7 7.8 0 5.9-2.4 8.7-8.5 8.4v12.9h-3.9zm3.9-25.9v9.7c3.4.2 4.3-1.6 4.3-4.8 0-2.6-.8-4.8-3.8-4.8h-.5zm27.7 11.3c0 5.3-.1 15-7.8 15s-7.8-9.7-7.8-15c0-5.3.1-15 7.8-15s7.8 9.7 7.8 15zm-11.3 0c0 6.2.4 11.4 3.6 11.4 3.1 0 3.6-5.2 3.6-11.4s-.4-11.4-3.6-11.4-3.6 5.2-3.6 11.4zm20.3-14.6v25.9h6.7v3.4h-10.7v-29.2h4zm14 29.2h-4v-29.2h4m16 4.5c-1-.7-2-1.2-3.4-1.2-2.2 0-3.5 1.7-3.5 3.8 0 1.3.3 2.2 1.1 3.2l3 3.2c2.7 2.7 4.2 4.6 4.2 8.6 0 4.1-2.6 7.6-7 7.6-1.5 0-3.1-.4-4.3-1.4v-3.9c1.2.9 2.4 1.5 3.9 1.5 2.4 0 3.5-1.9 3.5-4.1 0-5.8-8.3-7-8.3-14.7 0-4.1 2.2-7.5 6.7-7.5 1.5 0 2.9.2 4.2 1l-.1 3.9z"/></svg>