<svg preserveAspectRatio="xMinYMin" xmlns="http://www.w3.org/2000/svg" viewBox="0 0 600 190"><path d="M398.25 125.73H379.5l-9.5 43.72-8.47-43.73h-19.31l-9.3 43.35-8.62-43.35h-19l16.88 62H342l9.15-41.4 9.07 41.4h19.65zm-92.17 34.8v-.83c0-17.25-7.87-35.93-31.12-35.93-24.22 0-31.87 18.52-31.87 34.13 0 20.1 12.45 32.1 31.35 32.1 12.83 0 23.85-6.15 30.9-17.92L291.53 165a16.5 16.5 0 0 1-15.67 11c-8.47 0-14.17-6.45-14.17-14.7v-.67h44.4zM274.8 136.9c7.5 0 12.15 5.33 12.38 12.23h-25.43c.83-5 4.35-12.23 13-12.23m-57.33-39.3h18.15v16.27h-18.15zm0 28.2h18.15v62h-18.15zm-5.25-.07h-18.75l-10.27 42.07-11-42.07h-19.38l20.18 62h19.13zM154 160.53v-.83c0-17.25-7.87-35.93-31.12-35.93C98.63 123.77 91 142.3 91 157.9c0 20.1 12.43 32.1 31.33 32.1 12.83 0 23.85-6.15 30.9-17.92l-13.73-7.2a16.5 16.5 0 0 1-15.67 11c-8.48 0-14.17-6.45-14.17-14.7v-.67zm-31.2-23.62c7.5 0 12.15 5.33 12.38 12.23h-25.46c.75-5 4.35-12.23 13.05-12.23m-50.7 17.33c8.7-3.67 16.43-9.37 16.43-23.17 0-23-19.95-27.23-31.87-27.23H21.15v83.85h19v-29.94h12.8l16 29.92h21.6zm-15.52-12h-16.5v-22.8H56.7c3.52 0 13.05.23 13.05 11.17 0 2.63-1.8 11.63-13.2 11.63M600 22h-19.43l-10.2 44.4L560.18 22h-19.43l18 58.28c1 3 1.28 4.27 1.28 5.93 0 2.1-1.2 4.5-6.68 4.5h-9.6v14.59h15.45c5.47 0 9.15-.67 12.9-4.73 3.22-3.45 4.65-7.2 6.07-11.62zm-82.05 29.1c0 6.3-.6 16.12-11.4 16.12-9.9 0-11.55-7.95-11.55-16.72 0-3.9.6-15.9 11.18-15.9s11.77 8.7 11.77 16.5m1-29v5.7c-3.3-3.22-8.18-6.75-17.18-6.75C486.9 21 476.1 32.78 476.1 51.23c0 24.07 15.53 29.93 25.65 29.93 8.32 0 12.07-2.62 16.28-5.32v8.4c0 7-4.05 9.82-10.8 9.82-9.53 0-11.25-4.8-11.25-8.93h-18.83v.75c0 13.5 11.63 20.25 28.35 20.25 20.18 0 30.75-7.58 30.75-23.7V22zM437.7 20C414.53 20 405 36.82 405 52.5c0 24.45 17.1 33.3 33.3 33.3 20.78 0 33.38-12.82 33.38-32.93 0-14.85-8-32.92-34-32.92m.83 51.23c-10.72 0-15.07-8.18-15.07-18.53 0-13 7.28-18.15 14.18-18.15 10 0 15.6 5.85 15.6 19-.08 9.23-4.58 17.63-14.7 17.63M380.33 0h18.15v83.93h-18.15zM340 20c-23.17 0-32.7 16.87-32.7 32.55 0 24.45 17.1 33.3 33.3 33.3 20.78 0 33.38-12.82 33.38-32.93C374 38 366 20 340 20m.83 51.23c-10.72 0-15.08-8.18-15.08-18.53 0-13 7.28-18.15 14.17-18.15 10 0 15.6 5.85 15.6 19-.07 9.23-4.57 17.63-14.7 17.63M300.9 83.93V39.3c0-12.6-6.67-19-19.28-19-8.7 0-14.47 3.45-17.47 7v-5.55h-18.52v62h18.3V49.2c0-8.32 1.2-14.25 9.6-14.25 7.35 0 9 4.88 9 10.72v38.25zm-65.18 0V41.47c0-13.2-6.9-21.3-19.72-21.3-3.6 0-11 .83-17.7 8.33V0H180v83.93h18.3v-32.7c0-9.75 2.25-15.45 9.9-15.45 9 0 9.38 8.18 9.38 14.63v33.52zM175.8 69.3L162 62.18c-1.27 3.9-4.87 9.3-12 9.3-10.12 0-13.8-10.8-13.8-18.68 0-7.5 3.45-18.68 13.2-18.68 7.13 0 10.42 5.25 12.15 8.7l13.58-7.72c-8.7-13.8-20.92-15-26.48-15-14 0-31.12 8.47-31.12 33.3 0 23.32 16.27 32.55 30.75 32.55 9.45 0 20.47-4.43 27.52-16.65m-62.47-12.6v-.82c0-17.25-7.87-35.93-31.13-35.93-24.2 0-31.87 18.52-31.87 34.12 0 20.1 12.45 32.1 31.35 32.1 12.82 0 23.85-6.15 30.9-17.93l-13.8-7.12a16.5 16.5 0 0 1-15.68 11C74.7 72.15 69 65.7 69 57.38v-.68zM82.05 33.07c7.5 0 12.15 5.32 12.38 12.22H69c.82-5 4.43-12.22 13.05-12.22M58.73 16.5L62.48 0H0v16.5h21.15v67.35h19V16.5z" fill="#ce001e"/></svg>