<?xml version="1.0" encoding="utf-8"?>
<!-- Generator: Adobe Illustrator 19.1.0, SVG Export Plug-In . SVG Version: 6.00 Build 0)  -->
<svg version="1.1" id="Layer_1" xmlns="http://www.w3.org/2000/svg" xmlns:xlink="http://www.w3.org/1999/xlink" x="0px" y="0px"
	 viewBox="129.3 455.8 93.4 309.8" style="enable-background:new 129.3 455.8 93.4 309.8;" xml:space="preserve">
<style type="text/css">
	.st0{fill:url(#XMLID_72_);}
	.st1{opacity:0.6;fill:#FFFFFF;}
	.st2{fill:#71A5CB;}
	.st3{fill:#FCFCFC;}
	.st4{fill:#F7F7F7;}
	.st5{opacity:0.5;}
	.st6{fill:#F2F2F2;}
	.st7{fill:#E2E2E2;}
	.st8{fill:#E1ECF4;}
	.st9{fill:#FFFFFF;}
	.st10{fill:#C4C4C4;}
	.st11{fill:#64A05E;}
	.st12{opacity:0.75;}
	.st13{fill:#99D4FF;}
	.st14{opacity:0.5;fill:#E2E2E2;}
	.st15{opacity:0.5;fill:#4C8DBD;}
	.st16{fill:#F9B885;}
	.st17{opacity:0.5;fill:#F9B885;}
	.st18{opacity:0.3;fill:#2C5777;}
	.st19{fill:#4C8DBD;}
	.st20{opacity:0.1;fill:#FFFFFF;}
	.st21{fill:none;stroke:#96BDD9;stroke-miterlimit:10;}
	.st22{fill:#F7F8F8;}
	.st23{opacity:0.5;fill:#B9BDC1;}
	.st24{fill:#E6F4FF;}
	.st25{opacity:0.25;fill:#96BDD9;}
	.st26{opacity:0.5;clip-path:url(#SVGID_2_);fill:#FDE3CE;}
	.st27{fill:#FCB8BC;}
	.st28{opacity:0.5;clip-path:url(#SVGID_4_);fill:#F48024;}
	.st29{opacity:0.5;clip-path:url(#SVGID_6_);fill:#F48024;}
	.st30{opacity:0.5;clip-path:url(#SVGID_8_);fill:#FDE3CE;}
	.st31{fill:#666667;}
	.st32{fill:#F48024;}
	.st33{fill:#DA670B;}
	.st34{opacity:0.6;fill:none;stroke:#66BFFF;stroke-width:0.75;stroke-miterlimit:10;}
	.st35{fill:#D4D6D9;}
	.st36{fill:#B9BDC1;}
	.st37{clip-path:url(#SVGID_10_);}
	.st38{clip-path:url(#SVGID_12_);fill:#CCEAFF;}
	.st39{clip-path:url(#SVGID_14_);}
	.st40{clip-path:url(#SVGID_16_);fill:#BCD4E6;}
	.st41{clip-path:url(#SVGID_18_);}
	.st42{clip-path:url(#SVGID_20_);fill:#CCEAFF;}
	.st43{clip-path:url(#SVGID_22_);}
	.st44{clip-path:url(#SVGID_24_);fill:#71A5CB;}
	.st45{clip-path:url(#SVGID_26_);}
	.st46{clip-path:url(#SVGID_28_);enable-background:new    ;}
	.st47{clip-path:url(#SVGID_30_);}
	.st48{clip-path:url(#SVGID_32_);}
	.st49{clip-path:url(#SVGID_34_);fill:#487EA8;}
	.st50{clip-path:url(#SVGID_36_);}
	.st51{clip-path:url(#SVGID_38_);fill:#66BFFF;}
	.st52{clip-path:url(#SVGID_40_);}
	.st53{clip-path:url(#SVGID_42_);fill:#487EA8;}
	.st54{clip-path:url(#SVGID_44_);}
	.st55{clip-path:url(#SVGID_46_);fill:#66BFFF;}
	.st56{clip-path:url(#SVGID_48_);}
	.st57{clip-path:url(#SVGID_50_);fill:#487EA8;}
	.st58{clip-path:url(#SVGID_52_);}
	.st59{clip-path:url(#SVGID_54_);fill:#66BFFF;}
	.st60{clip-path:url(#SVGID_56_);}
	.st61{clip-path:url(#SVGID_58_);fill:#487EA8;}
	.st62{clip-path:url(#SVGID_60_);}
	.st63{clip-path:url(#SVGID_62_);fill:#66BFFF;}
	.st64{clip-path:url(#SVGID_64_);}
	.st65{clip-path:url(#SVGID_66_);fill:#487EA8;}
	.st66{clip-path:url(#SVGID_68_);}
	.st67{clip-path:url(#SVGID_70_);fill:#66BFFF;}
	.st68{clip-path:url(#SVGID_72_);}
	.st69{clip-path:url(#SVGID_74_);fill:#BCD4E6;}
	.st70{clip-path:url(#SVGID_76_);}
	.st71{clip-path:url(#SVGID_78_);fill:#BCD4E6;}
	.st72{clip-path:url(#SVGID_80_);}
	.st73{clip-path:url(#SVGID_82_);fill:#BCD4E6;}
	.st74{clip-path:url(#SVGID_84_);}
	.st75{clip-path:url(#SVGID_86_);fill:#BCD4E6;}
	.st76{clip-path:url(#SVGID_88_);}
	.st77{clip-path:url(#SVGID_90_);fill:#BCD4E6;}
	.st78{clip-path:url(#SVGID_92_);}
	.st79{clip-path:url(#SVGID_94_);fill:#F48024;}
	.st80{clip-path:url(#SVGID_98_);}
	.st81{clip-path:url(#SVGID_100_);fill:#F48024;}
	.st82{clip-path:url(#SVGID_102_);}
	.st83{clip-path:url(#SVGID_104_);fill:#FFD943;}
	.st84{clip-path:url(#SVGID_106_);}
	.st85{clip-path:url(#SVGID_108_);fill:#FFD943;}
	.st86{clip-path:url(#SVGID_110_);}
	.st87{clip-path:url(#SVGID_112_);fill:#FFD943;}
	.st88{opacity:0.5;fill-rule:evenodd;clip-rule:evenodd;fill:#71A5CB;}
	.st89{fill-rule:evenodd;clip-rule:evenodd;fill:#BCD4E6;}
	.st90{opacity:0.1;fill:#6A7177;}
	.st91{fill:#33AAFF;}
	.st92{fill:#39739D;}
	.st93{clip-path:url(#SVGID_114_);}
	.st94{fill:#FFCA22;}
	.st95{fill:#FBA925;}
	.st96{fill:#FFAA22;}
	.st97{fill:#FFD54E;}
	.st98{opacity:0.8;}
	.st99{fill:#96BDD9;}
	.st100{fill:#50804B;}
	.st101{clip-path:url(#SVGID_116_);}
	.st102{clip-path:url(#SVGID_118_);}
	.st103{fill:#FBD4B6;}
	.st104{fill:#EFF0F1;}
	.st105{fill:#2C5777;}
	.st106{clip-path:url(#SVGID_120_);fill:#71A5CB;}
	.st107{clip-path:url(#SVGID_120_);fill:#BCD4E6;}
	.st108{opacity:0.25;fill:#6A7177;}
	.st109{opacity:0.25;fill:#F48024;}
	.st110{fill:#FFCF10;}
	.st111{fill:#66BFFF;}
	.st112{fill:#F69C55;}
	.st113{opacity:0.75;fill:#B9BDC1;}
	.st114{fill:#BCD4E6;}
	.st115{opacity:0.41;clip-path:url(#SVGID_122_);}
	.st116{opacity:0.41;}
	.st117{opacity:0.5;clip-path:url(#XMLID_73_);}
	.st118{fill:none;stroke:#39739D;stroke-width:0.75;stroke-miterlimit:10;}
	.st119{opacity:0.25;fill:#848A91;}
	.st120{opacity:0.25;clip-path:url(#SVGID_124_);fill:#848A91;}
	.st121{clip-path:url(#SVGID_126_);fill:#F69C55;}
	.st122{clip-path:url(#SVGID_128_);}
	.st123{enable-background:new    ;}
	.st124{clip-path:url(#SVGID_130_);}
	.st125{clip-path:url(#SVGID_132_);}
	.st126{clip-path:url(#SVGID_134_);fill:#4C8DBD;}
	.st127{opacity:0.15;clip-path:url(#SVGID_134_);fill:#1E3C52;}
	.st128{clip-path:url(#SVGID_136_);}
	.st129{clip-path:url(#SVGID_138_);}
	.st130{clip-path:url(#SVGID_140_);fill:#4C8DBD;}
	.st131{opacity:0.15;clip-path:url(#SVGID_140_);fill:#1E3C52;}
	.st132{clip-path:url(#SVGID_142_);}
	.st133{clip-path:url(#SVGID_144_);}
	.st134{clip-path:url(#SVGID_146_);fill:#CCEAFF;}
	.st135{clip-path:url(#SVGID_148_);}
	.st136{clip-path:url(#SVGID_150_);fill:#ECF8FE;}
	.st137{clip-path:url(#SVGID_152_);}
	.st138{clip-path:url(#SVGID_154_);fill:#2C5777;}
	.st139{clip-path:url(#SVGID_156_);}
	.st140{clip-path:url(#SVGID_158_);fill:#2C5777;}
	.st141{clip-path:url(#SVGID_160_);}
	.st142{clip-path:url(#SVGID_162_);fill:#BCD4E6;}
	.st143{clip-path:url(#SVGID_164_);}
	.st144{clip-path:url(#SVGID_166_);fill:#71A5CB;}
	.st145{clip-path:url(#SVGID_168_);}
	.st146{clip-path:url(#SVGID_170_);fill:#96BDD9;}
	.st147{clip-path:url(#SVGID_172_);}
	.st148{clip-path:url(#SVGID_174_);fill:#96BDD9;}
	.st149{clip-path:url(#SVGID_176_);}
	.st150{clip-path:url(#SVGID_178_);fill:#96BDD9;}
	.st151{clip-path:url(#SVGID_180_);}
	.st152{clip-path:url(#SVGID_182_);fill:#33AAFF;}
	.st153{clip-path:url(#SVGID_184_);}
	.st154{clip-path:url(#SVGID_186_);fill:#66BFFF;}
	.st155{clip-path:url(#SVGID_188_);}
	.st156{clip-path:url(#SVGID_190_);fill:#99D4FF;}
	.st157{clip-path:url(#SVGID_192_);}
	.st158{clip-path:url(#SVGID_194_);fill:#66BFFF;}
	.st159{clip-path:url(#SVGID_196_);}
	.st160{clip-path:url(#SVGID_198_);fill:#96BDD9;}
	.st161{clip-path:url(#SVGID_200_);}
	.st162{clip-path:url(#SVGID_202_);fill:#96BDD9;}
	.st163{opacity:0.5;fill:#1E3C52;}
	.st164{clip-path:url(#SVGID_204_);}
	.st165{clip-path:url(#SVGID_206_);}
	.st166{clip-path:url(#SVGID_208_);fill:#F69C55;}
	.st167{clip-path:url(#SVGID_210_);}
	.st168{clip-path:url(#SVGID_212_);}
	.st169{clip-path:url(#SVGID_214_);fill:#F48024;}
	.st170{clip-path:url(#SVGID_216_);}
	.st171{clip-path:url(#SVGID_218_);}
	.st172{clip-path:url(#SVGID_220_);fill:#ECF8FE;}
	.st173{clip-path:url(#SVGID_222_);}
	.st174{clip-path:url(#SVGID_224_);}
	.st175{clip-path:url(#SVGID_226_);fill:#F9F9F9;}
	.st176{clip-path:url(#SVGID_228_);}
	.st177{clip-path:url(#SVGID_230_);}
	.st178{clip-path:url(#SVGID_232_);fill:#FAB879;}
	.st179{clip-path:url(#SVGID_234_);}
	.st180{clip-path:url(#SVGID_236_);}
	.st181{clip-path:url(#SVGID_238_);fill:#FDCB88;}
	.st182{opacity:0.15;fill-rule:evenodd;clip-rule:evenodd;fill:#6A7177;}
	.st183{clip-path:url(#SVGID_240_);}
	.st184{clip-path:url(#SVGID_242_);}
	.st185{clip-path:url(#SVGID_244_);}
	.st186{clip-path:url(#SVGID_246_);fill:#4C8DBD;}
	.st187{opacity:0.15;clip-path:url(#SVGID_246_);fill:#1E3C52;}
	.st188{clip-path:url(#SVGID_248_);}
	.st189{clip-path:url(#SVGID_250_);}
	.st190{clip-path:url(#SVGID_252_);fill:#4C8DBD;}
	.st191{opacity:0.15;clip-path:url(#SVGID_252_);fill:#1E3C52;}
	.st192{clip-path:url(#SVGID_254_);}
	.st193{clip-path:url(#SVGID_256_);}
	.st194{clip-path:url(#SVGID_258_);fill:#CCEAFF;}
	.st195{clip-path:url(#SVGID_260_);}
	.st196{clip-path:url(#SVGID_262_);fill:#ECF8FE;}
	.st197{clip-path:url(#SVGID_264_);}
	.st198{clip-path:url(#SVGID_266_);fill:#2C5777;}
	.st199{clip-path:url(#SVGID_268_);}
	.st200{clip-path:url(#SVGID_270_);fill:#2C5777;}
	.st201{clip-path:url(#SVGID_272_);}
	.st202{clip-path:url(#SVGID_274_);fill:#BCD4E6;}
	.st203{clip-path:url(#SVGID_276_);}
	.st204{clip-path:url(#SVGID_278_);fill:#71A5CB;}
	.st205{clip-path:url(#SVGID_280_);}
	.st206{clip-path:url(#SVGID_282_);fill:#96BDD9;}
	.st207{clip-path:url(#SVGID_284_);}
	.st208{clip-path:url(#SVGID_286_);fill:#96BDD9;}
	.st209{clip-path:url(#SVGID_288_);}
	.st210{clip-path:url(#SVGID_290_);fill:#96BDD9;}
	.st211{clip-path:url(#SVGID_292_);}
	.st212{clip-path:url(#SVGID_294_);fill:#33AAFF;}
	.st213{clip-path:url(#SVGID_296_);}
	.st214{clip-path:url(#SVGID_298_);fill:#66BFFF;}
	.st215{clip-path:url(#SVGID_300_);}
	.st216{clip-path:url(#SVGID_302_);fill:#99D4FF;}
	.st217{clip-path:url(#SVGID_304_);}
	.st218{clip-path:url(#SVGID_306_);fill:#66BFFF;}
	.st219{clip-path:url(#SVGID_308_);}
	.st220{clip-path:url(#SVGID_310_);fill:#96BDD9;}
	.st221{clip-path:url(#SVGID_312_);}
	.st222{clip-path:url(#SVGID_314_);fill:#96BDD9;}
	.st223{clip-path:url(#XMLID_74_);}
	.st224{fill:#CCEAFF;}
	.st225{fill:#F4F8FB;}
	.st226{opacity:0.3;fill:#0095FF;}
	.st227{opacity:0.5;fill:#EBEBEB;}
	.st228{fill:#FFC5A5;}
	.st229{fill:#848A91;}
	.st230{fill:#52575C;}
	.st231{fill:#65BB5C;}
	.st232{opacity:0.2;fill:#848A91;}
	.st233{fill:#FFD943;}
	.st234{fill-rule:evenodd;clip-rule:evenodd;fill:#005999;}
	.st235{opacity:0.85;}
	.st236{fill-rule:evenodd;clip-rule:evenodd;fill:url(#SVGID_315_);}
	.st237{fill-rule:evenodd;clip-rule:evenodd;fill:#003B66;}
	.st238{opacity:0.5;fill-rule:evenodd;clip-rule:evenodd;fill:url(#SVGID_316_);}
	.st239{fill:#005999;}
	.st240{clip-path:url(#SVGID_318_);}
	.st241{clip-path:url(#SVGID_320_);}
	.st242{clip-path:url(#SVGID_322_);}
	.st243{clip-path:url(#SVGID_324_);}
	.st244{clip-path:url(#SVGID_326_);}
	.st245{clip-path:url(#SVGID_328_);}
	.st246{opacity:0.5;fill-rule:evenodd;clip-rule:evenodd;fill:url(#SVGID_329_);}
	.st247{fill:#578BD1;}
	.st248{fill:none;stroke:#EAC87D;stroke-miterlimit:10;}
	.st249{fill:#F47920;}
	.st250{fill-rule:evenodd;clip-rule:evenodd;fill:none;stroke:#CCEAFF;stroke-miterlimit:10;}
	.st251{clip-path:url(#SVGID_333_);}
	.st252{clip-path:url(#SVGID_334_);}
	.st253{clip-path:url(#SVGID_335_);}
	.st254{clip-path:url(#SVGID_337_);}
	.st255{clip-path:url(#SVGID_339_);}
	.st256{clip-path:url(#SVGID_341_);}
	.st257{fill:#FFE476;}
	.st258{clip-path:url(#SVGID_343_);}
	.st259{clip-path:url(#SVGID_345_);}
	.st260{clip-path:url(#SVGID_347_);}
	.st261{clip-path:url(#SVGID_349_);}
	.st262{fill:#FFEEA9;}
	.st263{fill:#437DCC;}
	.st264{clip-path:url(#SVGID_351_);}
	.st265{clip-path:url(#SVGID_353_);}
	.st266{fill:none;stroke:#F48024;stroke-miterlimit:10;}
	.st267{fill:#51AAF1;}
	.st268{fill:#3165A4;}
	.st269{fill:#EAC87D;}
	.st270{fill-rule:evenodd;clip-rule:evenodd;fill:#F47920;}
	.st271{fill-rule:evenodd;clip-rule:evenodd;fill:#51AAF1;}
	.st272{fill-rule:evenodd;clip-rule:evenodd;fill:#F4F8FB;}
</style>
<g>
	<g>
		<defs>
			<path id="SVGID_330_" d="M87.8,485.5H70.5v-1h16.3v-8.2c0-4.4-3.5-7.9-7.9-7.9v-1c4.9,0,8.9,4,8.9,8.9V485.5z"/>
		</defs>
		<defs>
			<rect id="SVGID_331_" x="70" y="476.3" width="1" height="8.7"/>
		</defs>
		<defs>
			<path id="SVGID_332_" d="M71,476.3h-1c0-4.9,4-8.9,8.9-8.9v1C74.6,468.4,71,472,71,476.3z"/>
		</defs>
		<use xlink:href="#SVGID_330_"  style="overflow:visible;fill:#CCEAFF;"/>
		<use xlink:href="#SVGID_331_"  style="overflow:visible;fill:#CCEAFF;"/>
		<use xlink:href="#SVGID_332_"  style="overflow:visible;fill:#CCEAFF;"/>
		<clipPath id="SVGID_2_">
			<use xlink:href="#SVGID_330_"  style="overflow:visible;"/>
		</clipPath>
		<clipPath id="SVGID_4_" style="clip-path:url(#SVGID_2_);">
			<use xlink:href="#SVGID_331_"  style="overflow:visible;"/>
		</clipPath>
		<clipPath id="SVGID_6_" style="clip-path:url(#SVGID_4_);">
			<use xlink:href="#SVGID_332_"  style="overflow:visible;"/>
		</clipPath>
		<g style="clip-path:url(#SVGID_6_);">
			<defs>
				<path id="SVGID_336_" d="M814,1334.6H-80.6V190.8H814V1334.6z M-79.6,1333.6H813V191.8H-79.6V1333.6z"/>
			</defs>
			<use xlink:href="#SVGID_336_"  style="overflow:visible;fill:#CCEAFF;"/>
			<clipPath id="SVGID_8_">
				<use xlink:href="#SVGID_336_"  style="overflow:visible;"/>
			</clipPath>
		</g>
	</g>
</g>
<g>
	<g>
		<g>
			<circle class="st225" cx="176" cy="614.2" r="43.7"/>
		</g>
	</g>
	<g>
		<path class="st267" d="M194.8,589.1c0.4,2,0.3,4.1,0,6.2c2-0.4,4.1-0.3,6.2,0c-0.1-1-0.3-2-0.3-3.1c0-1,0.1-2.1,0.3-3.1
			c-1,0.1-2,0.3-3.1,0.3C196.8,589.4,195.8,589.3,194.8,589.1z"/>
	</g>
	<g>
		<path class="st225" d="M192.4,603.2c15.1,0,27.3,12.2,27.3,27.3c0,6.5-2.3,12.5-6.1,17.2l2.9,5.7l-6.9-1.7
			c-4.7,3.8-10.7,6.1-17.2,6.1c-15.1,0-27.3-12.2-27.3-27.3C165.1,615.5,177.3,603.2,192.4,603.2z"/>
		<path class="st13" d="M192.4,658.4c-15.4,0-27.9-12.5-27.9-27.9s12.5-27.9,27.9-27.9s27.9,12.5,27.9,27.9c0,6.3-2.1,12.4-6,17.3
			l3.2,6.5l-7.7-1.9C204.8,656.3,198.6,658.4,192.4,658.4z M192.4,603.8c-14.8,0-26.8,12-26.8,26.8c0,14.8,12,26.8,26.8,26.8
			c6.1,0,12.1-2.1,16.8-6l0.2-0.2l6,1.5l-2.5-5l0.2-0.3c3.9-4.8,6-10.8,6-16.9C219.1,615.8,207.1,603.8,192.4,603.8z"/>
	</g>
	<g>
		<g>
			<path class="st267" d="M192.1,638.1c-0.3,0-0.5-0.2-0.5-0.5v-14.4c0-0.3,0.2-0.5,0.5-0.5s0.5,0.2,0.5,0.5v14.4
				C192.7,637.9,192.5,638.1,192.1,638.1z"/>
		</g>
		<g>
			<path class="st267" d="M199.5,630.9h-14.5c-0.3,0-0.5-0.2-0.5-0.5c0-0.3,0.2-0.5,0.5-0.5h14.5c0.3,0,0.5,0.2,0.5,0.5
				C200,630.7,199.8,630.9,199.5,630.9z"/>
		</g>
		<g>
			<line class="st268" x1="197.3" y1="625.2" x2="187.1" y2="635.5"/>
			<path class="st267" d="M187.1,636c-0.1,0-0.3-0.1-0.4-0.2c-0.2-0.2-0.2-0.6,0-0.8l10.2-10.3c0.2-0.2,0.6-0.2,0.8,0
				c0.2,0.2,0.2,0.6,0,0.8l-10.2,10.3C187.4,636,187.3,636,187.1,636z"/>
		</g>
		<g>
			<line class="st268" x1="197.3" y1="635.5" x2="187.1" y2="625.2"/>
			<path class="st267" d="M197.3,636c-0.1,0-0.3-0.1-0.4-0.2l-10.2-10.3c-0.2-0.2-0.2-0.6,0-0.8c0.2-0.2,0.6-0.2,0.8,0l10.2,10.3
				c0.2,0.2,0.2,0.6,0,0.8C197.6,636,197.4,636,197.3,636z"/>
		</g>
	</g>
	<g>
		<path class="st225" d="M159.6,570.5c-15.1,0-27.3,12.2-27.3,27.3c0,6.5,2.3,12.5,6.1,17.2l-2.9,5.7l6.9-1.7
			c4.7,3.8,10.7,6.1,17.2,6.1c15.1,0,27.3-12.2,27.3-27.3C186.9,582.7,174.7,570.5,159.6,570.5z"/>
		<path class="st267" d="M159.6,625.6c-6.3,0-12.4-2.1-17.3-6l-7.7,1.9l3.2-6.5c-3.9-4.9-6-11-6-17.3c0-15.4,12.5-27.9,27.9-27.9
			s27.9,12.5,27.9,27.9S175,625.6,159.6,625.6z M142.6,618.4l0.2,0.2c4.7,3.8,10.7,6,16.8,6c14.8,0,26.8-12,26.8-26.8
			s-12-26.8-26.8-26.8c-14.8,0-26.8,12-26.8,26.8c0,6.1,2.1,12.1,6,16.9l0.2,0.3l-2.5,5L142.6,618.4z"/>
	</g>
	<g>
		<g>
			<path class="st249" d="M151.1,602.3c-0.1,0-0.2,0-0.3-0.1l-6.1-5l6.1-5c0.2-0.2,0.6-0.2,0.8,0.1c0.2,0.2,0.2,0.6-0.1,0.8
				l-5.1,4.2l5.1,4.2c0.2,0.2,0.3,0.5,0.1,0.8C151.4,602.2,151.3,602.3,151.1,602.3z"/>
		</g>
		<g>
			<path class="st249" d="M168.4,602.3c-0.2,0-0.3-0.1-0.4-0.2c-0.2-0.2-0.2-0.6,0.1-0.8l5.1-4.2L168,593c-0.2-0.2-0.3-0.5-0.1-0.8
				c0.2-0.2,0.5-0.3,0.8-0.1l6.1,5l-6.1,5C168.6,602.2,168.5,602.3,168.4,602.3z"/>
		</g>
		<g>
			<path class="st267" d="M156.5,606.5c-0.1,0-0.1,0-0.2,0c-0.3-0.1-0.4-0.4-0.3-0.7l6.8-17.7c0.1-0.3,0.4-0.4,0.7-0.3
				c0.3,0.1,0.4,0.4,0.3,0.7l-6.8,17.7C156.9,606.4,156.7,606.5,156.5,606.5z"/>
		</g>
	</g>
	<g>
		<g>
			<rect x="153.9" y="631.4" class="st267" width="1.1" height="1.7"/>
		</g>
		<g>
			<rect x="153.9" y="638.3" class="st267" width="1.1" height="1.7"/>
		</g>
		<g>
			<rect x="157" y="635.1" class="st267" width="1.7" height="1.1"/>
		</g>
		<g>
			<rect x="150.1" y="635.1" class="st267" width="1.7" height="1.1"/>
		</g>
		<g>
			
				<rect x="156.4" y="632.4" transform="matrix(0.7071 0.7071 -0.7071 0.7071 493.7135 74.501)" class="st267" width="1.1" height="1.7"/>
		</g>
		<g>
			
				<rect x="151.5" y="637.3" transform="matrix(0.7071 0.7071 -0.7071 0.7071 495.7498 79.417)" class="st267" width="1.1" height="1.7"/>
		</g>
		<g>
			
				<rect x="156.1" y="637.6" transform="matrix(0.7074 0.7068 -0.7068 0.7074 496.9401 75.7899)" class="st267" width="1.7" height="1.1"/>
		</g>
		<g>
			
				<rect x="151.2" y="632.7" transform="matrix(0.7074 0.7068 -0.7068 0.7074 492.0272 77.8261)" class="st267" width="1.7" height="1.1"/>
		</g>
	</g>
</g>
<g>
	<g>
		<g>
			<g>
				<circle class="st225" cx="175.4" cy="506.6" r="43.7"/>
			</g>
		</g>
		<g>
			<defs>
				<circle id="SVGID_354_" cx="175.4" cy="506.6" r="43.7"/>
			</defs>
			<clipPath id="SVGID_10_">
				<use xlink:href="#SVGID_354_"  style="overflow:visible;"/>
			</clipPath>
		</g>
		<g>
			<g>
				<path class="st269" d="M205.4,551.1l-1.1-0.2c0.5-2.7-1.1-5.9-2.7-7.7c-1.9-2-4.9-3.3-7.6-3.3c-3.3,0-6.3,1.5-8.3,4.2l-0.4,0.6
					l-0.4-0.6c-0.9-1.3-2.4-2-3.9-2c-1.6,0-3,0.7-4,2l-0.4,0.6l-0.4-0.5c-0.9-1.1-1.2-2.3-1.4-3.5l0-0.2l3.5-25.5l-0.9-0.2
					l-11.9,20.9l-1.3,1.2l-0.1-1.2c-0.2-2.5-2.4-4.5-4.9-4.5c-1.6,0-3.1,0.8-4,2.1l-1.2,1.7l0.2-2.1c0-0.4,0.1-0.8,0.1-1.1
					c0-5.7-4.7-10.4-10.4-10.4c-3.3,0-6.4,1.6-8.4,4.2l-0.9-0.6c2.2-2.9,5.6-4.7,9.2-4.7c6.2,0,11.3,5,11.5,11.2
					c1.1-0.9,2.4-1.4,3.8-1.4c2.7,0,5,1.8,5.7,4.2l11.9-20.9l2.6,0.7l-3.6,26.4c0.2,0.9,0.4,1.7,0.8,2.4c1.1-1.2,2.7-1.9,4.4-1.9
					c1.7,0,3.2,0.7,4.4,1.9c2.2-2.6,5.3-4.1,8.8-4.1c3.1,0,6.4,1.5,8.4,3.7C204.3,544.5,205.9,548,205.4,551.1z"/>
			</g>
		</g>
		<g>
			<g id="_Path_10_4_">
				<g>
					<g>
						<path class="st267" d="M182,515.6l-7.8-2.7c-2.8,0.1-5.2,1.8-6.1,4.5l7.9,2.8l7.8,2.7C184.8,520.2,184,517.4,182,515.6z"/>
					</g>
				</g>
			</g>
			<g>
				<g id="_Path_8_2_">
					<g>
						<g>
							<path class="st225" d="M193.5,508c-0.9-4.9-1.1-7.7,1-13.6c2-5.9,12.7-30.7,3.6-37.5c-12.2-0.5-18.5,25.5-20.6,31.5
								c-2,5.9-4,7.8-7.8,11.2c-3.8,3.4-7.7,5.7-7.7,5.7l-1.5,4l17.1,6l17,6l1.5-4C195.9,517.3,194.4,513,193.5,508z"/>
						</g>
					</g>
					<g>
						<g>
							<path class="st267" d="M194.9,522.1l-35-12.4l1.7-4.7l0.2-0.1c0,0,3.9-2.3,7.6-5.6c3.7-3.3,5.6-5.2,7.6-11
								c0.3-0.8,0.6-1.8,1-3.1c2.9-9.4,9-28.7,19.8-28.7c0.1,0,0.2,0,0.4,0l0.2,0l0.1,0.1c8.5,6.3,0.8,26.8-2.5,35.6
								c-0.4,1-0.7,1.9-0.9,2.5c-2,5.8-1.8,8.3-0.9,13.3c0.8,4.5,2.2,8.5,2.4,9.1l0.2,0.2L194.9,522.1z M161.3,509l33,11.6l1.2-3.3
								c-0.5-1.3-1.8-5.3-2.5-9.3l0,0c-0.9-5-1.1-7.9,1-13.8c0.2-0.6,0.5-1.5,0.9-2.5c3.2-8.5,10.6-28.3,3-34.2c0,0-0.1,0-0.1,0
								c-10.1,0-16.2,19.6-18.8,28c-0.4,1.3-0.7,2.4-1,3.2c-2.1,6-4.1,8.1-7.9,11.5c-3.3,3-6.8,5.2-7.6,5.7L161.3,509z"/>
						</g>
					</g>
				</g>
				<g>
					<g>
						<g>
							<line class="st268" x1="180.4" y1="507.5" x2="184.9" y2="494.5"/>
						</g>
					</g>
					<g>
						<g>
							<path class="st13" d="M180.4,508.1c-0.1,0-0.1,0-0.2,0c-0.3-0.1-0.4-0.4-0.3-0.7l4.6-13c0.1-0.3,0.4-0.4,0.7-0.3
								c0.3,0.1,0.4,0.4,0.3,0.7l-4.6,13C180.8,507.9,180.6,508.1,180.4,508.1z"/>
						</g>
					</g>
				</g>
				<g id="_Path_13_4_">
					<g>
						<g>
							<circle class="st13" cx="191.3" cy="475.6" r="3.8"/>
						</g>
					</g>
				</g>
				<g id="_Path_9_3_">
					<g>
						<g>
							<line class="st268" x1="162" y1="505.4" x2="196" y2="517.3"/>
						</g>
					</g>
					<g>
						<g>
							
								<rect x="161" y="510.8" transform="matrix(0.9435 0.3313 -0.3313 0.9435 179.5248 -30.431)" class="st267" width="36" height="1.1"/>
						</g>
					</g>
				</g>
			</g>
			<g>
				<g>
					<g>
						<g>
							<circle class="st267" cx="183.5" cy="483.7" r="0.5"/>
						</g>
					</g>
				</g>
				<g>
					<g>
						<g>
							<circle class="st267" cx="186.6" cy="484.8" r="0.5"/>
						</g>
					</g>
				</g>
				<g>
					<g>
						<g>
							<circle class="st267" cx="189.7" cy="485.8" r="0.5"/>
						</g>
					</g>
				</g>
				<g>
					<g>
						<g>
							<circle class="st267" cx="192.8" cy="486.9" r="0.5"/>
						</g>
					</g>
				</g>
			</g>
		</g>
		<g>
			<g>
				<path class="st249" d="M175.4,519.9l-11,28.9c1.3,0.3,2.7,0.6,4,0.8l8-29.4L175.4,519.9z"/>
			</g>
		</g>
	</g>
	<g>
		<g>
			<g>
				<rect x="154.1" y="480.4" class="st13" width="1.1" height="1.7"/>
			</g>
		</g>
		<g>
			<g>
				<rect x="154.1" y="487.3" class="st13" width="1.1" height="1.7"/>
			</g>
		</g>
		<g>
			<g>
				<rect x="157.1" y="484.2" class="st13" width="1.7" height="1.1"/>
			</g>
		</g>
		<g>
			<g>
				<rect x="150.2" y="484.2" class="st13" width="1.7" height="1.1"/>
			</g>
		</g>
		<g>
			<g>
				
					<rect x="156.5" y="481.4" transform="matrix(0.7071 0.7071 -0.7071 0.7071 387.0067 30.184)" class="st13" width="1.1" height="1.7"/>
			</g>
		</g>
		<g>
			<g>
				
					<rect x="151.6" y="486.3" transform="matrix(0.7071 0.7071 -0.7071 0.7071 389.043 35.1)" class="st13" width="1.1" height="1.7"/>
			</g>
		</g>
		<g>
			<g>
				
					<rect x="156.2" y="486.6" transform="matrix(0.7068 0.7074 -0.7074 0.7068 390.685 31.7275)" class="st13" width="1.7" height="1.1"/>
			</g>
		</g>
		<g>
			<g>
				
					<rect x="151.3" y="481.7" transform="matrix(0.7068 0.7074 -0.7074 0.7068 385.766 33.7638)" class="st13" width="1.7" height="1.1"/>
			</g>
		</g>
	</g>
	<g>
		<g>
			<path class="st13" d="M210.2,503.6c-0.6-0.2-1.3-0.6-1.9-1.2c-0.6-0.6-1-1.3-1.2-1.9c-0.2,0.6-0.6,1.3-1.2,1.9s-1.3,1-1.9,1.2
				c0.6,0.2,1.3,0.6,1.9,1.2c0.6,0.6,1,1.3,1.2,1.9c0.2-0.6,0.6-1.3,1.2-1.8C208.9,504.2,209.6,503.8,210.2,503.6z"/>
		</g>
	</g>
</g>
<g>
	<g>
		<g>
			<circle class="st225" cx="175.4" cy="718.4" r="43.7"/>
		</g>
	</g>
	<g>
		<path class="st267" d="M144.8,716.9c-3.9,0-7.1-3.2-7.1-7.1s3.2-7.1,7.1-7.1s7.1,3.2,7.1,7.1S148.7,716.9,144.8,716.9z
			 M144.8,703.8c-3.3,0-6,2.7-6,6c0,3.3,2.7,6,6,6c3.3,0,6-2.7,6-6C150.8,706.5,148.1,703.8,144.8,703.8z"/>
	</g>
	<g>
		<path class="st267" d="M177.5,710.4h-26.1c-0.3,0-0.5-0.2-0.5-0.5c0-0.3,0.2-0.5,0.5-0.5h26.1c0.3,0,0.5,0.2,0.5,0.5
			C178.1,710.1,177.8,710.4,177.5,710.4z"/>
	</g>
	<g>
		<path class="st267" d="M184,749.6h-32.7c-0.3,0-0.5-0.2-0.5-0.5c0-0.3,0.2-0.5,0.5-0.5H184c0.3,0,0.5,0.2,0.5,0.5
			C184.6,749.3,184.3,749.6,184,749.6z"/>
	</g>
	<g>
		<path class="st267" d="M144.8,743c-0.3,0-0.5-0.2-0.5-0.5v-26.1c0-0.3,0.2-0.5,0.5-0.5s0.5,0.2,0.5,0.5v26.1
			C145.4,742.8,145.1,743,144.8,743z"/>
	</g>
	<g>
		<path class="st267" d="M184,748.5c-0.3,0-0.5-0.2-0.5-0.5v-31.6c0-0.3,0.2-0.5,0.5-0.5c0.3,0,0.5,0.2,0.5,0.5v31.6
			C184.6,748.2,184.3,748.5,184,748.5z"/>
	</g>
	<g>
		<path class="st267" d="M198.4,689.5h-32.8c-0.3,0-0.5-0.2-0.5-0.5c0-0.3,0.2-0.5,0.5-0.5h32.8c0.3,0,0.5,0.2,0.5,0.5
			C199,689.2,198.7,689.5,198.4,689.5z"/>
	</g>
	<g>
		<path class="st267" d="M205,735.2c-3.9,0-7.1-3.2-7.1-7.1c0-3.9,3.2-7.1,7.1-7.1s7.1,3.2,7.1,7.1C212,732,208.9,735.2,205,735.2z
			 M205,722.1c-3.3,0-6,2.7-6,6c0,3.3,2.7,6,6,6c3.3,0,6-2.7,6-6C210.9,724.8,208.3,722.1,205,722.1z"/>
	</g>
	<g>
		<g>
			<path class="st267" d="M173.4,728.7h-1.1c-0.3,0-0.5-0.2-0.5-0.5c0-0.3,0.2-0.5,0.5-0.5h1.1c0.3,0,0.5,0.2,0.5,0.5
				C173.9,728.4,173.7,728.7,173.4,728.7z"/>
		</g>
		<g>
			<path class="st267" d="M194.2,728.7h-2.1c-0.3,0-0.5-0.2-0.5-0.5c0-0.3,0.2-0.5,0.5-0.5h2.1c0.3,0,0.5,0.2,0.5,0.5
				C194.8,728.4,194.5,728.7,194.2,728.7z M189,728.7h-2.1c-0.3,0-0.5-0.2-0.5-0.5c0-0.3,0.2-0.5,0.5-0.5h2.1c0.3,0,0.5,0.2,0.5,0.5
				C189.5,728.4,189.3,728.7,189,728.7z M183.8,728.7h-2.1c-0.3,0-0.5-0.2-0.5-0.5c0-0.3,0.2-0.5,0.5-0.5h2.1c0.3,0,0.5,0.2,0.5,0.5
				C184.3,728.4,184.1,728.7,183.8,728.7z M178.6,728.7h-2.1c-0.3,0-0.5-0.2-0.5-0.5c0-0.3,0.2-0.5,0.5-0.5h2.1
				c0.3,0,0.5,0.2,0.5,0.5C179.1,728.4,178.9,728.7,178.6,728.7z"/>
		</g>
		<g>
			<path class="st267" d="M198.4,728.7h-1.1c-0.3,0-0.5-0.2-0.5-0.5c0-0.3,0.2-0.5,0.5-0.5h1.1c0.3,0,0.5,0.2,0.5,0.5
				C199,728.4,198.7,728.7,198.4,728.7z"/>
		</g>
	</g>
	<g>
		<g>
			<path class="st267" d="M165.7,697.1c-0.3,0-0.5-0.2-0.5-0.5v-1.1c0-0.3,0.2-0.5,0.5-0.5c0.3,0,0.5,0.2,0.5,0.5v1.1
				C166.3,696.8,166,697.1,165.7,697.1z"/>
		</g>
		<g>
			<path class="st267" d="M165.7,717.9c-0.3,0-0.5-0.2-0.5-0.5v-2.1c0-0.3,0.2-0.5,0.5-0.5c0.3,0,0.5,0.2,0.5,0.5v2.1
				C166.3,717.7,166,717.9,165.7,717.9z M165.7,712.7c-0.3,0-0.5-0.2-0.5-0.5v-2.1c0-0.3,0.2-0.5,0.5-0.5c0.3,0,0.5,0.2,0.5,0.5v2.1
				C166.3,712.5,166,712.7,165.7,712.7z M165.7,707.5c-0.3,0-0.5-0.2-0.5-0.5v-2.1c0-0.3,0.2-0.5,0.5-0.5c0.3,0,0.5,0.2,0.5,0.5v2.1
				C166.3,707.3,166,707.5,165.7,707.5z M165.7,702.3c-0.3,0-0.5-0.2-0.5-0.5v-2.1c0-0.3,0.2-0.5,0.5-0.5c0.3,0,0.5,0.2,0.5,0.5v2.1
				C166.3,702.1,166,702.3,165.7,702.3z"/>
		</g>
		<g>
			<path class="st267" d="M165.7,722.1c-0.3,0-0.5-0.2-0.5-0.5v-1.1c0-0.3,0.2-0.5,0.5-0.5c0.3,0,0.5,0.2,0.5,0.5v1.1
				C166.3,721.9,166,722.1,165.7,722.1z"/>
		</g>
	</g>
	<g>
		<path class="st267" d="M205,722.1c-0.3,0-0.5-0.2-0.5-0.5v-26.1c0-0.3,0.2-0.5,0.5-0.5c0.3,0,0.5,0.2,0.5,0.5v26.1
			C205.5,721.9,205.3,722.1,205,722.1z"/>
	</g>
	<g>
		<path class="st267" d="M149.5,705.7c-0.1,0-0.3-0.1-0.4-0.2c-0.2-0.2-0.2-0.6,0-0.8l10.5-10.5c0.2-0.2,0.6-0.2,0.8,0
			s0.2,0.6,0,0.8l-10.5,10.5C149.8,705.6,149.7,705.7,149.5,705.7z"/>
	</g>
	<g>
		<path class="st267" d="M188.8,705.7c-0.1,0-0.3-0.1-0.4-0.2c-0.2-0.2-0.2-0.6,0-0.8l11.5-11.5c0.2-0.2,0.6-0.2,0.8,0
			c0.2,0.2,0.2,0.6,0,0.8l-11.5,11.5C189,705.6,188.9,705.7,188.8,705.7z"/>
	</g>
	<g>
		<g>
			<path class="st267" d="M160.3,734.1c-0.1,0-0.3-0.1-0.4-0.2c-0.2-0.2-0.2-0.6,0-0.8l0.8-0.8c0.2-0.2,0.6-0.2,0.8,0
				c0.2,0.2,0.2,0.6,0,0.8l-0.8,0.8C160.6,734,160.5,734.1,160.3,734.1z"/>
		</g>
		<g>
			<path class="st267" d="M152.7,741.7c-0.1,0-0.3-0.1-0.4-0.2c-0.2-0.2-0.2-0.6,0-0.8l1.5-1.5c0.2-0.2,0.6-0.2,0.8,0s0.2,0.6,0,0.8
				l-1.5,1.5C153,741.7,152.8,741.7,152.7,741.7z M156.5,737.9c-0.1,0-0.3-0.1-0.4-0.2c-0.2-0.2-0.2-0.6,0-0.8l1.5-1.5
				c0.2-0.2,0.6-0.2,0.8,0c0.2,0.2,0.2,0.6,0,0.8l-1.5,1.5C156.8,737.9,156.7,737.9,156.5,737.9z"/>
		</g>
		<g>
			<path class="st267" d="M149.6,744.8c-0.1,0-0.3-0.1-0.4-0.2c-0.2-0.2-0.2-0.6,0-0.8l0.8-0.8c0.2-0.2,0.6-0.2,0.8,0
				c0.2,0.2,0.2,0.6,0,0.8l-0.8,0.8C149.9,744.8,149.8,744.8,149.6,744.8z"/>
		</g>
	</g>
	<g>
		<path class="st267" d="M190.6,744c-0.1,0-0.3-0.1-0.4-0.2c-0.2-0.2-0.2-0.6,0-0.8l10.2-10.2c0.2-0.2,0.6-0.2,0.8,0
			c0.2,0.2,0.2,0.6,0,0.8L191,743.8C190.9,743.9,190.7,744,190.6,744z"/>
	</g>
	<g>
		<circle class="st270" cx="165.7" cy="688.9" r="4.4"/>
	</g>
	<g>
		<circle class="st271" cx="184" cy="709.8" r="6.5"/>
	</g>
	<g>
		<circle class="st270" cx="184" cy="749" r="4.4"/>
	</g>
	<g>
		<circle class="st271" cx="165.7" cy="728.1" r="6.5"/>
	</g>
	<g>
		<circle class="st272" cx="144.8" cy="749" r="6.5"/>
		<path class="st13" d="M144.8,756.1c-3.9,0-7.1-3.2-7.1-7.1s3.2-7.1,7.1-7.1s7.1,3.2,7.1,7.1S148.7,756.1,144.8,756.1z M144.8,743
			c-3.3,0-6,2.7-6,6s2.7,6,6,6c3.3,0,6-2.7,6-6S148.1,743,144.8,743z"/>
	</g>
	<g>
		<circle class="st272" cx="205" cy="688.9" r="6.5"/>
		<path class="st13" d="M205,696c-3.9,0-7.1-3.2-7.1-7.1s3.2-7.1,7.1-7.1s7.1,3.2,7.1,7.1S208.9,696,205,696z M205,682.9
			c-3.3,0-6,2.7-6,6c0,3.3,2.7,6,6,6c3.3,0,6-2.7,6-6C210.9,685.6,208.3,682.9,205,682.9z"/>
	</g>
</g>
</svg>
