<?xml version="1.0" encoding="UTF-8"?>
<svg width="221px" height="175px" viewBox="0 0 221 175" version="1.1" xmlns="http://www.w3.org/2000/svg" xmlns:xlink="http://www.w3.org/1999/xlink">
    <!-- Generator: Sketch 48.1 (47250) - http://www.bohemiancoding.com/sketch -->
    <title>Group 2</title>
    <desc>Created with Sketch.</desc>
    <defs></defs>
    <g id="SMS-scalability-alt1-Copy-2" stroke="none" stroke-width="1" fill="none" fill-rule="evenodd" transform="translate(-289.000000, -1334.000000)">
        <g id="Group-2" transform="translate(279.000000, 1308.000000)">
            <path d="M22.1164533,135.404746 C0.119057429,157.404746 0.119057429,169.404746 22.1164533,171.404746 C55.112547,174.404746 136.112547,165.404746 96.112547,135.404746 C69.4458803,115.404746 44.7805158,115.404746 22.1164533,135.404746 Z" id="Path-9-Copy-2" fill="#E5F0FA" transform="translate(56.292987, 146.177773) rotate(145.000000) translate(-56.292987, -146.177773) "></path>
            <path d="M123.44876,79.681998 C78.024637,97.5365745 58.8336309,73.0111512 60.7830196,121.481269 C62.7324083,169.951386 98.5265032,220.907325 175.522597,191.907325 C252.518691,162.907325 241.694588,53.9534649 178.84516,29.9753623 C115.995732,5.99725974 168.872883,61.8274216 123.44876,79.681998 Z" id="Path-7-Copy-3" fill="#F6FAFD" transform="translate(145.156143, 112.229895) rotate(-67.000000) translate(-145.156143, -112.229895) "></path>
        </g>
    </g>
</svg>