<svg id="svg3168" xmlns="http://www.w3.org/2000/svg" viewBox="-626 239.5 500 108.5"><style>.st0{fill:#344f71;} .st1{fill:#FFFFFF;}</style><g id="layer1"><g id="g3271"><g id="g3087"><g id="g3114"><path id="path3057" class="st0" d="M-501.332 284.138c-.832 0-1.665.833-1.665 1.665v59.13c0 .79.874 1.664 1.665 1.664h28.315c18.363 0 32.48-12.034 32.48-31.23 0-15.323-10.328-31.23-34.145-31.23h-26.65zm17.073 16.656h10c7.58 0 14.368 4.622 14.368 14.574 0 7.953-6.204 14.99-14.365 14.99h-9.993v-29.564z"/><path id="path3059" class="st0" d="M-413.472 300.17c-12.95 0-23.943 10.867-23.943 23.317 0 14.782 11.66 24.36 23.943 24.36 13.366 0 23.942-10.535 23.942-23.735 0-12.575-9.285-23.943-23.942-23.943zm.04 15.53c4.956 0 8.12 3.83 8.12 8.12 0 4.456-3.58 8.037-8.12 8.037-4.163 0-8.118-3.248-8.118-8.245 0-4.205 3.705-7.91 8.12-7.91z"/><path id="path3061" class="st0" d="M-382.66 346.597c-.874 0-1.665-.833-1.665-1.665v-41.64c.042-.833.833-1.666 1.666-1.666h13.33c.836 0 1.67.875 1.67 1.666v3.33s5.413-6.245 15.407-6.245c8.037 0 11.243 3.748 12.91 7.912 2.497-3.75 7.62-7.92 15.822-7.92 10.2 0 14.156 5.746 14.156 14.573v29.98c0 .833-.832 1.666-1.665 1.666h-13.74c-.79 0-1.666-.833-1.666-1.665V319.94c0-2.956-2.29-4.58-4.997-4.58-4.413 0-7.08 3.33-7.08 3.33v26.235c0 .833-.874 1.666-1.665 1.666h-13.74c-.79 0-1.664-.79-1.664-1.664v-24.98c0-2.457-1.333-4.58-4.997-4.58-4.37 0-7.08 3.54-7.08 3.54v26.024c0 .877-.83 1.668-1.664 1.668h-13.324z"/><path id="path3063" class="st0" d="M-201.944 300.17c-12.95 0-23.943 10.867-23.943 23.317 0 14.782 11.66 24.36 23.943 24.36 13.366 0 23.943-10.535 23.943-23.735 0-12.575-9.29-23.943-23.95-23.943zm.042 15.53c4.955 0 8.12 3.83 8.12 8.12 0 4.456-3.58 8.037-8.12 8.037-4.164 0-8.12-3.248-8.12-8.245 0-4.205 3.706-7.91 8.12-7.91z"/><path id="path3065" class="st0" d="M-276.895 346.597c-.874 0-1.665-.833-1.665-1.665v-41.64c.04-.833.832-1.666 1.665-1.666h13.74c.834 0 1.667.875 1.667 1.666v3.123s4.58-6.038 15.406-6.038c11.368 0 15.407 6.704 15.407 15.407v29.148c0 .832-.874 1.665-1.666 1.665h-13.75c-.79 0-1.665-.79-1.665-1.665v-23.32c0-2.663-1.125-6.244-6.663-6.244-4.623 0-7.08 3.33-7.08 3.33v26.234c0 .874-.832 1.665-1.665 1.665h-13.74z"/><path id="path3067" class="st0" d="M-301.046 346.597c-.874 0-1.665-.833-1.665-1.665v-41.64c.04-.833.83-1.666 1.66-1.666h13.74c.83 0 1.663.875 1.663 1.666v41.64c0 .874-.833 1.665-1.666 1.665h-13.74z"/><path id="path3069" class="st0" d="M-284.057 288.677c0 5.246-4.33 9.493-9.62 9.493s-9.617-4.247-9.617-9.493 4.33-9.494 9.618-9.494 9.62 4.247 9.62 9.494z"/><path id="path3071" class="st0" d="M-183.664 288.677c0-4.955 4.08-9.244 9.535-9.244 6 0 9.75 4.83 9.75 9.95 0 8.12-6.29 12.535-11.16 14.825-.663.292-1 .54-2.162-.874-1.456-1.79-.873-1.874.043-2.748.625-.583 1.208-1 1.957-1.833 0 0 .582-.54.582-1.624-3.957-.05-8.537-3.17-8.537-8.46z"/><path id="path3073" class="st0" d="M-168.632 314.66c0-10.327 9.993-14.24 20.32-14.24 10.202 0 15.49 2.997 19.154 5.12 1 .5 1 1.5.54 2.332l-4.662 7.87c-.583 1-1.416 1.125-2.665.292-2.415-1.5-5.705-3.623-11.41-3.623-2.79 0-5.038.71-5.038 2.42 0 4.58 26.275-1.29 26.275 17.45 0 10.578-9.702 15.616-21.986 15.616-12.658 0-20.945-5.83-20.945-5.83-.99-.624-.79-1.5-.04-2.706l4.96-8.287c.627-1.207 1.75-1.124 2.79-.457 0 0 7.37 4.703 14.28 4.703 4.62 0 6.29-1.584 6.29-2.46.04-5.495-27.855.29-27.855-18.195z"/></g></g><g id="g3161"><path id="path3159" class="st0" d="M-553.186 239.624c-.984 0-1.987.34-2.65.985l-32.646 32.64 36.337 36.333 32.267-32.268c1.495-1.496 1.514-4.543 0-6.057l-30.66-30.658c-.66-.665-1.645-.987-2.648-.987z"/><path id="path3145" class="st0" d="M-589.806 274.58l-35.106 35.105c-1.325 1.325-1.325 3.975 0 5.3l30.847 30.847c1.306 1.306 4.353 1.325 5.678 0l1.325-1.324 33.592-33.593-36.336-36.336z"/><path id="path3151" class="st1" d="M-595.88 311.237c0 4.902-3.976 8.857-8.858 8.857-4.902 0-8.857-3.974-8.857-8.857 0-4.9 3.974-8.857 8.857-8.857 4.882 0 8.857 3.956 8.857 8.857z"/><path id="path3153" class="st1" d="M-568.97 313.016c0 4.902-3.974 8.857-8.857 8.857s-8.857-3.974-8.857-8.857 3.975-8.857 8.857-8.857 8.857 3.95 8.857 8.85z"/><path id="path3155" class="st1" d="M-544.045 274.05c0 4.9-3.975 8.856-8.857 8.856-4.902 0-8.857-3.974-8.857-8.857 0-4.91 3.98-8.86 8.86-8.86 4.88-.02 8.86 3.95 8.86 8.85z"/></g></g></g></svg>
