<?xml version="1.0" encoding="UTF-8" standalone="no"?>
<svg width="211px" height="37px" viewBox="0 0 211 37" version="1.1" xmlns="http://www.w3.org/2000/svg" xmlns:xlink="http://www.w3.org/1999/xlink">
    <!-- Generator: Sketch 42 (36781) - http://www.bohemiancoding.com/sketch -->
    <title>Page 1</title>
    <desc>Created with Sketch.</desc>
    <defs>
        <polygon id="path-1" points="27.33634 0.389458333 0.159172965 0.389458333 0.159172965 36.6616034 27.33634 36.6616034 27.33634 0.389458333"></polygon>
    </defs>
    <g id="healthcare_v.2_text" stroke="none" stroke-width="1" fill="none" fill-rule="evenodd">
        <g id="About_Page-Copy-48" transform="translate(-329.000000, -79.000000)">
            <g id="Page-1" transform="translate(329.000000, 79.000000)">
                <g id="Group-3" transform="translate(0.000000, 0.152425)" fill="#46BD69">
                    <path d="M48.9700251,10.2320833 C48.9594221,9.43041667 48.9011055,9.38708333 48.1270854,9.37625 C45.8209296,9.33833333 43.9388945,10.2970833 42.4226633,12.025 C41.9879397,12.52875 41.6645477,13.13 41.2722362,13.6716667 C41.2033166,13.7691667 41.0601759,13.8125 40.9541457,13.8775 C40.9064322,13.7583333 40.8163065,13.63375 40.811005,13.5145833 C40.7951005,12.61 40.8163065,11.7108333 40.789799,10.80625 C40.768593,9.93958333 40.7473869,9.91791667 39.8673367,9.9125 C38.0542211,9.89625 36.246407,9.90166667 34.438593,9.9125 C33.3464824,9.9125 33.3305779,9.92333333 33.3305779,11.0120833 C33.3252764,15.0204167 33.3252764,19.0341667 33.3252764,23.0479167 L33.3252764,34.8129167 C33.3252764,36.28625 33.2298492,36.1725 34.7089698,36.1725 C36.2941206,36.1779167 37.8845729,36.1779167 39.4697236,36.1725 C40.7261809,36.1725 40.8057035,36.3675 40.800402,34.8779167 C40.7951005,32.35375 40.7579899,29.8241667 40.811005,27.3054167 C40.8428141,25.9133333 40.8905276,24.4995833 41.166206,23.1454167 C41.7387688,20.3341667 43.3186181,18.34625 46.1390201,17.59875 C46.8176131,17.42 47.5227136,17.3116667 48.2225126,17.27375 C48.8003769,17.24125 48.9912312,17.01375 48.9859296,16.4504167 C48.9700251,14.3758333 48.9912312,12.3066667 48.9700251,10.2320833 M18.6294975,27.1591667 C16.2173116,31.2270833 11.1331658,31.2216667 8.56723618,27.2458333 C7.74550251,25.9783333 7.45922111,24.7 7.44861809,22.9991667 C7.48572864,20.6916667 8.13251256,18.6658333 9.99864322,17.1816667 C12.8614573,14.9066667 16.901206,15.6758333 18.666608,18.915 C20.1457286,21.6395833 20.2093467,24.48875 18.6294975,27.1591667 M27.085402,34.6666667 C27.0907035,29.2066667 27.085402,23.7466667 27.085402,18.2866667 L27.085402,7.865 C27.085402,5.83375 27.0907035,3.8025 27.085402,1.77125 C27.085402,0.400833333 27.0801005,0.400833333 25.685804,0.395416667 C24.5830905,0.39 23.4803769,0.395416667 22.3723618,0.395416667 C21.6672613,0.395416667 20.9621608,0.400833333 20.2517588,0.395416667 C19.8329397,0.395416667 19.5890704,0.585 19.5731658,1.02916667 C19.5625628,1.39208333 19.5625628,1.74958333 19.5572613,2.1125 C19.5572613,5.135 19.5625628,8.1575 19.5572613,11.18 C19.5572613,11.5429167 19.5625628,11.9058333 19.5307538,12.2633333 C19.5042462,12.5504167 19.3292965,12.65875 19.0907286,12.4691667 C18.7779397,12.22 18.4916583,11.9329167 18.1894724,11.6729167 C16.6573367,10.3458333 14.8654271,9.59291667 12.8985678,9.40333333 C7.75610553,8.905 3.14909548,11.7541667 1.16103015,16.6183333 C-0.153743719,19.84125 -0.238567839,23.1941667 0.34459799,26.5795833 C1.24055276,31.7579167 4.96751256,36.0208333 10.6719347,36.61125 C13.3226884,36.8875 15.7560804,36.2591667 17.8607789,34.5204167 C18.3644221,34.1033333 18.8521608,33.6645833 19.3505025,33.2366667 C19.4194221,33.9245833 19.5042462,34.6070833 19.5572613,35.3004167 C19.6261809,36.14 19.6155779,36.1616667 20.5221357,36.1670833 C22.2027136,36.1833333 23.8832915,36.1779167 25.5585678,36.1725 C27.1808291,36.1670833 27.085402,36.3404167 27.085402,34.6666667" id="Fill-1"></path>
                </g>
                <g id="Group-6" transform="translate(51.954774, 0.152425)">
                    <mask id="mask-2" fill="white">
                        <use xlink:href="#path-1"></use>
                    </mask>
                    <g id="Clip-5"></g>
                    <path d="M17.8713819,28.4266667 C15.3955779,30.9454167 11.3982412,30.9020833 9.0019598,27.5816667 C7.0351005,24.8570833 7.09341709,20.8541667 9.15570352,18.2216667 C11.6421106,15.0529167 16.1748995,14.9716667 18.666608,18.5683333 C19.5890704,19.90625 19.9018593,21.43375 19.9601759,23.1291667 C19.8594472,25.0791667 19.345201,26.9316667 17.8713819,28.4266667 M27.3292714,1.43541667 C27.3133668,0.476666667 27.2656533,0.417083333 26.364397,0.40625 C24.5088693,0.384583333 22.6533417,0.384583333 20.7978141,0.400833333 C19.7852261,0.411666667 19.7640201,0.433333333 19.7587186,1.48416667 C19.7481156,4.55541667 19.7534171,7.62666667 19.7534171,10.6925 C19.7534171,11.1475 19.7640201,11.5970833 19.7375126,12.0466667 C19.7322111,12.2091667 19.6314824,12.3608333 19.5731658,12.5233333 C19.4141206,12.4583333 19.2391709,12.4204167 19.1066332,12.3283333 C18.2848995,11.7216667 17.5320854,10.9904167 16.6467337,10.51375 C11.4247487,7.71875 4.49567839,10.09125 1.8290201,15.6054167 C-0.0265075377,19.4458333 -0.275678392,23.4704167 0.784623116,27.5979167 C1.51623116,30.4470833 2.96354271,32.7816667 5.32801508,34.5258333 C9.24052764,37.42375 15.5387186,37.58625 18.8892714,33.68625 C19.0059045,33.5508333 19.1331407,33.4208333 19.2709799,33.3125 C19.366407,33.23125 19.4936432,33.1825 19.6049749,33.1229167 C19.6526884,33.2420833 19.7375126,33.3558333 19.7428141,33.4695833 C19.7587186,34.1466667 19.7640201,34.82375 19.7587186,35.5008333 C19.7587186,35.945 19.9601759,36.1670833 20.400201,36.1670833 C22.478392,36.1670833 24.5512814,36.1616667 26.6294724,36.1725 C27.1490201,36.1725 27.3398744,35.9125 27.3292714,35.4195833 C27.3239698,35.1054167 27.3292714,34.79125 27.3292714,34.4716667 L27.3292714,4.82083333 C27.3292714,3.68875 27.3451759,2.56208333 27.3292714,1.43541667" id="Fill-4" fill="#C4E9D0" mask="url(#mask-2)"></path>
                </g>
                <path d="M104.773693,23.2220083 C104.768392,26.558675 102.992387,29.174925 100.209095,30.0632583 C96.5457538,31.2278417 92.5855276,28.8228417 91.8009045,24.982425 C91.4457035,23.2490917 91.5888442,21.586175 92.2674372,19.9720083 C93.3012312,17.5290917 95.2097739,16.288675 97.7332915,16.1207583 C100.092462,15.963675 102.048719,16.9115917 103.437714,18.904925 C104.360176,20.221175 104.885025,21.683675 104.773693,23.2220083 M112.121583,22.2632583 C111.883015,18.303675 110.28196,14.9507583 107.122261,12.518675 C103.358191,9.62075833 99.138191,8.85159167 94.594799,9.967425 C91.1541206,10.8178417 88.3814322,12.713675 86.4198744,15.7632583 C84.8400251,18.2170083 84.2674623,20.9145083 84.3204774,23.8557583 C84.3840955,27.3495083 85.6246482,30.2853417 87.9520101,32.7282583 C90.7459045,35.6532583 94.239598,36.958675 98.2369347,36.9857583 C99.1965075,36.8720083 100.166683,36.8178417 101.110352,36.6282583 C108.023518,35.2632583 112.551005,29.418675 112.121583,22.2632583" id="Fill-7" fill="#C5EBD0"></path>
                <path d="M129.353126,36.8913458 C124.292307,36.8425958 120.305573,34.7712625 117.688749,30.2743458 C116.399953,28.0600125 115.927588,25.6133042 115.946674,23.0192625 C115.96841,20.1679292 116.677752,17.5587208 118.297362,15.2728875 C120.886618,11.6193458 124.426965,9.68342917 128.869098,9.51930417 C130.825355,9.4472625 132.740789,9.63359583 134.593136,10.3225958 C136.232362,10.9325125 137.704061,11.8143458 138.936661,13.0899708 C139.761045,13.9436375 139.789674,13.9690958 139.034739,14.8330542 C137.918241,16.1108458 136.747138,17.3388042 135.621628,18.6084708 C135.287633,18.9854708 135.043234,18.8793042 134.736807,18.6019708 C134.275045,18.1843458 133.822827,17.7445125 133.314942,17.3918875 C131.16147,15.8979708 128.877581,15.7181375 126.55499,16.9043875 C125.334053,17.5278458 124.491113,18.5987208 123.965734,19.8813875 C122.869912,22.5572208 122.981774,25.1799708 124.570636,27.6196375 C126.4145,30.4498458 130.202427,31.1962625 133.153777,29.3665125 C133.754968,28.9938458 134.304734,28.5339708 134.877297,28.1130958 C135.587169,27.5909292 135.598832,27.5773875 136.176166,28.1607625 C137.211551,29.2067208 138.238453,30.2629708 139.254221,31.3295125 C139.945008,32.0553458 139.942887,32.1376792 139.235136,32.8499708 C136.605588,35.4960125 133.505797,36.9985958 129.750209,36.8918875 C129.618201,36.8880958 129.485664,36.8913458 129.353126,36.8913458" id="Fill-9" fill="#C5EBD0"></path>
                <path d="M145.603095,24.0197208 C145.603095,21.8990958 145.613168,19.7779292 145.598854,17.6573042 C145.591431,16.5625958 145.564394,16.5550125 144.45956,16.5252208 C142.480507,16.4721375 142.480507,16.4721375 142.481037,14.3796792 C142.481037,13.2064292 142.49323,12.0331792 142.479446,10.8599292 C142.472555,10.2976792 142.684085,10.0214292 143.260359,10.0539292 C143.700914,10.0783042 144.14412,10.0734292 144.584675,10.0528458 C145.466846,10.0127625 145.579238,9.9185125 145.595673,9.02584583 C145.62059,7.6727625 145.603095,6.31859583 145.604155,4.96497083 C145.604155,4.64917917 145.614228,4.33284583 145.604685,4.01759583 C145.588781,3.49597083 145.854916,3.28634583 146.336293,3.29555417 C146.512833,3.29880417 146.689374,3.29230417 146.866444,3.29230417 C148.500369,3.2917625 150.134293,3.28580417 151.768218,3.29447083 C153.028916,3.30097083 153.036338,3.3096375 153.043761,4.54572083 C153.051713,5.98980417 153.036338,7.4338875 153.048002,8.87797083 C153.057014,10.0116792 153.075039,10.0371375 154.142233,10.0528458 C155.46708,10.0723458 156.791926,10.0452625 158.116773,10.0636792 C158.9507,10.0755958 159.040826,10.1498042 159.05514,10.9828875 C159.081647,12.5163458 159.081647,14.0514292 159.05567,15.5848875 C159.041886,16.4331375 158.957592,16.5068042 158.133208,16.5187208 C156.808361,16.5382208 155.482984,16.5138458 154.158137,16.5290125 C153.071328,16.5409292 153.051713,16.5555542 153.048532,17.6746375 C153.039519,20.9685125 153.031037,24.2623875 153.052243,27.5562625 C153.063376,29.3508042 153.847999,30.1524708 155.587954,30.0300542 C156.449979,29.9699292 157.29822,29.6530542 158.143811,29.4201375 C158.763557,29.2495125 158.883371,29.2776792 158.893444,29.8897625 C158.918361,31.4687208 158.890793,33.0482208 158.911999,34.6271792 C158.919421,35.1601792 158.680854,35.4445542 158.230756,35.6558042 C156.431424,36.5008042 154.542497,36.8588458 152.572987,36.7586375 C151.914539,36.7250542 151.24867,36.6557208 150.605597,36.5121792 C147.30965,35.7765958 145.883544,33.5720125 145.637555,30.3815958 C145.630663,30.2916792 145.635434,30.2012208 145.635434,30.1107625 L145.635434,24.0197208 L145.603095,24.0197208 Z" id="Fill-11" fill="#C5EBD0"></path>
                <path d="M195.151938,23.1851208 L195.151938,11.8242042 C195.151938,11.5539125 195.143456,11.2830792 195.153529,11.0127875 C195.187459,10.1065792 195.194881,10.0729958 196.034109,10.0648708 C197.931519,10.0469958 199.828928,10.0464542 201.725808,10.0659542 C202.509901,10.0740792 202.555494,10.1282458 202.57723,10.9120375 C202.602677,11.8128292 202.57617,12.7152458 202.593134,13.6165792 C202.596845,13.8077875 202.693333,13.9968292 202.746878,14.1869542 C202.85927,14.0558708 202.99976,13.9404958 203.079283,13.7915375 C203.999624,12.0647042 205.330303,10.8064125 207.115851,10.0589125 C208.023999,9.6786625 208.958655,9.47770417 209.949506,9.51345417 C210.496622,9.53349583 210.7723,9.7436625 210.77177,10.3107875 C210.77071,12.4292458 210.767529,14.5482458 210.777072,16.6672458 C210.779722,17.1796625 210.556529,17.3627458 210.062959,17.4044542 C209.36316,17.4629542 208.657529,17.5582875 207.977876,17.7332458 C205.096506,18.4753292 203.514536,20.5006208 202.906454,23.3589958 C202.675308,24.4466625 202.616991,25.5874125 202.599496,26.7054125 C202.557084,29.4099542 202.586773,32.1150375 202.584652,34.8201208 C202.583062,36.3925792 202.693863,36.3243292 201.181873,36.3248708 C199.637544,36.3248708 198.093215,36.3281208 196.548886,36.3237875 C195.161481,36.3199958 195.155119,36.3162042 195.153529,34.9517458 C195.149288,31.6156208 195.151938,28.2794958 195.151938,24.9433708 L195.151938,23.1851208" id="Fill-13" fill="#C5EBD0"></path>
                <path d="M180.982864,28.2107583 C178.485854,31.1628417 173.460025,31.287425 170.888794,27.501175 C169.096884,24.8632583 169.043869,21.9815917 170.602513,19.213675 C172.972286,15.0157583 179.164447,15.0807583 181.650854,19.2732583 C182.371859,20.4920083 182.822487,21.797425 182.711156,23.1895083 C182.811884,25.1503417 182.181005,26.7915917 180.982864,28.2107583 M190.080251,22.203675 C189.79397,18.2820083 188.224724,14.9615917 185.139246,12.5565917 C181.703869,9.87534167 177.807261,9.03575833 173.523643,9.75075833 C166.69,10.893675 161.897437,17.133675 162.342764,23.2382583 C162.342764,23.958675 162.337462,24.6845083 162.342764,25.404925 C162.348065,25.583675 162.36397,25.7678417 162.40108,25.941175 C163.297035,30.0415917 165.465352,33.1778417 169.112789,35.1982583 C171.546181,36.5415917 174.154523,37.023675 176.900704,36.8990917 C181.00407,36.714925 184.434146,35.0790917 187.074296,31.8832583 C189.369849,29.1045083 190.340025,25.8220083 190.080251,22.203675" id="Fill-15" fill="#C5EBD0"></path>
            </g>
        </g>
    </g>
</svg>