<?xml version="1.0" encoding="utf-8"?>
<!-- Generator: Adobe Illustrator 19.2.1, SVG Export Plug-In . SVG Version: 6.00 Build 0)  -->
<svg version="1.1" id="Layer_1" xmlns="http://www.w3.org/2000/svg" xmlns:xlink="http://www.w3.org/1999/xlink" x="0px" y="0px"
	 viewBox="0 0 564.6 361.3" style="enable-background:new 0 0 564.6 361.3;" xml:space="preserve">
<style type="text/css">
	.st0{fill:#344f71;}
</style>
<path class="st0" d="M0,285.4c0.3-2,0.6-4,1-6c0.6-2.4,1.3-4.8,2-7.3c0.2-0.7,0.6-0.9,1.3-0.9c2.8,0,5.7,0,8.5,0c0.7,0,1-0.2,1.1-1
	c1-5.5,1.8-11.1,3.2-16.6c1.4-5.8,4.2-11,8.8-15.1c4.1-3.6,8.9-5.5,14.3-6.2c5.1-0.7,10.3-0.5,15.3,0.9c1.4,0.4,2.8,1.1,4.2,1.6
	c1.4,0.6,2.3,1.7,2.8,3.1c1.9,4.9,2,9.9,1.1,15.2c-0.6-0.4-1.1-0.7-1.6-1c-5.6-3.6-11.7-4.6-18.3-3.5c-5.1,0.9-8.5,3.9-9.7,8.8
	c-1.1,4.4-1.8,9-2.6,13.7c0.7,0,1.2,0,1.7,0c5.8,0,11.5,0,17.3,0c0.9,0,1.4,0.2,1.6,1.1c1.2,4.8,0.9,9.6-0.9,14.2
	c-0.3,0.8-0.8,0.8-1.5,0.8c-6.1,0-12.2,0-18.4,0c-1.1,0-1.4,0.3-1.5,1.4c-1,9.4-1.9,18.7-2.9,28.1c-0.9,8.6-1.9,17.1-2.8,25.7
	c-0.6,5.4-1.2,10.8-1.7,16.2c-0.1,0.8-0.4,1.2-1.1,1.4c-1.2,0.3-2.5,0.7-3.7,0.8c-4,0.2-8,0.5-11.9-0.3c-2.5-0.5-2.5-0.6-2.2-3.2
	c1.1-8.9,2.1-17.8,3.2-26.8c1-8.2,2-16.5,3-24.7c0.7-6.1,1.5-12.1,2.2-18.2c0-0.1,0-0.2-0.1-0.2c-0.1,0-0.2-0.1-0.3-0.1
	c-3.8,0-7.6,0-11.4,0.1C0,286.8,0,286.1,0,285.4z"/>
<path class="st0" d="M283.9,0c0.5,0.2,1,0.3,1.4,0.5c4.7,1.5,7.6,6.1,6.9,10.9c-0.7,4.8-4.9,8.5-9.8,8.5c-5,0-9.1-3.5-9.8-8.4
	c-0.8-5,2.2-9.7,7.1-11c0.4-0.1,0.7-0.3,1.1-0.4C281.8,0,282.9,0,283.9,0z"/>
<path class="st0" d="M391.4,122.4c0-3-2-5-5-5c-3,0-5.9,0-8.9,0c-2.7,0-2.1,0.4-2.4-2.2c-0.9-9.3-2.9-18.3-6.1-27
	c-6.2-17-16-31.5-30.4-42.5C319.2,30.7,297,25,272.7,27.4c-8.1,0.8-16,2.5-23.6,5.5c-24.3,9.4-41,26.7-51.3,50.4
	c-4.6,10.5-7.1,21.6-8.1,33c-0.1,1-0.5,1.2-1.3,1.1c-3.3,0-6.6,0-9.8,0c-3.3,0-5.4,2-5.4,5.4c0,2.3,0,4.6,0,7c0,0.5,0.1,1,0.1,1.6
	h218.2C391.4,128.2,391.5,125.3,391.4,122.4z M259.3,46.1c-19,13.2-30.9,31.2-35.8,53.8c-0.7,3.4-1,6.9-1.5,10.3
	c-0.1,0.6-0.1,1.1-0.9,1.1c-5.4,0-10.7,0-16.1,0c-0.1,0-0.1,0-0.4-0.2c1.8-14.3,7-27.4,15.8-39c11.3-15,26-24.9,44.2-29.4
	C262.8,43.8,261,44.9,259.3,46.1z"/>
<path class="st0" d="M320.1,342.1c-2.9,1.9-5.8,2.4-8.8,2.1c-2.1-0.2-3.3-1.1-3.8-3.2c-0.2-0.7-0.3-1.5-0.2-2.2c0.3-4,0.7-8,1.1-12
	c0.7-6.8,1.5-13.6,2.3-20.4c0.8-7.5,1.6-14.9,2.5-22.4c0.8-7.5,1.7-15,2.6-22.5c0.9-8.5,1.9-17,2.8-25.5c0.1-1.2,0.2-2.5,0.4-4
	c-2.3,0.1-4.4,0.2-6.4,0.4c-3.5,0.3-6.9,1-10.1,2.6c-0.8,0.4-1.1,0.9-1.2,1.7c-0.1,1.5-0.3,3.1-0.6,4.6c-1.2,9.3-2.4,18.5-3.6,27.8
	c-0.2,1.6-0.4,3.2-0.7,4.8c-1.3-0.5-2.5-1-3.6-1.3c-5-1.5-10.1-1.7-15.2-1.2c-6.6,0.5-12.8,2.3-18.5,5.7
	c-8.7,5.2-14.3,12.9-17.9,22.1c-2.7,7-4.2,14.2-4.7,21.7c-0.5,7.4-0.3,14.7,1.8,21.9c2.3,7.9,6.7,13.9,14.7,16.8
	c5.3,1.9,10.7,2,16.1,1.1c8.3-1.2,14.7-5.6,18.9-12.9c0.2-0.4,0.8-0.5,1.3-0.9c0.2,1.1,0.2,1.8,0.3,2.5c0.6,6.2,4.2,10.2,10.2,11.4
	c2.1,0.4,4.3,0.3,6.4,0.3c2.7,0,5.3-0.6,7.8-1.6c1.5-0.6,2.6-1.6,3.3-3.1c1.7-3.4,2.5-7.1,2.6-10.9
	C320.1,344.5,320.1,343.5,320.1,342.1z M294.4,293.4c-1,7.3-1.8,14.7-2.7,22c-0.7,5.7-1.4,11.5-2.2,17.2c0,0.3-0.1,0.7-0.3,1
	c-3.6,4.8-7.9,8.6-14,9.8c-1.4,0.3-2.9,0.3-4.4,0.5c-3.8-0.1-7.4-0.8-10.3-3.5c-2.7-2.4-4-5.6-4.5-9c-1.6-10.5-0.4-20.8,4.3-30.5
	c3.7-7.7,10.3-11.8,18.6-13.1c4.2-0.7,8.4-0.7,12.6,0.7C294.9,289.6,294.9,289.7,294.4,293.4z"/>
<path class="st0" d="M275.3,168c0.5,0.1,1,0.2,1.5,0.2c12.7,0,25.4,0,38.2,0c8.5,0,15.4-4.7,18.1-12.3c0.4-1,0.6-2.1,0.8-3.2
	c0.1-0.7,0.4-0.9,1-1c9.9-2,19.8-4.1,29.7-6.1c2.5-0.5,5.1-0.7,7.6,0.1c3,0.9,4.2,3.3,3.1,6.2c-0.9,2.4-2.6,4.2-4.7,5.6
	c-6.4,4.2-12.8,8.4-19.4,12.5c-10.9,6.8-22.1,12.8-34.1,17.3c-6,2.2-12.2,4-18.6,4.7c-6,0.7-11.9,0.4-17.8-0.8
	c-7.1-1.5-14.2-3.3-21.3-5c-3.7-0.9-7.5-1.8-11.4-1.6c-1.8,0.1-3.6,0.5-5.3,0.8c-0.7,0.1-1.1,0.1-1.5-0.5
	c-8.6-11.6-14.4-24.6-17.4-38.7c0-0.2,0-0.5-0.1-0.9c0.5,0,0.9-0.1,1.3-0.1c28.8,0,57.5,0,86.3,0c1.8,0,3.7,0.5,5.3,1.2
	c3.2,1.4,4.3,4.4,3.1,7.7c-1.5,3.9-4.5,5.8-8.5,6.1c-3.6,0.3-7.2,0.2-10.8,0.5c-7.7,0.6-15.3,1.9-22.4,5c-1,0.4-1.9,1.1-2.8,1.7
	C275.2,167.7,275.2,167.8,275.3,168z"/>
<path class="st0" d="M564.5,342.2c-2.8,1.9-5.6,2.3-8.6,2c-2.1-0.2-3.3-1.1-3.8-3.2c-0.2-1.1-0.3-2.3-0.2-3.4
	c0.4-4.1,0.8-8.2,1.3-12.3c0.7-6.9,1.5-13.7,2.2-20.6c0.9-7.9,1.7-15.7,2.6-23.6c0.1-0.9-0.1-1.3-0.8-1.8c-4-3-8.3-5.1-13.2-6.4
	c-6.9-1.8-14-2.1-21-1.2c-7.5,0.9-14.4,3.2-20.6,7.5c-8.8,6.2-14.2,14.8-17.4,24.9c-2,6.2-3,12.7-3.2,19.2
	c-0.3,7.3,0.1,14.5,2.5,21.5c2.5,7.1,6.9,12.5,14.3,15c5.4,1.8,10.9,1.9,16.4,0.8c7.7-1.5,13.6-5.7,17.5-12.6
	c0.3-0.6,0.7-0.9,1.5-0.6c0.1,0.8,0.2,1.6,0.3,2.3c0.7,5.6,3.9,9.6,9.2,10.9c3.1,0.8,6.3,0.7,9.4,0.4c2.4-0.2,4.8-0.9,6.9-2.1
	c0.5-0.3,1.1-0.7,1.3-1.1C564.1,353.1,564.9,348,564.5,342.2z M539.3,290.5c-0.7,5.3-1.4,10.7-2.1,16c-0.8,6-1.5,12-2.3,18.1
	c-0.3,2.7-0.7,5.5-1,8.2c-0.1,0.4-0.2,0.8-0.4,1.1c-3.6,4.8-7.8,8.5-13.9,9.7c-3,0.6-6.1,0.6-9-0.2c-5.2-1.3-8-5-9-10
	c-0.7-3.2-0.9-6.5-1.3-9.7c0.4-7.2,1.3-14.1,4.1-20.8c4.4-10.7,12.6-16.2,24.2-16.3c3.3,0,6.4,0.2,9.5,1.6
	C539.1,288.7,539.5,289.3,539.3,290.5z"/>
<path class="st0" d="M406.8,294.2c-2.2-7.6-6.3-13.9-13.2-18.2c-4.7-2.9-9.9-4.2-15.3-4.6c-9.2-0.6-17.9,1-25.8,6
	c-7.5,4.8-12.3,11.7-15.7,19.8c-2.9,6.8-4.3,13.9-4.8,21.3c-0.5,6.8-0.2,13.6,1.7,20.2c2.9,10.3,9.2,17.5,19.6,20.8
	c6.7,2.1,13.6,2.2,20.5,1.3c13-1.8,22.7-8.4,28.6-20.3c4.7-9.5,6.4-19.7,6.4-32.4C408.9,304.7,408.3,299.4,406.8,294.2z M386.2,332
	c-2.5,6.5-7,11.1-14,12.8c-3.1,0.8-6.3,0.8-9.5,0c-5.3-1.2-8.4-4.7-10.2-9.7c-1.5-4.2-1.8-8.5-1.8-12.9c0.1-7.8,1.1-15.5,4.2-22.8
	c2.7-6.3,7.2-10.9,14.1-12.3c5.5-1.2,10.8-0.6,15.1,3.5c3.1,3,4.4,6.8,5.1,10.9C390.9,312,389.9,322.1,386.2,332z"/>
<path class="st0" d="M221.7,294.3c-2.9-10.1-8.9-17.5-19.1-21c-5.6-2-11.4-2.3-17.3-1.8c-6.6,0.6-12.8,2.5-18.3,6.1
	c-7.4,4.9-12.2,11.9-15.6,19.9c-2.7,6.6-4.2,13.5-4.7,20.7c-0.5,7-0.2,13.9,1.8,20.7c2.9,9.9,8.9,17,18.9,20.4
	c6.9,2.3,14,2.5,21.1,1.5c13.5-1.9,23.3-8.9,29.1-21.3c4.3-9.3,5.9-19.1,6-29.2C223.7,304.8,223.2,299.5,221.7,294.3z M204.8,310.3
	c-0.1,7.6-1,15.1-4,22.1c-2.6,6.3-7,10.7-13.8,12.4c-3.4,0.8-6.8,0.8-10.2-0.1c-4.8-1.4-7.7-4.7-9.4-9.3c-1.6-4.5-2-9.3-1.9-14
	c0.2-6.2,1-12.2,2.8-18.1c1.4-4.6,3.6-8.7,7.3-11.9c4.8-4.1,10.5-5.4,16.6-4.2c5.6,1.1,8.9,5,10.7,10.2
	C204.5,301.5,204.9,305.9,204.8,310.3z"/>
<path class="st0" d="M130.7,292.1c-3.3-9.5-9.5-16.2-19.3-19.2c-9.3-2.8-18.6-2.4-27.7,1.1c-9.5,3.6-16,10.4-20.6,19.3
	c-4.8,9.5-6.7,19.6-6.8,30.1c0,5,0.4,9.9,1.8,14.7c3,10.7,9.4,18.2,20.3,21.4c6,1.8,12,1.9,18.2,1.3c6.8-0.6,13-2.7,18.6-6.6
	c6.8-4.7,11-11.3,13.8-18.8c2.5-6.5,3.8-13.3,4.2-20.3C133.7,307.4,133.4,299.6,130.7,292.1z M114.6,310.4c-0.1,7.9-1.1,15.7-4.4,23
	c-2.9,6.3-7.7,10.5-14.6,11.6c-5.3,0.9-10.3,0.3-14.4-3.6c-2.9-2.7-4.4-6.3-5-10.2c-1.8-11.3-0.7-22.3,4-32.8
	c2.8-6.3,7.6-10.3,14.6-11.5c9.4-1.6,16.2,2.8,18.6,11.9C114.3,302.7,114.7,306.5,114.6,310.4z"/>
<path class="st0" d="M446.7,273.4c0,2.5,0,4.8,0,7.2c-0.1,3.2-0.2,6.3-0.3,9.5c0,0.3,0.3,0.6,0.5,0.9c0.3-0.3,0.7-0.5,0.8-0.8
	c1.1-4.3,2.7-8.4,5.7-11.9c3.4-4,7.8-6.2,13.1-6.8c3-0.4,6-0.3,8.9,0.5c1.6,0.4,2.6,1.3,3,2.9c1.5,5.7,1.4,11.4-0.5,17
	c0,0.1-0.1,0.2-0.2,0.3c-2.4-1.3-4.9-2.2-7.7-2.4c-6.1-0.5-11.3,1.4-15.4,5.9c-4.3,4.7-6.9,10.3-8.4,16.4c-0.9,3.6-0.9,7.4-1.3,11.2
	c-0.6,5.4-1.2,10.9-1.8,16.3c-0.6,5.5-1.2,11-1.8,16.4c-0.1,0.6-0.1,1.2-0.2,1.8c-0.2,2.3-0.3,2.4-2.6,2.8c-1.8,0.3-3.7,0.5-5.6,0.5
	c-2.9,0-5.7-0.1-8.6-0.5c-2.3-0.3-2.4-0.6-2.2-2.9c0.8-6.8,1.7-13.6,2.6-20.4c0.8-6.6,1.6-13.2,2.5-19.8c0.9-6.8,1.7-13.6,2.6-20.4
	c0.8-6.7,1.7-13.3,2.5-20c0.1-0.8,0.4-1.4,1.2-1.7C437.6,273.7,442.1,273.3,446.7,273.4z"/>
<path class="st0" d="M192.9,145.2c4,0,7.9,0,11.9,0c0.8,0,1.1,0.2,1.4,1.1c4.7,18.9,14.3,34.8,28.7,47.9c0.5,0.4,0.9,1.2,0.9,1.7
	c-0.1,0.4-0.9,0.9-1.5,1c-6.3,1.6-12.6,2.2-19.1,2.2c-3.3,0-6-1-8.6-3.2c-14.1-12.1-24-27-29.4-44.8c-1-3.4,0.9-5.9,4.4-5.9
	C185.3,145.2,189.1,145.2,192.9,145.2z"/>
</svg>
