<?xml version="1.0" encoding="utf-8"?>
<!-- Generator: Adobe Illustrator 21.1.0, SVG Export Plug-In . SVG Version: 6.00 Build 0)  -->
<svg version="1.1" id="Layer_1" xmlns="http://www.w3.org/2000/svg" xmlns:xlink="http://www.w3.org/1999/xlink" x="0px" y="0px"
	 viewBox="0 0 53.3 61" style="enable-background:new 0 0 53.3 61;" xml:space="preserve">
<g>
	<rect x="8.5" y="16.2" style="fill:#E5F0FA;" width="44.8" height="44.8"/>
	<path style="fill:none;stroke:#2D9BF3;stroke-width:2;stroke-linecap:round;stroke-linejoin:round;stroke-miterlimit:10;" d="
		M31.8,23c0,0.7-0.2,1.1-0.4,1.3c-0.6,0.9-1.8,1.4-1.8,1.4l0,0c0.5,0.3,1.2,0.6,2.2,0.7c2,0.1,3.5-0.9,3.9-1.2l0,0
		c1.3,0.5,2.7,0.7,4.1,0.7c6.9,0,12.5-5.6,12.5-12.5S46.7,1,39.8,1S27.3,6.6,27.3,13.5C27.3,17.3,29,20.7,31.8,23"/>
	
		<polyline style="fill:none;stroke:#2CE9D3;stroke-width:2;stroke-linecap:round;stroke-linejoin:round;stroke-miterlimit:10;" points="
		1,46 5,38.6 15.7,38.6 19.5,26.5 24.3,26.5 	"/>
	<circle style="fill:#6BD1FF;" cx="34.6" cy="42.3" r="0.9"/>
	<circle style="fill:#6BD1FF;" cx="23.4" cy="42.3" r="0.9"/>
	<circle style="fill:#6BD1FF;" cx="12.2" cy="42.3" r="0.9"/>
	<circle style="fill:#6BD1FF;" cx="34.6" cy="53.5" r="0.9"/>
	<circle style="fill:#6BD1FF;" cx="23.4" cy="53.5" r="0.9"/>
	<circle style="fill:#6BD1FF;" cx="12.2" cy="53.5" r="0.9"/>
	<circle style="fill:#6BD1FF;" cx="34.6" cy="31.1" r="0.9"/>
	<circle style="fill:#6BD1FF;" cx="23.4" cy="31.1" r="0.9"/>
	<circle style="fill:#6BD1FF;" cx="12.2" cy="31.1" r="0.9"/>
	<circle style="fill:#6BD1FF;" cx="34.6" cy="19.9" r="0.9"/>
	<circle style="fill:#6BD1FF;" cx="23.4" cy="19.9" r="0.9"/>
	<circle style="fill:#6BD1FF;" cx="12.2" cy="19.9" r="0.9"/>
	<circle style="fill:#6BD1FF;" cx="34.6" cy="8.7" r="0.9"/>
	<circle style="fill:#6BD1FF;" cx="23.4" cy="8.7" r="0.9"/>
	<circle style="fill:#6BD1FF;" cx="12.2" cy="8.7" r="0.9"/>
	<circle style="fill:#6BD1FF;" cx="1" cy="42.3" r="0.9"/>
	<circle style="fill:#6BD1FF;" cx="1" cy="53.5" r="0.9"/>
	<circle style="fill:#6BD1FF;" cx="1" cy="31.1" r="0.9"/>
	<circle style="fill:#6BD1FF;" cx="1" cy="19.9" r="0.9"/>
	<circle style="fill:#6BD1FF;" cx="1" cy="8.7" r="0.9"/>
	<circle style="fill:#6BD1FF;" cx="45.8" cy="42.3" r="0.9"/>
	<circle style="fill:#6BD1FF;" cx="45.8" cy="53.5" r="0.9"/>
	<circle style="fill:#6BD1FF;" cx="45.8" cy="31.1" r="0.9"/>
	<circle style="fill:#6BD1FF;" cx="45.8" cy="19.9" r="0.9"/>
	<circle style="fill:#6BD1FF;" cx="45.8" cy="8.7" r="0.9"/>
</g>
</svg>
