<?xml version="1.0" encoding="utf-8"?>
<!-- Generator: Adobe Illustrator 19.2.1, SVG Export Plug-In . SVG Version: 6.00 Build 0)  -->
<svg version="1.1" id="Layer_1" xmlns="http://www.w3.org/2000/svg" xmlns:xlink="http://www.w3.org/1999/xlink" x="0px" y="0px"
	 viewBox="0 0 24 24" style="enable-background:new 0 0 24 24;" xml:space="preserve">
<style type="text/css">
	.st0{fill:none;stroke:#48578C;stroke-linecap:round;stroke-linejoin:round;stroke-miterlimit:10;}
	.st1{fill:#FFFFFF;stroke:#48578C;stroke-linecap:round;stroke-linejoin:round;stroke-miterlimit:10;}
	.st2{fill:none;stroke:#24374E;stroke-linecap:round;stroke-linejoin:round;stroke-miterlimit:10;}
	.st3{fill:none;stroke:#2481D7;stroke-linecap:round;stroke-linejoin:round;stroke-miterlimit:10;}
	.st4{fill:#FFFFFF;stroke:#2481D7;stroke-linecap:round;stroke-linejoin:round;stroke-miterlimit:10;}
	.st5{clip-path:url(#SVGID_2_);fill:none;stroke:#2481D7;stroke-linecap:round;stroke-linejoin:round;stroke-miterlimit:10;}
	.st6{clip-path:url(#SVGID_2_);}
	.st7{clip-path:url(#SVGID_2_);fill:none;stroke:#48578C;stroke-linecap:round;stroke-linejoin:round;stroke-miterlimit:10;}
	.st8{fill:#F70059;}
	.st9{fill:#48578C;}
	.st10{fill:#FF1A57;}
	.st11{fill:none;stroke:#4A5669;stroke-linecap:round;stroke-linejoin:round;stroke-miterlimit:10;}
	.st12{fill:#4A5669;}
	.st13{fill:#48578C;stroke:#48578C;stroke-linecap:round;stroke-linejoin:round;stroke-miterlimit:10;}
	.st14{fill:#2481D7;stroke:#2481D7;stroke-linecap:round;stroke-linejoin:round;stroke-miterlimit:10;}
	.st15{fill:none;stroke:#48578C;stroke-width:2;stroke-linecap:round;stroke-linejoin:round;stroke-miterlimit:10;}
	.st16{fill:none;stroke:#2481D7;stroke-width:2;stroke-linecap:round;stroke-linejoin:round;stroke-miterlimit:10;}
	.st17{fill:#48578C;stroke:#48578C;stroke-width:2;stroke-linecap:round;stroke-linejoin:round;stroke-miterlimit:10;}
</style>
<g>
	<path class="st16" d="M17.9,17.1c-1,0.4-2.1,0.7-3.3,0.7c-4.6,0-8.4-3.8-8.4-8.4S10,1,14.6,1S23,4.8,23,9.4c0,1.7-0.5,3.3-1.4,4.6"
		/>
	<polyline class="st16" points="21.6,14 21.6,17.8 18,17.1 	"/>
	<path class="st15" d="M3.2,9C1.8,10.5,1,12.5,1,14.6c0,1.7,0.5,3.3,1.4,4.6"/>
	<path class="st15" d="M6.1,22.3c1,0.4,2.1,0.7,3.3,0.7c2,0,3.8-0.7,5.3-1.9"/>
	<polyline class="st15" points="2.4,19.3 2.4,23 6,22.3 	"/>
</g>
</svg>
