<?xml version="1.0" encoding="utf-8"?>
<!-- Generator: Adobe Illustrator 19.2.1, SVG Export Plug-In . SVG Version: 6.00 Build 0)  -->
<svg version="1.1" id="Layer_1" xmlns:sketch="http://www.bohemiancoding.com/sketch/ns"
	 xmlns="http://www.w3.org/2000/svg" xmlns:xlink="http://www.w3.org/1999/xlink" x="0px" y="0px" viewBox="0 0 174.8 32.2"
	 style="enable-background:new 0 0 174.8 32.2;" xml:space="preserve">
<style type="text/css">
	.st0{fill:#FF5C39;}
</style>
<title>logo_newName_EN_lower</title>
<desc>Created with Sketch.</desc>
<g id="vd-Central" sketch:type="MSPage">
	<g id="The-new-name-for-Wah-_x2B_-Page-1-_x2B_-Page-1" sketch:type="MSLayerGroup">
		<path id="Page-1" sketch:type="MSShapeGroup" class="st0" d="M174.8,0L169,0.7v31.1h5.9V0z M163.7,0l-5.9,0.7v31.1h5.9V0z
			 M97.8,28.6c-2.7,0-4.4-1.8-4.4-4.8V5.5h-0.5L84,13.6v0.5h3.5v11.5c0,4.3,2.7,6.6,6.3,6.6c2.8,0,5-1.4,6.6-3.8v-0.3
			C99.4,28.4,98.6,28.6,97.8,28.6L97.8,28.6z M13.7,28.6c-2.7,0-4.3-1.8-4.3-4.8V5.5H8.9L0,13.6v0.5h3.5v11.5c0,4.3,2.7,6.6,6.3,6.6
			c2.8,0,5-1.4,6.6-3.8v-0.3C15.4,28.4,14.6,28.6,13.7,28.6L13.7,28.6z M74.2,11.6v20.2H80V10.9L74.2,11.6z M26.3,10.9l-5.9,0.7
			v20.2h5.9V10.9z M142.5,22.8c0.8,0.2,1.8,0.4,2.7,0.4c4.5,0,8.3-3,8.3-6.6c0-3.2-3-5.7-7.3-5.7v0.3c1.4,0.7,1.7,2.5,1.7,4.1
			c0,4-2.5,7-5.4,7.3V22.8z M44.2,22.8c0.8,0.2,1.7,0.4,2.7,0.4c4.5,0,8.2-3,8.2-6.6c0-3.2-3-5.7-7.3-5.7v0.3
			c1.4,0.7,1.7,2.5,1.7,4.1c0,4-2.5,7-5.4,7.3V22.8z M145.1,10.9c-6,0-10.5,4.5-10.5,10.8s4.3,10.5,10.2,10.5c4,0,7.2-2,8.8-5.6
			v-0.4c-1.2,1.1-3.3,1.7-5.3,1.7c-4.7,0-7.6-2.9-7.6-7.9c0-3.6,1.6-7.5,4.4-8.8V10.9z M46.7,10.9c-6,0-10.5,4.5-10.5,10.8
			s4.3,10.5,10.2,10.5c4,0,7.3-2,8.8-5.6v-0.4c-1.2,1.1-3.3,1.7-5.3,1.7c-4.6,0-7.6-3-7.6-7.9c0-3.6,1.6-7.5,4.4-8.8V10.9z M59,22.3
			c0,5.7,3.2,9.9,8,9.9c2.8,0,4.9-1.7,6.2-4.3v-0.2c-0.7,0.4-1.6,0.6-2.5,0.6c-3.2,0-5.5-2.8-5.5-7.1c0-5.6,3.4-9.3,7.9-9.3v-0.3
			c-0.9-0.4-2.2-0.6-3.4-0.6C63.5,10.9,59,15.7,59,22.3L59,22.3z M94.8,14.1h5.7v-2.7h-5.7V14.1z M10.8,14.1h5.7v-2.7h-5.7V14.1z
			 M121.2,11.3h-6.3l8.5,20.7h0.4l3.2-6.6L121.2,11.3z M109.8,11.3h-6.3L112,32h0.4l3.2-6.6L109.8,11.3z M127,11.3c1,2,2,5.9,2,7.9
			h0.3l4-7.9H127z M27.2,16.9v0.2c1.3-1.3,3.1-1.7,4.8-1.7c1.1,0,1.8,0.2,2.3,0.4v-4.8c-0.3-0.1-0.8-0.2-1.4-0.2
			C29.7,10.9,27.9,13.1,27.2,16.9L27.2,16.9z"/>
	</g>
</g>
</svg>
